%TF.GenerationSoftware,KiCad,Pcbnew,7.0.8*%
%TF.CreationDate,2024-12-11T22:25:20+01:00*%
%TF.ProjectId,LiPo_BuckBoost_Charger,4c69506f-5f42-4756-936b-426f6f73745f,rev?*%
%TF.SameCoordinates,Original*%
%TF.FileFunction,Copper,L3,Inr*%
%TF.FilePolarity,Positive*%
%FSLAX46Y46*%
G04 Gerber Fmt 4.6, Leading zero omitted, Abs format (unit mm)*
G04 Created by KiCad (PCBNEW 7.0.8) date 2024-12-11 22:25:20*
%MOMM*%
%LPD*%
G01*
G04 APERTURE LIST*
G04 Aperture macros list*
%AMRoundRect*
0 Rectangle with rounded corners*
0 $1 Rounding radius*
0 $2 $3 $4 $5 $6 $7 $8 $9 X,Y pos of 4 corners*
0 Add a 4 corners polygon primitive as box body*
4,1,4,$2,$3,$4,$5,$6,$7,$8,$9,$2,$3,0*
0 Add four circle primitives for the rounded corners*
1,1,$1+$1,$2,$3*
1,1,$1+$1,$4,$5*
1,1,$1+$1,$6,$7*
1,1,$1+$1,$8,$9*
0 Add four rect primitives between the rounded corners*
20,1,$1+$1,$2,$3,$4,$5,0*
20,1,$1+$1,$4,$5,$6,$7,0*
20,1,$1+$1,$6,$7,$8,$9,0*
20,1,$1+$1,$8,$9,$2,$3,0*%
G04 Aperture macros list end*
%TA.AperFunction,ComponentPad*%
%ADD10R,1.700000X1.700000*%
%TD*%
%TA.AperFunction,ComponentPad*%
%ADD11O,1.700000X1.700000*%
%TD*%
%TA.AperFunction,ComponentPad*%
%ADD12O,1.700000X1.100000*%
%TD*%
%TA.AperFunction,ComponentPad*%
%ADD13C,5.600000*%
%TD*%
%TA.AperFunction,ComponentPad*%
%ADD14RoundRect,0.250000X-0.625000X0.350000X-0.625000X-0.350000X0.625000X-0.350000X0.625000X0.350000X0*%
%TD*%
%TA.AperFunction,ComponentPad*%
%ADD15O,1.750000X1.200000*%
%TD*%
%TA.AperFunction,ComponentPad*%
%ADD16RoundRect,0.250000X-0.350000X-0.625000X0.350000X-0.625000X0.350000X0.625000X-0.350000X0.625000X0*%
%TD*%
%TA.AperFunction,ComponentPad*%
%ADD17O,1.200000X1.750000*%
%TD*%
%TA.AperFunction,ViaPad*%
%ADD18C,0.800000*%
%TD*%
G04 APERTURE END LIST*
D10*
%TO.N,+5V*%
%TO.C,J6*%
X122000000Y-33450000D03*
D11*
X122000000Y-35990000D03*
%TD*%
D12*
%TO.N,unconnected-(J1-SHIELD-PadS1)*%
%TO.C,J1*%
X77420000Y-30579340D03*
X73620000Y-30579340D03*
X77420000Y-39219340D03*
X73620000Y-39219340D03*
%TD*%
D13*
%TO.N,N/C*%
%TO.C,H2*%
X75000000Y-52000000D03*
%TD*%
D10*
%TO.N,+BATT*%
%TO.C,J3*%
X98670000Y-24887000D03*
%TD*%
D14*
%TO.N,+5V*%
%TO.C,J5*%
X121600000Y-40250000D03*
D15*
%TO.N,GND*%
X121600000Y-42250000D03*
%TD*%
D10*
%TO.N,-BATT*%
%TO.C,J4*%
X109170000Y-24887000D03*
%TD*%
D16*
%TO.N,+BATT*%
%TO.C,J2*%
X102920000Y-25280000D03*
D17*
%TO.N,-BATT*%
X104920000Y-25280000D03*
%TD*%
D13*
%TO.N,N/C*%
%TO.C,H1*%
X120000000Y-27000000D03*
%TD*%
D10*
%TO.N,GND*%
%TO.C,J7*%
X122000000Y-46500000D03*
D11*
X122000000Y-49040000D03*
%TD*%
D18*
%TO.N,Net-(D1-A)*%
X74520000Y-26180000D03*
X87475000Y-28956000D03*
%TO.N,GND*%
X79550000Y-38890000D03*
X116840000Y-55250000D03*
X112623600Y-26619200D03*
X111760000Y-55250000D03*
X79140000Y-43700000D03*
X112776000Y-24638000D03*
X119710000Y-50822000D03*
X105575000Y-40700000D03*
X116535200Y-24688800D03*
X119380000Y-55250000D03*
X120650000Y-55125000D03*
X80264000Y-41148000D03*
X114046000Y-24638000D03*
X83312000Y-40894000D03*
X73761600Y-37496140D03*
X77770000Y-23750000D03*
X115824000Y-25654000D03*
X72390000Y-37496140D03*
X115062000Y-47117000D03*
X84328000Y-33909000D03*
X85852000Y-36068000D03*
X115316000Y-24638000D03*
X97790000Y-55250000D03*
X112014000Y-25654000D03*
X105870000Y-46750000D03*
X105575000Y-34800000D03*
X85471000Y-33909000D03*
X113284000Y-25654000D03*
X113330000Y-23750000D03*
X123190000Y-52070000D03*
X73761600Y-32416140D03*
X94280000Y-23750000D03*
X91740000Y-23750000D03*
X119980000Y-41921000D03*
X110512500Y-46740000D03*
X109650000Y-47150000D03*
X84328000Y-27940000D03*
X109220000Y-55250000D03*
X106950000Y-47350000D03*
X91440000Y-55250000D03*
X84582000Y-40894000D03*
X119710000Y-49806000D03*
X111400000Y-46300000D03*
X82550000Y-55250000D03*
X114600000Y-23750000D03*
X113334800Y-27533600D03*
X93250000Y-46775000D03*
X117600000Y-34390000D03*
X109650000Y-46300000D03*
X119980000Y-43064000D03*
X80264000Y-39979600D03*
X71750000Y-48260000D03*
X102410000Y-40005000D03*
X71750000Y-49530000D03*
X117600000Y-36930000D03*
X72390000Y-36226140D03*
X122875000Y-53425000D03*
X96275000Y-46750000D03*
X93980000Y-55250000D03*
X100910000Y-40905000D03*
X73761600Y-33686140D03*
X76500000Y-23750000D03*
X90300000Y-46725000D03*
X106050000Y-41700000D03*
X81280000Y-55250000D03*
X114046000Y-46736000D03*
X71750000Y-39380000D03*
X101410000Y-40005000D03*
X71750000Y-41910000D03*
X88392000Y-34036000D03*
X117140000Y-23750000D03*
X112064800Y-27533600D03*
X112060000Y-23750000D03*
X119710000Y-48787000D03*
X101620000Y-45000000D03*
X99060000Y-55250000D03*
X115163600Y-26619200D03*
X73761600Y-34905340D03*
X115570000Y-55250000D03*
X84328000Y-26797000D03*
X72390000Y-33686140D03*
X71750000Y-45720000D03*
X117600000Y-33120000D03*
X95550000Y-23750000D03*
X113360000Y-49390000D03*
X100450000Y-45000000D03*
X71750000Y-46990000D03*
X107950000Y-55250000D03*
X117600000Y-31860000D03*
X78275000Y-46700000D03*
X105575000Y-38750000D03*
X97000000Y-48238000D03*
X96290000Y-45720000D03*
X111404400Y-24638000D03*
X117000000Y-40190000D03*
X75230000Y-23750000D03*
X78740000Y-55250000D03*
X102910000Y-40905000D03*
X111353600Y-26619200D03*
X93010000Y-23750000D03*
X121920000Y-54610000D03*
X84328000Y-30480000D03*
X105575000Y-31700000D03*
X117600000Y-35660000D03*
X113100000Y-47350000D03*
X77470000Y-55250000D03*
X115870000Y-23750000D03*
X114604800Y-27533600D03*
X90170000Y-55250000D03*
X71750000Y-43180000D03*
X83820000Y-55250000D03*
X119710000Y-46755000D03*
X90470000Y-23750000D03*
X105410000Y-55250000D03*
X105575000Y-35750000D03*
X113360000Y-48420000D03*
X84328000Y-32766000D03*
X119710000Y-45739000D03*
X119710000Y-44723000D03*
X71750000Y-40650000D03*
X97000000Y-49254000D03*
X117600000Y-30590000D03*
X105575000Y-37750000D03*
X72386509Y-34923130D03*
X92710000Y-55250000D03*
X114300000Y-55250000D03*
X105575000Y-29650000D03*
X86360000Y-55250000D03*
X71750000Y-44450000D03*
X102870000Y-55250000D03*
X82042000Y-40894000D03*
X80010000Y-55250000D03*
X80264000Y-43688000D03*
X73761600Y-36226140D03*
X110490000Y-55250000D03*
X106324400Y-54102000D03*
X118110000Y-55250000D03*
X114554000Y-25654000D03*
X76200000Y-32111340D03*
X95250000Y-55250000D03*
X81325000Y-46750000D03*
X115874800Y-27533600D03*
X80264000Y-42418000D03*
X84328000Y-36068000D03*
X100330000Y-55250000D03*
X87630000Y-55250000D03*
X77750000Y-45140000D03*
X84328000Y-31623000D03*
X101600000Y-55250000D03*
X113100000Y-46150000D03*
X107000000Y-46200000D03*
X88900000Y-55250000D03*
X86106000Y-42418000D03*
X106680000Y-55250000D03*
X113030000Y-55250000D03*
X72390000Y-32416140D03*
X106350000Y-51160000D03*
X114173000Y-47752000D03*
X96520000Y-55250000D03*
X105575000Y-32700000D03*
X111400000Y-47150000D03*
X101910000Y-40905000D03*
X113893600Y-26619200D03*
X84300000Y-46775000D03*
X85090000Y-55250000D03*
X108000000Y-46800000D03*
X104140000Y-55250000D03*
X119710000Y-47771000D03*
%TO.N,-BATT*%
X93400000Y-37450000D03*
X102250000Y-35880000D03*
%TO.N,+5V*%
X109800000Y-28975000D03*
X120000000Y-40643000D03*
X119750000Y-34266000D03*
X119750000Y-33250000D03*
X119750000Y-37317000D03*
X119750000Y-31250000D03*
X120000000Y-39500000D03*
X119750000Y-36301000D03*
X119750000Y-35282000D03*
X117030000Y-42180000D03*
X119750000Y-32250000D03*
%TO.N,Net-(U4-EN)*%
X111900000Y-51300000D03*
X114900000Y-45100000D03*
%TO.N,VBUS*%
X93350000Y-41850000D03*
X99450000Y-35150000D03*
%TO.N,Net-(JP1-A)*%
X87250000Y-44075000D03*
X87130000Y-30480000D03*
%TO.N,Net-(JP9-A)*%
X93450000Y-27850000D03*
X92640000Y-33900000D03*
%TO.N,VCC*%
X76180000Y-47960000D03*
X102160000Y-31620000D03*
X74800000Y-47940000D03*
X110700000Y-52900000D03*
X73330000Y-47970000D03*
X101070000Y-31620000D03*
X111500000Y-53400000D03*
X100010000Y-31630000D03*
X110700000Y-53900000D03*
%TO.N,Net-(Q1-G)*%
X95875000Y-30225000D03*
X96200000Y-33550000D03*
%TO.N,Net-(JP9-C)*%
X95960000Y-31820000D03*
%TD*%
%TA.AperFunction,Conductor*%
%TO.N,VCC*%
G36*
X89721641Y-23020185D02*
G01*
X89767396Y-23072989D01*
X89777340Y-23142147D01*
X89748315Y-23205703D01*
X89746752Y-23207472D01*
X89737466Y-23217785D01*
X89642821Y-23381715D01*
X89642818Y-23381722D01*
X89590446Y-23542908D01*
X89584326Y-23561744D01*
X89564540Y-23750000D01*
X89584326Y-23938256D01*
X89584327Y-23938259D01*
X89642818Y-24118277D01*
X89642821Y-24118284D01*
X89737467Y-24282216D01*
X89835000Y-24390537D01*
X89864129Y-24422888D01*
X90017265Y-24534148D01*
X90017270Y-24534151D01*
X90190192Y-24611142D01*
X90190197Y-24611144D01*
X90375354Y-24650500D01*
X90375355Y-24650500D01*
X90564644Y-24650500D01*
X90564646Y-24650500D01*
X90749803Y-24611144D01*
X90922730Y-24534151D01*
X91032117Y-24454676D01*
X91097920Y-24431198D01*
X91165974Y-24447023D01*
X91177871Y-24454668D01*
X91243299Y-24502204D01*
X91287270Y-24534151D01*
X91460192Y-24611142D01*
X91460197Y-24611144D01*
X91645354Y-24650500D01*
X91645355Y-24650500D01*
X91834644Y-24650500D01*
X91834646Y-24650500D01*
X92019803Y-24611144D01*
X92192730Y-24534151D01*
X92302117Y-24454676D01*
X92367920Y-24431198D01*
X92435974Y-24447023D01*
X92447871Y-24454668D01*
X92513299Y-24502204D01*
X92557270Y-24534151D01*
X92730192Y-24611142D01*
X92730197Y-24611144D01*
X92915354Y-24650500D01*
X92915355Y-24650500D01*
X93104644Y-24650500D01*
X93104646Y-24650500D01*
X93289803Y-24611144D01*
X93462730Y-24534151D01*
X93572117Y-24454676D01*
X93637920Y-24431198D01*
X93705974Y-24447023D01*
X93717871Y-24454668D01*
X93783299Y-24502204D01*
X93827270Y-24534151D01*
X94000192Y-24611142D01*
X94000197Y-24611144D01*
X94185354Y-24650500D01*
X94185355Y-24650500D01*
X94374644Y-24650500D01*
X94374646Y-24650500D01*
X94559803Y-24611144D01*
X94732730Y-24534151D01*
X94842117Y-24454676D01*
X94907920Y-24431198D01*
X94975974Y-24447023D01*
X94987871Y-24454668D01*
X95053299Y-24502204D01*
X95097270Y-24534151D01*
X95270192Y-24611142D01*
X95270197Y-24611144D01*
X95455354Y-24650500D01*
X95455355Y-24650500D01*
X95644644Y-24650500D01*
X95644646Y-24650500D01*
X95829803Y-24611144D01*
X96002730Y-24534151D01*
X96155871Y-24422888D01*
X96282533Y-24282216D01*
X96377179Y-24118284D01*
X96435674Y-23938256D01*
X96455460Y-23750000D01*
X96435674Y-23561744D01*
X96377179Y-23381716D01*
X96282533Y-23217784D01*
X96273247Y-23207471D01*
X96243018Y-23144481D01*
X96251643Y-23075145D01*
X96296385Y-23021480D01*
X96363037Y-23000522D01*
X96365398Y-23000500D01*
X103876000Y-23000500D01*
X103943039Y-23020185D01*
X103988794Y-23072989D01*
X104000000Y-23124500D01*
X104000000Y-24024270D01*
X103980315Y-24091309D01*
X103927511Y-24137064D01*
X103858353Y-24147008D01*
X103794797Y-24117983D01*
X103788319Y-24111951D01*
X103738657Y-24062289D01*
X103738656Y-24062288D01*
X103636691Y-23999396D01*
X103589336Y-23970187D01*
X103589331Y-23970185D01*
X103559488Y-23960296D01*
X103422797Y-23915001D01*
X103422795Y-23915000D01*
X103320010Y-23904500D01*
X102519998Y-23904500D01*
X102519980Y-23904501D01*
X102417203Y-23915000D01*
X102417200Y-23915001D01*
X102250668Y-23970185D01*
X102250663Y-23970187D01*
X102101342Y-24062289D01*
X101977289Y-24186342D01*
X101885187Y-24335663D01*
X101885185Y-24335668D01*
X101861443Y-24407318D01*
X101830001Y-24502203D01*
X101830001Y-24502204D01*
X101830000Y-24502204D01*
X101819500Y-24604983D01*
X101819500Y-25955001D01*
X101819501Y-25955018D01*
X101830000Y-26057796D01*
X101830001Y-26057799D01*
X101885185Y-26224331D01*
X101885187Y-26224336D01*
X101893306Y-26237499D01*
X101977288Y-26373656D01*
X102101344Y-26497712D01*
X102250666Y-26589814D01*
X102417203Y-26644999D01*
X102519991Y-26655500D01*
X103320008Y-26655499D01*
X103320016Y-26655498D01*
X103320019Y-26655498D01*
X103381143Y-26649254D01*
X103422797Y-26644999D01*
X103589334Y-26589814D01*
X103738656Y-26497712D01*
X103788319Y-26448049D01*
X103849642Y-26414564D01*
X103919334Y-26419548D01*
X103975267Y-26461420D01*
X103999684Y-26526884D01*
X104000000Y-26535730D01*
X104000000Y-40562689D01*
X103980315Y-40629728D01*
X103927511Y-40675483D01*
X103858353Y-40685427D01*
X103794797Y-40656402D01*
X103758069Y-40601007D01*
X103737181Y-40536722D01*
X103737180Y-40536721D01*
X103737179Y-40536716D01*
X103642533Y-40372784D01*
X103515871Y-40232112D01*
X103500731Y-40221112D01*
X103365420Y-40122803D01*
X103322754Y-40067473D01*
X103314985Y-40009520D01*
X103315032Y-40009066D01*
X103315460Y-40005000D01*
X103295674Y-39816744D01*
X103237179Y-39636716D01*
X103142533Y-39472784D01*
X103015871Y-39332112D01*
X102980911Y-39306712D01*
X102862734Y-39220851D01*
X102862729Y-39220848D01*
X102689807Y-39143857D01*
X102689802Y-39143855D01*
X102544001Y-39112865D01*
X102504646Y-39104500D01*
X102315354Y-39104500D01*
X102282897Y-39111398D01*
X102130197Y-39143855D01*
X102130192Y-39143857D01*
X101960436Y-39219439D01*
X101891186Y-39228724D01*
X101859564Y-39219439D01*
X101689807Y-39143857D01*
X101689802Y-39143855D01*
X101544001Y-39112865D01*
X101504646Y-39104500D01*
X101315354Y-39104500D01*
X101282897Y-39111398D01*
X101130197Y-39143855D01*
X101130192Y-39143857D01*
X100957270Y-39220848D01*
X100957265Y-39220851D01*
X100804129Y-39332111D01*
X100677466Y-39472785D01*
X100582821Y-39636715D01*
X100582818Y-39636722D01*
X100524327Y-39816740D01*
X100524326Y-39816744D01*
X100514292Y-39912216D01*
X100504540Y-40005001D01*
X100505016Y-40009532D01*
X100492442Y-40078261D01*
X100454580Y-40122803D01*
X100304127Y-40232113D01*
X100177466Y-40372785D01*
X100082821Y-40536715D01*
X100082818Y-40536722D01*
X100029766Y-40700000D01*
X100024326Y-40716744D01*
X100004540Y-40905000D01*
X100024326Y-41093256D01*
X100024327Y-41093259D01*
X100082818Y-41273277D01*
X100082821Y-41273284D01*
X100177467Y-41437216D01*
X100271565Y-41541722D01*
X100304129Y-41577888D01*
X100457265Y-41689148D01*
X100457270Y-41689151D01*
X100630192Y-41766142D01*
X100630197Y-41766144D01*
X100815354Y-41805500D01*
X100815355Y-41805500D01*
X101004644Y-41805500D01*
X101004646Y-41805500D01*
X101189803Y-41766144D01*
X101359566Y-41690559D01*
X101428813Y-41681275D01*
X101460430Y-41690557D01*
X101630197Y-41766144D01*
X101815354Y-41805500D01*
X101815355Y-41805500D01*
X102004644Y-41805500D01*
X102004646Y-41805500D01*
X102189803Y-41766144D01*
X102359566Y-41690559D01*
X102428813Y-41681275D01*
X102460430Y-41690557D01*
X102630197Y-41766144D01*
X102815354Y-41805500D01*
X102815355Y-41805500D01*
X103004644Y-41805500D01*
X103004646Y-41805500D01*
X103189803Y-41766144D01*
X103362730Y-41689151D01*
X103515871Y-41577888D01*
X103642533Y-41437216D01*
X103737179Y-41273284D01*
X103758069Y-41208992D01*
X103797506Y-41151317D01*
X103861865Y-41124118D01*
X103930711Y-41136033D01*
X103982187Y-41183277D01*
X104000000Y-41247310D01*
X104000000Y-49000000D01*
X110923364Y-49000000D01*
X110990403Y-49019685D01*
X111034273Y-49068546D01*
X111643365Y-50286731D01*
X111655740Y-50355496D01*
X111628972Y-50420035D01*
X111582893Y-50455464D01*
X111447267Y-50515850D01*
X111447265Y-50515851D01*
X111294129Y-50627111D01*
X111167466Y-50767785D01*
X111072821Y-50931715D01*
X111072818Y-50931722D01*
X111014327Y-51111740D01*
X111014326Y-51111744D01*
X110994540Y-51300000D01*
X111014326Y-51488256D01*
X111014327Y-51488259D01*
X111072818Y-51668277D01*
X111072821Y-51668284D01*
X111167467Y-51832216D01*
X111268251Y-51944148D01*
X111294129Y-51972888D01*
X111447265Y-52084148D01*
X111447270Y-52084151D01*
X111620192Y-52161142D01*
X111620197Y-52161144D01*
X111805354Y-52200500D01*
X111805355Y-52200500D01*
X111994644Y-52200500D01*
X111994646Y-52200500D01*
X112179803Y-52161144D01*
X112352730Y-52084151D01*
X112373255Y-52069238D01*
X112439060Y-52045758D01*
X112507114Y-52061583D01*
X112555810Y-52111688D01*
X112557050Y-52114101D01*
X113649841Y-54299682D01*
X113662216Y-54368448D01*
X113635448Y-54432987D01*
X113578038Y-54472809D01*
X113508212Y-54475271D01*
X113488496Y-54468416D01*
X113309807Y-54388857D01*
X113309802Y-54388855D01*
X113133161Y-54351310D01*
X113124646Y-54349500D01*
X112935354Y-54349500D01*
X112926839Y-54351310D01*
X112750197Y-54388855D01*
X112750192Y-54388857D01*
X112577270Y-54465848D01*
X112577265Y-54465851D01*
X112467885Y-54545321D01*
X112402079Y-54568801D01*
X112334025Y-54552975D01*
X112322115Y-54545321D01*
X112212734Y-54465851D01*
X112212729Y-54465848D01*
X112039807Y-54388857D01*
X112039802Y-54388855D01*
X111863161Y-54351310D01*
X111854646Y-54349500D01*
X111665354Y-54349500D01*
X111656839Y-54351310D01*
X111480197Y-54388855D01*
X111480192Y-54388857D01*
X111307270Y-54465848D01*
X111307265Y-54465851D01*
X111197885Y-54545321D01*
X111132079Y-54568801D01*
X111064025Y-54552975D01*
X111052115Y-54545321D01*
X110942734Y-54465851D01*
X110942729Y-54465848D01*
X110769807Y-54388857D01*
X110769802Y-54388855D01*
X110593161Y-54351310D01*
X110584646Y-54349500D01*
X110395354Y-54349500D01*
X110386839Y-54351310D01*
X110210197Y-54388855D01*
X110210192Y-54388857D01*
X110037270Y-54465848D01*
X110037265Y-54465851D01*
X109927885Y-54545321D01*
X109862079Y-54568801D01*
X109794025Y-54552975D01*
X109782115Y-54545321D01*
X109672734Y-54465851D01*
X109672729Y-54465848D01*
X109499807Y-54388857D01*
X109499802Y-54388855D01*
X109323161Y-54351310D01*
X109314646Y-54349500D01*
X109125354Y-54349500D01*
X109116839Y-54351310D01*
X108940197Y-54388855D01*
X108940192Y-54388857D01*
X108767270Y-54465848D01*
X108767265Y-54465851D01*
X108657885Y-54545321D01*
X108592079Y-54568801D01*
X108524025Y-54552975D01*
X108512115Y-54545321D01*
X108402734Y-54465851D01*
X108402729Y-54465848D01*
X108229807Y-54388857D01*
X108229802Y-54388855D01*
X108053161Y-54351310D01*
X108044646Y-54349500D01*
X107855354Y-54349500D01*
X107846839Y-54351310D01*
X107670197Y-54388855D01*
X107670192Y-54388857D01*
X107497271Y-54465848D01*
X107387884Y-54545322D01*
X107322077Y-54568801D01*
X107254023Y-54552975D01*
X107242115Y-54545322D01*
X107222027Y-54530727D01*
X107179364Y-54475399D01*
X107173385Y-54405785D01*
X107176978Y-54392112D01*
X107210074Y-54290256D01*
X107229860Y-54102000D01*
X107210074Y-53913744D01*
X107151579Y-53733716D01*
X107056933Y-53569784D01*
X106930271Y-53429112D01*
X106930270Y-53429111D01*
X106777134Y-53317851D01*
X106777129Y-53317848D01*
X106604207Y-53240857D01*
X106604202Y-53240855D01*
X106458401Y-53209865D01*
X106419046Y-53201500D01*
X106229754Y-53201500D01*
X106197297Y-53208398D01*
X106044597Y-53240855D01*
X106044592Y-53240857D01*
X105871670Y-53317848D01*
X105871665Y-53317851D01*
X105718529Y-53429111D01*
X105591866Y-53569785D01*
X105497221Y-53733715D01*
X105497218Y-53733722D01*
X105438727Y-53913740D01*
X105438726Y-53913744D01*
X105418940Y-54102000D01*
X105430575Y-54212708D01*
X105418006Y-54281436D01*
X105370274Y-54332460D01*
X105320224Y-54348988D01*
X105315354Y-54349500D01*
X105130197Y-54388855D01*
X105130192Y-54388857D01*
X104957270Y-54465848D01*
X104957265Y-54465851D01*
X104847885Y-54545321D01*
X104782079Y-54568801D01*
X104714025Y-54552975D01*
X104702115Y-54545321D01*
X104592734Y-54465851D01*
X104592729Y-54465848D01*
X104419807Y-54388857D01*
X104419802Y-54388855D01*
X104243161Y-54351310D01*
X104234646Y-54349500D01*
X104045354Y-54349500D01*
X104036839Y-54351310D01*
X103860197Y-54388855D01*
X103860192Y-54388857D01*
X103687270Y-54465848D01*
X103687265Y-54465851D01*
X103577885Y-54545321D01*
X103512079Y-54568801D01*
X103444025Y-54552975D01*
X103432115Y-54545321D01*
X103322734Y-54465851D01*
X103322729Y-54465848D01*
X103149807Y-54388857D01*
X103149802Y-54388855D01*
X102973161Y-54351310D01*
X102964646Y-54349500D01*
X102775354Y-54349500D01*
X102766839Y-54351310D01*
X102590197Y-54388855D01*
X102590192Y-54388857D01*
X102417270Y-54465848D01*
X102417265Y-54465851D01*
X102307885Y-54545321D01*
X102242079Y-54568801D01*
X102174025Y-54552975D01*
X102162115Y-54545321D01*
X102052734Y-54465851D01*
X102052729Y-54465848D01*
X101879807Y-54388857D01*
X101879802Y-54388855D01*
X101703161Y-54351310D01*
X101694646Y-54349500D01*
X101505354Y-54349500D01*
X101496839Y-54351310D01*
X101320197Y-54388855D01*
X101320192Y-54388857D01*
X101147270Y-54465848D01*
X101147265Y-54465851D01*
X101037885Y-54545321D01*
X100972079Y-54568801D01*
X100904025Y-54552975D01*
X100892115Y-54545321D01*
X100782734Y-54465851D01*
X100782729Y-54465848D01*
X100609807Y-54388857D01*
X100609802Y-54388855D01*
X100433161Y-54351310D01*
X100424646Y-54349500D01*
X100235354Y-54349500D01*
X100226839Y-54351310D01*
X100050197Y-54388855D01*
X100050192Y-54388857D01*
X99877270Y-54465848D01*
X99877265Y-54465851D01*
X99767885Y-54545321D01*
X99702079Y-54568801D01*
X99634025Y-54552975D01*
X99622115Y-54545321D01*
X99512734Y-54465851D01*
X99512729Y-54465848D01*
X99339807Y-54388857D01*
X99339802Y-54388855D01*
X99163161Y-54351310D01*
X99154646Y-54349500D01*
X98965354Y-54349500D01*
X98956839Y-54351310D01*
X98780197Y-54388855D01*
X98780192Y-54388857D01*
X98607270Y-54465848D01*
X98607265Y-54465851D01*
X98497885Y-54545321D01*
X98432079Y-54568801D01*
X98364025Y-54552975D01*
X98352115Y-54545321D01*
X98242734Y-54465851D01*
X98242729Y-54465848D01*
X98069807Y-54388857D01*
X98069802Y-54388855D01*
X97893161Y-54351310D01*
X97884646Y-54349500D01*
X97695354Y-54349500D01*
X97686839Y-54351310D01*
X97510197Y-54388855D01*
X97510192Y-54388857D01*
X97337270Y-54465848D01*
X97337265Y-54465851D01*
X97227885Y-54545321D01*
X97162079Y-54568801D01*
X97094025Y-54552975D01*
X97082115Y-54545321D01*
X96972734Y-54465851D01*
X96972729Y-54465848D01*
X96799807Y-54388857D01*
X96799802Y-54388855D01*
X96623161Y-54351310D01*
X96614646Y-54349500D01*
X96425354Y-54349500D01*
X96416839Y-54351310D01*
X96240197Y-54388855D01*
X96240192Y-54388857D01*
X96067270Y-54465848D01*
X96067265Y-54465851D01*
X95957885Y-54545321D01*
X95892079Y-54568801D01*
X95824025Y-54552975D01*
X95812115Y-54545321D01*
X95702734Y-54465851D01*
X95702729Y-54465848D01*
X95529807Y-54388857D01*
X95529802Y-54388855D01*
X95353161Y-54351310D01*
X95344646Y-54349500D01*
X95155354Y-54349500D01*
X95146839Y-54351310D01*
X94970197Y-54388855D01*
X94970192Y-54388857D01*
X94797270Y-54465848D01*
X94797265Y-54465851D01*
X94687885Y-54545321D01*
X94622079Y-54568801D01*
X94554025Y-54552975D01*
X94542115Y-54545321D01*
X94432734Y-54465851D01*
X94432729Y-54465848D01*
X94259807Y-54388857D01*
X94259802Y-54388855D01*
X94083161Y-54351310D01*
X94074646Y-54349500D01*
X93885354Y-54349500D01*
X93876839Y-54351310D01*
X93700197Y-54388855D01*
X93700192Y-54388857D01*
X93527270Y-54465848D01*
X93527265Y-54465851D01*
X93417885Y-54545321D01*
X93352079Y-54568801D01*
X93284025Y-54552975D01*
X93272115Y-54545321D01*
X93162734Y-54465851D01*
X93162729Y-54465848D01*
X92989807Y-54388857D01*
X92989802Y-54388855D01*
X92813161Y-54351310D01*
X92804646Y-54349500D01*
X92615354Y-54349500D01*
X92606839Y-54351310D01*
X92430197Y-54388855D01*
X92430192Y-54388857D01*
X92257270Y-54465848D01*
X92257265Y-54465851D01*
X92147885Y-54545321D01*
X92082079Y-54568801D01*
X92014025Y-54552975D01*
X92002115Y-54545321D01*
X91892734Y-54465851D01*
X91892729Y-54465848D01*
X91719807Y-54388857D01*
X91719802Y-54388855D01*
X91543161Y-54351310D01*
X91534646Y-54349500D01*
X91345354Y-54349500D01*
X91336839Y-54351310D01*
X91160197Y-54388855D01*
X91160192Y-54388857D01*
X90987270Y-54465848D01*
X90987265Y-54465851D01*
X90877885Y-54545321D01*
X90812079Y-54568801D01*
X90744025Y-54552975D01*
X90732115Y-54545321D01*
X90622734Y-54465851D01*
X90622729Y-54465848D01*
X90449807Y-54388857D01*
X90449802Y-54388855D01*
X90273161Y-54351310D01*
X90264646Y-54349500D01*
X90075354Y-54349500D01*
X90066839Y-54351310D01*
X89890197Y-54388855D01*
X89890192Y-54388857D01*
X89717270Y-54465848D01*
X89717265Y-54465851D01*
X89607885Y-54545321D01*
X89542079Y-54568801D01*
X89474025Y-54552975D01*
X89462115Y-54545321D01*
X89352734Y-54465851D01*
X89352729Y-54465848D01*
X89179807Y-54388857D01*
X89179802Y-54388855D01*
X89003161Y-54351310D01*
X88994646Y-54349500D01*
X88805354Y-54349500D01*
X88796839Y-54351310D01*
X88620197Y-54388855D01*
X88620192Y-54388857D01*
X88447270Y-54465848D01*
X88447265Y-54465851D01*
X88337885Y-54545321D01*
X88272079Y-54568801D01*
X88204025Y-54552975D01*
X88192115Y-54545321D01*
X88082734Y-54465851D01*
X88082729Y-54465848D01*
X87909807Y-54388857D01*
X87909802Y-54388855D01*
X87733161Y-54351310D01*
X87724646Y-54349500D01*
X87535354Y-54349500D01*
X87526839Y-54351310D01*
X87350197Y-54388855D01*
X87350192Y-54388857D01*
X87177270Y-54465848D01*
X87177265Y-54465851D01*
X87067885Y-54545321D01*
X87002079Y-54568801D01*
X86934025Y-54552975D01*
X86922115Y-54545321D01*
X86812734Y-54465851D01*
X86812729Y-54465848D01*
X86639807Y-54388857D01*
X86639802Y-54388855D01*
X86463161Y-54351310D01*
X86454646Y-54349500D01*
X86265354Y-54349500D01*
X86256839Y-54351310D01*
X86080197Y-54388855D01*
X86080192Y-54388857D01*
X85907270Y-54465848D01*
X85907265Y-54465851D01*
X85797885Y-54545321D01*
X85732079Y-54568801D01*
X85664025Y-54552975D01*
X85652115Y-54545321D01*
X85542734Y-54465851D01*
X85542729Y-54465848D01*
X85369807Y-54388857D01*
X85369802Y-54388855D01*
X85193161Y-54351310D01*
X85184646Y-54349500D01*
X84995354Y-54349500D01*
X84986839Y-54351310D01*
X84810197Y-54388855D01*
X84810192Y-54388857D01*
X84637270Y-54465848D01*
X84637265Y-54465851D01*
X84527885Y-54545321D01*
X84462079Y-54568801D01*
X84394025Y-54552975D01*
X84382115Y-54545321D01*
X84272734Y-54465851D01*
X84272729Y-54465848D01*
X84099807Y-54388857D01*
X84099802Y-54388855D01*
X83923161Y-54351310D01*
X83914646Y-54349500D01*
X83725354Y-54349500D01*
X83716839Y-54351310D01*
X83540197Y-54388855D01*
X83540192Y-54388857D01*
X83367270Y-54465848D01*
X83367265Y-54465851D01*
X83257885Y-54545321D01*
X83192079Y-54568801D01*
X83124025Y-54552975D01*
X83112115Y-54545321D01*
X83002734Y-54465851D01*
X83002729Y-54465848D01*
X82829807Y-54388857D01*
X82829802Y-54388855D01*
X82653161Y-54351310D01*
X82644646Y-54349500D01*
X82455354Y-54349500D01*
X82446839Y-54351310D01*
X82270197Y-54388855D01*
X82270192Y-54388857D01*
X82097270Y-54465848D01*
X82097265Y-54465851D01*
X81987885Y-54545321D01*
X81922079Y-54568801D01*
X81854025Y-54552975D01*
X81842115Y-54545321D01*
X81732734Y-54465851D01*
X81732729Y-54465848D01*
X81559807Y-54388857D01*
X81559802Y-54388855D01*
X81383161Y-54351310D01*
X81374646Y-54349500D01*
X81185354Y-54349500D01*
X81176839Y-54351310D01*
X81000197Y-54388855D01*
X81000192Y-54388857D01*
X80827270Y-54465848D01*
X80827265Y-54465851D01*
X80717885Y-54545321D01*
X80652079Y-54568801D01*
X80584025Y-54552975D01*
X80572115Y-54545321D01*
X80462734Y-54465851D01*
X80462729Y-54465848D01*
X80289807Y-54388857D01*
X80289802Y-54388855D01*
X80113161Y-54351310D01*
X80104646Y-54349500D01*
X79915354Y-54349500D01*
X79906839Y-54351310D01*
X79730197Y-54388855D01*
X79730192Y-54388857D01*
X79557270Y-54465848D01*
X79557265Y-54465851D01*
X79447885Y-54545321D01*
X79382079Y-54568801D01*
X79314025Y-54552975D01*
X79302115Y-54545321D01*
X79192734Y-54465851D01*
X79192729Y-54465848D01*
X79019807Y-54388857D01*
X79019802Y-54388855D01*
X78843161Y-54351310D01*
X78834646Y-54349500D01*
X78645354Y-54349500D01*
X78636839Y-54351310D01*
X78460197Y-54388855D01*
X78460192Y-54388857D01*
X78287270Y-54465848D01*
X78287265Y-54465851D01*
X78177885Y-54545321D01*
X78112079Y-54568801D01*
X78044025Y-54552975D01*
X78032115Y-54545321D01*
X77922734Y-54465851D01*
X77922729Y-54465848D01*
X77749807Y-54388857D01*
X77749802Y-54388855D01*
X77573162Y-54351310D01*
X77511680Y-54318118D01*
X77477904Y-54256955D01*
X77482556Y-54187240D01*
X77504433Y-54149746D01*
X77631365Y-54000311D01*
X77832211Y-53704085D01*
X77999853Y-53387880D01*
X78132324Y-53055403D01*
X78228071Y-52710552D01*
X78253854Y-52553285D01*
X78285970Y-52357385D01*
X78285970Y-52357382D01*
X78285972Y-52357371D01*
X78305348Y-52000000D01*
X78285972Y-51642629D01*
X78260664Y-51488259D01*
X78228073Y-51289460D01*
X78228072Y-51289459D01*
X78228071Y-51289448D01*
X78192130Y-51160000D01*
X105444540Y-51160000D01*
X105464326Y-51348256D01*
X105464327Y-51348259D01*
X105522818Y-51528277D01*
X105522821Y-51528284D01*
X105617467Y-51692216D01*
X105743522Y-51832214D01*
X105744129Y-51832888D01*
X105897265Y-51944148D01*
X105897270Y-51944151D01*
X106070192Y-52021142D01*
X106070197Y-52021144D01*
X106255354Y-52060500D01*
X106255355Y-52060500D01*
X106444644Y-52060500D01*
X106444646Y-52060500D01*
X106629803Y-52021144D01*
X106802730Y-51944151D01*
X106955871Y-51832888D01*
X107082533Y-51692216D01*
X107177179Y-51528284D01*
X107235674Y-51348256D01*
X107255460Y-51160000D01*
X107235674Y-50971744D01*
X107177179Y-50791716D01*
X107082533Y-50627784D01*
X106955871Y-50487112D01*
X106955870Y-50487111D01*
X106802734Y-50375851D01*
X106802729Y-50375848D01*
X106629807Y-50298857D01*
X106629802Y-50298855D01*
X106484001Y-50267865D01*
X106444646Y-50259500D01*
X106255354Y-50259500D01*
X106222897Y-50266398D01*
X106070197Y-50298855D01*
X106070192Y-50298857D01*
X105897270Y-50375848D01*
X105897265Y-50375851D01*
X105744129Y-50487111D01*
X105617466Y-50627785D01*
X105522821Y-50791715D01*
X105522818Y-50791722D01*
X105473143Y-50944607D01*
X105464326Y-50971744D01*
X105444540Y-51160000D01*
X78192130Y-51160000D01*
X78132324Y-50944597D01*
X78006094Y-50627784D01*
X77999857Y-50612129D01*
X77999848Y-50612111D01*
X77832215Y-50295922D01*
X77832213Y-50295919D01*
X77832211Y-50295915D01*
X77631365Y-49999689D01*
X77631361Y-49999684D01*
X77631358Y-49999680D01*
X77399668Y-49726914D01*
X77289204Y-49622277D01*
X77139837Y-49480789D01*
X77139830Y-49480783D01*
X77139827Y-49480781D01*
X76956926Y-49341744D01*
X76854919Y-49264200D01*
X76548253Y-49079685D01*
X76548252Y-49079684D01*
X76548248Y-49079682D01*
X76548244Y-49079680D01*
X76223447Y-48929414D01*
X76223441Y-48929411D01*
X76223435Y-48929409D01*
X76053854Y-48872270D01*
X75884273Y-48815131D01*
X75534744Y-48738194D01*
X75178949Y-48699500D01*
X75178948Y-48699500D01*
X74821052Y-48699500D01*
X74821050Y-48699500D01*
X74465255Y-48738194D01*
X74115726Y-48815131D01*
X73878687Y-48895000D01*
X73776565Y-48929409D01*
X73776563Y-48929410D01*
X73776552Y-48929414D01*
X73451755Y-49079680D01*
X73451751Y-49079682D01*
X73223367Y-49217096D01*
X73145081Y-49264200D01*
X73056768Y-49331333D01*
X72860172Y-49480781D01*
X72860163Y-49480789D01*
X72851631Y-49488871D01*
X72789423Y-49520682D01*
X72719892Y-49513811D01*
X72665114Y-49470439D01*
X72643038Y-49411809D01*
X72635674Y-49341744D01*
X72577179Y-49161716D01*
X72482533Y-48997784D01*
X72464693Y-48977971D01*
X72434464Y-48914981D01*
X72443089Y-48845646D01*
X72464694Y-48812028D01*
X72468321Y-48808000D01*
X72482533Y-48792216D01*
X72577179Y-48628284D01*
X72635674Y-48448256D01*
X72655460Y-48260000D01*
X72635674Y-48071744D01*
X72577179Y-47891716D01*
X72482533Y-47727784D01*
X72464693Y-47707971D01*
X72434464Y-47644981D01*
X72443089Y-47575646D01*
X72464694Y-47542028D01*
X72466771Y-47539721D01*
X72482533Y-47522216D01*
X72577179Y-47358284D01*
X72635674Y-47178256D01*
X72655460Y-46990000D01*
X72635674Y-46801744D01*
X72577179Y-46621716D01*
X72482533Y-46457784D01*
X72464693Y-46437971D01*
X72434464Y-46374981D01*
X72443089Y-46305646D01*
X72464694Y-46272028D01*
X72468515Y-46267784D01*
X72482533Y-46252216D01*
X72577179Y-46088284D01*
X72635674Y-45908256D01*
X72655460Y-45720000D01*
X72635674Y-45531744D01*
X72577179Y-45351716D01*
X72482533Y-45187784D01*
X72464693Y-45167971D01*
X72434464Y-45104981D01*
X72443089Y-45035646D01*
X72464694Y-45002028D01*
X72466520Y-45000000D01*
X72482533Y-44982216D01*
X72577179Y-44818284D01*
X72635674Y-44638256D01*
X72655460Y-44450000D01*
X72635674Y-44261744D01*
X72577179Y-44081716D01*
X72482533Y-43917784D01*
X72464693Y-43897971D01*
X72434464Y-43834981D01*
X72443089Y-43765646D01*
X72464694Y-43732028D01*
X72482533Y-43712216D01*
X72577179Y-43548284D01*
X72635674Y-43368256D01*
X72655460Y-43180000D01*
X72635674Y-42991744D01*
X72577179Y-42811716D01*
X72482533Y-42647784D01*
X72464693Y-42627971D01*
X72434464Y-42564981D01*
X72443089Y-42495646D01*
X72464694Y-42462028D01*
X72482533Y-42442216D01*
X72577179Y-42278284D01*
X72635674Y-42098256D01*
X72655460Y-41910000D01*
X72635674Y-41721744D01*
X72577179Y-41541716D01*
X72482533Y-41377784D01*
X72469194Y-41362970D01*
X72438966Y-41299981D01*
X72447591Y-41230646D01*
X72469193Y-41197030D01*
X72482533Y-41182216D01*
X72577179Y-41018284D01*
X72635674Y-40838256D01*
X72655460Y-40650000D01*
X72635674Y-40461744D01*
X72577179Y-40281716D01*
X72570271Y-40269752D01*
X72553798Y-40201853D01*
X72576650Y-40135826D01*
X72631571Y-40092635D01*
X72701124Y-40085993D01*
X72736109Y-40098393D01*
X72916046Y-40194572D01*
X73114066Y-40254640D01*
X73114065Y-40254640D01*
X73152647Y-40258440D01*
X73268392Y-40269840D01*
X73268395Y-40269840D01*
X73971605Y-40269840D01*
X73971608Y-40269840D01*
X74125934Y-40254640D01*
X74323954Y-40194572D01*
X74506450Y-40097025D01*
X74666410Y-39965750D01*
X74797685Y-39805790D01*
X74895232Y-39623294D01*
X74955300Y-39425274D01*
X74975583Y-39219340D01*
X76064417Y-39219340D01*
X76084699Y-39425272D01*
X76084700Y-39425274D01*
X76144768Y-39623294D01*
X76242315Y-39805790D01*
X76251305Y-39816744D01*
X76373589Y-39965750D01*
X76470209Y-40045042D01*
X76533550Y-40097025D01*
X76716046Y-40194572D01*
X76914066Y-40254640D01*
X76914065Y-40254640D01*
X76952647Y-40258440D01*
X77068392Y-40269840D01*
X77068395Y-40269840D01*
X77771605Y-40269840D01*
X77771608Y-40269840D01*
X77925934Y-40254640D01*
X78123954Y-40194572D01*
X78306450Y-40097025D01*
X78466410Y-39965750D01*
X78597685Y-39805790D01*
X78695232Y-39623294D01*
X78707877Y-39581608D01*
X78746173Y-39523171D01*
X78809985Y-39494714D01*
X78879052Y-39505273D01*
X78918684Y-39534629D01*
X78944129Y-39562888D01*
X78969898Y-39581610D01*
X79097265Y-39674148D01*
X79097270Y-39674151D01*
X79270191Y-39751142D01*
X79270194Y-39751143D01*
X79270195Y-39751143D01*
X79270197Y-39751144D01*
X79270882Y-39751289D01*
X79271239Y-39751482D01*
X79276372Y-39753150D01*
X79276067Y-39754088D01*
X79332364Y-39784479D01*
X79366142Y-39845641D01*
X79368425Y-39885540D01*
X79358540Y-39979599D01*
X79358540Y-39979600D01*
X79378326Y-40167856D01*
X79378327Y-40167859D01*
X79436818Y-40347877D01*
X79436821Y-40347884D01*
X79525684Y-40501800D01*
X79542157Y-40569701D01*
X79525684Y-40625800D01*
X79436821Y-40779715D01*
X79436818Y-40779722D01*
X79392588Y-40915849D01*
X79378326Y-40959744D01*
X79358540Y-41148000D01*
X79378326Y-41336256D01*
X79378327Y-41336259D01*
X79436818Y-41516277D01*
X79436820Y-41516281D01*
X79436821Y-41516284D01*
X79531467Y-41680216D01*
X79539512Y-41689151D01*
X79549307Y-41700030D01*
X79579535Y-41763022D01*
X79570909Y-41832357D01*
X79549307Y-41865970D01*
X79531466Y-41885785D01*
X79436821Y-42049715D01*
X79436818Y-42049722D01*
X79378327Y-42229740D01*
X79378326Y-42229744D01*
X79358540Y-42418000D01*
X79378326Y-42606256D01*
X79378326Y-42606258D01*
X79378327Y-42606260D01*
X79390063Y-42642381D01*
X79392058Y-42712222D01*
X79355977Y-42772055D01*
X79293276Y-42802882D01*
X79246356Y-42801989D01*
X79234646Y-42799500D01*
X79045354Y-42799500D01*
X79029443Y-42802882D01*
X78860197Y-42838855D01*
X78860192Y-42838857D01*
X78687270Y-42915848D01*
X78687265Y-42915851D01*
X78534129Y-43027111D01*
X78407466Y-43167785D01*
X78312821Y-43331715D01*
X78312818Y-43331722D01*
X78258226Y-43499740D01*
X78254326Y-43511744D01*
X78234540Y-43700000D01*
X78254326Y-43888256D01*
X78254327Y-43888259D01*
X78312818Y-44068277D01*
X78312821Y-44068284D01*
X78386670Y-44196195D01*
X78403143Y-44264096D01*
X78380290Y-44330122D01*
X78325369Y-44373313D01*
X78255815Y-44379954D01*
X78206401Y-44358515D01*
X78202737Y-44355853D01*
X78202729Y-44355848D01*
X78029807Y-44278857D01*
X78029802Y-44278855D01*
X77884001Y-44247865D01*
X77844646Y-44239500D01*
X77655354Y-44239500D01*
X77622897Y-44246398D01*
X77470197Y-44278855D01*
X77470192Y-44278857D01*
X77297270Y-44355848D01*
X77297265Y-44355851D01*
X77144129Y-44467111D01*
X77017466Y-44607785D01*
X76922821Y-44771715D01*
X76922818Y-44771722D01*
X76864327Y-44951740D01*
X76864326Y-44951744D01*
X76844540Y-45140000D01*
X76864326Y-45328256D01*
X76864327Y-45328259D01*
X76922818Y-45508277D01*
X76922821Y-45508284D01*
X77017467Y-45672216D01*
X77118251Y-45784148D01*
X77144129Y-45812888D01*
X77297265Y-45924148D01*
X77297270Y-45924151D01*
X77476134Y-46003788D01*
X77475187Y-46005912D01*
X77524095Y-46039345D01*
X77551302Y-46103700D01*
X77539397Y-46172548D01*
X77535500Y-46179850D01*
X77447820Y-46331718D01*
X77447818Y-46331722D01*
X77389327Y-46511740D01*
X77389326Y-46511744D01*
X77369540Y-46700000D01*
X77389326Y-46888256D01*
X77389327Y-46888259D01*
X77447818Y-47068277D01*
X77447821Y-47068284D01*
X77542467Y-47232216D01*
X77669129Y-47372888D01*
X77822265Y-47484148D01*
X77822270Y-47484151D01*
X77995192Y-47561142D01*
X77995197Y-47561144D01*
X78180354Y-47600500D01*
X78180355Y-47600500D01*
X78369644Y-47600500D01*
X78369646Y-47600500D01*
X78554803Y-47561144D01*
X78727730Y-47484151D01*
X78880871Y-47372888D01*
X79007533Y-47232216D01*
X79102179Y-47068284D01*
X79160674Y-46888256D01*
X79175205Y-46750000D01*
X80419540Y-46750000D01*
X80439326Y-46938256D01*
X80439327Y-46938259D01*
X80497818Y-47118277D01*
X80497819Y-47118279D01*
X80497821Y-47118284D01*
X80592467Y-47282216D01*
X80696619Y-47397888D01*
X80719129Y-47422888D01*
X80872265Y-47534148D01*
X80872270Y-47534151D01*
X81045192Y-47611142D01*
X81045197Y-47611144D01*
X81230354Y-47650500D01*
X81230355Y-47650500D01*
X81419644Y-47650500D01*
X81419646Y-47650500D01*
X81604803Y-47611144D01*
X81777730Y-47534151D01*
X81930871Y-47422888D01*
X82057533Y-47282216D01*
X82152179Y-47118284D01*
X82210674Y-46938256D01*
X82227832Y-46775000D01*
X83394540Y-46775000D01*
X83414326Y-46963256D01*
X83414327Y-46963259D01*
X83472818Y-47143277D01*
X83472821Y-47143284D01*
X83567467Y-47307216D01*
X83649109Y-47397888D01*
X83694129Y-47447888D01*
X83847265Y-47559148D01*
X83847270Y-47559151D01*
X84020192Y-47636142D01*
X84020197Y-47636144D01*
X84205354Y-47675500D01*
X84205355Y-47675500D01*
X84394644Y-47675500D01*
X84394646Y-47675500D01*
X84579803Y-47636144D01*
X84752730Y-47559151D01*
X84905871Y-47447888D01*
X85032533Y-47307216D01*
X85127179Y-47143284D01*
X85185674Y-46963256D01*
X85205460Y-46775000D01*
X85200205Y-46725000D01*
X89394540Y-46725000D01*
X89414326Y-46913256D01*
X89414327Y-46913259D01*
X89472818Y-47093277D01*
X89472821Y-47093284D01*
X89567467Y-47257216D01*
X89671619Y-47372888D01*
X89694129Y-47397888D01*
X89847265Y-47509148D01*
X89847270Y-47509151D01*
X90020192Y-47586142D01*
X90020197Y-47586144D01*
X90205354Y-47625500D01*
X90205355Y-47625500D01*
X90394644Y-47625500D01*
X90394646Y-47625500D01*
X90579803Y-47586144D01*
X90752730Y-47509151D01*
X90905871Y-47397888D01*
X91032533Y-47257216D01*
X91127179Y-47093284D01*
X91185674Y-46913256D01*
X91200205Y-46775000D01*
X92344540Y-46775000D01*
X92364326Y-46963256D01*
X92364327Y-46963259D01*
X92422818Y-47143277D01*
X92422821Y-47143284D01*
X92517467Y-47307216D01*
X92599109Y-47397888D01*
X92644129Y-47447888D01*
X92797265Y-47559148D01*
X92797270Y-47559151D01*
X92970192Y-47636142D01*
X92970197Y-47636144D01*
X93155354Y-47675500D01*
X93155355Y-47675500D01*
X93344644Y-47675500D01*
X93344646Y-47675500D01*
X93529803Y-47636144D01*
X93702730Y-47559151D01*
X93855871Y-47447888D01*
X93982533Y-47307216D01*
X94077179Y-47143284D01*
X94135674Y-46963256D01*
X94155460Y-46775000D01*
X94152832Y-46750000D01*
X95369540Y-46750000D01*
X95389326Y-46938256D01*
X95389327Y-46938259D01*
X95447818Y-47118277D01*
X95447819Y-47118279D01*
X95447821Y-47118284D01*
X95542467Y-47282216D01*
X95646619Y-47397888D01*
X95669129Y-47422888D01*
X95822265Y-47534148D01*
X95822270Y-47534151D01*
X95995191Y-47611142D01*
X95995193Y-47611142D01*
X95995197Y-47611144D01*
X96119437Y-47637551D01*
X96180914Y-47670741D01*
X96214691Y-47731904D01*
X96210039Y-47801619D01*
X96201040Y-47820839D01*
X96172820Y-47869717D01*
X96172818Y-47869722D01*
X96123052Y-48022888D01*
X96114326Y-48049744D01*
X96094540Y-48238000D01*
X96114326Y-48426256D01*
X96114327Y-48426259D01*
X96172820Y-48606283D01*
X96217690Y-48684001D01*
X96234162Y-48751901D01*
X96217690Y-48807999D01*
X96172820Y-48885716D01*
X96126859Y-49027171D01*
X96114326Y-49065744D01*
X96094540Y-49254000D01*
X96114326Y-49442256D01*
X96114327Y-49442259D01*
X96172818Y-49622277D01*
X96172821Y-49622284D01*
X96267467Y-49786216D01*
X96368374Y-49898284D01*
X96394129Y-49926888D01*
X96547265Y-50038148D01*
X96547270Y-50038151D01*
X96720192Y-50115142D01*
X96720197Y-50115144D01*
X96905354Y-50154500D01*
X96905355Y-50154500D01*
X97094644Y-50154500D01*
X97094646Y-50154500D01*
X97279803Y-50115144D01*
X97452730Y-50038151D01*
X97605871Y-49926888D01*
X97732533Y-49786216D01*
X97827179Y-49622284D01*
X97885674Y-49442256D01*
X97905460Y-49254000D01*
X97885674Y-49065744D01*
X97827179Y-48885716D01*
X97782308Y-48807997D01*
X97765836Y-48740100D01*
X97782309Y-48684001D01*
X97827179Y-48606284D01*
X97885674Y-48426256D01*
X97905460Y-48238000D01*
X97885674Y-48049744D01*
X97827179Y-47869716D01*
X97732533Y-47705784D01*
X97605871Y-47565112D01*
X97605870Y-47565111D01*
X97452734Y-47453851D01*
X97452729Y-47453848D01*
X97279807Y-47376857D01*
X97279802Y-47376855D01*
X97177043Y-47355013D01*
X97155565Y-47350448D01*
X97094085Y-47317257D01*
X97060308Y-47256094D01*
X97064960Y-47186379D01*
X97073952Y-47167173D01*
X97102179Y-47118284D01*
X97160674Y-46938256D01*
X97180460Y-46750000D01*
X97160674Y-46561744D01*
X97102179Y-46381716D01*
X97060765Y-46309986D01*
X97044294Y-46242091D01*
X97060765Y-46185994D01*
X97117179Y-46088284D01*
X97175674Y-45908256D01*
X97195460Y-45720000D01*
X97175674Y-45531744D01*
X97117179Y-45351716D01*
X97022533Y-45187784D01*
X96895871Y-45047112D01*
X96895870Y-45047111D01*
X96831027Y-45000000D01*
X99544540Y-45000000D01*
X99564326Y-45188256D01*
X99564327Y-45188259D01*
X99622818Y-45368277D01*
X99622821Y-45368284D01*
X99717467Y-45532216D01*
X99794513Y-45617784D01*
X99844129Y-45672888D01*
X99997265Y-45784148D01*
X99997270Y-45784151D01*
X100170192Y-45861142D01*
X100170197Y-45861144D01*
X100355354Y-45900500D01*
X100355355Y-45900500D01*
X100544644Y-45900500D01*
X100544646Y-45900500D01*
X100729803Y-45861144D01*
X100902730Y-45784151D01*
X100962114Y-45741006D01*
X101027920Y-45717525D01*
X101095974Y-45733350D01*
X101107886Y-45741006D01*
X101167264Y-45784147D01*
X101167270Y-45784151D01*
X101340192Y-45861142D01*
X101340197Y-45861144D01*
X101525354Y-45900500D01*
X101525355Y-45900500D01*
X101714644Y-45900500D01*
X101714646Y-45900500D01*
X101899803Y-45861144D01*
X102072730Y-45784151D01*
X102225871Y-45672888D01*
X102352533Y-45532216D01*
X102447179Y-45368284D01*
X102505674Y-45188256D01*
X102525460Y-45000000D01*
X102505674Y-44811744D01*
X102447179Y-44631716D01*
X102352533Y-44467784D01*
X102225871Y-44327112D01*
X102210369Y-44315849D01*
X102072734Y-44215851D01*
X102072729Y-44215848D01*
X101899807Y-44138857D01*
X101899802Y-44138855D01*
X101754001Y-44107865D01*
X101714646Y-44099500D01*
X101525354Y-44099500D01*
X101492897Y-44106398D01*
X101340197Y-44138855D01*
X101340192Y-44138857D01*
X101167270Y-44215848D01*
X101167265Y-44215851D01*
X101107885Y-44258994D01*
X101042079Y-44282474D01*
X100974025Y-44266648D01*
X100962115Y-44258994D01*
X100902734Y-44215851D01*
X100902729Y-44215848D01*
X100729807Y-44138857D01*
X100729802Y-44138855D01*
X100584001Y-44107865D01*
X100544646Y-44099500D01*
X100355354Y-44099500D01*
X100322897Y-44106398D01*
X100170197Y-44138855D01*
X100170192Y-44138857D01*
X99997270Y-44215848D01*
X99997265Y-44215851D01*
X99844129Y-44327111D01*
X99717466Y-44467785D01*
X99622821Y-44631715D01*
X99622818Y-44631722D01*
X99577330Y-44771722D01*
X99564326Y-44811744D01*
X99544540Y-45000000D01*
X96831027Y-45000000D01*
X96742734Y-44935851D01*
X96742729Y-44935848D01*
X96569807Y-44858857D01*
X96569802Y-44858855D01*
X96424001Y-44827865D01*
X96384646Y-44819500D01*
X96195354Y-44819500D01*
X96162897Y-44826398D01*
X96010197Y-44858855D01*
X96010192Y-44858857D01*
X95837270Y-44935848D01*
X95837265Y-44935851D01*
X95684129Y-45047111D01*
X95557466Y-45187785D01*
X95462821Y-45351715D01*
X95462818Y-45351722D01*
X95405831Y-45527112D01*
X95404326Y-45531744D01*
X95384540Y-45720000D01*
X95404326Y-45908256D01*
X95404327Y-45908259D01*
X95462818Y-46088277D01*
X95462821Y-46088284D01*
X95504231Y-46160008D01*
X95520704Y-46227908D01*
X95504232Y-46284007D01*
X95447820Y-46381716D01*
X95405573Y-46511740D01*
X95389326Y-46561744D01*
X95369540Y-46750000D01*
X94152832Y-46750000D01*
X94135674Y-46586744D01*
X94077179Y-46406716D01*
X93982533Y-46242784D01*
X93855871Y-46102112D01*
X93855870Y-46102111D01*
X93702734Y-45990851D01*
X93702729Y-45990848D01*
X93529807Y-45913857D01*
X93529802Y-45913855D01*
X93384001Y-45882865D01*
X93344646Y-45874500D01*
X93155354Y-45874500D01*
X93122897Y-45881398D01*
X92970197Y-45913855D01*
X92970192Y-45913857D01*
X92797270Y-45990848D01*
X92797265Y-45990851D01*
X92644129Y-46102111D01*
X92517466Y-46242785D01*
X92422821Y-46406715D01*
X92422818Y-46406722D01*
X92388696Y-46511740D01*
X92364326Y-46586744D01*
X92344540Y-46775000D01*
X91200205Y-46775000D01*
X91205460Y-46725000D01*
X91185674Y-46536744D01*
X91127179Y-46356716D01*
X91032533Y-46192784D01*
X90905871Y-46052112D01*
X90905870Y-46052111D01*
X90752734Y-45940851D01*
X90752729Y-45940848D01*
X90579807Y-45863857D01*
X90579802Y-45863855D01*
X90428595Y-45831716D01*
X90394646Y-45824500D01*
X90205354Y-45824500D01*
X90172897Y-45831398D01*
X90020197Y-45863855D01*
X90020192Y-45863857D01*
X89847270Y-45940848D01*
X89847265Y-45940851D01*
X89694129Y-46052111D01*
X89567466Y-46192785D01*
X89472821Y-46356715D01*
X89472818Y-46356722D01*
X89422450Y-46511740D01*
X89414326Y-46536744D01*
X89394540Y-46725000D01*
X85200205Y-46725000D01*
X85185674Y-46586744D01*
X85127179Y-46406716D01*
X85032533Y-46242784D01*
X84905871Y-46102112D01*
X84905870Y-46102111D01*
X84752734Y-45990851D01*
X84752729Y-45990848D01*
X84579807Y-45913857D01*
X84579802Y-45913855D01*
X84434001Y-45882865D01*
X84394646Y-45874500D01*
X84205354Y-45874500D01*
X84172897Y-45881398D01*
X84020197Y-45913855D01*
X84020192Y-45913857D01*
X83847270Y-45990848D01*
X83847265Y-45990851D01*
X83694129Y-46102111D01*
X83567466Y-46242785D01*
X83472821Y-46406715D01*
X83472818Y-46406722D01*
X83438696Y-46511740D01*
X83414326Y-46586744D01*
X83394540Y-46775000D01*
X82227832Y-46775000D01*
X82230460Y-46750000D01*
X82210674Y-46561744D01*
X82152179Y-46381716D01*
X82057533Y-46217784D01*
X81930871Y-46077112D01*
X81911602Y-46063112D01*
X81777734Y-45965851D01*
X81777729Y-45965848D01*
X81604807Y-45888857D01*
X81604802Y-45888855D01*
X81459001Y-45857865D01*
X81419646Y-45849500D01*
X81230354Y-45849500D01*
X81197897Y-45856398D01*
X81045197Y-45888855D01*
X81045192Y-45888857D01*
X80872270Y-45965848D01*
X80872265Y-45965851D01*
X80719129Y-46077111D01*
X80592466Y-46217785D01*
X80497821Y-46381715D01*
X80497818Y-46381722D01*
X80455573Y-46511740D01*
X80439326Y-46561744D01*
X80419540Y-46750000D01*
X79175205Y-46750000D01*
X79180460Y-46700000D01*
X79160674Y-46511744D01*
X79102179Y-46331716D01*
X79007533Y-46167784D01*
X78880871Y-46027112D01*
X78851692Y-46005912D01*
X78727734Y-45915851D01*
X78727729Y-45915848D01*
X78548866Y-45836212D01*
X78549809Y-45834092D01*
X78500884Y-45800630D01*
X78473694Y-45736268D01*
X78485616Y-45667423D01*
X78489500Y-45660148D01*
X78577179Y-45508284D01*
X78635674Y-45328256D01*
X78655460Y-45140000D01*
X78635674Y-44951744D01*
X78577179Y-44771716D01*
X78503328Y-44643803D01*
X78486856Y-44575904D01*
X78509709Y-44509877D01*
X78564630Y-44466686D01*
X78634183Y-44460045D01*
X78683600Y-44481485D01*
X78687266Y-44484149D01*
X78687270Y-44484151D01*
X78860192Y-44561142D01*
X78860197Y-44561144D01*
X79045354Y-44600500D01*
X79045355Y-44600500D01*
X79234644Y-44600500D01*
X79234646Y-44600500D01*
X79419803Y-44561144D01*
X79592730Y-44484151D01*
X79637373Y-44451715D01*
X79703178Y-44428236D01*
X79771232Y-44444061D01*
X79783139Y-44451712D01*
X79805259Y-44467784D01*
X79811270Y-44472151D01*
X79984192Y-44549142D01*
X79984197Y-44549144D01*
X80169354Y-44588500D01*
X80169355Y-44588500D01*
X80358644Y-44588500D01*
X80358646Y-44588500D01*
X80543803Y-44549144D01*
X80716730Y-44472151D01*
X80869871Y-44360888D01*
X80996533Y-44220216D01*
X81091179Y-44056284D01*
X81149674Y-43876256D01*
X81169460Y-43688000D01*
X81149674Y-43499744D01*
X81091179Y-43319716D01*
X80996533Y-43155784D01*
X80978693Y-43135971D01*
X80948464Y-43072981D01*
X80957089Y-43003646D01*
X80978694Y-42970028D01*
X80996533Y-42950216D01*
X81091179Y-42786284D01*
X81149674Y-42606256D01*
X81169460Y-42418000D01*
X85200540Y-42418000D01*
X85220326Y-42606256D01*
X85220327Y-42606259D01*
X85278818Y-42786277D01*
X85278821Y-42786284D01*
X85373467Y-42950216D01*
X85500129Y-43090888D01*
X85653265Y-43202148D01*
X85653270Y-43202151D01*
X85826192Y-43279142D01*
X85826197Y-43279144D01*
X86011354Y-43318500D01*
X86011355Y-43318500D01*
X86200644Y-43318500D01*
X86200646Y-43318500D01*
X86385803Y-43279144D01*
X86468852Y-43242167D01*
X86538100Y-43232882D01*
X86601377Y-43262510D01*
X86638591Y-43321645D01*
X86637927Y-43391511D01*
X86611437Y-43438419D01*
X86517466Y-43542784D01*
X86422821Y-43706715D01*
X86422818Y-43706722D01*
X86364327Y-43886740D01*
X86364326Y-43886744D01*
X86344540Y-44075000D01*
X86364326Y-44263256D01*
X86364327Y-44263259D01*
X86422818Y-44443277D01*
X86422821Y-44443284D01*
X86517467Y-44607216D01*
X86629568Y-44731716D01*
X86644129Y-44747888D01*
X86797265Y-44859148D01*
X86797270Y-44859151D01*
X86970192Y-44936142D01*
X86970197Y-44936144D01*
X87155354Y-44975500D01*
X87155355Y-44975500D01*
X87344644Y-44975500D01*
X87344646Y-44975500D01*
X87529803Y-44936144D01*
X87702730Y-44859151D01*
X87855871Y-44747888D01*
X87982533Y-44607216D01*
X88077179Y-44443284D01*
X88135674Y-44263256D01*
X88155460Y-44075000D01*
X88135674Y-43886744D01*
X88077179Y-43706716D01*
X87982533Y-43542784D01*
X87855871Y-43402112D01*
X87841280Y-43391511D01*
X87702734Y-43290851D01*
X87702729Y-43290848D01*
X87529807Y-43213857D01*
X87529802Y-43213855D01*
X87384001Y-43182865D01*
X87344646Y-43174500D01*
X87155354Y-43174500D01*
X87122897Y-43181398D01*
X86970197Y-43213855D01*
X86887147Y-43250832D01*
X86817897Y-43260116D01*
X86754621Y-43230488D01*
X86717408Y-43171352D01*
X86718073Y-43101486D01*
X86744561Y-43054581D01*
X86838533Y-42950216D01*
X86933179Y-42786284D01*
X86991674Y-42606256D01*
X87011460Y-42418000D01*
X86991674Y-42229744D01*
X86933179Y-42049716D01*
X86838533Y-41885784D01*
X86806313Y-41850000D01*
X92444540Y-41850000D01*
X92464326Y-42038256D01*
X92464327Y-42038259D01*
X92522818Y-42218277D01*
X92522821Y-42218284D01*
X92617467Y-42382216D01*
X92709250Y-42484151D01*
X92744129Y-42522888D01*
X92897265Y-42634148D01*
X92897270Y-42634151D01*
X93070192Y-42711142D01*
X93070197Y-42711144D01*
X93255354Y-42750500D01*
X93255355Y-42750500D01*
X93444644Y-42750500D01*
X93444646Y-42750500D01*
X93629803Y-42711144D01*
X93802730Y-42634151D01*
X93955871Y-42522888D01*
X94082533Y-42382216D01*
X94177179Y-42218284D01*
X94235674Y-42038256D01*
X94255460Y-41850000D01*
X94235674Y-41661744D01*
X94177179Y-41481716D01*
X94082533Y-41317784D01*
X93955871Y-41177112D01*
X93955870Y-41177111D01*
X93802734Y-41065851D01*
X93802729Y-41065848D01*
X93629807Y-40988857D01*
X93629802Y-40988855D01*
X93484001Y-40957865D01*
X93444646Y-40949500D01*
X93255354Y-40949500D01*
X93222897Y-40956398D01*
X93070197Y-40988855D01*
X93070192Y-40988857D01*
X92897270Y-41065848D01*
X92897265Y-41065851D01*
X92744129Y-41177111D01*
X92617468Y-41317783D01*
X92617466Y-41317784D01*
X92522821Y-41481715D01*
X92522818Y-41481722D01*
X92473389Y-41633851D01*
X92464326Y-41661744D01*
X92444540Y-41850000D01*
X86806313Y-41850000D01*
X86711871Y-41745112D01*
X86711870Y-41745111D01*
X86558734Y-41633851D01*
X86558729Y-41633848D01*
X86385807Y-41556857D01*
X86385802Y-41556855D01*
X86240001Y-41525865D01*
X86200646Y-41517500D01*
X86011354Y-41517500D01*
X85978897Y-41524398D01*
X85826197Y-41556855D01*
X85826192Y-41556857D01*
X85653270Y-41633848D01*
X85653265Y-41633851D01*
X85500129Y-41745111D01*
X85373466Y-41885785D01*
X85278821Y-42049715D01*
X85278818Y-42049722D01*
X85220327Y-42229740D01*
X85220326Y-42229744D01*
X85200540Y-42418000D01*
X81169460Y-42418000D01*
X81149674Y-42229744D01*
X81091179Y-42049716D01*
X80996533Y-41885784D01*
X80978693Y-41865971D01*
X80948464Y-41802981D01*
X80957089Y-41733646D01*
X80978694Y-41700028D01*
X80978719Y-41700000D01*
X80996533Y-41680216D01*
X81091179Y-41516284D01*
X81104198Y-41476213D01*
X81143634Y-41418540D01*
X81207992Y-41391341D01*
X81276839Y-41403254D01*
X81314278Y-41431559D01*
X81354487Y-41476216D01*
X81436129Y-41566888D01*
X81589265Y-41678148D01*
X81589270Y-41678151D01*
X81762192Y-41755142D01*
X81762197Y-41755144D01*
X81947354Y-41794500D01*
X81947355Y-41794500D01*
X82136644Y-41794500D01*
X82136646Y-41794500D01*
X82321803Y-41755144D01*
X82494730Y-41678151D01*
X82604117Y-41598676D01*
X82669920Y-41575198D01*
X82737974Y-41591023D01*
X82749871Y-41598668D01*
X82827140Y-41654807D01*
X82859270Y-41678151D01*
X83032192Y-41755142D01*
X83032197Y-41755144D01*
X83217354Y-41794500D01*
X83217355Y-41794500D01*
X83406644Y-41794500D01*
X83406646Y-41794500D01*
X83591803Y-41755144D01*
X83764730Y-41678151D01*
X83874117Y-41598676D01*
X83939920Y-41575198D01*
X84007974Y-41591023D01*
X84019871Y-41598668D01*
X84097140Y-41654807D01*
X84129270Y-41678151D01*
X84302192Y-41755142D01*
X84302197Y-41755144D01*
X84487354Y-41794500D01*
X84487355Y-41794500D01*
X84676644Y-41794500D01*
X84676646Y-41794500D01*
X84861803Y-41755144D01*
X85034730Y-41678151D01*
X85187871Y-41566888D01*
X85314533Y-41426216D01*
X85409179Y-41262284D01*
X85467674Y-41082256D01*
X85487460Y-40894000D01*
X85467674Y-40705744D01*
X85409179Y-40525716D01*
X85314533Y-40361784D01*
X85187871Y-40221112D01*
X85176432Y-40212801D01*
X85034734Y-40109851D01*
X85034729Y-40109848D01*
X84861807Y-40032857D01*
X84861802Y-40032855D01*
X84716001Y-40001865D01*
X84676646Y-39993500D01*
X84487354Y-39993500D01*
X84454897Y-40000398D01*
X84302197Y-40032855D01*
X84302192Y-40032857D01*
X84129270Y-40109848D01*
X84129265Y-40109851D01*
X84019885Y-40189321D01*
X83954079Y-40212801D01*
X83886025Y-40196975D01*
X83874115Y-40189321D01*
X83764734Y-40109851D01*
X83764729Y-40109848D01*
X83591807Y-40032857D01*
X83591802Y-40032855D01*
X83446001Y-40001865D01*
X83406646Y-39993500D01*
X83217354Y-39993500D01*
X83184897Y-40000398D01*
X83032197Y-40032855D01*
X83032192Y-40032857D01*
X82859270Y-40109848D01*
X82859265Y-40109851D01*
X82749885Y-40189321D01*
X82684079Y-40212801D01*
X82616025Y-40196975D01*
X82604115Y-40189321D01*
X82494734Y-40109851D01*
X82494729Y-40109848D01*
X82321807Y-40032857D01*
X82321802Y-40032855D01*
X82176001Y-40001865D01*
X82136646Y-39993500D01*
X81947354Y-39993500D01*
X81914897Y-40000398D01*
X81762197Y-40032855D01*
X81762192Y-40032857D01*
X81589270Y-40109848D01*
X81589265Y-40109851D01*
X81436132Y-40221109D01*
X81436129Y-40221111D01*
X81436129Y-40221112D01*
X81354434Y-40311843D01*
X81351220Y-40315413D01*
X81291733Y-40352061D01*
X81221876Y-40350730D01*
X81163828Y-40311843D01*
X81136018Y-40247746D01*
X81141140Y-40194120D01*
X81149674Y-40167856D01*
X81169460Y-39979600D01*
X81149674Y-39791344D01*
X81091179Y-39611316D01*
X80996533Y-39447384D01*
X80869871Y-39306712D01*
X80869870Y-39306711D01*
X80716734Y-39195451D01*
X80716729Y-39195448D01*
X80543807Y-39118457D01*
X80543805Y-39118456D01*
X80543111Y-39118309D01*
X80542748Y-39118113D01*
X80537626Y-39116449D01*
X80537930Y-39115511D01*
X80481630Y-39085115D01*
X80447854Y-39023952D01*
X80445573Y-38984065D01*
X80455460Y-38890000D01*
X80435674Y-38701744D01*
X80377179Y-38521716D01*
X80282533Y-38357784D01*
X80155871Y-38217112D01*
X80155870Y-38217111D01*
X80002734Y-38105851D01*
X80002729Y-38105848D01*
X79829807Y-38028857D01*
X79829802Y-38028855D01*
X79684001Y-37997865D01*
X79644646Y-37989500D01*
X79455354Y-37989500D01*
X79422897Y-37996398D01*
X79270197Y-38028855D01*
X79270192Y-38028857D01*
X79097270Y-38105848D01*
X79097265Y-38105851D01*
X78944129Y-38217111D01*
X78817465Y-38357785D01*
X78723045Y-38521327D01*
X78672478Y-38569543D01*
X78603871Y-38582766D01*
X78539006Y-38556798D01*
X78519804Y-38537991D01*
X78466410Y-38472929D01*
X78348677Y-38376309D01*
X78306450Y-38341655D01*
X78123954Y-38244108D01*
X77925934Y-38184040D01*
X77925932Y-38184039D01*
X77925934Y-38184039D01*
X77806805Y-38172306D01*
X77771608Y-38168840D01*
X77068392Y-38168840D01*
X77030298Y-38172591D01*
X76914067Y-38184039D01*
X76716043Y-38244109D01*
X76648353Y-38280291D01*
X76533550Y-38341655D01*
X76533548Y-38341656D01*
X76533547Y-38341657D01*
X76373589Y-38472929D01*
X76242317Y-38632887D01*
X76144769Y-38815383D01*
X76084699Y-39013407D01*
X76064417Y-39219340D01*
X74975583Y-39219340D01*
X74955300Y-39013406D01*
X74895232Y-38815386D01*
X74797685Y-38632890D01*
X74719804Y-38537991D01*
X74666410Y-38472929D01*
X74506454Y-38341658D01*
X74506453Y-38341657D01*
X74506450Y-38341655D01*
X74447348Y-38310064D01*
X74397506Y-38261102D01*
X74382046Y-38192964D01*
X74405879Y-38127284D01*
X74413641Y-38117750D01*
X74494133Y-38028356D01*
X74588779Y-37864424D01*
X74647274Y-37684396D01*
X74667060Y-37496140D01*
X74662211Y-37450000D01*
X92494540Y-37450000D01*
X92514326Y-37638256D01*
X92514327Y-37638259D01*
X92572818Y-37818277D01*
X92572821Y-37818284D01*
X92667467Y-37982216D01*
X92709463Y-38028857D01*
X92794129Y-38122888D01*
X92947265Y-38234148D01*
X92947270Y-38234151D01*
X93120192Y-38311142D01*
X93120197Y-38311144D01*
X93305354Y-38350500D01*
X93305355Y-38350500D01*
X93494644Y-38350500D01*
X93494646Y-38350500D01*
X93679803Y-38311144D01*
X93852730Y-38234151D01*
X94005871Y-38122888D01*
X94132533Y-37982216D01*
X94227179Y-37818284D01*
X94285674Y-37638256D01*
X94305460Y-37450000D01*
X94285674Y-37261744D01*
X94227179Y-37081716D01*
X94132533Y-36917784D01*
X94005871Y-36777112D01*
X94005870Y-36777111D01*
X93852734Y-36665851D01*
X93852729Y-36665848D01*
X93679807Y-36588857D01*
X93679802Y-36588855D01*
X93510585Y-36552888D01*
X93494646Y-36549500D01*
X93305354Y-36549500D01*
X93289415Y-36552888D01*
X93120197Y-36588855D01*
X93120192Y-36588857D01*
X92947270Y-36665848D01*
X92947265Y-36665851D01*
X92794129Y-36777111D01*
X92667466Y-36917785D01*
X92572821Y-37081715D01*
X92572818Y-37081722D01*
X92514327Y-37261740D01*
X92514326Y-37261744D01*
X92494540Y-37450000D01*
X74662211Y-37450000D01*
X74647274Y-37307884D01*
X74588779Y-37127856D01*
X74494133Y-36963924D01*
X74476293Y-36944111D01*
X74446064Y-36881121D01*
X74454689Y-36811786D01*
X74476294Y-36778168D01*
X74477246Y-36777111D01*
X74494133Y-36758356D01*
X74588779Y-36594424D01*
X74647274Y-36414396D01*
X74667060Y-36226140D01*
X74650439Y-36068000D01*
X83422540Y-36068000D01*
X83442326Y-36256256D01*
X83442327Y-36256259D01*
X83500818Y-36436277D01*
X83500821Y-36436284D01*
X83595467Y-36600216D01*
X83658150Y-36669832D01*
X83722129Y-36740888D01*
X83875265Y-36852148D01*
X83875270Y-36852151D01*
X84048192Y-36929142D01*
X84048197Y-36929144D01*
X84233354Y-36968500D01*
X84233355Y-36968500D01*
X84422644Y-36968500D01*
X84422646Y-36968500D01*
X84607803Y-36929144D01*
X84780730Y-36852151D01*
X84933871Y-36740888D01*
X84997850Y-36669831D01*
X85057337Y-36633183D01*
X85127194Y-36634514D01*
X85182150Y-36669832D01*
X85246129Y-36740888D01*
X85399265Y-36852148D01*
X85399270Y-36852151D01*
X85572192Y-36929142D01*
X85572197Y-36929144D01*
X85757354Y-36968500D01*
X85757355Y-36968500D01*
X85946644Y-36968500D01*
X85946646Y-36968500D01*
X86131803Y-36929144D01*
X86304730Y-36852151D01*
X86457871Y-36740888D01*
X86584533Y-36600216D01*
X86679179Y-36436284D01*
X86737674Y-36256256D01*
X86757460Y-36068000D01*
X86737674Y-35879744D01*
X86679179Y-35699716D01*
X86584533Y-35535784D01*
X86457871Y-35395112D01*
X86392731Y-35347785D01*
X86304734Y-35283851D01*
X86304729Y-35283848D01*
X86131807Y-35206857D01*
X86131802Y-35206855D01*
X85950334Y-35168284D01*
X85946646Y-35167500D01*
X85757354Y-35167500D01*
X85753666Y-35168284D01*
X85572197Y-35206855D01*
X85572192Y-35206857D01*
X85399270Y-35283848D01*
X85399265Y-35283851D01*
X85246129Y-35395111D01*
X85246128Y-35395112D01*
X85182149Y-35466168D01*
X85122663Y-35502816D01*
X85052806Y-35501485D01*
X84997851Y-35466168D01*
X84933871Y-35395112D01*
X84933870Y-35395111D01*
X84780734Y-35283851D01*
X84780729Y-35283848D01*
X84607807Y-35206857D01*
X84607802Y-35206855D01*
X84426334Y-35168284D01*
X84422646Y-35167500D01*
X84233354Y-35167500D01*
X84229666Y-35168284D01*
X84048197Y-35206855D01*
X84048192Y-35206857D01*
X83875270Y-35283848D01*
X83875265Y-35283851D01*
X83722129Y-35395111D01*
X83595466Y-35535785D01*
X83500821Y-35699715D01*
X83500818Y-35699722D01*
X83449436Y-35857862D01*
X83442326Y-35879744D01*
X83422540Y-36068000D01*
X74650439Y-36068000D01*
X74647274Y-36037884D01*
X74588779Y-35857856D01*
X74494133Y-35693924D01*
X74453423Y-35648711D01*
X74423194Y-35585722D01*
X74431818Y-35516386D01*
X74453422Y-35482769D01*
X74494133Y-35437556D01*
X74588779Y-35273624D01*
X74628947Y-35150000D01*
X98544540Y-35150000D01*
X98564326Y-35338256D01*
X98564327Y-35338259D01*
X98622818Y-35518277D01*
X98622821Y-35518284D01*
X98717467Y-35682216D01*
X98844129Y-35822888D01*
X98997265Y-35934148D01*
X98997270Y-35934151D01*
X99170192Y-36011142D01*
X99170197Y-36011144D01*
X99355354Y-36050500D01*
X99355355Y-36050500D01*
X99544644Y-36050500D01*
X99544646Y-36050500D01*
X99729803Y-36011144D01*
X99902730Y-35934151D01*
X99977263Y-35880000D01*
X101344540Y-35880000D01*
X101364326Y-36068256D01*
X101364327Y-36068259D01*
X101422818Y-36248277D01*
X101422821Y-36248284D01*
X101517467Y-36412216D01*
X101627258Y-36534151D01*
X101644129Y-36552888D01*
X101797265Y-36664148D01*
X101797270Y-36664151D01*
X101970192Y-36741142D01*
X101970197Y-36741144D01*
X102155354Y-36780500D01*
X102155355Y-36780500D01*
X102344644Y-36780500D01*
X102344646Y-36780500D01*
X102529803Y-36741144D01*
X102702730Y-36664151D01*
X102855871Y-36552888D01*
X102982533Y-36412216D01*
X103077179Y-36248284D01*
X103135674Y-36068256D01*
X103155460Y-35880000D01*
X103135674Y-35691744D01*
X103077179Y-35511716D01*
X102982533Y-35347784D01*
X102855871Y-35207112D01*
X102855519Y-35206856D01*
X102702734Y-35095851D01*
X102702729Y-35095848D01*
X102529807Y-35018857D01*
X102529802Y-35018855D01*
X102384001Y-34987865D01*
X102344646Y-34979500D01*
X102155354Y-34979500D01*
X102122897Y-34986398D01*
X101970197Y-35018855D01*
X101970192Y-35018857D01*
X101797270Y-35095848D01*
X101797265Y-35095851D01*
X101644129Y-35207111D01*
X101517466Y-35347785D01*
X101422821Y-35511715D01*
X101422818Y-35511722D01*
X101367422Y-35682216D01*
X101364326Y-35691744D01*
X101344540Y-35880000D01*
X99977263Y-35880000D01*
X100055871Y-35822888D01*
X100182533Y-35682216D01*
X100277179Y-35518284D01*
X100335674Y-35338256D01*
X100355460Y-35150000D01*
X100335674Y-34961744D01*
X100277179Y-34781716D01*
X100182533Y-34617784D01*
X100055871Y-34477112D01*
X100019243Y-34450500D01*
X99902734Y-34365851D01*
X99902729Y-34365848D01*
X99729807Y-34288857D01*
X99729802Y-34288855D01*
X99584001Y-34257865D01*
X99544646Y-34249500D01*
X99355354Y-34249500D01*
X99322897Y-34256398D01*
X99170197Y-34288855D01*
X99170192Y-34288857D01*
X98997270Y-34365848D01*
X98997265Y-34365851D01*
X98844129Y-34477111D01*
X98717466Y-34617785D01*
X98622821Y-34781715D01*
X98622818Y-34781722D01*
X98572528Y-34936500D01*
X98564326Y-34961744D01*
X98544540Y-35150000D01*
X74628947Y-35150000D01*
X74647274Y-35093596D01*
X74667060Y-34905340D01*
X74647274Y-34717084D01*
X74588779Y-34537056D01*
X74494133Y-34373124D01*
X74494132Y-34373122D01*
X74490868Y-34368631D01*
X74467385Y-34302826D01*
X74483206Y-34234771D01*
X74490868Y-34222849D01*
X74494128Y-34218361D01*
X74494133Y-34218356D01*
X74588779Y-34054424D01*
X74636030Y-33909000D01*
X83422540Y-33909000D01*
X83442326Y-34097256D01*
X83442327Y-34097259D01*
X83500818Y-34277277D01*
X83500821Y-34277284D01*
X83595467Y-34441216D01*
X83697779Y-34554845D01*
X83722129Y-34581888D01*
X83875265Y-34693148D01*
X83875270Y-34693151D01*
X84048192Y-34770142D01*
X84048197Y-34770144D01*
X84233354Y-34809500D01*
X84233355Y-34809500D01*
X84422644Y-34809500D01*
X84422646Y-34809500D01*
X84607803Y-34770144D01*
X84780730Y-34693151D01*
X84826614Y-34659813D01*
X84892421Y-34636334D01*
X84960475Y-34652159D01*
X84972386Y-34659814D01*
X85018271Y-34693152D01*
X85191192Y-34770142D01*
X85191197Y-34770144D01*
X85376354Y-34809500D01*
X85376355Y-34809500D01*
X85565644Y-34809500D01*
X85565646Y-34809500D01*
X85750803Y-34770144D01*
X85923730Y-34693151D01*
X86076871Y-34581888D01*
X86203533Y-34441216D01*
X86298179Y-34277284D01*
X86356674Y-34097256D01*
X86363112Y-34036000D01*
X87486540Y-34036000D01*
X87506326Y-34224256D01*
X87506327Y-34224259D01*
X87564818Y-34404277D01*
X87564821Y-34404284D01*
X87659467Y-34568216D01*
X87763853Y-34684148D01*
X87786129Y-34708888D01*
X87939265Y-34820148D01*
X87939270Y-34820151D01*
X88112192Y-34897142D01*
X88112197Y-34897144D01*
X88297354Y-34936500D01*
X88297355Y-34936500D01*
X88486644Y-34936500D01*
X88486646Y-34936500D01*
X88671803Y-34897144D01*
X88844730Y-34820151D01*
X88997871Y-34708888D01*
X89124533Y-34568216D01*
X89219179Y-34404284D01*
X89277674Y-34224256D01*
X89297460Y-34036000D01*
X89283166Y-33900000D01*
X91734540Y-33900000D01*
X91754326Y-34088256D01*
X91754327Y-34088259D01*
X91812818Y-34268277D01*
X91812821Y-34268284D01*
X91907467Y-34432216D01*
X92029922Y-34568216D01*
X92034129Y-34572888D01*
X92187265Y-34684148D01*
X92187270Y-34684151D01*
X92360192Y-34761142D01*
X92360197Y-34761144D01*
X92545354Y-34800500D01*
X92545355Y-34800500D01*
X92734644Y-34800500D01*
X92734646Y-34800500D01*
X92919803Y-34761144D01*
X93092730Y-34684151D01*
X93245871Y-34572888D01*
X93372533Y-34432216D01*
X93467179Y-34268284D01*
X93525674Y-34088256D01*
X93545460Y-33900000D01*
X93525674Y-33711744D01*
X93467179Y-33531716D01*
X93372533Y-33367784D01*
X93245871Y-33227112D01*
X93245870Y-33227111D01*
X93092734Y-33115851D01*
X93092729Y-33115848D01*
X92919807Y-33038857D01*
X92919802Y-33038855D01*
X92757261Y-33004307D01*
X92734646Y-32999500D01*
X92545354Y-32999500D01*
X92522739Y-33004307D01*
X92360197Y-33038855D01*
X92360192Y-33038857D01*
X92187270Y-33115848D01*
X92187265Y-33115851D01*
X92034129Y-33227111D01*
X91907466Y-33367785D01*
X91812821Y-33531715D01*
X91812818Y-33531722D01*
X91762645Y-33686140D01*
X91754326Y-33711744D01*
X91734540Y-33900000D01*
X89283166Y-33900000D01*
X89277674Y-33847744D01*
X89219179Y-33667716D01*
X89124533Y-33503784D01*
X88997871Y-33363112D01*
X88995983Y-33361740D01*
X88844734Y-33251851D01*
X88844729Y-33251848D01*
X88671807Y-33174857D01*
X88671802Y-33174855D01*
X88526001Y-33143865D01*
X88486646Y-33135500D01*
X88297354Y-33135500D01*
X88264897Y-33142398D01*
X88112197Y-33174855D01*
X88112192Y-33174857D01*
X87939270Y-33251848D01*
X87939265Y-33251851D01*
X87786129Y-33363111D01*
X87659466Y-33503785D01*
X87564821Y-33667715D01*
X87564818Y-33667722D01*
X87506327Y-33847740D01*
X87506326Y-33847744D01*
X87486540Y-34036000D01*
X86363112Y-34036000D01*
X86376460Y-33909000D01*
X86356674Y-33720744D01*
X86298179Y-33540716D01*
X86203533Y-33376784D01*
X86076871Y-33236112D01*
X86064484Y-33227112D01*
X85923734Y-33124851D01*
X85923729Y-33124848D01*
X85750807Y-33047857D01*
X85750802Y-33047855D01*
X85605001Y-33016865D01*
X85565646Y-33008500D01*
X85376354Y-33008500D01*
X85371061Y-33009624D01*
X85301397Y-33004307D01*
X85245664Y-32962169D01*
X85221560Y-32896589D01*
X85221963Y-32875381D01*
X85233460Y-32766000D01*
X85213674Y-32577744D01*
X85155179Y-32397716D01*
X85073647Y-32256499D01*
X85057175Y-32188600D01*
X85073648Y-32132500D01*
X85110723Y-32068284D01*
X85155179Y-31991284D01*
X85213674Y-31811256D01*
X85233460Y-31623000D01*
X85213674Y-31434744D01*
X85155179Y-31254716D01*
X85073647Y-31113499D01*
X85057175Y-31045600D01*
X85073648Y-30989500D01*
X85126540Y-30897888D01*
X85155179Y-30848284D01*
X85213674Y-30668256D01*
X85233460Y-30480000D01*
X86224540Y-30480000D01*
X86244326Y-30668256D01*
X86244327Y-30668259D01*
X86302818Y-30848277D01*
X86302820Y-30848281D01*
X86302821Y-30848284D01*
X86397467Y-31012216D01*
X86488663Y-31113499D01*
X86524129Y-31152888D01*
X86677265Y-31264148D01*
X86677270Y-31264151D01*
X86850192Y-31341142D01*
X86850197Y-31341144D01*
X87035354Y-31380500D01*
X87035355Y-31380500D01*
X87224644Y-31380500D01*
X87224646Y-31380500D01*
X87409803Y-31341144D01*
X87582730Y-31264151D01*
X87735871Y-31152888D01*
X87862533Y-31012216D01*
X87957179Y-30848284D01*
X88015674Y-30668256D01*
X88035460Y-30480000D01*
X88015674Y-30291744D01*
X87993987Y-30225000D01*
X94969540Y-30225000D01*
X94989326Y-30413256D01*
X94989327Y-30413259D01*
X95047818Y-30593277D01*
X95047821Y-30593284D01*
X95142467Y-30757216D01*
X95269124Y-30897882D01*
X95269129Y-30897888D01*
X95345473Y-30953355D01*
X95388139Y-31008685D01*
X95394118Y-31078298D01*
X95361513Y-31140093D01*
X95355564Y-31145820D01*
X95354128Y-31147112D01*
X95227466Y-31287785D01*
X95132821Y-31451715D01*
X95132818Y-31451722D01*
X95074327Y-31631740D01*
X95074326Y-31631744D01*
X95054540Y-31820000D01*
X95074326Y-32008256D01*
X95074327Y-32008259D01*
X95132818Y-32188277D01*
X95132821Y-32188284D01*
X95227467Y-32352216D01*
X95268441Y-32397722D01*
X95354129Y-32492888D01*
X95507265Y-32604148D01*
X95507270Y-32604151D01*
X95597867Y-32644488D01*
X95651104Y-32689738D01*
X95671425Y-32756587D01*
X95652379Y-32823811D01*
X95620318Y-32858084D01*
X95594128Y-32877112D01*
X95467466Y-33017785D01*
X95372821Y-33181715D01*
X95372818Y-33181722D01*
X95328586Y-33317855D01*
X95314326Y-33361744D01*
X95294540Y-33550000D01*
X95314326Y-33738256D01*
X95314327Y-33738259D01*
X95372818Y-33918277D01*
X95372821Y-33918284D01*
X95467467Y-34082216D01*
X95507892Y-34127112D01*
X95594129Y-34222888D01*
X95747265Y-34334148D01*
X95747270Y-34334151D01*
X95920192Y-34411142D01*
X95920197Y-34411144D01*
X96105354Y-34450500D01*
X96105355Y-34450500D01*
X96294644Y-34450500D01*
X96294646Y-34450500D01*
X96479803Y-34411144D01*
X96652730Y-34334151D01*
X96805871Y-34222888D01*
X96932533Y-34082216D01*
X97027179Y-33918284D01*
X97085674Y-33738256D01*
X97105460Y-33550000D01*
X97085674Y-33361744D01*
X97027179Y-33181716D01*
X96932533Y-33017784D01*
X96805871Y-32877112D01*
X96803476Y-32875372D01*
X96652734Y-32765851D01*
X96652732Y-32765850D01*
X96562131Y-32725511D01*
X96508895Y-32680260D01*
X96488574Y-32613411D01*
X96507620Y-32546187D01*
X96539681Y-32511915D01*
X96565871Y-32492888D01*
X96692533Y-32352216D01*
X96787179Y-32188284D01*
X96845674Y-32008256D01*
X96865460Y-31820000D01*
X96845674Y-31631744D01*
X96787179Y-31451716D01*
X96692533Y-31287784D01*
X96565871Y-31147112D01*
X96564093Y-31145820D01*
X96489526Y-31091644D01*
X96446860Y-31036314D01*
X96440881Y-30966701D01*
X96473487Y-30904906D01*
X96479450Y-30899166D01*
X96480862Y-30897894D01*
X96480871Y-30897888D01*
X96607533Y-30757216D01*
X96702179Y-30593284D01*
X96760674Y-30413256D01*
X96780460Y-30225000D01*
X96760674Y-30036744D01*
X96702179Y-29856716D01*
X96607533Y-29692784D01*
X96480871Y-29552112D01*
X96480870Y-29552111D01*
X96327734Y-29440851D01*
X96327729Y-29440848D01*
X96154807Y-29363857D01*
X96154802Y-29363855D01*
X96009001Y-29332865D01*
X95969646Y-29324500D01*
X95780354Y-29324500D01*
X95747897Y-29331398D01*
X95595197Y-29363855D01*
X95595192Y-29363857D01*
X95422270Y-29440848D01*
X95422265Y-29440851D01*
X95269129Y-29552111D01*
X95142466Y-29692785D01*
X95047821Y-29856715D01*
X95047818Y-29856722D01*
X95003576Y-29992887D01*
X94989326Y-30036744D01*
X94969540Y-30225000D01*
X87993987Y-30225000D01*
X87957179Y-30111716D01*
X87862533Y-29947784D01*
X87861935Y-29947120D01*
X87861711Y-29946652D01*
X87858715Y-29942529D01*
X87859469Y-29941980D01*
X87831707Y-29884129D01*
X87840333Y-29814794D01*
X87885075Y-29761129D01*
X87903644Y-29750874D01*
X87927730Y-29740151D01*
X88080871Y-29628888D01*
X88207533Y-29488216D01*
X88302179Y-29324284D01*
X88360674Y-29144256D01*
X88380460Y-28956000D01*
X88360674Y-28767744D01*
X88302179Y-28587716D01*
X88207533Y-28423784D01*
X88080871Y-28283112D01*
X87991643Y-28218284D01*
X87927734Y-28171851D01*
X87927729Y-28171848D01*
X87754807Y-28094857D01*
X87754802Y-28094855D01*
X87609001Y-28063865D01*
X87569646Y-28055500D01*
X87380354Y-28055500D01*
X87347897Y-28062398D01*
X87195197Y-28094855D01*
X87195192Y-28094857D01*
X87022270Y-28171848D01*
X87022265Y-28171851D01*
X86869129Y-28283111D01*
X86742466Y-28423785D01*
X86647821Y-28587715D01*
X86647818Y-28587722D01*
X86594929Y-28750500D01*
X86589326Y-28767744D01*
X86569540Y-28956000D01*
X86589326Y-29144256D01*
X86589327Y-29144259D01*
X86647818Y-29324277D01*
X86647821Y-29324284D01*
X86742467Y-29488216D01*
X86743064Y-29488879D01*
X86743288Y-29489346D01*
X86746285Y-29493471D01*
X86745530Y-29494019D01*
X86773292Y-29551871D01*
X86764666Y-29621206D01*
X86719923Y-29674871D01*
X86701350Y-29685127D01*
X86677272Y-29695847D01*
X86677265Y-29695851D01*
X86524129Y-29807111D01*
X86397466Y-29947785D01*
X86302821Y-30111715D01*
X86302818Y-30111722D01*
X86244327Y-30291740D01*
X86244326Y-30291744D01*
X86224540Y-30480000D01*
X85233460Y-30480000D01*
X85213674Y-30291744D01*
X85155179Y-30111716D01*
X85060533Y-29947784D01*
X84933871Y-29807112D01*
X84870581Y-29761129D01*
X84780734Y-29695851D01*
X84780729Y-29695848D01*
X84607807Y-29618857D01*
X84607802Y-29618855D01*
X84462001Y-29587865D01*
X84422646Y-29579500D01*
X84233354Y-29579500D01*
X84200897Y-29586398D01*
X84048197Y-29618855D01*
X84048192Y-29618857D01*
X83875270Y-29695848D01*
X83875265Y-29695851D01*
X83722129Y-29807111D01*
X83595466Y-29947785D01*
X83500821Y-30111715D01*
X83500818Y-30111722D01*
X83442327Y-30291740D01*
X83442326Y-30291744D01*
X83422540Y-30480000D01*
X83442326Y-30668256D01*
X83442327Y-30668259D01*
X83500818Y-30848277D01*
X83500820Y-30848281D01*
X83500821Y-30848284D01*
X83529460Y-30897888D01*
X83582352Y-30989501D01*
X83598824Y-31057401D01*
X83582352Y-31113499D01*
X83500820Y-31254718D01*
X83500818Y-31254722D01*
X83460995Y-31377286D01*
X83442326Y-31434744D01*
X83422540Y-31623000D01*
X83442326Y-31811256D01*
X83442327Y-31811259D01*
X83500818Y-31991277D01*
X83500820Y-31991281D01*
X83500821Y-31991284D01*
X83510620Y-32008256D01*
X83582352Y-32132501D01*
X83598824Y-32200401D01*
X83582352Y-32256499D01*
X83500820Y-32397718D01*
X83500818Y-32397722D01*
X83442327Y-32577740D01*
X83442326Y-32577744D01*
X83422540Y-32766000D01*
X83442326Y-32954256D01*
X83442327Y-32954259D01*
X83500818Y-33134277D01*
X83500820Y-33134281D01*
X83500821Y-33134284D01*
X83548712Y-33217235D01*
X83582352Y-33275501D01*
X83598824Y-33343401D01*
X83582352Y-33399499D01*
X83500820Y-33540718D01*
X83500818Y-33540722D01*
X83445250Y-33711744D01*
X83442326Y-33720744D01*
X83422540Y-33909000D01*
X74636030Y-33909000D01*
X74647274Y-33874396D01*
X74667060Y-33686140D01*
X74647274Y-33497884D01*
X74588779Y-33317856D01*
X74494133Y-33153924D01*
X74476293Y-33134111D01*
X74446064Y-33071121D01*
X74454689Y-33001786D01*
X74476294Y-32968168D01*
X74494133Y-32948356D01*
X74588779Y-32784424D01*
X74647274Y-32604396D01*
X74667060Y-32416140D01*
X74647274Y-32227884D01*
X74609406Y-32111340D01*
X75294540Y-32111340D01*
X75314326Y-32299596D01*
X75314327Y-32299599D01*
X75372818Y-32479617D01*
X75372821Y-32479624D01*
X75467467Y-32643556D01*
X75577716Y-32766000D01*
X75594129Y-32784228D01*
X75747265Y-32895488D01*
X75747270Y-32895491D01*
X75920192Y-32972482D01*
X75920197Y-32972484D01*
X76105354Y-33011840D01*
X76105355Y-33011840D01*
X76294644Y-33011840D01*
X76294646Y-33011840D01*
X76479803Y-32972484D01*
X76652730Y-32895491D01*
X76805871Y-32784228D01*
X76932533Y-32643556D01*
X77027179Y-32479624D01*
X77085674Y-32299596D01*
X77105460Y-32111340D01*
X77085674Y-31923084D01*
X77049339Y-31811256D01*
X77043134Y-31792158D01*
X77041139Y-31722317D01*
X77077220Y-31662484D01*
X77139921Y-31631656D01*
X77161065Y-31629840D01*
X77771605Y-31629840D01*
X77771608Y-31629840D01*
X77925934Y-31614640D01*
X78123954Y-31554572D01*
X78306450Y-31457025D01*
X78466410Y-31325750D01*
X78597685Y-31165790D01*
X78695232Y-30983294D01*
X78755300Y-30785274D01*
X78775583Y-30579340D01*
X78755300Y-30373406D01*
X78695232Y-30175386D01*
X78597685Y-29992890D01*
X78508428Y-29884129D01*
X78466410Y-29832929D01*
X78306452Y-29701657D01*
X78306453Y-29701657D01*
X78306450Y-29701655D01*
X78123954Y-29604108D01*
X77925934Y-29544040D01*
X77925932Y-29544039D01*
X77925934Y-29544039D01*
X77806805Y-29532306D01*
X77771608Y-29528840D01*
X77068392Y-29528840D01*
X77030298Y-29532591D01*
X76914067Y-29544039D01*
X76716043Y-29604109D01*
X76669686Y-29628888D01*
X76533550Y-29701655D01*
X76533548Y-29701656D01*
X76533547Y-29701657D01*
X76373589Y-29832929D01*
X76279331Y-29947785D01*
X76242315Y-29992890D01*
X76218874Y-30036744D01*
X76144769Y-30175383D01*
X76084699Y-30373407D01*
X76064417Y-30579340D01*
X76084699Y-30785272D01*
X76144769Y-30983298D01*
X76172217Y-31034649D01*
X76186459Y-31103052D01*
X76161459Y-31168296D01*
X76105154Y-31209666D01*
X76088640Y-31214392D01*
X75920197Y-31250195D01*
X75920192Y-31250197D01*
X75747270Y-31327188D01*
X75747265Y-31327191D01*
X75594129Y-31438451D01*
X75467466Y-31579125D01*
X75372821Y-31743055D01*
X75372818Y-31743062D01*
X75325642Y-31888256D01*
X75314326Y-31923084D01*
X75294540Y-32111340D01*
X74609406Y-32111340D01*
X74588779Y-32047856D01*
X74494133Y-31883924D01*
X74367471Y-31743252D01*
X74359558Y-31737503D01*
X74316893Y-31682175D01*
X74310912Y-31612562D01*
X74343517Y-31550766D01*
X74373986Y-31527828D01*
X74506450Y-31457025D01*
X74666410Y-31325750D01*
X74797685Y-31165790D01*
X74895232Y-30983294D01*
X74955300Y-30785274D01*
X74975583Y-30579340D01*
X74955300Y-30373406D01*
X74895232Y-30175386D01*
X74797685Y-29992890D01*
X74708428Y-29884129D01*
X74666410Y-29832929D01*
X74506452Y-29701657D01*
X74506453Y-29701657D01*
X74506450Y-29701655D01*
X74323954Y-29604108D01*
X74125934Y-29544040D01*
X74125932Y-29544039D01*
X74125934Y-29544039D01*
X74006805Y-29532306D01*
X73971608Y-29528840D01*
X73268392Y-29528840D01*
X73230298Y-29532591D01*
X73114067Y-29544039D01*
X72916043Y-29604109D01*
X72869686Y-29628888D01*
X72733550Y-29701655D01*
X72733548Y-29701656D01*
X72733547Y-29701657D01*
X72573589Y-29832929D01*
X72479331Y-29947785D01*
X72442315Y-29992890D01*
X72418874Y-30036744D01*
X72344769Y-30175383D01*
X72284699Y-30373407D01*
X72264417Y-30579340D01*
X72284699Y-30785272D01*
X72303813Y-30848281D01*
X72344768Y-30983294D01*
X72442315Y-31165790D01*
X72444372Y-31168296D01*
X72563106Y-31312976D01*
X72590418Y-31377286D01*
X72578627Y-31446153D01*
X72531474Y-31497713D01*
X72467252Y-31515640D01*
X72295354Y-31515640D01*
X72262897Y-31522538D01*
X72110197Y-31554995D01*
X72110192Y-31554997D01*
X71937270Y-31631988D01*
X71937265Y-31631991D01*
X71784129Y-31743251D01*
X71657466Y-31883925D01*
X71562821Y-32047855D01*
X71562818Y-32047862D01*
X71504327Y-32227880D01*
X71504326Y-32227884D01*
X71484540Y-32416140D01*
X71504326Y-32604396D01*
X71504327Y-32604399D01*
X71562818Y-32784417D01*
X71562821Y-32784424D01*
X71657467Y-32948356D01*
X71662782Y-32954259D01*
X71675307Y-32968170D01*
X71705535Y-33031162D01*
X71696909Y-33100497D01*
X71675307Y-33134110D01*
X71657466Y-33153925D01*
X71562821Y-33317855D01*
X71562818Y-33317862D01*
X71536293Y-33399499D01*
X71504326Y-33497884D01*
X71484540Y-33686140D01*
X71504326Y-33874396D01*
X71504327Y-33874399D01*
X71562818Y-34054417D01*
X71562821Y-34054424D01*
X71657467Y-34218356D01*
X71658699Y-34219724D01*
X71659162Y-34220689D01*
X71661285Y-34223611D01*
X71660750Y-34223999D01*
X71688928Y-34282713D01*
X71680305Y-34352049D01*
X71658701Y-34385666D01*
X71653977Y-34390912D01*
X71653973Y-34390917D01*
X71559330Y-34554845D01*
X71559327Y-34554852D01*
X71506615Y-34717084D01*
X71500835Y-34734874D01*
X71481049Y-34923130D01*
X71500835Y-35111386D01*
X71500836Y-35111389D01*
X71559327Y-35291407D01*
X71559330Y-35291414D01*
X71653976Y-35455346D01*
X71678666Y-35482767D01*
X71688421Y-35493601D01*
X71718651Y-35556592D01*
X71710026Y-35625928D01*
X71688422Y-35659544D01*
X71657466Y-35693924D01*
X71562821Y-35857855D01*
X71562818Y-35857862D01*
X71536697Y-35938256D01*
X71504326Y-36037884D01*
X71484540Y-36226140D01*
X71504326Y-36414396D01*
X71504327Y-36414399D01*
X71562818Y-36594417D01*
X71562821Y-36594424D01*
X71657467Y-36758356D01*
X71667806Y-36769839D01*
X71675307Y-36778170D01*
X71705535Y-36841162D01*
X71696909Y-36910497D01*
X71675307Y-36944110D01*
X71657466Y-36963925D01*
X71562821Y-37127855D01*
X71562818Y-37127862D01*
X71504327Y-37307880D01*
X71504326Y-37307884D01*
X71484540Y-37496140D01*
X71504326Y-37684396D01*
X71504327Y-37684399D01*
X71562818Y-37864417D01*
X71562821Y-37864424D01*
X71657467Y-38028356D01*
X71783960Y-38168840D01*
X71784129Y-38169028D01*
X71902710Y-38255182D01*
X71945376Y-38310512D01*
X71951355Y-38380125D01*
X71918749Y-38441920D01*
X71857911Y-38476277D01*
X71829825Y-38479500D01*
X71655354Y-38479500D01*
X71622897Y-38486398D01*
X71470197Y-38518855D01*
X71470192Y-38518857D01*
X71297270Y-38595848D01*
X71297265Y-38595851D01*
X71197385Y-38668419D01*
X71131579Y-38691899D01*
X71063525Y-38676073D01*
X71014830Y-38625968D01*
X71000500Y-38568101D01*
X71000500Y-27940000D01*
X83422540Y-27940000D01*
X83442326Y-28128256D01*
X83442327Y-28128259D01*
X83500818Y-28308277D01*
X83500821Y-28308284D01*
X83595467Y-28472216D01*
X83716572Y-28606716D01*
X83722129Y-28612888D01*
X83875265Y-28724148D01*
X83875270Y-28724151D01*
X84048192Y-28801142D01*
X84048197Y-28801144D01*
X84233354Y-28840500D01*
X84233355Y-28840500D01*
X84422644Y-28840500D01*
X84422646Y-28840500D01*
X84607803Y-28801144D01*
X84780730Y-28724151D01*
X84933871Y-28612888D01*
X85060533Y-28472216D01*
X85155179Y-28308284D01*
X85213674Y-28128256D01*
X85233460Y-27940000D01*
X85224001Y-27850000D01*
X92544540Y-27850000D01*
X92564326Y-28038256D01*
X92564327Y-28038259D01*
X92622818Y-28218277D01*
X92622821Y-28218284D01*
X92717467Y-28382216D01*
X92764184Y-28434100D01*
X92844129Y-28522888D01*
X92997265Y-28634148D01*
X92997270Y-28634151D01*
X93170192Y-28711142D01*
X93170197Y-28711144D01*
X93355354Y-28750500D01*
X93355355Y-28750500D01*
X93544644Y-28750500D01*
X93544646Y-28750500D01*
X93729803Y-28711144D01*
X93902730Y-28634151D01*
X94055871Y-28522888D01*
X94182533Y-28382216D01*
X94277179Y-28218284D01*
X94335674Y-28038256D01*
X94355460Y-27850000D01*
X94335674Y-27661744D01*
X94277179Y-27481716D01*
X94182533Y-27317784D01*
X94055871Y-27177112D01*
X94055870Y-27177111D01*
X93902734Y-27065851D01*
X93902729Y-27065848D01*
X93729807Y-26988857D01*
X93729802Y-26988855D01*
X93584001Y-26957865D01*
X93544646Y-26949500D01*
X93355354Y-26949500D01*
X93322897Y-26956398D01*
X93170197Y-26988855D01*
X93170192Y-26988857D01*
X92997270Y-27065848D01*
X92997265Y-27065851D01*
X92844129Y-27177111D01*
X92717466Y-27317785D01*
X92622821Y-27481715D01*
X92622818Y-27481722D01*
X92564327Y-27661740D01*
X92564326Y-27661744D01*
X92544540Y-27850000D01*
X85224001Y-27850000D01*
X85213674Y-27751744D01*
X85155179Y-27571716D01*
X85073647Y-27430499D01*
X85057175Y-27362600D01*
X85073648Y-27306500D01*
X85081969Y-27292088D01*
X85155179Y-27165284D01*
X85213674Y-26985256D01*
X85233460Y-26797000D01*
X85213674Y-26608744D01*
X85155179Y-26428716D01*
X85060533Y-26264784D01*
X84933871Y-26124112D01*
X84933870Y-26124111D01*
X84780734Y-26012851D01*
X84780729Y-26012848D01*
X84607807Y-25935857D01*
X84607802Y-25935855D01*
X84462001Y-25904865D01*
X84422646Y-25896500D01*
X84233354Y-25896500D01*
X84200897Y-25903398D01*
X84048197Y-25935855D01*
X84048192Y-25935857D01*
X83875270Y-26012848D01*
X83875265Y-26012851D01*
X83722129Y-26124111D01*
X83595466Y-26264785D01*
X83500821Y-26428715D01*
X83500818Y-26428722D01*
X83445263Y-26599704D01*
X83442326Y-26608744D01*
X83422540Y-26797000D01*
X83442326Y-26985256D01*
X83442327Y-26985259D01*
X83500818Y-27165277D01*
X83500820Y-27165281D01*
X83500821Y-27165284D01*
X83548712Y-27248235D01*
X83582352Y-27306501D01*
X83598824Y-27374401D01*
X83582352Y-27430499D01*
X83500820Y-27571718D01*
X83500818Y-27571722D01*
X83452037Y-27721856D01*
X83442326Y-27751744D01*
X83422540Y-27940000D01*
X71000500Y-27940000D01*
X71000500Y-27001439D01*
X71000566Y-26998576D01*
X71004146Y-26921117D01*
X71008490Y-26827168D01*
X71018302Y-26627446D01*
X71018818Y-26621955D01*
X71044670Y-26436633D01*
X71054012Y-26373657D01*
X71072331Y-26250162D01*
X71073292Y-26245137D01*
X71088612Y-26180000D01*
X73614540Y-26180000D01*
X73634326Y-26368256D01*
X73634327Y-26368259D01*
X73692818Y-26548277D01*
X73692821Y-26548284D01*
X73787467Y-26712216D01*
X73820992Y-26749449D01*
X73914129Y-26852888D01*
X74067265Y-26964148D01*
X74067270Y-26964151D01*
X74240192Y-27041142D01*
X74240197Y-27041144D01*
X74425354Y-27080500D01*
X74425355Y-27080500D01*
X74614644Y-27080500D01*
X74614646Y-27080500D01*
X74799803Y-27041144D01*
X74972730Y-26964151D01*
X75125871Y-26852888D01*
X75252533Y-26712216D01*
X75347179Y-26548284D01*
X75405674Y-26368256D01*
X75425460Y-26180000D01*
X75405674Y-25991744D01*
X75347179Y-25811716D01*
X75331679Y-25784870D01*
X97319500Y-25784870D01*
X97319501Y-25784876D01*
X97325908Y-25844483D01*
X97376202Y-25979328D01*
X97376206Y-25979335D01*
X97462452Y-26094544D01*
X97462455Y-26094547D01*
X97577664Y-26180793D01*
X97577671Y-26180797D01*
X97712517Y-26231091D01*
X97712516Y-26231091D01*
X97719444Y-26231835D01*
X97772127Y-26237500D01*
X99567872Y-26237499D01*
X99627483Y-26231091D01*
X99762331Y-26180796D01*
X99877546Y-26094546D01*
X99963796Y-25979331D01*
X100014091Y-25844483D01*
X100020500Y-25784873D01*
X100020499Y-23989128D01*
X100015030Y-23938256D01*
X100014091Y-23929516D01*
X99963797Y-23794671D01*
X99963793Y-23794664D01*
X99877547Y-23679455D01*
X99877544Y-23679452D01*
X99762335Y-23593206D01*
X99762328Y-23593202D01*
X99627482Y-23542908D01*
X99627483Y-23542908D01*
X99567883Y-23536501D01*
X99567881Y-23536500D01*
X99567873Y-23536500D01*
X99567864Y-23536500D01*
X97772129Y-23536500D01*
X97772123Y-23536501D01*
X97712516Y-23542908D01*
X97577671Y-23593202D01*
X97577664Y-23593206D01*
X97462455Y-23679452D01*
X97462452Y-23679455D01*
X97376206Y-23794664D01*
X97376202Y-23794671D01*
X97325908Y-23929517D01*
X97319501Y-23989116D01*
X97319501Y-23989123D01*
X97319500Y-23989135D01*
X97319500Y-25784870D01*
X75331679Y-25784870D01*
X75252533Y-25647784D01*
X75125871Y-25507112D01*
X75068933Y-25465744D01*
X74972734Y-25395851D01*
X74972729Y-25395848D01*
X74799807Y-25318857D01*
X74799802Y-25318855D01*
X74643890Y-25285716D01*
X74614646Y-25279500D01*
X74425354Y-25279500D01*
X74396110Y-25285716D01*
X74240197Y-25318855D01*
X74240192Y-25318857D01*
X74067270Y-25395848D01*
X74067265Y-25395851D01*
X73914129Y-25507111D01*
X73787466Y-25647785D01*
X73692821Y-25811715D01*
X73692818Y-25811722D01*
X73646262Y-25955008D01*
X73634326Y-25991744D01*
X73614540Y-26180000D01*
X71088612Y-26180000D01*
X71116689Y-26060626D01*
X71161993Y-25879764D01*
X71163323Y-25875216D01*
X71223915Y-25694431D01*
X71286457Y-25519641D01*
X71288100Y-25515527D01*
X71291816Y-25507112D01*
X71365368Y-25340530D01*
X71444615Y-25172977D01*
X71446444Y-25169423D01*
X71539781Y-25001852D01*
X71634990Y-24843005D01*
X71636979Y-24839904D01*
X71745570Y-24681381D01*
X71855924Y-24532586D01*
X71857928Y-24530033D01*
X71980875Y-24381973D01*
X72105351Y-24244636D01*
X72107361Y-24242526D01*
X72242526Y-24107361D01*
X72244636Y-24105351D01*
X72381973Y-23980875D01*
X72530033Y-23857928D01*
X72532586Y-23855924D01*
X72681381Y-23745570D01*
X72839904Y-23636979D01*
X72843005Y-23634990D01*
X73001852Y-23539781D01*
X73169423Y-23446444D01*
X73172977Y-23444615D01*
X73340530Y-23365368D01*
X73515538Y-23288095D01*
X73519641Y-23286457D01*
X73694431Y-23223915D01*
X73875216Y-23163323D01*
X73879764Y-23161993D01*
X74060626Y-23116689D01*
X74245137Y-23073292D01*
X74250158Y-23072331D01*
X74358534Y-23056255D01*
X74427733Y-23065890D01*
X74480740Y-23111409D01*
X74500724Y-23178360D01*
X74484113Y-23240912D01*
X74402820Y-23381718D01*
X74402818Y-23381722D01*
X74350446Y-23542908D01*
X74344326Y-23561744D01*
X74324540Y-23750000D01*
X74344326Y-23938256D01*
X74344327Y-23938259D01*
X74402818Y-24118277D01*
X74402821Y-24118284D01*
X74497467Y-24282216D01*
X74595000Y-24390537D01*
X74624129Y-24422888D01*
X74777265Y-24534148D01*
X74777270Y-24534151D01*
X74950192Y-24611142D01*
X74950197Y-24611144D01*
X75135354Y-24650500D01*
X75135355Y-24650500D01*
X75324644Y-24650500D01*
X75324646Y-24650500D01*
X75509803Y-24611144D01*
X75682730Y-24534151D01*
X75792117Y-24454676D01*
X75857920Y-24431198D01*
X75925974Y-24447023D01*
X75937871Y-24454668D01*
X76003299Y-24502204D01*
X76047270Y-24534151D01*
X76220192Y-24611142D01*
X76220197Y-24611144D01*
X76405354Y-24650500D01*
X76405355Y-24650500D01*
X76594644Y-24650500D01*
X76594646Y-24650500D01*
X76779803Y-24611144D01*
X76952730Y-24534151D01*
X77062117Y-24454676D01*
X77127920Y-24431198D01*
X77195974Y-24447023D01*
X77207871Y-24454668D01*
X77273299Y-24502204D01*
X77317270Y-24534151D01*
X77490192Y-24611142D01*
X77490197Y-24611144D01*
X77675354Y-24650500D01*
X77675355Y-24650500D01*
X77864644Y-24650500D01*
X77864646Y-24650500D01*
X78049803Y-24611144D01*
X78222730Y-24534151D01*
X78375871Y-24422888D01*
X78502533Y-24282216D01*
X78597179Y-24118284D01*
X78655674Y-23938256D01*
X78675460Y-23750000D01*
X78655674Y-23561744D01*
X78597179Y-23381716D01*
X78502533Y-23217784D01*
X78493247Y-23207471D01*
X78463018Y-23144481D01*
X78471643Y-23075145D01*
X78516385Y-23021480D01*
X78583037Y-23000522D01*
X78585398Y-23000500D01*
X89654602Y-23000500D01*
X89721641Y-23020185D01*
G37*
%TD.AperFunction*%
%TD*%
%TA.AperFunction,Conductor*%
%TO.N,+5V*%
G36*
X111311641Y-23020185D02*
G01*
X111357396Y-23072989D01*
X111367340Y-23142147D01*
X111338315Y-23205703D01*
X111336752Y-23207472D01*
X111327466Y-23217785D01*
X111232821Y-23381715D01*
X111232818Y-23381722D01*
X111193952Y-23501341D01*
X111174326Y-23561744D01*
X111160532Y-23692990D01*
X111133947Y-23757604D01*
X111087647Y-23793307D01*
X110951670Y-23853848D01*
X110951665Y-23853851D01*
X110798532Y-23965109D01*
X110798529Y-23965111D01*
X110798529Y-23965112D01*
X110733611Y-24037209D01*
X110674126Y-24073857D01*
X110604269Y-24072526D01*
X110546221Y-24033639D01*
X110518411Y-23969543D01*
X110518173Y-23967489D01*
X110514091Y-23929516D01*
X110463797Y-23794671D01*
X110463793Y-23794664D01*
X110377547Y-23679455D01*
X110377544Y-23679452D01*
X110262335Y-23593206D01*
X110262328Y-23593202D01*
X110127482Y-23542908D01*
X110127483Y-23542908D01*
X110067883Y-23536501D01*
X110067881Y-23536500D01*
X110067873Y-23536500D01*
X110067864Y-23536500D01*
X108272129Y-23536500D01*
X108272123Y-23536501D01*
X108212516Y-23542908D01*
X108077671Y-23593202D01*
X108077664Y-23593206D01*
X107962455Y-23679452D01*
X107962452Y-23679455D01*
X107876206Y-23794664D01*
X107876202Y-23794671D01*
X107825908Y-23929517D01*
X107819501Y-23989116D01*
X107819500Y-23989135D01*
X107819500Y-25784870D01*
X107819501Y-25784876D01*
X107825908Y-25844483D01*
X107876202Y-25979328D01*
X107876206Y-25979335D01*
X107962452Y-26094544D01*
X107962455Y-26094547D01*
X108077664Y-26180793D01*
X108077671Y-26180797D01*
X108212517Y-26231091D01*
X108212516Y-26231091D01*
X108219444Y-26231835D01*
X108272127Y-26237500D01*
X110067872Y-26237499D01*
X110127483Y-26231091D01*
X110262331Y-26180796D01*
X110328305Y-26131407D01*
X110393768Y-26106990D01*
X110462041Y-26121841D01*
X110511447Y-26171246D01*
X110526300Y-26239518D01*
X110520547Y-26268992D01*
X110471721Y-26419264D01*
X110467926Y-26430944D01*
X110448140Y-26619200D01*
X110467926Y-26807456D01*
X110467927Y-26807459D01*
X110526418Y-26987477D01*
X110526421Y-26987484D01*
X110621067Y-27151416D01*
X110632470Y-27164080D01*
X110747729Y-27292088D01*
X110900865Y-27403348D01*
X110900870Y-27403351D01*
X111073791Y-27480342D01*
X111079972Y-27482350D01*
X111078951Y-27485492D01*
X111127861Y-27511142D01*
X111162371Y-27571894D01*
X111164986Y-27587322D01*
X111168058Y-27616545D01*
X111179126Y-27721856D01*
X111179127Y-27721859D01*
X111237618Y-27901877D01*
X111237621Y-27901884D01*
X111332267Y-28065816D01*
X111429186Y-28173455D01*
X111458929Y-28206488D01*
X111612065Y-28317748D01*
X111612070Y-28317751D01*
X111784992Y-28394742D01*
X111784997Y-28394744D01*
X111970154Y-28434100D01*
X111970155Y-28434100D01*
X112159444Y-28434100D01*
X112159446Y-28434100D01*
X112344603Y-28394744D01*
X112517530Y-28317751D01*
X112626917Y-28238276D01*
X112692720Y-28214798D01*
X112760774Y-28230623D01*
X112772671Y-28238268D01*
X112835569Y-28283966D01*
X112882070Y-28317751D01*
X113054992Y-28394742D01*
X113054997Y-28394744D01*
X113240154Y-28434100D01*
X113240155Y-28434100D01*
X113429444Y-28434100D01*
X113429446Y-28434100D01*
X113614603Y-28394744D01*
X113787530Y-28317751D01*
X113896917Y-28238276D01*
X113962720Y-28214798D01*
X114030774Y-28230623D01*
X114042671Y-28238268D01*
X114105569Y-28283966D01*
X114152070Y-28317751D01*
X114324992Y-28394742D01*
X114324997Y-28394744D01*
X114510154Y-28434100D01*
X114510155Y-28434100D01*
X114699444Y-28434100D01*
X114699446Y-28434100D01*
X114884603Y-28394744D01*
X115057530Y-28317751D01*
X115166917Y-28238276D01*
X115232720Y-28214798D01*
X115300774Y-28230623D01*
X115312671Y-28238268D01*
X115375569Y-28283966D01*
X115422070Y-28317751D01*
X115594992Y-28394742D01*
X115594997Y-28394744D01*
X115780154Y-28434100D01*
X115780155Y-28434100D01*
X115969444Y-28434100D01*
X115969446Y-28434100D01*
X116154603Y-28394744D01*
X116327530Y-28317751D01*
X116480671Y-28206488D01*
X116607333Y-28065816D01*
X116637295Y-28013919D01*
X116687860Y-27965706D01*
X116756466Y-27952482D01*
X116821332Y-27978449D01*
X116861861Y-28035363D01*
X116864160Y-28042743D01*
X116867673Y-28055396D01*
X116867674Y-28055399D01*
X117000142Y-28387870D01*
X117000151Y-28387888D01*
X117167784Y-28704077D01*
X117167787Y-28704082D01*
X117167789Y-28704085D01*
X117338591Y-28956000D01*
X117368634Y-29000309D01*
X117368641Y-29000319D01*
X117598328Y-29270727D01*
X117600332Y-29273086D01*
X117808661Y-29470426D01*
X117820081Y-29481243D01*
X117855214Y-29541637D01*
X117852119Y-29611438D01*
X117811777Y-29668484D01*
X117746998Y-29694665D01*
X117709028Y-29692557D01*
X117694646Y-29689500D01*
X117505354Y-29689500D01*
X117472897Y-29696398D01*
X117320197Y-29728855D01*
X117320192Y-29728857D01*
X117147270Y-29805848D01*
X117147265Y-29805851D01*
X116994129Y-29917111D01*
X116867466Y-30057785D01*
X116772821Y-30221715D01*
X116772818Y-30221722D01*
X116715730Y-30397422D01*
X116714326Y-30401744D01*
X116694540Y-30590000D01*
X116714326Y-30778256D01*
X116714327Y-30778259D01*
X116772818Y-30958277D01*
X116772821Y-30958284D01*
X116867467Y-31122216D01*
X116872684Y-31128010D01*
X116885307Y-31142030D01*
X116915535Y-31205022D01*
X116906909Y-31274357D01*
X116885307Y-31307970D01*
X116867466Y-31327785D01*
X116772821Y-31491715D01*
X116772818Y-31491722D01*
X116714327Y-31671740D01*
X116714326Y-31671744D01*
X116694540Y-31860000D01*
X116714326Y-32048256D01*
X116714327Y-32048259D01*
X116772818Y-32228277D01*
X116772821Y-32228284D01*
X116867467Y-32392216D01*
X116873500Y-32398916D01*
X116880805Y-32407030D01*
X116911033Y-32470022D01*
X116902406Y-32539357D01*
X116880805Y-32572970D01*
X116867466Y-32587785D01*
X116772821Y-32751715D01*
X116772818Y-32751722D01*
X116714327Y-32931740D01*
X116714326Y-32931744D01*
X116694540Y-33120000D01*
X116714326Y-33308256D01*
X116714327Y-33308259D01*
X116772818Y-33488277D01*
X116772821Y-33488284D01*
X116867467Y-33652216D01*
X116872911Y-33658262D01*
X116885307Y-33672030D01*
X116915535Y-33735022D01*
X116906909Y-33804357D01*
X116885307Y-33837970D01*
X116867466Y-33857785D01*
X116772821Y-34021715D01*
X116772818Y-34021722D01*
X116715690Y-34197546D01*
X116714326Y-34201744D01*
X116694540Y-34390000D01*
X116714326Y-34578256D01*
X116714327Y-34578259D01*
X116772818Y-34758277D01*
X116772821Y-34758284D01*
X116867467Y-34922216D01*
X116877806Y-34933699D01*
X116885307Y-34942030D01*
X116915535Y-35005022D01*
X116906909Y-35074357D01*
X116885307Y-35107970D01*
X116867466Y-35127785D01*
X116772821Y-35291715D01*
X116772818Y-35291722D01*
X116715611Y-35467789D01*
X116714326Y-35471744D01*
X116694540Y-35660000D01*
X116714326Y-35848256D01*
X116714327Y-35848259D01*
X116772818Y-36028277D01*
X116772821Y-36028284D01*
X116867467Y-36192216D01*
X116876998Y-36202801D01*
X116885307Y-36212030D01*
X116915535Y-36275022D01*
X116906909Y-36344357D01*
X116885307Y-36377970D01*
X116867466Y-36397785D01*
X116772821Y-36561715D01*
X116772818Y-36561722D01*
X116740268Y-36661902D01*
X116714326Y-36741744D01*
X116694540Y-36930000D01*
X116714326Y-37118256D01*
X116714327Y-37118259D01*
X116772818Y-37298277D01*
X116772821Y-37298284D01*
X116867467Y-37462216D01*
X116957079Y-37561740D01*
X116994129Y-37602888D01*
X117147265Y-37714148D01*
X117147270Y-37714151D01*
X117320192Y-37791142D01*
X117320197Y-37791144D01*
X117505354Y-37830500D01*
X117505355Y-37830500D01*
X117694644Y-37830500D01*
X117694646Y-37830500D01*
X117879803Y-37791144D01*
X118052730Y-37714151D01*
X118205871Y-37602888D01*
X118332533Y-37462216D01*
X118427179Y-37298284D01*
X118485674Y-37118256D01*
X118505460Y-36930000D01*
X118485674Y-36741744D01*
X118427179Y-36561716D01*
X118332533Y-36397784D01*
X118314693Y-36377971D01*
X118284464Y-36314981D01*
X118293089Y-36245646D01*
X118314694Y-36212028D01*
X118317186Y-36209260D01*
X118332533Y-36192216D01*
X118427179Y-36028284D01*
X118485674Y-35848256D01*
X118505460Y-35660000D01*
X118485674Y-35471744D01*
X118427179Y-35291716D01*
X118332533Y-35127784D01*
X118314693Y-35107971D01*
X118284464Y-35044981D01*
X118293089Y-34975646D01*
X118314694Y-34942028D01*
X118332533Y-34922216D01*
X118427179Y-34758284D01*
X118485674Y-34578256D01*
X118505460Y-34390000D01*
X118485674Y-34201744D01*
X118427179Y-34021716D01*
X118332533Y-33857784D01*
X118314693Y-33837971D01*
X118284464Y-33774981D01*
X118293089Y-33705646D01*
X118314694Y-33672028D01*
X118332533Y-33652216D01*
X118427179Y-33488284D01*
X118485674Y-33308256D01*
X118505460Y-33120000D01*
X118485674Y-32931744D01*
X118427179Y-32751716D01*
X118332533Y-32587784D01*
X118319194Y-32572970D01*
X118288966Y-32509981D01*
X118297591Y-32440646D01*
X118319193Y-32407030D01*
X118332533Y-32392216D01*
X118427179Y-32228284D01*
X118485674Y-32048256D01*
X118505460Y-31860000D01*
X118485674Y-31671744D01*
X118427179Y-31491716D01*
X118332533Y-31327784D01*
X118314693Y-31307971D01*
X118284464Y-31244981D01*
X118293089Y-31175646D01*
X118314694Y-31142028D01*
X118332533Y-31122216D01*
X118427179Y-30958284D01*
X118485674Y-30778256D01*
X118505460Y-30590000D01*
X118485674Y-30401744D01*
X118427179Y-30221716D01*
X118376400Y-30133765D01*
X118359928Y-30065866D01*
X118382781Y-29999839D01*
X118437702Y-29956648D01*
X118507255Y-29950007D01*
X118535854Y-29959227D01*
X118743734Y-30055402D01*
X118776565Y-30070591D01*
X119115726Y-30184868D01*
X119465254Y-30261805D01*
X119821052Y-30300500D01*
X119821058Y-30300500D01*
X120178942Y-30300500D01*
X120178948Y-30300500D01*
X120534746Y-30261805D01*
X120884274Y-30184868D01*
X121223435Y-30070591D01*
X121548253Y-29920315D01*
X121854919Y-29735800D01*
X122139837Y-29519211D01*
X122399668Y-29273086D01*
X122631365Y-29000311D01*
X122832211Y-28704085D01*
X122999853Y-28387880D01*
X123132324Y-28055403D01*
X123228071Y-27710552D01*
X123278434Y-27403351D01*
X123285970Y-27357385D01*
X123285970Y-27357382D01*
X123285972Y-27357371D01*
X123305348Y-27000000D01*
X123304669Y-26987484D01*
X123295320Y-26815046D01*
X123285972Y-26642629D01*
X123284061Y-26630973D01*
X123228073Y-26289460D01*
X123228072Y-26289459D01*
X123228071Y-26289448D01*
X123177412Y-26106990D01*
X123132327Y-25944607D01*
X123132325Y-25944600D01*
X122999857Y-25612129D01*
X122999848Y-25612111D01*
X122939980Y-25499189D01*
X122878056Y-25382388D01*
X122832215Y-25295922D01*
X122832213Y-25295919D01*
X122832211Y-25295915D01*
X122631365Y-24999689D01*
X122631361Y-24999684D01*
X122631358Y-24999680D01*
X122399668Y-24726914D01*
X122139837Y-24480789D01*
X122139830Y-24480783D01*
X122139827Y-24480781D01*
X122072245Y-24429407D01*
X121854919Y-24264200D01*
X121548253Y-24079685D01*
X121548252Y-24079684D01*
X121548248Y-24079682D01*
X121548244Y-24079680D01*
X121223447Y-23929414D01*
X121223441Y-23929411D01*
X121223435Y-23929409D01*
X121053854Y-23872270D01*
X120884273Y-23815131D01*
X120534744Y-23738194D01*
X120178949Y-23699500D01*
X120178948Y-23699500D01*
X119821052Y-23699500D01*
X119821050Y-23699500D01*
X119465255Y-23738194D01*
X119115726Y-23815131D01*
X118887270Y-23892108D01*
X118776565Y-23929409D01*
X118776563Y-23929410D01*
X118776552Y-23929414D01*
X118451755Y-24079680D01*
X118451750Y-24079682D01*
X118149456Y-24261567D01*
X118081864Y-24279263D01*
X118015435Y-24257606D01*
X117971260Y-24203474D01*
X117963364Y-24134052D01*
X117967593Y-24117009D01*
X118025674Y-23938256D01*
X118045460Y-23750000D01*
X118025674Y-23561744D01*
X117967179Y-23381716D01*
X117872533Y-23217784D01*
X117863247Y-23207471D01*
X117833018Y-23144481D01*
X117841643Y-23075145D01*
X117886385Y-23021480D01*
X117953037Y-23000522D01*
X117955398Y-23000500D01*
X119998560Y-23000500D01*
X120001423Y-23000566D01*
X120040986Y-23002394D01*
X120172950Y-23008495D01*
X120372549Y-23018302D01*
X120378048Y-23018819D01*
X120563357Y-23044668D01*
X120749828Y-23072329D01*
X120754871Y-23073294D01*
X120939341Y-23116681D01*
X121120221Y-23161989D01*
X121124797Y-23163327D01*
X121305568Y-23223916D01*
X121480339Y-23286450D01*
X121484471Y-23288100D01*
X121529770Y-23308101D01*
X121659474Y-23365370D01*
X121826973Y-23444592D01*
X121830601Y-23446457D01*
X121992257Y-23536500D01*
X121998142Y-23539778D01*
X122156964Y-23634972D01*
X122160119Y-23636996D01*
X122318603Y-23745559D01*
X122467377Y-23855897D01*
X122470001Y-23857957D01*
X122618027Y-23980876D01*
X122755321Y-24105314D01*
X122757514Y-24107402D01*
X122892596Y-24242484D01*
X122894687Y-24244680D01*
X122926032Y-24279263D01*
X123019129Y-24381980D01*
X123142034Y-24529989D01*
X123144109Y-24532632D01*
X123254443Y-24681400D01*
X123363002Y-24839879D01*
X123365032Y-24843044D01*
X123460221Y-25001857D01*
X123553527Y-25169371D01*
X123555410Y-25173034D01*
X123634638Y-25340547D01*
X123711899Y-25515527D01*
X123713558Y-25519685D01*
X123776093Y-25694459D01*
X123836662Y-25875173D01*
X123838018Y-25879812D01*
X123883317Y-26060654D01*
X123926696Y-26245090D01*
X123927672Y-26250189D01*
X123955337Y-26436689D01*
X123981177Y-26621933D01*
X123981697Y-26627459D01*
X123991512Y-26827238D01*
X123999434Y-26998575D01*
X123999500Y-27001439D01*
X123999500Y-51301951D01*
X123979815Y-51368990D01*
X123927011Y-51414745D01*
X123857853Y-51424689D01*
X123802300Y-51399319D01*
X123801129Y-51400932D01*
X123642734Y-51285851D01*
X123642729Y-51285848D01*
X123469807Y-51208857D01*
X123469802Y-51208855D01*
X123324001Y-51177865D01*
X123284646Y-51169500D01*
X123095354Y-51169500D01*
X123062897Y-51176398D01*
X122910197Y-51208855D01*
X122910192Y-51208857D01*
X122737270Y-51285848D01*
X122737265Y-51285851D01*
X122584129Y-51397111D01*
X122457466Y-51537785D01*
X122362821Y-51701715D01*
X122362818Y-51701722D01*
X122304684Y-51880642D01*
X122304326Y-51881744D01*
X122284540Y-52070000D01*
X122304326Y-52258256D01*
X122304327Y-52258259D01*
X122362818Y-52438277D01*
X122362821Y-52438284D01*
X122406954Y-52514724D01*
X122423427Y-52582624D01*
X122400574Y-52648651D01*
X122372453Y-52677042D01*
X122269127Y-52752113D01*
X122142466Y-52892785D01*
X122047821Y-53056715D01*
X122047818Y-53056722D01*
X122009285Y-53175316D01*
X121989326Y-53236744D01*
X121987658Y-53252617D01*
X121969540Y-53425000D01*
X121985047Y-53572539D01*
X121972477Y-53641268D01*
X121924745Y-53692292D01*
X121861726Y-53709500D01*
X121825354Y-53709500D01*
X121792897Y-53716398D01*
X121640197Y-53748855D01*
X121640192Y-53748857D01*
X121467270Y-53825848D01*
X121467265Y-53825851D01*
X121314129Y-53937111D01*
X121187466Y-54077785D01*
X121105142Y-54220375D01*
X121054575Y-54268591D01*
X120985968Y-54281814D01*
X120947320Y-54271655D01*
X120929803Y-54263856D01*
X120929801Y-54263855D01*
X120929800Y-54263855D01*
X120813102Y-54239050D01*
X120744646Y-54224500D01*
X120555354Y-54224500D01*
X120522897Y-54231398D01*
X120370197Y-54263855D01*
X120370192Y-54263857D01*
X120197270Y-54340848D01*
X120197265Y-54340851D01*
X120044131Y-54452110D01*
X120044127Y-54452113D01*
X120027756Y-54470295D01*
X119968269Y-54506942D01*
X119898412Y-54505611D01*
X119862724Y-54487640D01*
X119832733Y-54465851D01*
X119832729Y-54465848D01*
X119659807Y-54388857D01*
X119659802Y-54388855D01*
X119514001Y-54357865D01*
X119474646Y-54349500D01*
X119285354Y-54349500D01*
X119252897Y-54356398D01*
X119100197Y-54388855D01*
X119100192Y-54388857D01*
X118927270Y-54465848D01*
X118927265Y-54465851D01*
X118817885Y-54545321D01*
X118752079Y-54568801D01*
X118684025Y-54552975D01*
X118672115Y-54545321D01*
X118562734Y-54465851D01*
X118562729Y-54465848D01*
X118389807Y-54388857D01*
X118389802Y-54388855D01*
X118244001Y-54357865D01*
X118204646Y-54349500D01*
X118015354Y-54349500D01*
X117982897Y-54356398D01*
X117830197Y-54388855D01*
X117830192Y-54388857D01*
X117657270Y-54465848D01*
X117657265Y-54465851D01*
X117547885Y-54545321D01*
X117482079Y-54568801D01*
X117414025Y-54552975D01*
X117402115Y-54545321D01*
X117292734Y-54465851D01*
X117292729Y-54465848D01*
X117119807Y-54388857D01*
X117119802Y-54388855D01*
X116974001Y-54357865D01*
X116934646Y-54349500D01*
X116745354Y-54349500D01*
X116712897Y-54356398D01*
X116560197Y-54388855D01*
X116560192Y-54388857D01*
X116387270Y-54465848D01*
X116387265Y-54465851D01*
X116277885Y-54545321D01*
X116212079Y-54568801D01*
X116144025Y-54552975D01*
X116132115Y-54545321D01*
X116022734Y-54465851D01*
X116022729Y-54465848D01*
X115849807Y-54388857D01*
X115849802Y-54388855D01*
X115704001Y-54357865D01*
X115664646Y-54349500D01*
X115475354Y-54349500D01*
X115442897Y-54356398D01*
X115290197Y-54388855D01*
X115290192Y-54388857D01*
X115117270Y-54465848D01*
X115117265Y-54465851D01*
X115007885Y-54545321D01*
X114942079Y-54568801D01*
X114874025Y-54552975D01*
X114862115Y-54545321D01*
X114752734Y-54465851D01*
X114752729Y-54465848D01*
X114579807Y-54388857D01*
X114579802Y-54388855D01*
X114434001Y-54357865D01*
X114394646Y-54349500D01*
X114276103Y-54349500D01*
X114209064Y-54329815D01*
X114163309Y-54277011D01*
X114154063Y-54247462D01*
X114153029Y-54241716D01*
X114147349Y-54210151D01*
X114101974Y-54073615D01*
X113007934Y-51885538D01*
X113005419Y-51880642D01*
X113002886Y-51875779D01*
X112918313Y-51759379D01*
X112869617Y-51709274D01*
X112814288Y-51666610D01*
X112773221Y-51610085D01*
X112769231Y-51540329D01*
X112772071Y-51530118D01*
X112785674Y-51488256D01*
X112805460Y-51300000D01*
X112785674Y-51111744D01*
X112727179Y-50931716D01*
X112663835Y-50822000D01*
X118804540Y-50822000D01*
X118824326Y-51010256D01*
X118824327Y-51010259D01*
X118882818Y-51190277D01*
X118882821Y-51190284D01*
X118977467Y-51354216D01*
X119098158Y-51488256D01*
X119104129Y-51494888D01*
X119257265Y-51606148D01*
X119257270Y-51606151D01*
X119430192Y-51683142D01*
X119430197Y-51683144D01*
X119615354Y-51722500D01*
X119615355Y-51722500D01*
X119804644Y-51722500D01*
X119804646Y-51722500D01*
X119989803Y-51683144D01*
X120162730Y-51606151D01*
X120315871Y-51494888D01*
X120442533Y-51354216D01*
X120537179Y-51190284D01*
X120595674Y-51010256D01*
X120615460Y-50822000D01*
X120595674Y-50633744D01*
X120537179Y-50453716D01*
X120492308Y-50375997D01*
X120475836Y-50308100D01*
X120492309Y-50252001D01*
X120537179Y-50174284D01*
X120595674Y-49994256D01*
X120615460Y-49806000D01*
X120615459Y-49805998D01*
X120616139Y-49799537D01*
X120618595Y-49799795D01*
X120635145Y-49743436D01*
X120687949Y-49697681D01*
X120757107Y-49687737D01*
X120820663Y-49716762D01*
X120841035Y-49739352D01*
X120961500Y-49911395D01*
X120961505Y-49911401D01*
X121128599Y-50078495D01*
X121205639Y-50132439D01*
X121322165Y-50214032D01*
X121322167Y-50214033D01*
X121322170Y-50214035D01*
X121536337Y-50313903D01*
X121764592Y-50375063D01*
X121952918Y-50391539D01*
X121999999Y-50395659D01*
X122000000Y-50395659D01*
X122000001Y-50395659D01*
X122039234Y-50392226D01*
X122235408Y-50375063D01*
X122463663Y-50313903D01*
X122677830Y-50214035D01*
X122871401Y-50078495D01*
X123038495Y-49911401D01*
X123174035Y-49717830D01*
X123273903Y-49503663D01*
X123335063Y-49275408D01*
X123355659Y-49040000D01*
X123335063Y-48804592D01*
X123278752Y-48594433D01*
X123273905Y-48576344D01*
X123273904Y-48576343D01*
X123273903Y-48576337D01*
X123174035Y-48362171D01*
X123167510Y-48352853D01*
X123038496Y-48168600D01*
X122990174Y-48120278D01*
X122916567Y-48046671D01*
X122883084Y-47985351D01*
X122888068Y-47915659D01*
X122929939Y-47859725D01*
X122960915Y-47842810D01*
X123092331Y-47793796D01*
X123207546Y-47707546D01*
X123293796Y-47592331D01*
X123344091Y-47457483D01*
X123350500Y-47397873D01*
X123350499Y-45602128D01*
X123344091Y-45542517D01*
X123343895Y-45541992D01*
X123293797Y-45407671D01*
X123293793Y-45407664D01*
X123207547Y-45292455D01*
X123207544Y-45292452D01*
X123092335Y-45206206D01*
X123092328Y-45206202D01*
X122957482Y-45155908D01*
X122957483Y-45155908D01*
X122897883Y-45149501D01*
X122897881Y-45149500D01*
X122897873Y-45149500D01*
X122897864Y-45149500D01*
X121102129Y-45149500D01*
X121102123Y-45149501D01*
X121042516Y-45155908D01*
X120907671Y-45206202D01*
X120907664Y-45206206D01*
X120792455Y-45292452D01*
X120735479Y-45368561D01*
X120679544Y-45410432D01*
X120609853Y-45415415D01*
X120548530Y-45381929D01*
X120528826Y-45356249D01*
X120492308Y-45292997D01*
X120475836Y-45225100D01*
X120492309Y-45169001D01*
X120537179Y-45091284D01*
X120595674Y-44911256D01*
X120615460Y-44723000D01*
X120595674Y-44534744D01*
X120537179Y-44354716D01*
X120442533Y-44190784D01*
X120374809Y-44115569D01*
X120333705Y-44069918D01*
X120303475Y-44006926D01*
X120312100Y-43937591D01*
X120356842Y-43883926D01*
X120375407Y-43873673D01*
X120432730Y-43848151D01*
X120585871Y-43736888D01*
X120712533Y-43596216D01*
X120807179Y-43432284D01*
X120824923Y-43377672D01*
X120864358Y-43320000D01*
X120928716Y-43292801D01*
X120988939Y-43300875D01*
X121013543Y-43310725D01*
X121168322Y-43340556D01*
X121219914Y-43350500D01*
X121219915Y-43350500D01*
X121927419Y-43350500D01*
X121927425Y-43350500D01*
X122084218Y-43335528D01*
X122285875Y-43276316D01*
X122472682Y-43180011D01*
X122637886Y-43050092D01*
X122775519Y-42891256D01*
X122880604Y-42709244D01*
X122949344Y-42510633D01*
X122979254Y-42302602D01*
X122969254Y-42092670D01*
X122919704Y-41888424D01*
X122917882Y-41884435D01*
X122832401Y-41697256D01*
X122832398Y-41697251D01*
X122832397Y-41697250D01*
X122832396Y-41697247D01*
X122710486Y-41526048D01*
X122710484Y-41526046D01*
X122710479Y-41526040D01*
X122558379Y-41381014D01*
X122381574Y-41267388D01*
X122333432Y-41248115D01*
X122213637Y-41200156D01*
X122186455Y-41189274D01*
X121980086Y-41149500D01*
X121980085Y-41149500D01*
X121272575Y-41149500D01*
X121115782Y-41164472D01*
X121115778Y-41164473D01*
X120914124Y-41223684D01*
X120759902Y-41303190D01*
X120691295Y-41316412D01*
X120626431Y-41290444D01*
X120610932Y-41275945D01*
X120585875Y-41248115D01*
X120585869Y-41248110D01*
X120432734Y-41136851D01*
X120432729Y-41136848D01*
X120259807Y-41059857D01*
X120259802Y-41059855D01*
X120105753Y-41027112D01*
X120074646Y-41020500D01*
X119885354Y-41020500D01*
X119854247Y-41027112D01*
X119700197Y-41059855D01*
X119700192Y-41059857D01*
X119527270Y-41136848D01*
X119527265Y-41136851D01*
X119374129Y-41248111D01*
X119247466Y-41388785D01*
X119152821Y-41552715D01*
X119152818Y-41552722D01*
X119104965Y-41700000D01*
X119094326Y-41732744D01*
X119074540Y-41921000D01*
X119094326Y-42109256D01*
X119094327Y-42109259D01*
X119152818Y-42289277D01*
X119152820Y-42289281D01*
X119152821Y-42289284D01*
X119179458Y-42335421D01*
X119234352Y-42430501D01*
X119250824Y-42498401D01*
X119234352Y-42554499D01*
X119152820Y-42695718D01*
X119152818Y-42695722D01*
X119094327Y-42875740D01*
X119094326Y-42875744D01*
X119074540Y-43064000D01*
X119094326Y-43252256D01*
X119094327Y-43252259D01*
X119152818Y-43432277D01*
X119152821Y-43432284D01*
X119247467Y-43596216D01*
X119307698Y-43663110D01*
X119356294Y-43717081D01*
X119386524Y-43780073D01*
X119377899Y-43849408D01*
X119333157Y-43903073D01*
X119314581Y-43913332D01*
X119257267Y-43938850D01*
X119257265Y-43938851D01*
X119104129Y-44050111D01*
X118977466Y-44190785D01*
X118882821Y-44354715D01*
X118882818Y-44354722D01*
X118825030Y-44532577D01*
X118824326Y-44534744D01*
X118804540Y-44723000D01*
X118824326Y-44911256D01*
X118824327Y-44911259D01*
X118882820Y-45091283D01*
X118927690Y-45169001D01*
X118944162Y-45236901D01*
X118927690Y-45292999D01*
X118882820Y-45370716D01*
X118826999Y-45542516D01*
X118824326Y-45550744D01*
X118804540Y-45739000D01*
X118824326Y-45927256D01*
X118824327Y-45927259D01*
X118882820Y-46107283D01*
X118927690Y-46185001D01*
X118944162Y-46252901D01*
X118927690Y-46308999D01*
X118882820Y-46386716D01*
X118825627Y-46562739D01*
X118824326Y-46566744D01*
X118804540Y-46755000D01*
X118824326Y-46943256D01*
X118824327Y-46943259D01*
X118882820Y-47123283D01*
X118927690Y-47201001D01*
X118944162Y-47268901D01*
X118927690Y-47324999D01*
X118882820Y-47402716D01*
X118838305Y-47539721D01*
X118824326Y-47582744D01*
X118804540Y-47771000D01*
X118824326Y-47959256D01*
X118824327Y-47959259D01*
X118882820Y-48139283D01*
X118927690Y-48217001D01*
X118944162Y-48284901D01*
X118927690Y-48340999D01*
X118882820Y-48418716D01*
X118824327Y-48598740D01*
X118824326Y-48598744D01*
X118804540Y-48787000D01*
X118824326Y-48975256D01*
X118824327Y-48975259D01*
X118882820Y-49155283D01*
X118928556Y-49234501D01*
X118945028Y-49302401D01*
X118928556Y-49358499D01*
X118882820Y-49437716D01*
X118833361Y-49589937D01*
X118824326Y-49617744D01*
X118804540Y-49806000D01*
X118824326Y-49994256D01*
X118824327Y-49994259D01*
X118882820Y-50174283D01*
X118927690Y-50252001D01*
X118944162Y-50319901D01*
X118927690Y-50375999D01*
X118882820Y-50453716D01*
X118826481Y-50627111D01*
X118824326Y-50633744D01*
X118804540Y-50822000D01*
X112663835Y-50822000D01*
X112632533Y-50767784D01*
X112505871Y-50627112D01*
X112505870Y-50627111D01*
X112352734Y-50515851D01*
X112352729Y-50515848D01*
X112229777Y-50461106D01*
X112176540Y-50415856D01*
X112156290Y-50352198D01*
X112153248Y-50265961D01*
X112140873Y-50197200D01*
X112140873Y-50197198D01*
X112119351Y-50132439D01*
X112095498Y-50060665D01*
X111486406Y-48842480D01*
X111460619Y-48804596D01*
X111410410Y-48730832D01*
X111366548Y-48681980D01*
X111366547Y-48681979D01*
X111366539Y-48681970D01*
X111263700Y-48594433D01*
X111263699Y-48594432D01*
X111132826Y-48534663D01*
X111065789Y-48514978D01*
X111065783Y-48514976D01*
X110980330Y-48502690D01*
X110923364Y-48494500D01*
X110923362Y-48494500D01*
X107076495Y-48494500D01*
X107009456Y-48474815D01*
X106963701Y-48422011D01*
X106953757Y-48352853D01*
X106982782Y-48289297D01*
X107041560Y-48251523D01*
X107050708Y-48249211D01*
X107229803Y-48211144D01*
X107402730Y-48134151D01*
X107555871Y-48022888D01*
X107682533Y-47882216D01*
X107704076Y-47844902D01*
X107755289Y-47756199D01*
X107805855Y-47707983D01*
X107874462Y-47694759D01*
X107888445Y-47696905D01*
X107905354Y-47700500D01*
X107905357Y-47700500D01*
X108094644Y-47700500D01*
X108094646Y-47700500D01*
X108279803Y-47661144D01*
X108452730Y-47584151D01*
X108605871Y-47472888D01*
X108610740Y-47467479D01*
X108670226Y-47430831D01*
X108740083Y-47432160D01*
X108798132Y-47471046D01*
X108820822Y-47512132D01*
X108822819Y-47518280D01*
X108822821Y-47518284D01*
X108917467Y-47682216D01*
X109044129Y-47822888D01*
X109197265Y-47934148D01*
X109197270Y-47934151D01*
X109370192Y-48011142D01*
X109370197Y-48011144D01*
X109555354Y-48050500D01*
X109555355Y-48050500D01*
X109744644Y-48050500D01*
X109744646Y-48050500D01*
X109929803Y-48011144D01*
X110102730Y-47934151D01*
X110255871Y-47822888D01*
X110382533Y-47682216D01*
X110382533Y-47682214D01*
X110383153Y-47681527D01*
X110442640Y-47644879D01*
X110475303Y-47640500D01*
X110574698Y-47640500D01*
X110641737Y-47660185D01*
X110666848Y-47681528D01*
X110667466Y-47682214D01*
X110667467Y-47682216D01*
X110747409Y-47771000D01*
X110794129Y-47822888D01*
X110947265Y-47934148D01*
X110947270Y-47934151D01*
X111120192Y-48011142D01*
X111120197Y-48011144D01*
X111305354Y-48050500D01*
X111305355Y-48050500D01*
X111494644Y-48050500D01*
X111494646Y-48050500D01*
X111679803Y-48011144D01*
X111852730Y-47934151D01*
X112005871Y-47822888D01*
X112091124Y-47728205D01*
X112150607Y-47691559D01*
X112220464Y-47692888D01*
X112278512Y-47731775D01*
X112290658Y-47749179D01*
X112316416Y-47793793D01*
X112367467Y-47882216D01*
X112407503Y-47926680D01*
X112481539Y-48008907D01*
X112511769Y-48071899D01*
X112507320Y-48130196D01*
X112474327Y-48231739D01*
X112474326Y-48231741D01*
X112474326Y-48231744D01*
X112454540Y-48420000D01*
X112474326Y-48608256D01*
X112474327Y-48608259D01*
X112532820Y-48788283D01*
X112564411Y-48843001D01*
X112580883Y-48910901D01*
X112564411Y-48966999D01*
X112532820Y-49021716D01*
X112484178Y-49171422D01*
X112474326Y-49201744D01*
X112454540Y-49390000D01*
X112474326Y-49578256D01*
X112474327Y-49578259D01*
X112532818Y-49758277D01*
X112532821Y-49758284D01*
X112627467Y-49922216D01*
X112752127Y-50060665D01*
X112754129Y-50062888D01*
X112907265Y-50174148D01*
X112907270Y-50174151D01*
X113080192Y-50251142D01*
X113080197Y-50251144D01*
X113265354Y-50290500D01*
X113265355Y-50290500D01*
X113454644Y-50290500D01*
X113454646Y-50290500D01*
X113639803Y-50251144D01*
X113812730Y-50174151D01*
X113965871Y-50062888D01*
X114092533Y-49922216D01*
X114187179Y-49758284D01*
X114245674Y-49578256D01*
X114265460Y-49390000D01*
X114245674Y-49201744D01*
X114187179Y-49021716D01*
X114155587Y-48966997D01*
X114139115Y-48899100D01*
X114155586Y-48843003D01*
X114187179Y-48788284D01*
X114187597Y-48787000D01*
X114205846Y-48730832D01*
X114206478Y-48728886D01*
X114245914Y-48671211D01*
X114298627Y-48645914D01*
X114452803Y-48613144D01*
X114625730Y-48536151D01*
X114778871Y-48424888D01*
X114905533Y-48284216D01*
X115000179Y-48120284D01*
X115005736Y-48103182D01*
X115045173Y-48045507D01*
X115109532Y-48018308D01*
X115123667Y-48017500D01*
X115156644Y-48017500D01*
X115156646Y-48017500D01*
X115341803Y-47978144D01*
X115514730Y-47901151D01*
X115667871Y-47789888D01*
X115794533Y-47649216D01*
X115889179Y-47485284D01*
X115947674Y-47305256D01*
X115967460Y-47117000D01*
X115947674Y-46928744D01*
X115889179Y-46748716D01*
X115794533Y-46584784D01*
X115667871Y-46444112D01*
X115648230Y-46429842D01*
X115514734Y-46332851D01*
X115514729Y-46332848D01*
X115341807Y-46255857D01*
X115341802Y-46255855D01*
X115156644Y-46216499D01*
X115150178Y-46215820D01*
X115150349Y-46214186D01*
X115091188Y-46196815D01*
X115045433Y-46144011D01*
X115035489Y-46074853D01*
X115064514Y-46011297D01*
X115123292Y-45973523D01*
X115132447Y-45971210D01*
X115147971Y-45967910D01*
X115179803Y-45961144D01*
X115352730Y-45884151D01*
X115505871Y-45772888D01*
X115632533Y-45632216D01*
X115727179Y-45468284D01*
X115785674Y-45288256D01*
X115805460Y-45100000D01*
X115785674Y-44911744D01*
X115727179Y-44731716D01*
X115632533Y-44567784D01*
X115505871Y-44427112D01*
X115494659Y-44418966D01*
X115352734Y-44315851D01*
X115352729Y-44315848D01*
X115179807Y-44238857D01*
X115179802Y-44238855D01*
X115034001Y-44207865D01*
X114994646Y-44199500D01*
X114805354Y-44199500D01*
X114772897Y-44206398D01*
X114620197Y-44238855D01*
X114620192Y-44238857D01*
X114447270Y-44315848D01*
X114447265Y-44315851D01*
X114294129Y-44427111D01*
X114167466Y-44567785D01*
X114072821Y-44731715D01*
X114072818Y-44731722D01*
X114014327Y-44911740D01*
X114014326Y-44911744D01*
X113994540Y-45100000D01*
X114014326Y-45288256D01*
X114014327Y-45288259D01*
X114072818Y-45468277D01*
X114072821Y-45468284D01*
X114167466Y-45632215D01*
X114171285Y-45637471D01*
X114169176Y-45639002D01*
X114194379Y-45691541D01*
X114185742Y-45760875D01*
X114140991Y-45814532D01*
X114074335Y-45835478D01*
X114071996Y-45835500D01*
X114029822Y-45835500D01*
X113962783Y-45815815D01*
X113922435Y-45773499D01*
X113832536Y-45617788D01*
X113832534Y-45617785D01*
X113740749Y-45515848D01*
X113705871Y-45477112D01*
X113705870Y-45477111D01*
X113552734Y-45365851D01*
X113552729Y-45365848D01*
X113379807Y-45288857D01*
X113379802Y-45288855D01*
X113234001Y-45257865D01*
X113194646Y-45249500D01*
X113005354Y-45249500D01*
X112972897Y-45256398D01*
X112820197Y-45288855D01*
X112820192Y-45288857D01*
X112647270Y-45365848D01*
X112647265Y-45365851D01*
X112494129Y-45477111D01*
X112367467Y-45617783D01*
X112308247Y-45720355D01*
X112257679Y-45768570D01*
X112189072Y-45781792D01*
X112124208Y-45755824D01*
X112108710Y-45741326D01*
X112005870Y-45627111D01*
X111852734Y-45515851D01*
X111852729Y-45515848D01*
X111679807Y-45438857D01*
X111679802Y-45438855D01*
X111533055Y-45407664D01*
X111494646Y-45399500D01*
X111305354Y-45399500D01*
X111272897Y-45406398D01*
X111120197Y-45438855D01*
X111120192Y-45438857D01*
X110947270Y-45515848D01*
X110947265Y-45515851D01*
X110794129Y-45627111D01*
X110667467Y-45767783D01*
X110661857Y-45777501D01*
X110611289Y-45825716D01*
X110554470Y-45839500D01*
X110495530Y-45839500D01*
X110428491Y-45819815D01*
X110388143Y-45777501D01*
X110382533Y-45767784D01*
X110255871Y-45627112D01*
X110243038Y-45617788D01*
X110102734Y-45515851D01*
X110102729Y-45515848D01*
X109929807Y-45438857D01*
X109929802Y-45438855D01*
X109783055Y-45407664D01*
X109744646Y-45399500D01*
X109555354Y-45399500D01*
X109522897Y-45406398D01*
X109370197Y-45438855D01*
X109370192Y-45438857D01*
X109197270Y-45515848D01*
X109197265Y-45515851D01*
X109044129Y-45627111D01*
X108917466Y-45767785D01*
X108822821Y-45931715D01*
X108822819Y-45931719D01*
X108782764Y-46054997D01*
X108743326Y-46112672D01*
X108678967Y-46139870D01*
X108610121Y-46127955D01*
X108591948Y-46116996D01*
X108452734Y-46015851D01*
X108452729Y-46015848D01*
X108279807Y-45938857D01*
X108279802Y-45938855D01*
X108131140Y-45907257D01*
X108094646Y-45899500D01*
X107937885Y-45899500D01*
X107870846Y-45879815D01*
X107832838Y-45835952D01*
X107830429Y-45837344D01*
X107732534Y-45667785D01*
X107605870Y-45527111D01*
X107452734Y-45415851D01*
X107452729Y-45415848D01*
X107279807Y-45338857D01*
X107279802Y-45338855D01*
X107104276Y-45301547D01*
X107094646Y-45299500D01*
X106905354Y-45299500D01*
X106895724Y-45301547D01*
X106720197Y-45338855D01*
X106720192Y-45338857D01*
X106547270Y-45415848D01*
X106547265Y-45415851D01*
X106394129Y-45527111D01*
X106267465Y-45667785D01*
X106185966Y-45808947D01*
X106135399Y-45857163D01*
X106066792Y-45870386D01*
X106052799Y-45868237D01*
X105964646Y-45849500D01*
X105775354Y-45849500D01*
X105742897Y-45856398D01*
X105590197Y-45888855D01*
X105590192Y-45888857D01*
X105417270Y-45965848D01*
X105417265Y-45965851D01*
X105264129Y-46077111D01*
X105137466Y-46217785D01*
X105042821Y-46381715D01*
X105042818Y-46381722D01*
X104991892Y-46538457D01*
X104984326Y-46561744D01*
X104964540Y-46750000D01*
X104984326Y-46938256D01*
X104984327Y-46938259D01*
X105042818Y-47118277D01*
X105042821Y-47118284D01*
X105137467Y-47282216D01*
X105241605Y-47397873D01*
X105264129Y-47422888D01*
X105417265Y-47534148D01*
X105417270Y-47534151D01*
X105590192Y-47611142D01*
X105590197Y-47611144D01*
X105775354Y-47650500D01*
X105775355Y-47650500D01*
X105964646Y-47650500D01*
X105983355Y-47646523D01*
X106053020Y-47651836D01*
X106108755Y-47693972D01*
X106122419Y-47717379D01*
X106122823Y-47718288D01*
X106166416Y-47793793D01*
X106217467Y-47882216D01*
X106324876Y-48001505D01*
X106344129Y-48022888D01*
X106497265Y-48134148D01*
X106497270Y-48134151D01*
X106670192Y-48211142D01*
X106670197Y-48211144D01*
X106849286Y-48249210D01*
X106910768Y-48282402D01*
X106944544Y-48343565D01*
X106939892Y-48413280D01*
X106898287Y-48469412D01*
X106832940Y-48494141D01*
X106823505Y-48494500D01*
X104629500Y-48494500D01*
X104562461Y-48474815D01*
X104516706Y-48422011D01*
X104505500Y-48370500D01*
X104505500Y-41247310D01*
X104499063Y-41200156D01*
X104487007Y-41111832D01*
X104469194Y-41047799D01*
X104427979Y-40952184D01*
X104419519Y-40882830D01*
X104429055Y-40851593D01*
X104448855Y-40808239D01*
X104494608Y-40755438D01*
X104561647Y-40735754D01*
X104628687Y-40755439D01*
X104674441Y-40808243D01*
X104684967Y-40846789D01*
X104689326Y-40888256D01*
X104689326Y-40888258D01*
X104689327Y-40888260D01*
X104747818Y-41068277D01*
X104747821Y-41068284D01*
X104842467Y-41232216D01*
X104932063Y-41331722D01*
X104969129Y-41372888D01*
X105106117Y-41472416D01*
X105148783Y-41527746D01*
X105156553Y-41585694D01*
X105145753Y-41688457D01*
X105144540Y-41700000D01*
X105164326Y-41888256D01*
X105164327Y-41888259D01*
X105222818Y-42068277D01*
X105222821Y-42068284D01*
X105317467Y-42232216D01*
X105444129Y-42372888D01*
X105597265Y-42484148D01*
X105597270Y-42484151D01*
X105770192Y-42561142D01*
X105770197Y-42561144D01*
X105955354Y-42600500D01*
X105955355Y-42600500D01*
X106144644Y-42600500D01*
X106144646Y-42600500D01*
X106329803Y-42561144D01*
X106502730Y-42484151D01*
X106655871Y-42372888D01*
X106782533Y-42232216D01*
X106877179Y-42068284D01*
X106935674Y-41888256D01*
X106955460Y-41700000D01*
X106935674Y-41511744D01*
X106877179Y-41331716D01*
X106782533Y-41167784D01*
X106655871Y-41027112D01*
X106518881Y-40927583D01*
X106476216Y-40872253D01*
X106468446Y-40814304D01*
X106469083Y-40808243D01*
X106480460Y-40700000D01*
X106460674Y-40511744D01*
X106402179Y-40331716D01*
X106320359Y-40190000D01*
X116094540Y-40190000D01*
X116114326Y-40378256D01*
X116114327Y-40378259D01*
X116172818Y-40558277D01*
X116172821Y-40558284D01*
X116267467Y-40722216D01*
X116379634Y-40846790D01*
X116394129Y-40862888D01*
X116547265Y-40974148D01*
X116547270Y-40974151D01*
X116720192Y-41051142D01*
X116720197Y-41051144D01*
X116905354Y-41090500D01*
X116905355Y-41090500D01*
X117094644Y-41090500D01*
X117094646Y-41090500D01*
X117279803Y-41051144D01*
X117452730Y-40974151D01*
X117605871Y-40862888D01*
X117732533Y-40722216D01*
X117827179Y-40558284D01*
X117885674Y-40378256D01*
X117905460Y-40190000D01*
X117885674Y-40001744D01*
X117827179Y-39821716D01*
X117732533Y-39657784D01*
X117605871Y-39517112D01*
X117605870Y-39517111D01*
X117452734Y-39405851D01*
X117452729Y-39405848D01*
X117279807Y-39328857D01*
X117279802Y-39328855D01*
X117134001Y-39297865D01*
X117094646Y-39289500D01*
X116905354Y-39289500D01*
X116872897Y-39296398D01*
X116720197Y-39328855D01*
X116720192Y-39328857D01*
X116547270Y-39405848D01*
X116547265Y-39405851D01*
X116394129Y-39517111D01*
X116267466Y-39657785D01*
X116172821Y-39821715D01*
X116172818Y-39821722D01*
X116121523Y-39979593D01*
X116114326Y-40001744D01*
X116094540Y-40190000D01*
X106320359Y-40190000D01*
X106307533Y-40167784D01*
X106180871Y-40027112D01*
X106145955Y-40001744D01*
X106027734Y-39915851D01*
X106027729Y-39915848D01*
X105853508Y-39838279D01*
X105800271Y-39793029D01*
X105779950Y-39726180D01*
X105798996Y-39658956D01*
X105851362Y-39612701D01*
X105853508Y-39611721D01*
X105938266Y-39573983D01*
X106027730Y-39534151D01*
X106180871Y-39422888D01*
X106307533Y-39282216D01*
X106402179Y-39118284D01*
X106460674Y-38938256D01*
X106480460Y-38750000D01*
X106460674Y-38561744D01*
X106402179Y-38381716D01*
X106361927Y-38311999D01*
X106345454Y-38244101D01*
X106361927Y-38188001D01*
X106402179Y-38118284D01*
X106460674Y-37938256D01*
X106480460Y-37750000D01*
X106460674Y-37561744D01*
X106402179Y-37381716D01*
X106307533Y-37217784D01*
X106180871Y-37077112D01*
X106180870Y-37077111D01*
X106027734Y-36965851D01*
X106027729Y-36965848D01*
X105854807Y-36888857D01*
X105854800Y-36888855D01*
X105772161Y-36871290D01*
X105710679Y-36838098D01*
X105676902Y-36776935D01*
X105681554Y-36707221D01*
X105723158Y-36651088D01*
X105772161Y-36628710D01*
X105778201Y-36627426D01*
X105854803Y-36611144D01*
X106027730Y-36534151D01*
X106180871Y-36422888D01*
X106307533Y-36282216D01*
X106402179Y-36118284D01*
X106460674Y-35938256D01*
X106480460Y-35750000D01*
X106460674Y-35561744D01*
X106402179Y-35381716D01*
X106376361Y-35336999D01*
X106359888Y-35269101D01*
X106376362Y-35213000D01*
X106402179Y-35168284D01*
X106460674Y-34988256D01*
X106480460Y-34800000D01*
X106460674Y-34611744D01*
X106402179Y-34431716D01*
X106307533Y-34267784D01*
X106180871Y-34127112D01*
X106169124Y-34118577D01*
X106027734Y-34015851D01*
X106027729Y-34015848D01*
X105854807Y-33938857D01*
X105854802Y-33938855D01*
X105709001Y-33907865D01*
X105669646Y-33899500D01*
X105480354Y-33899500D01*
X105447897Y-33906398D01*
X105295197Y-33938855D01*
X105295192Y-33938857D01*
X105122270Y-34015848D01*
X105122265Y-34015851D01*
X104969129Y-34127111D01*
X104842466Y-34267785D01*
X104747821Y-34431715D01*
X104747819Y-34431719D01*
X104747431Y-34432916D01*
X104747018Y-34433519D01*
X104745175Y-34437659D01*
X104744418Y-34437321D01*
X104707992Y-34490591D01*
X104643634Y-34517789D01*
X104574787Y-34505874D01*
X104523312Y-34458629D01*
X104505500Y-34394597D01*
X104505500Y-33105402D01*
X104525185Y-33038363D01*
X104577989Y-32992608D01*
X104647147Y-32982664D01*
X104710703Y-33011689D01*
X104744488Y-33062646D01*
X104745175Y-33062341D01*
X104746994Y-33066427D01*
X104747432Y-33067087D01*
X104747818Y-33068277D01*
X104747821Y-33068284D01*
X104842467Y-33232216D01*
X104951060Y-33352820D01*
X104969129Y-33372888D01*
X105122265Y-33484148D01*
X105122270Y-33484151D01*
X105295192Y-33561142D01*
X105295197Y-33561144D01*
X105480354Y-33600500D01*
X105480355Y-33600500D01*
X105669644Y-33600500D01*
X105669646Y-33600500D01*
X105854803Y-33561144D01*
X106027730Y-33484151D01*
X106180871Y-33372888D01*
X106307533Y-33232216D01*
X106402179Y-33068284D01*
X106460674Y-32888256D01*
X106480460Y-32700000D01*
X106460674Y-32511744D01*
X106404000Y-32337321D01*
X106402181Y-32331722D01*
X106402180Y-32331719D01*
X106402179Y-32331716D01*
X106361927Y-32261999D01*
X106345454Y-32194101D01*
X106361927Y-32138001D01*
X106402179Y-32068284D01*
X106460674Y-31888256D01*
X106480460Y-31700000D01*
X106460674Y-31511744D01*
X106402179Y-31331716D01*
X106307533Y-31167784D01*
X106180871Y-31027112D01*
X106180870Y-31027111D01*
X106027734Y-30915851D01*
X106027729Y-30915848D01*
X105854807Y-30838857D01*
X105854802Y-30838855D01*
X105709001Y-30807865D01*
X105669646Y-30799500D01*
X105480354Y-30799500D01*
X105447897Y-30806398D01*
X105295197Y-30838855D01*
X105295192Y-30838857D01*
X105122270Y-30915848D01*
X105122265Y-30915851D01*
X104969129Y-31027111D01*
X104842466Y-31167785D01*
X104747821Y-31331715D01*
X104747819Y-31331719D01*
X104747431Y-31332916D01*
X104747018Y-31333519D01*
X104745175Y-31337659D01*
X104744418Y-31337321D01*
X104707992Y-31390591D01*
X104643634Y-31417789D01*
X104574787Y-31405874D01*
X104523312Y-31358629D01*
X104505500Y-31294597D01*
X104505500Y-30055402D01*
X104525185Y-29988363D01*
X104577989Y-29942608D01*
X104647147Y-29932664D01*
X104710703Y-29961689D01*
X104744488Y-30012646D01*
X104745175Y-30012341D01*
X104746994Y-30016427D01*
X104747432Y-30017087D01*
X104747818Y-30018277D01*
X104747821Y-30018284D01*
X104842467Y-30182216D01*
X104948970Y-30300499D01*
X104969129Y-30322888D01*
X105122265Y-30434148D01*
X105122270Y-30434151D01*
X105295192Y-30511142D01*
X105295197Y-30511144D01*
X105480354Y-30550500D01*
X105480355Y-30550500D01*
X105669644Y-30550500D01*
X105669646Y-30550500D01*
X105854803Y-30511144D01*
X106027730Y-30434151D01*
X106180871Y-30322888D01*
X106307533Y-30182216D01*
X106402179Y-30018284D01*
X106460674Y-29838256D01*
X106480460Y-29650000D01*
X106460674Y-29461744D01*
X106402179Y-29281716D01*
X106307533Y-29117784D01*
X106180871Y-28977112D01*
X106151810Y-28955998D01*
X106027734Y-28865851D01*
X106027729Y-28865848D01*
X105854807Y-28788857D01*
X105854802Y-28788855D01*
X105709001Y-28757865D01*
X105669646Y-28749500D01*
X105480354Y-28749500D01*
X105447897Y-28756398D01*
X105295197Y-28788855D01*
X105295192Y-28788857D01*
X105122270Y-28865848D01*
X105122265Y-28865851D01*
X104969129Y-28977111D01*
X104842466Y-29117785D01*
X104747821Y-29281715D01*
X104747819Y-29281719D01*
X104747431Y-29282916D01*
X104747018Y-29283519D01*
X104745175Y-29287659D01*
X104744418Y-29287321D01*
X104707992Y-29340591D01*
X104643634Y-29367789D01*
X104574787Y-29355874D01*
X104523312Y-29308629D01*
X104505500Y-29244597D01*
X104505500Y-26749694D01*
X104525185Y-26682655D01*
X104577989Y-26636900D01*
X104647147Y-26626956D01*
X104658751Y-26629193D01*
X104659350Y-26629338D01*
X104659367Y-26629344D01*
X104867398Y-26659254D01*
X105077330Y-26649254D01*
X105281576Y-26599704D01*
X105373475Y-26557735D01*
X105472743Y-26512401D01*
X105472746Y-26512399D01*
X105472753Y-26512396D01*
X105643952Y-26390486D01*
X105668611Y-26364625D01*
X105788985Y-26238379D01*
X105789551Y-26237499D01*
X105902613Y-26061572D01*
X105980725Y-25866457D01*
X106020500Y-25660085D01*
X106020500Y-24952575D01*
X106005528Y-24795782D01*
X105946316Y-24594125D01*
X105850011Y-24407318D01*
X105850009Y-24407316D01*
X105850008Y-24407313D01*
X105720094Y-24242116D01*
X105720090Y-24242112D01*
X105561253Y-24104478D01*
X105379249Y-23999398D01*
X105379245Y-23999396D01*
X105379244Y-23999396D01*
X105180633Y-23930656D01*
X104972602Y-23900746D01*
X104972598Y-23900746D01*
X104762672Y-23910745D01*
X104697641Y-23926522D01*
X104658733Y-23935960D01*
X104588943Y-23932636D01*
X104532029Y-23892108D01*
X104506061Y-23827243D01*
X104505500Y-23815456D01*
X104505500Y-23124500D01*
X104525185Y-23057461D01*
X104577989Y-23011706D01*
X104629500Y-23000500D01*
X111244602Y-23000500D01*
X111311641Y-23020185D01*
G37*
%TD.AperFunction*%
%TD*%
M02*
