%TF.GenerationSoftware,KiCad,Pcbnew,7.0.8*%
%TF.CreationDate,2024-12-11T22:25:20+01:00*%
%TF.ProjectId,LiPo_BuckBoost_Charger,4c69506f-5f42-4756-936b-426f6f73745f,rev?*%
%TF.SameCoordinates,Original*%
%TF.FileFunction,Copper,L2,Inr*%
%TF.FilePolarity,Positive*%
%FSLAX46Y46*%
G04 Gerber Fmt 4.6, Leading zero omitted, Abs format (unit mm)*
G04 Created by KiCad (PCBNEW 7.0.8) date 2024-12-11 22:25:20*
%MOMM*%
%LPD*%
G01*
G04 APERTURE LIST*
G04 Aperture macros list*
%AMRoundRect*
0 Rectangle with rounded corners*
0 $1 Rounding radius*
0 $2 $3 $4 $5 $6 $7 $8 $9 X,Y pos of 4 corners*
0 Add a 4 corners polygon primitive as box body*
4,1,4,$2,$3,$4,$5,$6,$7,$8,$9,$2,$3,0*
0 Add four circle primitives for the rounded corners*
1,1,$1+$1,$2,$3*
1,1,$1+$1,$4,$5*
1,1,$1+$1,$6,$7*
1,1,$1+$1,$8,$9*
0 Add four rect primitives between the rounded corners*
20,1,$1+$1,$2,$3,$4,$5,0*
20,1,$1+$1,$4,$5,$6,$7,0*
20,1,$1+$1,$6,$7,$8,$9,0*
20,1,$1+$1,$8,$9,$2,$3,0*%
G04 Aperture macros list end*
%TA.AperFunction,ComponentPad*%
%ADD10R,1.700000X1.700000*%
%TD*%
%TA.AperFunction,ComponentPad*%
%ADD11O,1.700000X1.700000*%
%TD*%
%TA.AperFunction,ComponentPad*%
%ADD12O,1.700000X1.100000*%
%TD*%
%TA.AperFunction,ComponentPad*%
%ADD13C,5.600000*%
%TD*%
%TA.AperFunction,ComponentPad*%
%ADD14RoundRect,0.250000X-0.625000X0.350000X-0.625000X-0.350000X0.625000X-0.350000X0.625000X0.350000X0*%
%TD*%
%TA.AperFunction,ComponentPad*%
%ADD15O,1.750000X1.200000*%
%TD*%
%TA.AperFunction,ComponentPad*%
%ADD16RoundRect,0.250000X-0.350000X-0.625000X0.350000X-0.625000X0.350000X0.625000X-0.350000X0.625000X0*%
%TD*%
%TA.AperFunction,ComponentPad*%
%ADD17O,1.200000X1.750000*%
%TD*%
%TA.AperFunction,ViaPad*%
%ADD18C,0.800000*%
%TD*%
G04 APERTURE END LIST*
D10*
%TO.N,+5V*%
%TO.C,J6*%
X122000000Y-33450000D03*
D11*
X122000000Y-35990000D03*
%TD*%
D12*
%TO.N,unconnected-(J1-SHIELD-PadS1)*%
%TO.C,J1*%
X77420000Y-30579340D03*
X73620000Y-30579340D03*
X77420000Y-39219340D03*
X73620000Y-39219340D03*
%TD*%
D13*
%TO.N,N/C*%
%TO.C,H2*%
X75000000Y-52000000D03*
%TD*%
D10*
%TO.N,+BATT*%
%TO.C,J3*%
X98670000Y-24887000D03*
%TD*%
D14*
%TO.N,+5V*%
%TO.C,J5*%
X121600000Y-40250000D03*
D15*
%TO.N,GND*%
X121600000Y-42250000D03*
%TD*%
D10*
%TO.N,-BATT*%
%TO.C,J4*%
X109170000Y-24887000D03*
%TD*%
D16*
%TO.N,+BATT*%
%TO.C,J2*%
X102920000Y-25280000D03*
D17*
%TO.N,-BATT*%
X104920000Y-25280000D03*
%TD*%
D13*
%TO.N,N/C*%
%TO.C,H1*%
X120000000Y-27000000D03*
%TD*%
D10*
%TO.N,GND*%
%TO.C,J7*%
X122000000Y-46500000D03*
D11*
X122000000Y-49040000D03*
%TD*%
D18*
%TO.N,Net-(D1-A)*%
X74520000Y-26180000D03*
X87475000Y-28956000D03*
%TO.N,GND*%
X79550000Y-38890000D03*
X116840000Y-55250000D03*
X112623600Y-26619200D03*
X111760000Y-55250000D03*
X79140000Y-43700000D03*
X112776000Y-24638000D03*
X119710000Y-50822000D03*
X105575000Y-40700000D03*
X116535200Y-24688800D03*
X119380000Y-55250000D03*
X120650000Y-55125000D03*
X80264000Y-41148000D03*
X114046000Y-24638000D03*
X83312000Y-40894000D03*
X73761600Y-37496140D03*
X77770000Y-23750000D03*
X115824000Y-25654000D03*
X72390000Y-37496140D03*
X115062000Y-47117000D03*
X84328000Y-33909000D03*
X85852000Y-36068000D03*
X115316000Y-24638000D03*
X97790000Y-55250000D03*
X112014000Y-25654000D03*
X105870000Y-46750000D03*
X105575000Y-34800000D03*
X85471000Y-33909000D03*
X113284000Y-25654000D03*
X113330000Y-23750000D03*
X123190000Y-52070000D03*
X73761600Y-32416140D03*
X94280000Y-23750000D03*
X91740000Y-23750000D03*
X119980000Y-41921000D03*
X110512500Y-46740000D03*
X109650000Y-47150000D03*
X84328000Y-27940000D03*
X109220000Y-55250000D03*
X106950000Y-47350000D03*
X91440000Y-55250000D03*
X84582000Y-40894000D03*
X119710000Y-49806000D03*
X111400000Y-46300000D03*
X82550000Y-55250000D03*
X114600000Y-23750000D03*
X113334800Y-27533600D03*
X93250000Y-46775000D03*
X117600000Y-34390000D03*
X109650000Y-46300000D03*
X119980000Y-43064000D03*
X80264000Y-39979600D03*
X71750000Y-48260000D03*
X102410000Y-40005000D03*
X71750000Y-49530000D03*
X117600000Y-36930000D03*
X72390000Y-36226140D03*
X122875000Y-53425000D03*
X96275000Y-46750000D03*
X93980000Y-55250000D03*
X100910000Y-40905000D03*
X73761600Y-33686140D03*
X76500000Y-23750000D03*
X90300000Y-46725000D03*
X106050000Y-41700000D03*
X81280000Y-55250000D03*
X114046000Y-46736000D03*
X71750000Y-39380000D03*
X101410000Y-40005000D03*
X71750000Y-41910000D03*
X88392000Y-34036000D03*
X117140000Y-23750000D03*
X112064800Y-27533600D03*
X112060000Y-23750000D03*
X119710000Y-48787000D03*
X101620000Y-45000000D03*
X99060000Y-55250000D03*
X115163600Y-26619200D03*
X73761600Y-34905340D03*
X115570000Y-55250000D03*
X84328000Y-26797000D03*
X72390000Y-33686140D03*
X71750000Y-45720000D03*
X117600000Y-33120000D03*
X95550000Y-23750000D03*
X113360000Y-49390000D03*
X100450000Y-45000000D03*
X71750000Y-46990000D03*
X107950000Y-55250000D03*
X117600000Y-31860000D03*
X78275000Y-46700000D03*
X105575000Y-38750000D03*
X97000000Y-48238000D03*
X96290000Y-45720000D03*
X111404400Y-24638000D03*
X117000000Y-40190000D03*
X75230000Y-23750000D03*
X78740000Y-55250000D03*
X102910000Y-40905000D03*
X111353600Y-26619200D03*
X93010000Y-23750000D03*
X121920000Y-54610000D03*
X84328000Y-30480000D03*
X105575000Y-31700000D03*
X117600000Y-35660000D03*
X113100000Y-47350000D03*
X77470000Y-55250000D03*
X115870000Y-23750000D03*
X114604800Y-27533600D03*
X90170000Y-55250000D03*
X71750000Y-43180000D03*
X83820000Y-55250000D03*
X119710000Y-46755000D03*
X90470000Y-23750000D03*
X105410000Y-55250000D03*
X105575000Y-35750000D03*
X113360000Y-48420000D03*
X84328000Y-32766000D03*
X119710000Y-45739000D03*
X119710000Y-44723000D03*
X71750000Y-40650000D03*
X97000000Y-49254000D03*
X117600000Y-30590000D03*
X105575000Y-37750000D03*
X72386509Y-34923130D03*
X92710000Y-55250000D03*
X114300000Y-55250000D03*
X105575000Y-29650000D03*
X86360000Y-55250000D03*
X71750000Y-44450000D03*
X102870000Y-55250000D03*
X82042000Y-40894000D03*
X80010000Y-55250000D03*
X80264000Y-43688000D03*
X73761600Y-36226140D03*
X110490000Y-55250000D03*
X106324400Y-54102000D03*
X118110000Y-55250000D03*
X114554000Y-25654000D03*
X76200000Y-32111340D03*
X95250000Y-55250000D03*
X81325000Y-46750000D03*
X115874800Y-27533600D03*
X80264000Y-42418000D03*
X84328000Y-36068000D03*
X100330000Y-55250000D03*
X87630000Y-55250000D03*
X77750000Y-45140000D03*
X84328000Y-31623000D03*
X101600000Y-55250000D03*
X113100000Y-46150000D03*
X107000000Y-46200000D03*
X88900000Y-55250000D03*
X86106000Y-42418000D03*
X106680000Y-55250000D03*
X113030000Y-55250000D03*
X72390000Y-32416140D03*
X106350000Y-51160000D03*
X114173000Y-47752000D03*
X96520000Y-55250000D03*
X105575000Y-32700000D03*
X111400000Y-47150000D03*
X101910000Y-40905000D03*
X113893600Y-26619200D03*
X84300000Y-46775000D03*
X85090000Y-55250000D03*
X108000000Y-46800000D03*
X104140000Y-55250000D03*
X119710000Y-47771000D03*
%TO.N,-BATT*%
X93400000Y-37450000D03*
X102250000Y-35880000D03*
%TO.N,+5V*%
X109800000Y-28975000D03*
X120000000Y-40643000D03*
X119750000Y-34266000D03*
X119750000Y-33250000D03*
X119750000Y-37317000D03*
X119750000Y-31250000D03*
X120000000Y-39500000D03*
X119750000Y-36301000D03*
X119750000Y-35282000D03*
X117030000Y-42180000D03*
X119750000Y-32250000D03*
%TO.N,Net-(U4-EN)*%
X111900000Y-51300000D03*
X114900000Y-45100000D03*
%TO.N,VBUS*%
X93350000Y-41850000D03*
X99450000Y-35150000D03*
%TO.N,Net-(JP1-A)*%
X87250000Y-44075000D03*
X87130000Y-30480000D03*
%TO.N,Net-(JP9-A)*%
X93450000Y-27850000D03*
X92640000Y-33900000D03*
%TO.N,VCC*%
X76180000Y-47960000D03*
X102160000Y-31620000D03*
X74800000Y-47940000D03*
X110700000Y-52900000D03*
X73330000Y-47970000D03*
X101070000Y-31620000D03*
X111500000Y-53400000D03*
X100010000Y-31630000D03*
X110700000Y-53900000D03*
%TO.N,Net-(Q1-G)*%
X95875000Y-30225000D03*
X96200000Y-33550000D03*
%TO.N,Net-(JP9-C)*%
X95960000Y-31820000D03*
%TD*%
%TA.AperFunction,Conductor*%
%TO.N,GND*%
G36*
X120001423Y-23000566D02*
G01*
X120040986Y-23002394D01*
X120172950Y-23008495D01*
X120372549Y-23018302D01*
X120378048Y-23018819D01*
X120563357Y-23044668D01*
X120749828Y-23072329D01*
X120754871Y-23073294D01*
X120939341Y-23116681D01*
X121120221Y-23161989D01*
X121124797Y-23163327D01*
X121305568Y-23223916D01*
X121480339Y-23286450D01*
X121484471Y-23288100D01*
X121542986Y-23313936D01*
X121659474Y-23365370D01*
X121826973Y-23444592D01*
X121830601Y-23446457D01*
X121992257Y-23536500D01*
X121998142Y-23539778D01*
X122156964Y-23634972D01*
X122160119Y-23636996D01*
X122318603Y-23745559D01*
X122467377Y-23855897D01*
X122470001Y-23857957D01*
X122618027Y-23980876D01*
X122755321Y-24105314D01*
X122757514Y-24107402D01*
X122892596Y-24242484D01*
X122894687Y-24244680D01*
X123019129Y-24381980D01*
X123142034Y-24529989D01*
X123144109Y-24532632D01*
X123254443Y-24681400D01*
X123363002Y-24839879D01*
X123365032Y-24843044D01*
X123460221Y-25001857D01*
X123553527Y-25169371D01*
X123555410Y-25173034D01*
X123634638Y-25340547D01*
X123711899Y-25515527D01*
X123713558Y-25519685D01*
X123776093Y-25694459D01*
X123836662Y-25875173D01*
X123838018Y-25879812D01*
X123883317Y-26060654D01*
X123926696Y-26245090D01*
X123927672Y-26250189D01*
X123955337Y-26436689D01*
X123981177Y-26621933D01*
X123981697Y-26627459D01*
X123991512Y-26827238D01*
X123999434Y-26998575D01*
X123999500Y-27001439D01*
X123999500Y-51998560D01*
X123999434Y-52001424D01*
X123991512Y-52172761D01*
X123981697Y-52372539D01*
X123981177Y-52378065D01*
X123955337Y-52563310D01*
X123927672Y-52749809D01*
X123926696Y-52754908D01*
X123883317Y-52939345D01*
X123838018Y-53120186D01*
X123836662Y-53124825D01*
X123776093Y-53305540D01*
X123713557Y-53480314D01*
X123711899Y-53484470D01*
X123634638Y-53659452D01*
X123555410Y-53826964D01*
X123553527Y-53830627D01*
X123460221Y-53998142D01*
X123365032Y-54156954D01*
X123363002Y-54160118D01*
X123254437Y-54318608D01*
X123144121Y-54467350D01*
X123142021Y-54470025D01*
X123019132Y-54618016D01*
X122894695Y-54755310D01*
X122892596Y-54757514D01*
X122757514Y-54892596D01*
X122755310Y-54894695D01*
X122618016Y-55019132D01*
X122470025Y-55142021D01*
X122467350Y-55144121D01*
X122318608Y-55254437D01*
X122160118Y-55363002D01*
X122156954Y-55365032D01*
X121998142Y-55460221D01*
X121830627Y-55553527D01*
X121826964Y-55555410D01*
X121659452Y-55634638D01*
X121484470Y-55711899D01*
X121480314Y-55713557D01*
X121305540Y-55776093D01*
X121124825Y-55836662D01*
X121120186Y-55838018D01*
X120939345Y-55883317D01*
X120754908Y-55926696D01*
X120749809Y-55927672D01*
X120563310Y-55955337D01*
X120378065Y-55981177D01*
X120372539Y-55981697D01*
X120172761Y-55991512D01*
X120001424Y-55999434D01*
X119998560Y-55999500D01*
X75001440Y-55999500D01*
X74998576Y-55999434D01*
X74827238Y-55991512D01*
X74627459Y-55981697D01*
X74621933Y-55981177D01*
X74436689Y-55955337D01*
X74250189Y-55927672D01*
X74245090Y-55926696D01*
X74060654Y-55883317D01*
X73879812Y-55838018D01*
X73875173Y-55836662D01*
X73694459Y-55776093D01*
X73519685Y-55713558D01*
X73515527Y-55711899D01*
X73340547Y-55634638D01*
X73173034Y-55555410D01*
X73169371Y-55553527D01*
X73001857Y-55460221D01*
X72843044Y-55365032D01*
X72839879Y-55363002D01*
X72730371Y-55287989D01*
X72681392Y-55254437D01*
X72532632Y-55144109D01*
X72529989Y-55142034D01*
X72381980Y-55019129D01*
X72244688Y-54894695D01*
X72242484Y-54892596D01*
X72107402Y-54757514D01*
X72105314Y-54755321D01*
X71980867Y-54618016D01*
X71857957Y-54470001D01*
X71855897Y-54467377D01*
X71745559Y-54318603D01*
X71636995Y-54160118D01*
X71634966Y-54156954D01*
X71539778Y-53998142D01*
X71503056Y-53932214D01*
X71446457Y-53830601D01*
X71444588Y-53826964D01*
X71365361Y-53659452D01*
X71288100Y-53484471D01*
X71286450Y-53480339D01*
X71223906Y-53305540D01*
X71163327Y-53124797D01*
X71161989Y-53120221D01*
X71116675Y-52939315D01*
X71111402Y-52916895D01*
X71073294Y-52754871D01*
X71072329Y-52749828D01*
X71044662Y-52563310D01*
X71018819Y-52378048D01*
X71018302Y-52372549D01*
X71008487Y-52172761D01*
X71000566Y-52001423D01*
X71000533Y-52000002D01*
X71694652Y-52000002D01*
X71714028Y-52357368D01*
X71714029Y-52357385D01*
X71771926Y-52710539D01*
X71771932Y-52710565D01*
X71867672Y-53055392D01*
X71867674Y-53055399D01*
X72000142Y-53387870D01*
X72000151Y-53387888D01*
X72167784Y-53704077D01*
X72167787Y-53704082D01*
X72167789Y-53704085D01*
X72367164Y-53998142D01*
X72368634Y-54000309D01*
X72368641Y-54000319D01*
X72504376Y-54160118D01*
X72600332Y-54273086D01*
X72860163Y-54519211D01*
X73145081Y-54735800D01*
X73451747Y-54920315D01*
X73451749Y-54920316D01*
X73451751Y-54920317D01*
X73451755Y-54920319D01*
X73776552Y-55070585D01*
X73776565Y-55070591D01*
X74115726Y-55184868D01*
X74465254Y-55261805D01*
X74821052Y-55300500D01*
X74821058Y-55300500D01*
X75178942Y-55300500D01*
X75178948Y-55300500D01*
X75534746Y-55261805D01*
X75884274Y-55184868D01*
X76223435Y-55070591D01*
X76548253Y-54920315D01*
X76854919Y-54735800D01*
X77139837Y-54519211D01*
X77399668Y-54273086D01*
X77631365Y-54000311D01*
X77699377Y-53900000D01*
X109794540Y-53900000D01*
X109814326Y-54088256D01*
X109814327Y-54088259D01*
X109872818Y-54268277D01*
X109872821Y-54268284D01*
X109967467Y-54432216D01*
X110045797Y-54519210D01*
X110094129Y-54572888D01*
X110247265Y-54684148D01*
X110247270Y-54684151D01*
X110420192Y-54761142D01*
X110420197Y-54761144D01*
X110605354Y-54800500D01*
X110605355Y-54800500D01*
X110794644Y-54800500D01*
X110794646Y-54800500D01*
X110979803Y-54761144D01*
X111152730Y-54684151D01*
X111305871Y-54572888D01*
X111432533Y-54432216D01*
X111445223Y-54410237D01*
X111472784Y-54362500D01*
X111523351Y-54314284D01*
X111580171Y-54300500D01*
X111594644Y-54300500D01*
X111594646Y-54300500D01*
X111779803Y-54261144D01*
X111952730Y-54184151D01*
X112105871Y-54072888D01*
X112232533Y-53932216D01*
X112327179Y-53768284D01*
X112385674Y-53588256D01*
X112405460Y-53400000D01*
X112385674Y-53211744D01*
X112327179Y-53031716D01*
X112232533Y-52867784D01*
X112105871Y-52727112D01*
X112084719Y-52711744D01*
X111952734Y-52615851D01*
X111952729Y-52615848D01*
X111779807Y-52538857D01*
X111779802Y-52538855D01*
X111634001Y-52507865D01*
X111594646Y-52499500D01*
X111594645Y-52499500D01*
X111580171Y-52499500D01*
X111513132Y-52479815D01*
X111472784Y-52437500D01*
X111435278Y-52372539D01*
X111432533Y-52367784D01*
X111386753Y-52316940D01*
X111356525Y-52253952D01*
X111365150Y-52184617D01*
X111409891Y-52130951D01*
X111476544Y-52109993D01*
X111529341Y-52120692D01*
X111620197Y-52161144D01*
X111805354Y-52200500D01*
X111805355Y-52200500D01*
X111994644Y-52200500D01*
X111994646Y-52200500D01*
X112179803Y-52161144D01*
X112352730Y-52084151D01*
X112505871Y-51972888D01*
X112632533Y-51832216D01*
X112727179Y-51668284D01*
X112785674Y-51488256D01*
X112805460Y-51300000D01*
X112785674Y-51111744D01*
X112727179Y-50931716D01*
X112632533Y-50767784D01*
X112505871Y-50627112D01*
X112485249Y-50612129D01*
X112352734Y-50515851D01*
X112352729Y-50515848D01*
X112179807Y-50438857D01*
X112179802Y-50438855D01*
X112034001Y-50407865D01*
X111994646Y-50399500D01*
X111805354Y-50399500D01*
X111772897Y-50406398D01*
X111620197Y-50438855D01*
X111620192Y-50438857D01*
X111447270Y-50515848D01*
X111447265Y-50515851D01*
X111294129Y-50627111D01*
X111167466Y-50767785D01*
X111072821Y-50931715D01*
X111072818Y-50931722D01*
X111014327Y-51111740D01*
X111014326Y-51111744D01*
X110994540Y-51300000D01*
X111014326Y-51488256D01*
X111014327Y-51488259D01*
X111072818Y-51668277D01*
X111072821Y-51668284D01*
X111167464Y-51832212D01*
X111167465Y-51832214D01*
X111167467Y-51832216D01*
X111213245Y-51883057D01*
X111243474Y-51946047D01*
X111234849Y-52015382D01*
X111190108Y-52069048D01*
X111123455Y-52090006D01*
X111070658Y-52079307D01*
X110979807Y-52038857D01*
X110979802Y-52038855D01*
X110834001Y-52007865D01*
X110794646Y-51999500D01*
X110605354Y-51999500D01*
X110572897Y-52006398D01*
X110420197Y-52038855D01*
X110420192Y-52038857D01*
X110247270Y-52115848D01*
X110247265Y-52115851D01*
X110094129Y-52227111D01*
X109967466Y-52367785D01*
X109872821Y-52531715D01*
X109872818Y-52531722D01*
X109814713Y-52710552D01*
X109814326Y-52711744D01*
X109794540Y-52900000D01*
X109814326Y-53088256D01*
X109814327Y-53088259D01*
X109872818Y-53268277D01*
X109872820Y-53268281D01*
X109872821Y-53268284D01*
X109894320Y-53305521D01*
X109913072Y-53338001D01*
X109929543Y-53405901D01*
X109913072Y-53461999D01*
X109872820Y-53531718D01*
X109872818Y-53531722D01*
X109816814Y-53704086D01*
X109814326Y-53711744D01*
X109794540Y-53900000D01*
X77699377Y-53900000D01*
X77832211Y-53704085D01*
X77999853Y-53387880D01*
X78132324Y-53055403D01*
X78228071Y-52710552D01*
X78262671Y-52499500D01*
X78285970Y-52357385D01*
X78285970Y-52357382D01*
X78285972Y-52357371D01*
X78305348Y-52000000D01*
X78285972Y-51642629D01*
X78260664Y-51488259D01*
X78228073Y-51289460D01*
X78228072Y-51289459D01*
X78228071Y-51289448D01*
X78132324Y-50944597D01*
X78061875Y-50767784D01*
X77999857Y-50612129D01*
X77999848Y-50612111D01*
X77832215Y-50295922D01*
X77832213Y-50295919D01*
X77832211Y-50295915D01*
X77631365Y-49999689D01*
X77631361Y-49999684D01*
X77631358Y-49999680D01*
X77399668Y-49726914D01*
X77139837Y-49480789D01*
X77139830Y-49480783D01*
X77139827Y-49480781D01*
X77072245Y-49429407D01*
X76854919Y-49264200D01*
X76548253Y-49079685D01*
X76548252Y-49079684D01*
X76548248Y-49079682D01*
X76548244Y-49079680D01*
X76468034Y-49042571D01*
X76415456Y-48996557D01*
X76396102Y-48929421D01*
X76416116Y-48862480D01*
X76469145Y-48816985D01*
X76469246Y-48816939D01*
X76632730Y-48744151D01*
X76785871Y-48632888D01*
X76912533Y-48492216D01*
X77007179Y-48328284D01*
X77065674Y-48148256D01*
X77085460Y-47960000D01*
X77065674Y-47771744D01*
X77007179Y-47591716D01*
X76912533Y-47427784D01*
X76785871Y-47287112D01*
X76762496Y-47270129D01*
X76632734Y-47175851D01*
X76632729Y-47175848D01*
X76459807Y-47098857D01*
X76459802Y-47098855D01*
X76314001Y-47067865D01*
X76274646Y-47059500D01*
X76085354Y-47059500D01*
X76052897Y-47066398D01*
X75900197Y-47098855D01*
X75900192Y-47098857D01*
X75727271Y-47175848D01*
X75573624Y-47287478D01*
X75507817Y-47310957D01*
X75439763Y-47295131D01*
X75408588Y-47270130D01*
X75405871Y-47267112D01*
X75405867Y-47267109D01*
X75405864Y-47267106D01*
X75252734Y-47155851D01*
X75252729Y-47155848D01*
X75079807Y-47078857D01*
X75079802Y-47078855D01*
X74934001Y-47047865D01*
X74894646Y-47039500D01*
X74705354Y-47039500D01*
X74672897Y-47046398D01*
X74520197Y-47078855D01*
X74520192Y-47078857D01*
X74347270Y-47155848D01*
X74347265Y-47155851D01*
X74194129Y-47267111D01*
X74194128Y-47267112D01*
X74143642Y-47323182D01*
X74084155Y-47359830D01*
X74014298Y-47358499D01*
X73959343Y-47323180D01*
X73935871Y-47297112D01*
X73935870Y-47297111D01*
X73935869Y-47297110D01*
X73782734Y-47185851D01*
X73782729Y-47185848D01*
X73609807Y-47108857D01*
X73609802Y-47108855D01*
X73464001Y-47077865D01*
X73424646Y-47069500D01*
X73235354Y-47069500D01*
X73202897Y-47076398D01*
X73050197Y-47108855D01*
X73050192Y-47108857D01*
X72877270Y-47185848D01*
X72877265Y-47185851D01*
X72724129Y-47297111D01*
X72597466Y-47437785D01*
X72502821Y-47601715D01*
X72502818Y-47601722D01*
X72447575Y-47771744D01*
X72444326Y-47781744D01*
X72424540Y-47970000D01*
X72444326Y-48158256D01*
X72444327Y-48158259D01*
X72502818Y-48338277D01*
X72502821Y-48338284D01*
X72597467Y-48502216D01*
X72697117Y-48612888D01*
X72724129Y-48642888D01*
X72877265Y-48754148D01*
X72877270Y-48754151D01*
X73050192Y-48831142D01*
X73050197Y-48831144D01*
X73235354Y-48870500D01*
X73235355Y-48870500D01*
X73352808Y-48870500D01*
X73419847Y-48890185D01*
X73465602Y-48942989D01*
X73475546Y-49012147D01*
X73446521Y-49075703D01*
X73416737Y-49100749D01*
X73145081Y-49264200D01*
X73056768Y-49331333D01*
X72860172Y-49480781D01*
X72860163Y-49480789D01*
X72600331Y-49726914D01*
X72368641Y-49999680D01*
X72368634Y-49999690D01*
X72167790Y-50295913D01*
X72167784Y-50295922D01*
X72000151Y-50612111D01*
X72000142Y-50612129D01*
X71867674Y-50944600D01*
X71867672Y-50944607D01*
X71771932Y-51289434D01*
X71771926Y-51289460D01*
X71714029Y-51642614D01*
X71714028Y-51642627D01*
X71714028Y-51642629D01*
X71712637Y-51668284D01*
X71694652Y-51999997D01*
X71694652Y-52000002D01*
X71000533Y-52000002D01*
X71000500Y-51998560D01*
X71000500Y-45100000D01*
X113994540Y-45100000D01*
X114014326Y-45288256D01*
X114014327Y-45288259D01*
X114072818Y-45468277D01*
X114072821Y-45468284D01*
X114167467Y-45632216D01*
X114294129Y-45772888D01*
X114447265Y-45884148D01*
X114447270Y-45884151D01*
X114620192Y-45961142D01*
X114620197Y-45961144D01*
X114805354Y-46000500D01*
X114805355Y-46000500D01*
X114994644Y-46000500D01*
X114994646Y-46000500D01*
X115179803Y-45961144D01*
X115352730Y-45884151D01*
X115505871Y-45772888D01*
X115632533Y-45632216D01*
X115727179Y-45468284D01*
X115785674Y-45288256D01*
X115805460Y-45100000D01*
X115785674Y-44911744D01*
X115727179Y-44731716D01*
X115632533Y-44567784D01*
X115505871Y-44427112D01*
X115505870Y-44427111D01*
X115352734Y-44315851D01*
X115352729Y-44315848D01*
X115179807Y-44238857D01*
X115179802Y-44238855D01*
X115034001Y-44207865D01*
X114994646Y-44199500D01*
X114805354Y-44199500D01*
X114772897Y-44206398D01*
X114620197Y-44238855D01*
X114620192Y-44238857D01*
X114447270Y-44315848D01*
X114447265Y-44315851D01*
X114294129Y-44427111D01*
X114167466Y-44567785D01*
X114072821Y-44731715D01*
X114072818Y-44731722D01*
X114014327Y-44911740D01*
X114014326Y-44911744D01*
X113994540Y-45100000D01*
X71000500Y-45100000D01*
X71000500Y-44075000D01*
X86344540Y-44075000D01*
X86364326Y-44263256D01*
X86364327Y-44263259D01*
X86422818Y-44443277D01*
X86422821Y-44443284D01*
X86517467Y-44607216D01*
X86629567Y-44731715D01*
X86644129Y-44747888D01*
X86797265Y-44859148D01*
X86797270Y-44859151D01*
X86970192Y-44936142D01*
X86970197Y-44936144D01*
X87155354Y-44975500D01*
X87155355Y-44975500D01*
X87344644Y-44975500D01*
X87344646Y-44975500D01*
X87529803Y-44936144D01*
X87702730Y-44859151D01*
X87855871Y-44747888D01*
X87982533Y-44607216D01*
X88077179Y-44443284D01*
X88135674Y-44263256D01*
X88155460Y-44075000D01*
X88135674Y-43886744D01*
X88077179Y-43706716D01*
X87982533Y-43542784D01*
X87855871Y-43402112D01*
X87855870Y-43402111D01*
X87702734Y-43290851D01*
X87702729Y-43290848D01*
X87529807Y-43213857D01*
X87529802Y-43213855D01*
X87384001Y-43182865D01*
X87344646Y-43174500D01*
X87155354Y-43174500D01*
X87122897Y-43181398D01*
X86970197Y-43213855D01*
X86970192Y-43213857D01*
X86797270Y-43290848D01*
X86797265Y-43290851D01*
X86644129Y-43402111D01*
X86517466Y-43542785D01*
X86422821Y-43706715D01*
X86422818Y-43706722D01*
X86364327Y-43886740D01*
X86364326Y-43886744D01*
X86344540Y-44075000D01*
X71000500Y-44075000D01*
X71000500Y-41850000D01*
X92444540Y-41850000D01*
X92464326Y-42038256D01*
X92464327Y-42038259D01*
X92522818Y-42218277D01*
X92522821Y-42218284D01*
X92617467Y-42382216D01*
X92744129Y-42522888D01*
X92897265Y-42634148D01*
X92897270Y-42634151D01*
X93070192Y-42711142D01*
X93070197Y-42711144D01*
X93255354Y-42750500D01*
X93255355Y-42750500D01*
X93444644Y-42750500D01*
X93444646Y-42750500D01*
X93629803Y-42711144D01*
X93802730Y-42634151D01*
X93955871Y-42522888D01*
X94082533Y-42382216D01*
X94177179Y-42218284D01*
X94189618Y-42180000D01*
X116124540Y-42180000D01*
X116144326Y-42368256D01*
X116144327Y-42368259D01*
X116202818Y-42548277D01*
X116202821Y-42548284D01*
X116297467Y-42712216D01*
X116424129Y-42852888D01*
X116577265Y-42964148D01*
X116577270Y-42964151D01*
X116750192Y-43041142D01*
X116750197Y-43041144D01*
X116935354Y-43080500D01*
X116935355Y-43080500D01*
X117124644Y-43080500D01*
X117124646Y-43080500D01*
X117309803Y-43041144D01*
X117482730Y-42964151D01*
X117635871Y-42852888D01*
X117762533Y-42712216D01*
X117857179Y-42548284D01*
X117915674Y-42368256D01*
X117935460Y-42180000D01*
X117915674Y-41991744D01*
X117857179Y-41811716D01*
X117762533Y-41647784D01*
X117635871Y-41507112D01*
X117631786Y-41504144D01*
X117482734Y-41395851D01*
X117482729Y-41395848D01*
X117309807Y-41318857D01*
X117309802Y-41318855D01*
X117164001Y-41287865D01*
X117124646Y-41279500D01*
X116935354Y-41279500D01*
X116902897Y-41286398D01*
X116750197Y-41318855D01*
X116750192Y-41318857D01*
X116577270Y-41395848D01*
X116577265Y-41395851D01*
X116424129Y-41507111D01*
X116297466Y-41647785D01*
X116202821Y-41811715D01*
X116202818Y-41811722D01*
X116144327Y-41991740D01*
X116144326Y-41991744D01*
X116124540Y-42180000D01*
X94189618Y-42180000D01*
X94235674Y-42038256D01*
X94255460Y-41850000D01*
X94235674Y-41661744D01*
X94177179Y-41481716D01*
X94082533Y-41317784D01*
X93955871Y-41177112D01*
X93955870Y-41177111D01*
X93802734Y-41065851D01*
X93802729Y-41065848D01*
X93629807Y-40988857D01*
X93629802Y-40988855D01*
X93484001Y-40957865D01*
X93444646Y-40949500D01*
X93255354Y-40949500D01*
X93222897Y-40956398D01*
X93070197Y-40988855D01*
X93070192Y-40988857D01*
X92897270Y-41065848D01*
X92897265Y-41065851D01*
X92744129Y-41177111D01*
X92617466Y-41317785D01*
X92522821Y-41481715D01*
X92522818Y-41481722D01*
X92464327Y-41661740D01*
X92464326Y-41661744D01*
X92444540Y-41850000D01*
X71000500Y-41850000D01*
X71000500Y-40643000D01*
X119094540Y-40643000D01*
X119114326Y-40831256D01*
X119114327Y-40831259D01*
X119172818Y-41011277D01*
X119172821Y-41011284D01*
X119267467Y-41175216D01*
X119361365Y-41279500D01*
X119394129Y-41315888D01*
X119547265Y-41427148D01*
X119547270Y-41427151D01*
X119720192Y-41504142D01*
X119720197Y-41504144D01*
X119905354Y-41543500D01*
X119905355Y-41543500D01*
X120094644Y-41543500D01*
X120094646Y-41543500D01*
X120279803Y-41504144D01*
X120452730Y-41427151D01*
X120599361Y-41320617D01*
X120665163Y-41297139D01*
X120711243Y-41303230D01*
X120822203Y-41339999D01*
X120924991Y-41350500D01*
X122275008Y-41350499D01*
X122377797Y-41339999D01*
X122544334Y-41284814D01*
X122693656Y-41192712D01*
X122817712Y-41068656D01*
X122909814Y-40919334D01*
X122964999Y-40752797D01*
X122975500Y-40650009D01*
X122975499Y-39849992D01*
X122964999Y-39747203D01*
X122909814Y-39580666D01*
X122817712Y-39431344D01*
X122693656Y-39307288D01*
X122544334Y-39215186D01*
X122377797Y-39160001D01*
X122377795Y-39160000D01*
X122275010Y-39149500D01*
X120924998Y-39149500D01*
X120924980Y-39149501D01*
X120922168Y-39149789D01*
X120853476Y-39137014D01*
X120802595Y-39089130D01*
X120802188Y-39088430D01*
X120758873Y-39013406D01*
X120732533Y-38967784D01*
X120605871Y-38827112D01*
X120605870Y-38827111D01*
X120452734Y-38715851D01*
X120452729Y-38715848D01*
X120279807Y-38638857D01*
X120279802Y-38638855D01*
X120134001Y-38607865D01*
X120094646Y-38599500D01*
X119905354Y-38599500D01*
X119872897Y-38606398D01*
X119720197Y-38638855D01*
X119720192Y-38638857D01*
X119547270Y-38715848D01*
X119547265Y-38715851D01*
X119394129Y-38827111D01*
X119267466Y-38967785D01*
X119172821Y-39131715D01*
X119172818Y-39131722D01*
X119114327Y-39311740D01*
X119114326Y-39311744D01*
X119094540Y-39500000D01*
X119114326Y-39688256D01*
X119114327Y-39688259D01*
X119172818Y-39868277D01*
X119172820Y-39868281D01*
X119172821Y-39868284D01*
X119220712Y-39951235D01*
X119254352Y-40009501D01*
X119270824Y-40077401D01*
X119254352Y-40133499D01*
X119172820Y-40274718D01*
X119172818Y-40274722D01*
X119114327Y-40454740D01*
X119114326Y-40454744D01*
X119094540Y-40643000D01*
X71000500Y-40643000D01*
X71000500Y-39219340D01*
X72264417Y-39219340D01*
X72284699Y-39425272D01*
X72286541Y-39431344D01*
X72344768Y-39623294D01*
X72442315Y-39805790D01*
X72442317Y-39805792D01*
X72573589Y-39965750D01*
X72670209Y-40045042D01*
X72733550Y-40097025D01*
X72916046Y-40194572D01*
X73114066Y-40254640D01*
X73114065Y-40254640D01*
X73152647Y-40258440D01*
X73268392Y-40269840D01*
X73268395Y-40269840D01*
X73971605Y-40269840D01*
X73971608Y-40269840D01*
X74125934Y-40254640D01*
X74323954Y-40194572D01*
X74506450Y-40097025D01*
X74666410Y-39965750D01*
X74797685Y-39805790D01*
X74895232Y-39623294D01*
X74955300Y-39425274D01*
X74975583Y-39219340D01*
X76064417Y-39219340D01*
X76084699Y-39425272D01*
X76086541Y-39431344D01*
X76144768Y-39623294D01*
X76242315Y-39805790D01*
X76242317Y-39805792D01*
X76373589Y-39965750D01*
X76470209Y-40045042D01*
X76533550Y-40097025D01*
X76716046Y-40194572D01*
X76914066Y-40254640D01*
X76914065Y-40254640D01*
X76952647Y-40258440D01*
X77068392Y-40269840D01*
X77068395Y-40269840D01*
X77771605Y-40269840D01*
X77771608Y-40269840D01*
X77925934Y-40254640D01*
X78123954Y-40194572D01*
X78306450Y-40097025D01*
X78466410Y-39965750D01*
X78597685Y-39805790D01*
X78695232Y-39623294D01*
X78755300Y-39425274D01*
X78775583Y-39219340D01*
X78755300Y-39013406D01*
X78695232Y-38815386D01*
X78597685Y-38632890D01*
X78545702Y-38569549D01*
X78466410Y-38472929D01*
X78348677Y-38376309D01*
X78306450Y-38341655D01*
X78123954Y-38244108D01*
X77925934Y-38184040D01*
X77925932Y-38184039D01*
X77925934Y-38184039D01*
X77806805Y-38172306D01*
X77771608Y-38168840D01*
X77068392Y-38168840D01*
X77030298Y-38172591D01*
X76914067Y-38184039D01*
X76716043Y-38244109D01*
X76605898Y-38302983D01*
X76533550Y-38341655D01*
X76533548Y-38341656D01*
X76533547Y-38341657D01*
X76373589Y-38472929D01*
X76242317Y-38632887D01*
X76144769Y-38815383D01*
X76084699Y-39013407D01*
X76064417Y-39219340D01*
X74975583Y-39219340D01*
X74955300Y-39013406D01*
X74895232Y-38815386D01*
X74797685Y-38632890D01*
X74745702Y-38569549D01*
X74666410Y-38472929D01*
X74548677Y-38376309D01*
X74506450Y-38341655D01*
X74323954Y-38244108D01*
X74125934Y-38184040D01*
X74125932Y-38184039D01*
X74125934Y-38184039D01*
X74006805Y-38172306D01*
X73971608Y-38168840D01*
X73268392Y-38168840D01*
X73230298Y-38172591D01*
X73114067Y-38184039D01*
X72916043Y-38244109D01*
X72805898Y-38302983D01*
X72733550Y-38341655D01*
X72733548Y-38341656D01*
X72733547Y-38341657D01*
X72573589Y-38472929D01*
X72442317Y-38632887D01*
X72344769Y-38815383D01*
X72284699Y-39013407D01*
X72264417Y-39219340D01*
X71000500Y-39219340D01*
X71000500Y-37450000D01*
X92494540Y-37450000D01*
X92514326Y-37638256D01*
X92514327Y-37638259D01*
X92572818Y-37818277D01*
X92572821Y-37818284D01*
X92667467Y-37982216D01*
X92774554Y-38101148D01*
X92794129Y-38122888D01*
X92947265Y-38234148D01*
X92947270Y-38234151D01*
X93120192Y-38311142D01*
X93120197Y-38311144D01*
X93305354Y-38350500D01*
X93305355Y-38350500D01*
X93494644Y-38350500D01*
X93494646Y-38350500D01*
X93679803Y-38311144D01*
X93852730Y-38234151D01*
X94005871Y-38122888D01*
X94132533Y-37982216D01*
X94227179Y-37818284D01*
X94285674Y-37638256D01*
X94305460Y-37450000D01*
X94285674Y-37261744D01*
X94227179Y-37081716D01*
X94132533Y-36917784D01*
X94005871Y-36777112D01*
X93964427Y-36747001D01*
X93852734Y-36665851D01*
X93852729Y-36665848D01*
X93679807Y-36588857D01*
X93679802Y-36588855D01*
X93510585Y-36552888D01*
X93494646Y-36549500D01*
X93305354Y-36549500D01*
X93289415Y-36552888D01*
X93120197Y-36588855D01*
X93120192Y-36588857D01*
X92947270Y-36665848D01*
X92947265Y-36665851D01*
X92794129Y-36777111D01*
X92667466Y-36917785D01*
X92572821Y-37081715D01*
X92572818Y-37081722D01*
X92514327Y-37261740D01*
X92514326Y-37261744D01*
X92494540Y-37450000D01*
X71000500Y-37450000D01*
X71000500Y-35150000D01*
X98544540Y-35150000D01*
X98564326Y-35338256D01*
X98564327Y-35338259D01*
X98622818Y-35518277D01*
X98622821Y-35518284D01*
X98717467Y-35682216D01*
X98815867Y-35791500D01*
X98844129Y-35822888D01*
X98997265Y-35934148D01*
X98997270Y-35934151D01*
X99170192Y-36011142D01*
X99170197Y-36011144D01*
X99355354Y-36050500D01*
X99355355Y-36050500D01*
X99544644Y-36050500D01*
X99544646Y-36050500D01*
X99729803Y-36011144D01*
X99902730Y-35934151D01*
X99977263Y-35880000D01*
X101344540Y-35880000D01*
X101364326Y-36068256D01*
X101364327Y-36068259D01*
X101422818Y-36248277D01*
X101422821Y-36248284D01*
X101517467Y-36412216D01*
X101586837Y-36489259D01*
X101644129Y-36552888D01*
X101797265Y-36664148D01*
X101797270Y-36664151D01*
X101970192Y-36741142D01*
X101970197Y-36741144D01*
X102155354Y-36780500D01*
X102155355Y-36780500D01*
X102344644Y-36780500D01*
X102344646Y-36780500D01*
X102529803Y-36741144D01*
X102702730Y-36664151D01*
X102855871Y-36552888D01*
X102982533Y-36412216D01*
X103077179Y-36248284D01*
X103135674Y-36068256D01*
X103155460Y-35880000D01*
X103135674Y-35691744D01*
X103077179Y-35511716D01*
X102982533Y-35347784D01*
X102855871Y-35207112D01*
X102855870Y-35207111D01*
X102702734Y-35095851D01*
X102702729Y-35095848D01*
X102529807Y-35018857D01*
X102529802Y-35018855D01*
X102384001Y-34987865D01*
X102344646Y-34979500D01*
X102155354Y-34979500D01*
X102122897Y-34986398D01*
X101970197Y-35018855D01*
X101970192Y-35018857D01*
X101797270Y-35095848D01*
X101797265Y-35095851D01*
X101644129Y-35207111D01*
X101517466Y-35347785D01*
X101422821Y-35511715D01*
X101422818Y-35511722D01*
X101367422Y-35682216D01*
X101364326Y-35691744D01*
X101344540Y-35880000D01*
X99977263Y-35880000D01*
X100055871Y-35822888D01*
X100182533Y-35682216D01*
X100277179Y-35518284D01*
X100335674Y-35338256D01*
X100355460Y-35150000D01*
X100335674Y-34961744D01*
X100277179Y-34781716D01*
X100182533Y-34617784D01*
X100055871Y-34477112D01*
X100055870Y-34477111D01*
X99902734Y-34365851D01*
X99902729Y-34365848D01*
X99729807Y-34288857D01*
X99729802Y-34288855D01*
X99584001Y-34257865D01*
X99544646Y-34249500D01*
X99355354Y-34249500D01*
X99322897Y-34256398D01*
X99170197Y-34288855D01*
X99170192Y-34288857D01*
X98997270Y-34365848D01*
X98997265Y-34365851D01*
X98844129Y-34477111D01*
X98717466Y-34617785D01*
X98622821Y-34781715D01*
X98622818Y-34781722D01*
X98567653Y-34951505D01*
X98564326Y-34961744D01*
X98544540Y-35150000D01*
X71000500Y-35150000D01*
X71000500Y-33900000D01*
X91734540Y-33900000D01*
X91754326Y-34088256D01*
X91754327Y-34088259D01*
X91812818Y-34268277D01*
X91812821Y-34268284D01*
X91907467Y-34432216D01*
X91927315Y-34454259D01*
X92034129Y-34572888D01*
X92187265Y-34684148D01*
X92187270Y-34684151D01*
X92360192Y-34761142D01*
X92360197Y-34761144D01*
X92545354Y-34800500D01*
X92545355Y-34800500D01*
X92734644Y-34800500D01*
X92734646Y-34800500D01*
X92919803Y-34761144D01*
X93092730Y-34684151D01*
X93245871Y-34572888D01*
X93372533Y-34432216D01*
X93467179Y-34268284D01*
X93525674Y-34088256D01*
X93545460Y-33900000D01*
X93525674Y-33711744D01*
X93467179Y-33531716D01*
X93372533Y-33367784D01*
X93245871Y-33227112D01*
X93245870Y-33227111D01*
X93092734Y-33115851D01*
X93092729Y-33115848D01*
X92919807Y-33038857D01*
X92919802Y-33038855D01*
X92774001Y-33007865D01*
X92734646Y-32999500D01*
X92545354Y-32999500D01*
X92512897Y-33006398D01*
X92360197Y-33038855D01*
X92360192Y-33038857D01*
X92187270Y-33115848D01*
X92187265Y-33115851D01*
X92034129Y-33227111D01*
X91907466Y-33367785D01*
X91812821Y-33531715D01*
X91812818Y-33531722D01*
X91759441Y-33696001D01*
X91754326Y-33711744D01*
X91734540Y-33900000D01*
X71000500Y-33900000D01*
X71000500Y-30579340D01*
X72264417Y-30579340D01*
X72284699Y-30785272D01*
X72303814Y-30848284D01*
X72344768Y-30983294D01*
X72442315Y-31165790D01*
X72442317Y-31165792D01*
X72573589Y-31325750D01*
X72640303Y-31380500D01*
X72733550Y-31457025D01*
X72916046Y-31554572D01*
X73114066Y-31614640D01*
X73114065Y-31614640D01*
X73150993Y-31618277D01*
X73268392Y-31629840D01*
X73268395Y-31629840D01*
X73971605Y-31629840D01*
X73971608Y-31629840D01*
X74125934Y-31614640D01*
X74323954Y-31554572D01*
X74506450Y-31457025D01*
X74666410Y-31325750D01*
X74797685Y-31165790D01*
X74895232Y-30983294D01*
X74955300Y-30785274D01*
X74975583Y-30579340D01*
X76064417Y-30579340D01*
X76084699Y-30785272D01*
X76103814Y-30848284D01*
X76144768Y-30983294D01*
X76242315Y-31165790D01*
X76242317Y-31165792D01*
X76373589Y-31325750D01*
X76440303Y-31380500D01*
X76533550Y-31457025D01*
X76716046Y-31554572D01*
X76914066Y-31614640D01*
X76914065Y-31614640D01*
X76950993Y-31618277D01*
X77068392Y-31629840D01*
X77068395Y-31629840D01*
X77771605Y-31629840D01*
X77771608Y-31629840D01*
X77925934Y-31614640D01*
X78123954Y-31554572D01*
X78306450Y-31457025D01*
X78466410Y-31325750D01*
X78597685Y-31165790D01*
X78695232Y-30983294D01*
X78755300Y-30785274D01*
X78775583Y-30579340D01*
X78765799Y-30480000D01*
X86224540Y-30480000D01*
X86244326Y-30668256D01*
X86244327Y-30668259D01*
X86302818Y-30848277D01*
X86302821Y-30848284D01*
X86397467Y-31012216D01*
X86474513Y-31097784D01*
X86524129Y-31152888D01*
X86677265Y-31264148D01*
X86677270Y-31264151D01*
X86850192Y-31341142D01*
X86850197Y-31341144D01*
X87035354Y-31380500D01*
X87035355Y-31380500D01*
X87224644Y-31380500D01*
X87224646Y-31380500D01*
X87409803Y-31341144D01*
X87582730Y-31264151D01*
X87735871Y-31152888D01*
X87862533Y-31012216D01*
X87957179Y-30848284D01*
X88015674Y-30668256D01*
X88035460Y-30480000D01*
X88015674Y-30291744D01*
X87993987Y-30225000D01*
X94969540Y-30225000D01*
X94989326Y-30413256D01*
X94989327Y-30413259D01*
X95047818Y-30593277D01*
X95047821Y-30593284D01*
X95142467Y-30757216D01*
X95225951Y-30849934D01*
X95269129Y-30897888D01*
X95345473Y-30953355D01*
X95388139Y-31008685D01*
X95394118Y-31078298D01*
X95361513Y-31140093D01*
X95355564Y-31145820D01*
X95354128Y-31147112D01*
X95227466Y-31287785D01*
X95132821Y-31451715D01*
X95132818Y-31451722D01*
X95074327Y-31631740D01*
X95074326Y-31631744D01*
X95054540Y-31820000D01*
X95074326Y-32008256D01*
X95074327Y-32008259D01*
X95132818Y-32188277D01*
X95132821Y-32188284D01*
X95227467Y-32352216D01*
X95274227Y-32404148D01*
X95354129Y-32492888D01*
X95507265Y-32604148D01*
X95507270Y-32604151D01*
X95597867Y-32644488D01*
X95651104Y-32689738D01*
X95671425Y-32756587D01*
X95652379Y-32823811D01*
X95620318Y-32858084D01*
X95594128Y-32877112D01*
X95467466Y-33017785D01*
X95372821Y-33181715D01*
X95372818Y-33181722D01*
X95314327Y-33361740D01*
X95314326Y-33361744D01*
X95294540Y-33550000D01*
X95314326Y-33738256D01*
X95314327Y-33738259D01*
X95372818Y-33918277D01*
X95372821Y-33918284D01*
X95467467Y-34082216D01*
X95581895Y-34209301D01*
X95594129Y-34222888D01*
X95747265Y-34334148D01*
X95747270Y-34334151D01*
X95920192Y-34411142D01*
X95920197Y-34411144D01*
X96105354Y-34450500D01*
X96105355Y-34450500D01*
X96294644Y-34450500D01*
X96294646Y-34450500D01*
X96479803Y-34411144D01*
X96652730Y-34334151D01*
X96805871Y-34222888D01*
X96932533Y-34082216D01*
X97027179Y-33918284D01*
X97085674Y-33738256D01*
X97105460Y-33550000D01*
X97085674Y-33361744D01*
X97027179Y-33181716D01*
X96932533Y-33017784D01*
X96805871Y-32877112D01*
X96805870Y-32877111D01*
X96652734Y-32765851D01*
X96652732Y-32765850D01*
X96562131Y-32725511D01*
X96508895Y-32680260D01*
X96488574Y-32613411D01*
X96507620Y-32546187D01*
X96539681Y-32511915D01*
X96565871Y-32492888D01*
X96692533Y-32352216D01*
X96787179Y-32188284D01*
X96845674Y-32008256D01*
X96865460Y-31820000D01*
X96845674Y-31631744D01*
X96845107Y-31630000D01*
X99104540Y-31630000D01*
X99124326Y-31818256D01*
X99124327Y-31818259D01*
X99182818Y-31998277D01*
X99182821Y-31998284D01*
X99277467Y-32162216D01*
X99395125Y-32292888D01*
X99404129Y-32302888D01*
X99557265Y-32414148D01*
X99557270Y-32414151D01*
X99730192Y-32491142D01*
X99730197Y-32491144D01*
X99915354Y-32530500D01*
X99915355Y-32530500D01*
X100104644Y-32530500D01*
X100104646Y-32530500D01*
X100289803Y-32491144D01*
X100462730Y-32414151D01*
X100473992Y-32405968D01*
X100539795Y-32382486D01*
X100607850Y-32398307D01*
X100614062Y-32402299D01*
X100617270Y-32404151D01*
X100790192Y-32481142D01*
X100790197Y-32481144D01*
X100975354Y-32520500D01*
X100975355Y-32520500D01*
X101164644Y-32520500D01*
X101164646Y-32520500D01*
X101349803Y-32481144D01*
X101522730Y-32404151D01*
X101542114Y-32390067D01*
X101607919Y-32366587D01*
X101675973Y-32382412D01*
X101687881Y-32390064D01*
X101704721Y-32402299D01*
X101707269Y-32404150D01*
X101707270Y-32404151D01*
X101880192Y-32481142D01*
X101880197Y-32481144D01*
X102065354Y-32520500D01*
X102065355Y-32520500D01*
X102254644Y-32520500D01*
X102254646Y-32520500D01*
X102439803Y-32481144D01*
X102612730Y-32404151D01*
X102765871Y-32292888D01*
X102892533Y-32152216D01*
X102987179Y-31988284D01*
X103045674Y-31808256D01*
X103065460Y-31620000D01*
X103045674Y-31431744D01*
X102987179Y-31251716D01*
X102892533Y-31087784D01*
X102765871Y-30947112D01*
X102765870Y-30947111D01*
X102612734Y-30835851D01*
X102612729Y-30835848D01*
X102439807Y-30758857D01*
X102439802Y-30758855D01*
X102294001Y-30727865D01*
X102254646Y-30719500D01*
X102065354Y-30719500D01*
X102032897Y-30726398D01*
X101880197Y-30758855D01*
X101880192Y-30758857D01*
X101707268Y-30835849D01*
X101687882Y-30849934D01*
X101622075Y-30873412D01*
X101554022Y-30857585D01*
X101542118Y-30849934D01*
X101522731Y-30835849D01*
X101349807Y-30758857D01*
X101349802Y-30758855D01*
X101204001Y-30727865D01*
X101164646Y-30719500D01*
X100975354Y-30719500D01*
X100942897Y-30726398D01*
X100790197Y-30758855D01*
X100790192Y-30758857D01*
X100617267Y-30835849D01*
X100605995Y-30844039D01*
X100540187Y-30867514D01*
X100472134Y-30851684D01*
X100465918Y-30847689D01*
X100462732Y-30845850D01*
X100289807Y-30768857D01*
X100289802Y-30768855D01*
X100144001Y-30737865D01*
X100104646Y-30729500D01*
X99915354Y-30729500D01*
X99882897Y-30736398D01*
X99730197Y-30768855D01*
X99730192Y-30768857D01*
X99557270Y-30845848D01*
X99557265Y-30845851D01*
X99404129Y-30957111D01*
X99277466Y-31097785D01*
X99182821Y-31261715D01*
X99182818Y-31261722D01*
X99127575Y-31431744D01*
X99124326Y-31441744D01*
X99104540Y-31630000D01*
X96845107Y-31630000D01*
X96787179Y-31451716D01*
X96692533Y-31287784D01*
X96565871Y-31147112D01*
X96564093Y-31145820D01*
X96489526Y-31091644D01*
X96446860Y-31036314D01*
X96440881Y-30966701D01*
X96473487Y-30904906D01*
X96479450Y-30899166D01*
X96480862Y-30897894D01*
X96480871Y-30897888D01*
X96607533Y-30757216D01*
X96702179Y-30593284D01*
X96760674Y-30413256D01*
X96780460Y-30225000D01*
X96760674Y-30036744D01*
X96702179Y-29856716D01*
X96607533Y-29692784D01*
X96480871Y-29552112D01*
X96480870Y-29552111D01*
X96327734Y-29440851D01*
X96327729Y-29440848D01*
X96154807Y-29363857D01*
X96154802Y-29363855D01*
X96009001Y-29332865D01*
X95969646Y-29324500D01*
X95780354Y-29324500D01*
X95747897Y-29331398D01*
X95595197Y-29363855D01*
X95595192Y-29363857D01*
X95422270Y-29440848D01*
X95422265Y-29440851D01*
X95269129Y-29552111D01*
X95142466Y-29692785D01*
X95047821Y-29856715D01*
X95047818Y-29856722D01*
X95003576Y-29992887D01*
X94989326Y-30036744D01*
X94969540Y-30225000D01*
X87993987Y-30225000D01*
X87957179Y-30111716D01*
X87862533Y-29947784D01*
X87861935Y-29947120D01*
X87861711Y-29946652D01*
X87858715Y-29942529D01*
X87859469Y-29941980D01*
X87831707Y-29884129D01*
X87840333Y-29814794D01*
X87885075Y-29761129D01*
X87903644Y-29750874D01*
X87927730Y-29740151D01*
X88080871Y-29628888D01*
X88207533Y-29488216D01*
X88302179Y-29324284D01*
X88360674Y-29144256D01*
X88378463Y-28975000D01*
X108894540Y-28975000D01*
X108914326Y-29163256D01*
X108914327Y-29163259D01*
X108972818Y-29343277D01*
X108972821Y-29343284D01*
X109067467Y-29507216D01*
X109177021Y-29628888D01*
X109194129Y-29647888D01*
X109347265Y-29759148D01*
X109347270Y-29759151D01*
X109520192Y-29836142D01*
X109520197Y-29836144D01*
X109705354Y-29875500D01*
X109705355Y-29875500D01*
X109894644Y-29875500D01*
X109894646Y-29875500D01*
X110079803Y-29836144D01*
X110252730Y-29759151D01*
X110405871Y-29647888D01*
X110532533Y-29507216D01*
X110627179Y-29343284D01*
X110685674Y-29163256D01*
X110705460Y-28975000D01*
X110685674Y-28786744D01*
X110627179Y-28606716D01*
X110532533Y-28442784D01*
X110405871Y-28302112D01*
X110379720Y-28283112D01*
X110252734Y-28190851D01*
X110252729Y-28190848D01*
X110079807Y-28113857D01*
X110079802Y-28113855D01*
X109934001Y-28082865D01*
X109894646Y-28074500D01*
X109705354Y-28074500D01*
X109672897Y-28081398D01*
X109520197Y-28113855D01*
X109520192Y-28113857D01*
X109347270Y-28190848D01*
X109347265Y-28190851D01*
X109194129Y-28302111D01*
X109067466Y-28442785D01*
X108972821Y-28606715D01*
X108972818Y-28606722D01*
X108914327Y-28786740D01*
X108914326Y-28786744D01*
X108894540Y-28975000D01*
X88378463Y-28975000D01*
X88380460Y-28956000D01*
X88360674Y-28767744D01*
X88302179Y-28587716D01*
X88207533Y-28423784D01*
X88080871Y-28283112D01*
X87991643Y-28218284D01*
X87927734Y-28171851D01*
X87927729Y-28171848D01*
X87754807Y-28094857D01*
X87754802Y-28094855D01*
X87609001Y-28063865D01*
X87569646Y-28055500D01*
X87380354Y-28055500D01*
X87347897Y-28062398D01*
X87195197Y-28094855D01*
X87195192Y-28094857D01*
X87022270Y-28171848D01*
X87022265Y-28171851D01*
X86869129Y-28283111D01*
X86742466Y-28423785D01*
X86647821Y-28587715D01*
X86647818Y-28587722D01*
X86594929Y-28750500D01*
X86589326Y-28767744D01*
X86569540Y-28956000D01*
X86589326Y-29144256D01*
X86589327Y-29144259D01*
X86647818Y-29324277D01*
X86647821Y-29324284D01*
X86742467Y-29488216D01*
X86743064Y-29488879D01*
X86743288Y-29489346D01*
X86746285Y-29493471D01*
X86745530Y-29494019D01*
X86773292Y-29551871D01*
X86764666Y-29621206D01*
X86719923Y-29674871D01*
X86701350Y-29685127D01*
X86677272Y-29695847D01*
X86677265Y-29695851D01*
X86524129Y-29807111D01*
X86397466Y-29947785D01*
X86302821Y-30111715D01*
X86302818Y-30111722D01*
X86244327Y-30291740D01*
X86244326Y-30291744D01*
X86224540Y-30480000D01*
X78765799Y-30480000D01*
X78755300Y-30373406D01*
X78695232Y-30175386D01*
X78597685Y-29992890D01*
X78508428Y-29884129D01*
X78466410Y-29832929D01*
X78306452Y-29701657D01*
X78306453Y-29701657D01*
X78306450Y-29701655D01*
X78123954Y-29604108D01*
X77925934Y-29544040D01*
X77925932Y-29544039D01*
X77925934Y-29544039D01*
X77806805Y-29532306D01*
X77771608Y-29528840D01*
X77068392Y-29528840D01*
X77030298Y-29532591D01*
X76914067Y-29544039D01*
X76716043Y-29604109D01*
X76669686Y-29628888D01*
X76533550Y-29701655D01*
X76533548Y-29701656D01*
X76533547Y-29701657D01*
X76373589Y-29832929D01*
X76279331Y-29947785D01*
X76242315Y-29992890D01*
X76218874Y-30036744D01*
X76144769Y-30175383D01*
X76084699Y-30373407D01*
X76064417Y-30579340D01*
X74975583Y-30579340D01*
X74955300Y-30373406D01*
X74895232Y-30175386D01*
X74797685Y-29992890D01*
X74708428Y-29884129D01*
X74666410Y-29832929D01*
X74506452Y-29701657D01*
X74506453Y-29701657D01*
X74506450Y-29701655D01*
X74323954Y-29604108D01*
X74125934Y-29544040D01*
X74125932Y-29544039D01*
X74125934Y-29544039D01*
X74006805Y-29532306D01*
X73971608Y-29528840D01*
X73268392Y-29528840D01*
X73230298Y-29532591D01*
X73114067Y-29544039D01*
X72916043Y-29604109D01*
X72869686Y-29628888D01*
X72733550Y-29701655D01*
X72733548Y-29701656D01*
X72733547Y-29701657D01*
X72573589Y-29832929D01*
X72479331Y-29947785D01*
X72442315Y-29992890D01*
X72418874Y-30036744D01*
X72344769Y-30175383D01*
X72284699Y-30373407D01*
X72264417Y-30579340D01*
X71000500Y-30579340D01*
X71000500Y-27850000D01*
X92544540Y-27850000D01*
X92564326Y-28038256D01*
X92564327Y-28038259D01*
X92622818Y-28218277D01*
X92622821Y-28218284D01*
X92717467Y-28382216D01*
X92772003Y-28442784D01*
X92844129Y-28522888D01*
X92997265Y-28634148D01*
X92997270Y-28634151D01*
X93170192Y-28711142D01*
X93170197Y-28711144D01*
X93355354Y-28750500D01*
X93355355Y-28750500D01*
X93544644Y-28750500D01*
X93544646Y-28750500D01*
X93729803Y-28711144D01*
X93902730Y-28634151D01*
X94055871Y-28522888D01*
X94182533Y-28382216D01*
X94277179Y-28218284D01*
X94335674Y-28038256D01*
X94355460Y-27850000D01*
X94335674Y-27661744D01*
X94277179Y-27481716D01*
X94182533Y-27317784D01*
X94055871Y-27177112D01*
X94055870Y-27177111D01*
X93902734Y-27065851D01*
X93902729Y-27065848D01*
X93754839Y-27000002D01*
X116694652Y-27000002D01*
X116714028Y-27357368D01*
X116714029Y-27357385D01*
X116771926Y-27710539D01*
X116771932Y-27710565D01*
X116867672Y-28055392D01*
X116867674Y-28055399D01*
X117000142Y-28387870D01*
X117000151Y-28387888D01*
X117167784Y-28704077D01*
X117167787Y-28704082D01*
X117167789Y-28704085D01*
X117338591Y-28956000D01*
X117368634Y-29000309D01*
X117368641Y-29000319D01*
X117507044Y-29163259D01*
X117600332Y-29273086D01*
X117860163Y-29519211D01*
X118145081Y-29735800D01*
X118451747Y-29920315D01*
X118451749Y-29920316D01*
X118451751Y-29920317D01*
X118451755Y-29920319D01*
X118776552Y-30070585D01*
X118776565Y-30070591D01*
X119087576Y-30175383D01*
X119115726Y-30184868D01*
X119291336Y-30223523D01*
X119352577Y-30257159D01*
X119385911Y-30318564D01*
X119380755Y-30388244D01*
X119338746Y-30444074D01*
X119315121Y-30457900D01*
X119297270Y-30465849D01*
X119297268Y-30465849D01*
X119297264Y-30465852D01*
X119144129Y-30577111D01*
X119017466Y-30717785D01*
X118922821Y-30881715D01*
X118922818Y-30881722D01*
X118870494Y-31042760D01*
X118864326Y-31061744D01*
X118844540Y-31250000D01*
X118864326Y-31438256D01*
X118864327Y-31438259D01*
X118922818Y-31618277D01*
X118922820Y-31618281D01*
X118922821Y-31618284D01*
X118963071Y-31687999D01*
X118963072Y-31688001D01*
X118979543Y-31755901D01*
X118963072Y-31811999D01*
X118922820Y-31881718D01*
X118922818Y-31881722D01*
X118881705Y-32008256D01*
X118864326Y-32061744D01*
X118844540Y-32250000D01*
X118864326Y-32438256D01*
X118864327Y-32438259D01*
X118922818Y-32618277D01*
X118922820Y-32618281D01*
X118922821Y-32618284D01*
X118937950Y-32644488D01*
X118963072Y-32688001D01*
X118979543Y-32755901D01*
X118963072Y-32811999D01*
X118922820Y-32881718D01*
X118922818Y-32881722D01*
X118871762Y-33038857D01*
X118864326Y-33061744D01*
X118844540Y-33250000D01*
X118864326Y-33438256D01*
X118864327Y-33438259D01*
X118922820Y-33618283D01*
X118967690Y-33696001D01*
X118984162Y-33763901D01*
X118967690Y-33819999D01*
X118922820Y-33897716D01*
X118864327Y-34077740D01*
X118864326Y-34077744D01*
X118844540Y-34266000D01*
X118864326Y-34454256D01*
X118864327Y-34454259D01*
X118922820Y-34634283D01*
X118967690Y-34712001D01*
X118984162Y-34779901D01*
X118967690Y-34835999D01*
X118922820Y-34913716D01*
X118888658Y-35018857D01*
X118864326Y-35093744D01*
X118844540Y-35282000D01*
X118864326Y-35470256D01*
X118864327Y-35470259D01*
X118922820Y-35650283D01*
X118968556Y-35729501D01*
X118985028Y-35797401D01*
X118968556Y-35853499D01*
X118922820Y-35932716D01*
X118884550Y-36050500D01*
X118864326Y-36112744D01*
X118844540Y-36301000D01*
X118864326Y-36489256D01*
X118864327Y-36489259D01*
X118922820Y-36669283D01*
X118967690Y-36747001D01*
X118984162Y-36814901D01*
X118967690Y-36870999D01*
X118922820Y-36948716D01*
X118879606Y-37081716D01*
X118864326Y-37128744D01*
X118844540Y-37317000D01*
X118864326Y-37505256D01*
X118864327Y-37505259D01*
X118922818Y-37685277D01*
X118922821Y-37685284D01*
X119017467Y-37849216D01*
X119137219Y-37982214D01*
X119144129Y-37989888D01*
X119297265Y-38101148D01*
X119297270Y-38101151D01*
X119470192Y-38178142D01*
X119470197Y-38178144D01*
X119655354Y-38217500D01*
X119655355Y-38217500D01*
X119844644Y-38217500D01*
X119844646Y-38217500D01*
X120029803Y-38178144D01*
X120202730Y-38101151D01*
X120355871Y-37989888D01*
X120482533Y-37849216D01*
X120577179Y-37685284D01*
X120635674Y-37505256D01*
X120655460Y-37317000D01*
X120635674Y-37128744D01*
X120577179Y-36948716D01*
X120532308Y-36870997D01*
X120515836Y-36803100D01*
X120532309Y-36747001D01*
X120577179Y-36669284D01*
X120577650Y-36667834D01*
X120582346Y-36653383D01*
X120621783Y-36595707D01*
X120686141Y-36568508D01*
X120754987Y-36580422D01*
X120806464Y-36627666D01*
X120812657Y-36639293D01*
X120825042Y-36665851D01*
X120825965Y-36667829D01*
X120825967Y-36667834D01*
X120877300Y-36741144D01*
X120961505Y-36861401D01*
X121128599Y-37028495D01*
X121204615Y-37081722D01*
X121322165Y-37164032D01*
X121322167Y-37164033D01*
X121322170Y-37164035D01*
X121536337Y-37263903D01*
X121764592Y-37325063D01*
X121952918Y-37341539D01*
X121999999Y-37345659D01*
X122000000Y-37345659D01*
X122000001Y-37345659D01*
X122039234Y-37342226D01*
X122235408Y-37325063D01*
X122463663Y-37263903D01*
X122677830Y-37164035D01*
X122871401Y-37028495D01*
X123038495Y-36861401D01*
X123174035Y-36667830D01*
X123273903Y-36453663D01*
X123335063Y-36225408D01*
X123355659Y-35990000D01*
X123335063Y-35754592D01*
X123273903Y-35526337D01*
X123174035Y-35312171D01*
X123164883Y-35299101D01*
X123038496Y-35118600D01*
X123013636Y-35093740D01*
X122916567Y-34996671D01*
X122883084Y-34935351D01*
X122888068Y-34865659D01*
X122929939Y-34809725D01*
X122960915Y-34792810D01*
X123092331Y-34743796D01*
X123207546Y-34657546D01*
X123293796Y-34542331D01*
X123344091Y-34407483D01*
X123350500Y-34347873D01*
X123350499Y-32552128D01*
X123344091Y-32492517D01*
X123343578Y-32491142D01*
X123293797Y-32357671D01*
X123293793Y-32357664D01*
X123207547Y-32242455D01*
X123207544Y-32242452D01*
X123092335Y-32156206D01*
X123092328Y-32156202D01*
X122957482Y-32105908D01*
X122957483Y-32105908D01*
X122897883Y-32099501D01*
X122897881Y-32099500D01*
X122897873Y-32099500D01*
X122897864Y-32099500D01*
X121102129Y-32099500D01*
X121102123Y-32099501D01*
X121042516Y-32105908D01*
X120907671Y-32156202D01*
X120907668Y-32156204D01*
X120839524Y-32207217D01*
X120774059Y-32231634D01*
X120705786Y-32216782D01*
X120656381Y-32167377D01*
X120641892Y-32120915D01*
X120635674Y-32061744D01*
X120577179Y-31881716D01*
X120536927Y-31811999D01*
X120520454Y-31744101D01*
X120536927Y-31688001D01*
X120577179Y-31618284D01*
X120635674Y-31438256D01*
X120655460Y-31250000D01*
X120635674Y-31061744D01*
X120577179Y-30881716D01*
X120482533Y-30717784D01*
X120355871Y-30577112D01*
X120261615Y-30508631D01*
X120218950Y-30453301D01*
X120212971Y-30383687D01*
X120245577Y-30321892D01*
X120306416Y-30287535D01*
X120321083Y-30285042D01*
X120534746Y-30261805D01*
X120884274Y-30184868D01*
X121223435Y-30070591D01*
X121548253Y-29920315D01*
X121854919Y-29735800D01*
X122139837Y-29519211D01*
X122399668Y-29273086D01*
X122631365Y-29000311D01*
X122832211Y-28704085D01*
X122999853Y-28387880D01*
X123132324Y-28055403D01*
X123228071Y-27710552D01*
X123285972Y-27357371D01*
X123305348Y-27000000D01*
X123285972Y-26642629D01*
X123284061Y-26630973D01*
X123228073Y-26289460D01*
X123228072Y-26289459D01*
X123228071Y-26289448D01*
X123164802Y-26061572D01*
X123132327Y-25944607D01*
X123132325Y-25944600D01*
X123104662Y-25875172D01*
X123045752Y-25727318D01*
X122999857Y-25612129D01*
X122999848Y-25612111D01*
X122950823Y-25519641D01*
X122855883Y-25340564D01*
X122832215Y-25295922D01*
X122832213Y-25295919D01*
X122832211Y-25295915D01*
X122631365Y-24999689D01*
X122631361Y-24999684D01*
X122631358Y-24999680D01*
X122399668Y-24726914D01*
X122254879Y-24589763D01*
X122139837Y-24480789D01*
X122139830Y-24480783D01*
X122139827Y-24480781D01*
X122066664Y-24425164D01*
X121854919Y-24264200D01*
X121548253Y-24079685D01*
X121548252Y-24079684D01*
X121548248Y-24079682D01*
X121548244Y-24079680D01*
X121223447Y-23929414D01*
X121223441Y-23929411D01*
X121223435Y-23929409D01*
X121053854Y-23872270D01*
X120884273Y-23815131D01*
X120534744Y-23738194D01*
X120178949Y-23699500D01*
X120178948Y-23699500D01*
X119821052Y-23699500D01*
X119821050Y-23699500D01*
X119465255Y-23738194D01*
X119115726Y-23815131D01*
X118861633Y-23900746D01*
X118776565Y-23929409D01*
X118776563Y-23929410D01*
X118776552Y-23929414D01*
X118451755Y-24079680D01*
X118451751Y-24079682D01*
X118274477Y-24186345D01*
X118145081Y-24264200D01*
X118093130Y-24303692D01*
X117860172Y-24480781D01*
X117860163Y-24480789D01*
X117600331Y-24726914D01*
X117368641Y-24999680D01*
X117368634Y-24999690D01*
X117167790Y-25295913D01*
X117167784Y-25295922D01*
X117000151Y-25612111D01*
X117000142Y-25612129D01*
X116867674Y-25944600D01*
X116867672Y-25944607D01*
X116771932Y-26289434D01*
X116771926Y-26289460D01*
X116714029Y-26642614D01*
X116714028Y-26642631D01*
X116694652Y-26999997D01*
X116694652Y-27000002D01*
X93754839Y-27000002D01*
X93729807Y-26988857D01*
X93729802Y-26988855D01*
X93584001Y-26957865D01*
X93544646Y-26949500D01*
X93355354Y-26949500D01*
X93322897Y-26956398D01*
X93170197Y-26988855D01*
X93170192Y-26988857D01*
X92997270Y-27065848D01*
X92997265Y-27065851D01*
X92844129Y-27177111D01*
X92717466Y-27317785D01*
X92622821Y-27481715D01*
X92622818Y-27481722D01*
X92564327Y-27661740D01*
X92564326Y-27661744D01*
X92544540Y-27850000D01*
X71000500Y-27850000D01*
X71000500Y-27001439D01*
X71000566Y-26998576D01*
X71008487Y-26827238D01*
X71018302Y-26627446D01*
X71018818Y-26621955D01*
X71044670Y-26436633D01*
X71051516Y-26390484D01*
X71072331Y-26250162D01*
X71073292Y-26245137D01*
X71088612Y-26180000D01*
X73614540Y-26180000D01*
X73634326Y-26368256D01*
X73634327Y-26368259D01*
X73692818Y-26548277D01*
X73692821Y-26548284D01*
X73787467Y-26712216D01*
X73880056Y-26815046D01*
X73914129Y-26852888D01*
X74067265Y-26964148D01*
X74067270Y-26964151D01*
X74240192Y-27041142D01*
X74240197Y-27041144D01*
X74425354Y-27080500D01*
X74425355Y-27080500D01*
X74614644Y-27080500D01*
X74614646Y-27080500D01*
X74799803Y-27041144D01*
X74972730Y-26964151D01*
X75125871Y-26852888D01*
X75252533Y-26712216D01*
X75347179Y-26548284D01*
X75405674Y-26368256D01*
X75425460Y-26180000D01*
X75405674Y-25991744D01*
X75347179Y-25811716D01*
X75331679Y-25784870D01*
X97319500Y-25784870D01*
X97319501Y-25784876D01*
X97325908Y-25844483D01*
X97376202Y-25979328D01*
X97376206Y-25979335D01*
X97462452Y-26094544D01*
X97462455Y-26094547D01*
X97577664Y-26180793D01*
X97577671Y-26180797D01*
X97712517Y-26231091D01*
X97712516Y-26231091D01*
X97719444Y-26231835D01*
X97772127Y-26237500D01*
X99567872Y-26237499D01*
X99627483Y-26231091D01*
X99762331Y-26180796D01*
X99877546Y-26094546D01*
X99963796Y-25979331D01*
X99972870Y-25955001D01*
X101819500Y-25955001D01*
X101819501Y-25955018D01*
X101830000Y-26057796D01*
X101830001Y-26057799D01*
X101885185Y-26224331D01*
X101885187Y-26224336D01*
X101893306Y-26237499D01*
X101977288Y-26373656D01*
X102101344Y-26497712D01*
X102250666Y-26589814D01*
X102417203Y-26644999D01*
X102519991Y-26655500D01*
X103320008Y-26655499D01*
X103320016Y-26655498D01*
X103320019Y-26655498D01*
X103381143Y-26649254D01*
X103422797Y-26644999D01*
X103589334Y-26589814D01*
X103738656Y-26497712D01*
X103862712Y-26373656D01*
X103901815Y-26310258D01*
X103953761Y-26263535D01*
X104022723Y-26252312D01*
X104086806Y-26280155D01*
X104104824Y-26298705D01*
X104119907Y-26317885D01*
X104119909Y-26317887D01*
X104278746Y-26455521D01*
X104460750Y-26560601D01*
X104460752Y-26560601D01*
X104460756Y-26560604D01*
X104659367Y-26629344D01*
X104867398Y-26659254D01*
X105077330Y-26649254D01*
X105281576Y-26599704D01*
X105394185Y-26548277D01*
X105472743Y-26512401D01*
X105472746Y-26512399D01*
X105472753Y-26512396D01*
X105643952Y-26390486D01*
X105659999Y-26373657D01*
X105788985Y-26238379D01*
X105789551Y-26237499D01*
X105902613Y-26061572D01*
X105980725Y-25866457D01*
X105996450Y-25784870D01*
X107819500Y-25784870D01*
X107819501Y-25784876D01*
X107825908Y-25844483D01*
X107876202Y-25979328D01*
X107876206Y-25979335D01*
X107962452Y-26094544D01*
X107962455Y-26094547D01*
X108077664Y-26180793D01*
X108077671Y-26180797D01*
X108212517Y-26231091D01*
X108212516Y-26231091D01*
X108219444Y-26231835D01*
X108272127Y-26237500D01*
X110067872Y-26237499D01*
X110127483Y-26231091D01*
X110262331Y-26180796D01*
X110377546Y-26094546D01*
X110463796Y-25979331D01*
X110514091Y-25844483D01*
X110520500Y-25784873D01*
X110520499Y-23989128D01*
X110515299Y-23940757D01*
X110514091Y-23929516D01*
X110463797Y-23794671D01*
X110463793Y-23794664D01*
X110377547Y-23679455D01*
X110377544Y-23679452D01*
X110262335Y-23593206D01*
X110262328Y-23593202D01*
X110127482Y-23542908D01*
X110127483Y-23542908D01*
X110067883Y-23536501D01*
X110067881Y-23536500D01*
X110067873Y-23536500D01*
X110067864Y-23536500D01*
X108272129Y-23536500D01*
X108272123Y-23536501D01*
X108212516Y-23542908D01*
X108077671Y-23593202D01*
X108077664Y-23593206D01*
X107962455Y-23679452D01*
X107962452Y-23679455D01*
X107876206Y-23794664D01*
X107876202Y-23794671D01*
X107825908Y-23929517D01*
X107819501Y-23989116D01*
X107819501Y-23989123D01*
X107819500Y-23989135D01*
X107819500Y-25784870D01*
X105996450Y-25784870D01*
X106020500Y-25660085D01*
X106020500Y-24952575D01*
X106005528Y-24795782D01*
X105946316Y-24594125D01*
X105850011Y-24407318D01*
X105850009Y-24407316D01*
X105850008Y-24407313D01*
X105720094Y-24242116D01*
X105720090Y-24242112D01*
X105561253Y-24104478D01*
X105379249Y-23999398D01*
X105379245Y-23999396D01*
X105379244Y-23999396D01*
X105180633Y-23930656D01*
X104972602Y-23900746D01*
X104972598Y-23900746D01*
X104762672Y-23910745D01*
X104558421Y-23960296D01*
X104558417Y-23960298D01*
X104367256Y-24047598D01*
X104367251Y-24047601D01*
X104196046Y-24169515D01*
X104196045Y-24169515D01*
X104098249Y-24272082D01*
X104037740Y-24307017D01*
X103967949Y-24303692D01*
X103911035Y-24263164D01*
X103902967Y-24251608D01*
X103897110Y-24242112D01*
X103862712Y-24186344D01*
X103738656Y-24062288D01*
X103645888Y-24005069D01*
X103589336Y-23970187D01*
X103589331Y-23970185D01*
X103559488Y-23960296D01*
X103422797Y-23915001D01*
X103422795Y-23915000D01*
X103320010Y-23904500D01*
X102519998Y-23904500D01*
X102519980Y-23904501D01*
X102417203Y-23915000D01*
X102417200Y-23915001D01*
X102250668Y-23970185D01*
X102250663Y-23970187D01*
X102101342Y-24062289D01*
X101977289Y-24186342D01*
X101885187Y-24335663D01*
X101885186Y-24335666D01*
X101830001Y-24502203D01*
X101830001Y-24502204D01*
X101830000Y-24502204D01*
X101819500Y-24604983D01*
X101819500Y-25955001D01*
X99972870Y-25955001D01*
X100014091Y-25844483D01*
X100020500Y-25784873D01*
X100020499Y-23989128D01*
X100015299Y-23940757D01*
X100014091Y-23929516D01*
X99963797Y-23794671D01*
X99963793Y-23794664D01*
X99877547Y-23679455D01*
X99877544Y-23679452D01*
X99762335Y-23593206D01*
X99762328Y-23593202D01*
X99627482Y-23542908D01*
X99627483Y-23542908D01*
X99567883Y-23536501D01*
X99567881Y-23536500D01*
X99567873Y-23536500D01*
X99567864Y-23536500D01*
X97772129Y-23536500D01*
X97772123Y-23536501D01*
X97712516Y-23542908D01*
X97577671Y-23593202D01*
X97577664Y-23593206D01*
X97462455Y-23679452D01*
X97462452Y-23679455D01*
X97376206Y-23794664D01*
X97376202Y-23794671D01*
X97325908Y-23929517D01*
X97319501Y-23989116D01*
X97319501Y-23989123D01*
X97319500Y-23989135D01*
X97319500Y-25784870D01*
X75331679Y-25784870D01*
X75252533Y-25647784D01*
X75125871Y-25507112D01*
X75125870Y-25507111D01*
X74972734Y-25395851D01*
X74972729Y-25395848D01*
X74799807Y-25318857D01*
X74799802Y-25318855D01*
X74654001Y-25287865D01*
X74614646Y-25279500D01*
X74425354Y-25279500D01*
X74392897Y-25286398D01*
X74240197Y-25318855D01*
X74240192Y-25318857D01*
X74067270Y-25395848D01*
X74067265Y-25395851D01*
X73914129Y-25507111D01*
X73787466Y-25647785D01*
X73692821Y-25811715D01*
X73692818Y-25811722D01*
X73646262Y-25955008D01*
X73634326Y-25991744D01*
X73614540Y-26180000D01*
X71088612Y-26180000D01*
X71116689Y-26060626D01*
X71161993Y-25879764D01*
X71163323Y-25875216D01*
X71223915Y-25694431D01*
X71286457Y-25519641D01*
X71288100Y-25515527D01*
X71291816Y-25507112D01*
X71365368Y-25340530D01*
X71444615Y-25172977D01*
X71446444Y-25169423D01*
X71539781Y-25001852D01*
X71634990Y-24843005D01*
X71636979Y-24839904D01*
X71745570Y-24681381D01*
X71855924Y-24532586D01*
X71857928Y-24530033D01*
X71980875Y-24381973D01*
X72105351Y-24244636D01*
X72107361Y-24242526D01*
X72242526Y-24107361D01*
X72244636Y-24105351D01*
X72381973Y-23980875D01*
X72530033Y-23857928D01*
X72532586Y-23855924D01*
X72681381Y-23745570D01*
X72839904Y-23636979D01*
X72843005Y-23634990D01*
X73001858Y-23539778D01*
X73169423Y-23446444D01*
X73172977Y-23444615D01*
X73340530Y-23365368D01*
X73515538Y-23288095D01*
X73519641Y-23286457D01*
X73694431Y-23223915D01*
X73875216Y-23163323D01*
X73879764Y-23161993D01*
X74060626Y-23116689D01*
X74245137Y-23073292D01*
X74250162Y-23072331D01*
X74436651Y-23044667D01*
X74621955Y-23018818D01*
X74627446Y-23018302D01*
X74826958Y-23008500D01*
X74968945Y-23001935D01*
X74998577Y-23000566D01*
X75001440Y-23000500D01*
X119998560Y-23000500D01*
X120001423Y-23000566D01*
G37*
%TD.AperFunction*%
%TD*%
M02*
