%TF.GenerationSoftware,KiCad,Pcbnew,7.0.8*%
%TF.CreationDate,2024-12-11T22:25:20+01:00*%
%TF.ProjectId,LiPo_BuckBoost_Charger,4c69506f-5f42-4756-936b-426f6f73745f,rev?*%
%TF.SameCoordinates,Original*%
%TF.FileFunction,Soldermask,Bot*%
%TF.FilePolarity,Negative*%
%FSLAX46Y46*%
G04 Gerber Fmt 4.6, Leading zero omitted, Abs format (unit mm)*
G04 Created by KiCad (PCBNEW 7.0.8) date 2024-12-11 22:25:20*
%MOMM*%
%LPD*%
G01*
G04 APERTURE LIST*
G04 Aperture macros list*
%AMRoundRect*
0 Rectangle with rounded corners*
0 $1 Rounding radius*
0 $2 $3 $4 $5 $6 $7 $8 $9 X,Y pos of 4 corners*
0 Add a 4 corners polygon primitive as box body*
4,1,4,$2,$3,$4,$5,$6,$7,$8,$9,$2,$3,0*
0 Add four circle primitives for the rounded corners*
1,1,$1+$1,$2,$3*
1,1,$1+$1,$4,$5*
1,1,$1+$1,$6,$7*
1,1,$1+$1,$8,$9*
0 Add four rect primitives between the rounded corners*
20,1,$1+$1,$2,$3,$4,$5,0*
20,1,$1+$1,$4,$5,$6,$7,0*
20,1,$1+$1,$6,$7,$8,$9,0*
20,1,$1+$1,$8,$9,$2,$3,0*%
%AMFreePoly0*
4,1,6,1.000000,0.000000,0.500000,-0.750000,-0.500000,-0.750000,-0.500000,0.750000,0.500000,0.750000,1.000000,0.000000,1.000000,0.000000,$1*%
G04 Aperture macros list end*
%ADD10C,0.150000*%
%ADD11R,1.700000X1.700000*%
%ADD12O,1.700000X1.700000*%
%ADD13O,1.700000X1.100000*%
%ADD14C,5.600000*%
%ADD15RoundRect,0.250000X-0.625000X0.350000X-0.625000X-0.350000X0.625000X-0.350000X0.625000X0.350000X0*%
%ADD16O,1.750000X1.200000*%
%ADD17RoundRect,0.250000X-0.350000X-0.625000X0.350000X-0.625000X0.350000X0.625000X-0.350000X0.625000X0*%
%ADD18O,1.200000X1.750000*%
%ADD19R,1.500000X1.500000*%
%ADD20FreePoly0,0.000000*%
%ADD21FreePoly0,180.000000*%
G04 APERTURE END LIST*
D10*
X97067449Y-50830733D02*
X97067449Y-50130733D01*
X97067449Y-50130733D02*
X96800782Y-50130733D01*
X96800782Y-50130733D02*
X96734116Y-50164066D01*
X96734116Y-50164066D02*
X96700782Y-50197400D01*
X96700782Y-50197400D02*
X96667449Y-50264066D01*
X96667449Y-50264066D02*
X96667449Y-50364066D01*
X96667449Y-50364066D02*
X96700782Y-50430733D01*
X96700782Y-50430733D02*
X96734116Y-50464066D01*
X96734116Y-50464066D02*
X96800782Y-50497400D01*
X96800782Y-50497400D02*
X97067449Y-50497400D01*
X96267449Y-50830733D02*
X96334116Y-50797400D01*
X96334116Y-50797400D02*
X96367449Y-50764066D01*
X96367449Y-50764066D02*
X96400782Y-50697400D01*
X96400782Y-50697400D02*
X96400782Y-50497400D01*
X96400782Y-50497400D02*
X96367449Y-50430733D01*
X96367449Y-50430733D02*
X96334116Y-50397400D01*
X96334116Y-50397400D02*
X96267449Y-50364066D01*
X96267449Y-50364066D02*
X96167449Y-50364066D01*
X96167449Y-50364066D02*
X96100782Y-50397400D01*
X96100782Y-50397400D02*
X96067449Y-50430733D01*
X96067449Y-50430733D02*
X96034116Y-50497400D01*
X96034116Y-50497400D02*
X96034116Y-50697400D01*
X96034116Y-50697400D02*
X96067449Y-50764066D01*
X96067449Y-50764066D02*
X96100782Y-50797400D01*
X96100782Y-50797400D02*
X96167449Y-50830733D01*
X96167449Y-50830733D02*
X96267449Y-50830733D01*
X95834116Y-50364066D02*
X95567449Y-50364066D01*
X95734116Y-50130733D02*
X95734116Y-50730733D01*
X95734116Y-50730733D02*
X95700783Y-50797400D01*
X95700783Y-50797400D02*
X95634116Y-50830733D01*
X95634116Y-50830733D02*
X95567449Y-50830733D01*
X95334116Y-50364066D02*
X95334116Y-51064066D01*
X95334116Y-50397400D02*
X95267449Y-50364066D01*
X95267449Y-50364066D02*
X95134116Y-50364066D01*
X95134116Y-50364066D02*
X95067449Y-50397400D01*
X95067449Y-50397400D02*
X95034116Y-50430733D01*
X95034116Y-50430733D02*
X95000783Y-50497400D01*
X95000783Y-50497400D02*
X95000783Y-50697400D01*
X95000783Y-50697400D02*
X95034116Y-50764066D01*
X95034116Y-50764066D02*
X95067449Y-50797400D01*
X95067449Y-50797400D02*
X95134116Y-50830733D01*
X95134116Y-50830733D02*
X95267449Y-50830733D01*
X95267449Y-50830733D02*
X95334116Y-50797400D01*
X94400783Y-50364066D02*
X94400783Y-50830733D01*
X94700783Y-50364066D02*
X94700783Y-50730733D01*
X94700783Y-50730733D02*
X94667450Y-50797400D01*
X94667450Y-50797400D02*
X94600783Y-50830733D01*
X94600783Y-50830733D02*
X94500783Y-50830733D01*
X94500783Y-50830733D02*
X94434116Y-50797400D01*
X94434116Y-50797400D02*
X94400783Y-50764066D01*
X94067450Y-50830733D02*
X94067450Y-50364066D01*
X94067450Y-50497400D02*
X94034117Y-50430733D01*
X94034117Y-50430733D02*
X94000783Y-50397400D01*
X94000783Y-50397400D02*
X93934117Y-50364066D01*
X93934117Y-50364066D02*
X93867450Y-50364066D01*
X93634117Y-50830733D02*
X93634117Y-50364066D01*
X93634117Y-50497400D02*
X93600784Y-50430733D01*
X93600784Y-50430733D02*
X93567450Y-50397400D01*
X93567450Y-50397400D02*
X93500784Y-50364066D01*
X93500784Y-50364066D02*
X93434117Y-50364066D01*
X93200784Y-50830733D02*
X93200784Y-50364066D01*
X93200784Y-50130733D02*
X93234117Y-50164066D01*
X93234117Y-50164066D02*
X93200784Y-50197400D01*
X93200784Y-50197400D02*
X93167451Y-50164066D01*
X93167451Y-50164066D02*
X93200784Y-50130733D01*
X93200784Y-50130733D02*
X93200784Y-50197400D01*
X97167449Y-51257733D02*
X96767449Y-51257733D01*
X96967449Y-51957733D02*
X96967449Y-51257733D01*
X96534116Y-51957733D02*
X96534116Y-51257733D01*
X96534116Y-51257733D02*
X96267449Y-51257733D01*
X96267449Y-51257733D02*
X96200783Y-51291066D01*
X96200783Y-51291066D02*
X96167449Y-51324400D01*
X96167449Y-51324400D02*
X96134116Y-51391066D01*
X96134116Y-51391066D02*
X96134116Y-51491066D01*
X96134116Y-51491066D02*
X96167449Y-51557733D01*
X96167449Y-51557733D02*
X96200783Y-51591066D01*
X96200783Y-51591066D02*
X96267449Y-51624400D01*
X96267449Y-51624400D02*
X96534116Y-51624400D01*
X95534116Y-51491066D02*
X95534116Y-51957733D01*
X95700783Y-51224400D02*
X95867449Y-51724400D01*
X95867449Y-51724400D02*
X95434116Y-51724400D01*
X95034116Y-51257733D02*
X94967449Y-51257733D01*
X94967449Y-51257733D02*
X94900782Y-51291066D01*
X94900782Y-51291066D02*
X94867449Y-51324400D01*
X94867449Y-51324400D02*
X94834116Y-51391066D01*
X94834116Y-51391066D02*
X94800782Y-51524400D01*
X94800782Y-51524400D02*
X94800782Y-51691066D01*
X94800782Y-51691066D02*
X94834116Y-51824400D01*
X94834116Y-51824400D02*
X94867449Y-51891066D01*
X94867449Y-51891066D02*
X94900782Y-51924400D01*
X94900782Y-51924400D02*
X94967449Y-51957733D01*
X94967449Y-51957733D02*
X95034116Y-51957733D01*
X95034116Y-51957733D02*
X95100782Y-51924400D01*
X95100782Y-51924400D02*
X95134116Y-51891066D01*
X95134116Y-51891066D02*
X95167449Y-51824400D01*
X95167449Y-51824400D02*
X95200782Y-51691066D01*
X95200782Y-51691066D02*
X95200782Y-51524400D01*
X95200782Y-51524400D02*
X95167449Y-51391066D01*
X95167449Y-51391066D02*
X95134116Y-51324400D01*
X95134116Y-51324400D02*
X95100782Y-51291066D01*
X95100782Y-51291066D02*
X95034116Y-51257733D01*
X94167449Y-51257733D02*
X94500782Y-51257733D01*
X94500782Y-51257733D02*
X94534115Y-51591066D01*
X94534115Y-51591066D02*
X94500782Y-51557733D01*
X94500782Y-51557733D02*
X94434115Y-51524400D01*
X94434115Y-51524400D02*
X94267449Y-51524400D01*
X94267449Y-51524400D02*
X94200782Y-51557733D01*
X94200782Y-51557733D02*
X94167449Y-51591066D01*
X94167449Y-51591066D02*
X94134115Y-51657733D01*
X94134115Y-51657733D02*
X94134115Y-51824400D01*
X94134115Y-51824400D02*
X94167449Y-51891066D01*
X94167449Y-51891066D02*
X94200782Y-51924400D01*
X94200782Y-51924400D02*
X94267449Y-51957733D01*
X94267449Y-51957733D02*
X94434115Y-51957733D01*
X94434115Y-51957733D02*
X94500782Y-51924400D01*
X94500782Y-51924400D02*
X94534115Y-51891066D01*
X93534115Y-51257733D02*
X93667448Y-51257733D01*
X93667448Y-51257733D02*
X93734115Y-51291066D01*
X93734115Y-51291066D02*
X93767448Y-51324400D01*
X93767448Y-51324400D02*
X93834115Y-51424400D01*
X93834115Y-51424400D02*
X93867448Y-51557733D01*
X93867448Y-51557733D02*
X93867448Y-51824400D01*
X93867448Y-51824400D02*
X93834115Y-51891066D01*
X93834115Y-51891066D02*
X93800782Y-51924400D01*
X93800782Y-51924400D02*
X93734115Y-51957733D01*
X93734115Y-51957733D02*
X93600782Y-51957733D01*
X93600782Y-51957733D02*
X93534115Y-51924400D01*
X93534115Y-51924400D02*
X93500782Y-51891066D01*
X93500782Y-51891066D02*
X93467448Y-51824400D01*
X93467448Y-51824400D02*
X93467448Y-51657733D01*
X93467448Y-51657733D02*
X93500782Y-51591066D01*
X93500782Y-51591066D02*
X93534115Y-51557733D01*
X93534115Y-51557733D02*
X93600782Y-51524400D01*
X93600782Y-51524400D02*
X93734115Y-51524400D01*
X93734115Y-51524400D02*
X93800782Y-51557733D01*
X93800782Y-51557733D02*
X93834115Y-51591066D01*
X93834115Y-51591066D02*
X93867448Y-51657733D01*
X92300782Y-51957733D02*
X92634115Y-51957733D01*
X92634115Y-51957733D02*
X92634115Y-51257733D01*
X92067448Y-51957733D02*
X92067448Y-51491066D01*
X92067448Y-51257733D02*
X92100781Y-51291066D01*
X92100781Y-51291066D02*
X92067448Y-51324400D01*
X92067448Y-51324400D02*
X92034115Y-51291066D01*
X92034115Y-51291066D02*
X92067448Y-51257733D01*
X92067448Y-51257733D02*
X92067448Y-51324400D01*
X91734115Y-51957733D02*
X91734115Y-51257733D01*
X91734115Y-51257733D02*
X91467448Y-51257733D01*
X91467448Y-51257733D02*
X91400782Y-51291066D01*
X91400782Y-51291066D02*
X91367448Y-51324400D01*
X91367448Y-51324400D02*
X91334115Y-51391066D01*
X91334115Y-51391066D02*
X91334115Y-51491066D01*
X91334115Y-51491066D02*
X91367448Y-51557733D01*
X91367448Y-51557733D02*
X91400782Y-51591066D01*
X91400782Y-51591066D02*
X91467448Y-51624400D01*
X91467448Y-51624400D02*
X91734115Y-51624400D01*
X90934115Y-51957733D02*
X91000782Y-51924400D01*
X91000782Y-51924400D02*
X91034115Y-51891066D01*
X91034115Y-51891066D02*
X91067448Y-51824400D01*
X91067448Y-51824400D02*
X91067448Y-51624400D01*
X91067448Y-51624400D02*
X91034115Y-51557733D01*
X91034115Y-51557733D02*
X91000782Y-51524400D01*
X91000782Y-51524400D02*
X90934115Y-51491066D01*
X90934115Y-51491066D02*
X90834115Y-51491066D01*
X90834115Y-51491066D02*
X90767448Y-51524400D01*
X90767448Y-51524400D02*
X90734115Y-51557733D01*
X90734115Y-51557733D02*
X90700782Y-51624400D01*
X90700782Y-51624400D02*
X90700782Y-51824400D01*
X90700782Y-51824400D02*
X90734115Y-51891066D01*
X90734115Y-51891066D02*
X90767448Y-51924400D01*
X90767448Y-51924400D02*
X90834115Y-51957733D01*
X90834115Y-51957733D02*
X90934115Y-51957733D01*
X89467449Y-51891066D02*
X89500782Y-51924400D01*
X89500782Y-51924400D02*
X89600782Y-51957733D01*
X89600782Y-51957733D02*
X89667449Y-51957733D01*
X89667449Y-51957733D02*
X89767449Y-51924400D01*
X89767449Y-51924400D02*
X89834116Y-51857733D01*
X89834116Y-51857733D02*
X89867449Y-51791066D01*
X89867449Y-51791066D02*
X89900782Y-51657733D01*
X89900782Y-51657733D02*
X89900782Y-51557733D01*
X89900782Y-51557733D02*
X89867449Y-51424400D01*
X89867449Y-51424400D02*
X89834116Y-51357733D01*
X89834116Y-51357733D02*
X89767449Y-51291066D01*
X89767449Y-51291066D02*
X89667449Y-51257733D01*
X89667449Y-51257733D02*
X89600782Y-51257733D01*
X89600782Y-51257733D02*
X89500782Y-51291066D01*
X89500782Y-51291066D02*
X89467449Y-51324400D01*
X89167449Y-51957733D02*
X89167449Y-51257733D01*
X88867449Y-51957733D02*
X88867449Y-51591066D01*
X88867449Y-51591066D02*
X88900782Y-51524400D01*
X88900782Y-51524400D02*
X88967449Y-51491066D01*
X88967449Y-51491066D02*
X89067449Y-51491066D01*
X89067449Y-51491066D02*
X89134116Y-51524400D01*
X89134116Y-51524400D02*
X89167449Y-51557733D01*
X88234116Y-51957733D02*
X88234116Y-51591066D01*
X88234116Y-51591066D02*
X88267449Y-51524400D01*
X88267449Y-51524400D02*
X88334116Y-51491066D01*
X88334116Y-51491066D02*
X88467449Y-51491066D01*
X88467449Y-51491066D02*
X88534116Y-51524400D01*
X88234116Y-51924400D02*
X88300783Y-51957733D01*
X88300783Y-51957733D02*
X88467449Y-51957733D01*
X88467449Y-51957733D02*
X88534116Y-51924400D01*
X88534116Y-51924400D02*
X88567449Y-51857733D01*
X88567449Y-51857733D02*
X88567449Y-51791066D01*
X88567449Y-51791066D02*
X88534116Y-51724400D01*
X88534116Y-51724400D02*
X88467449Y-51691066D01*
X88467449Y-51691066D02*
X88300783Y-51691066D01*
X88300783Y-51691066D02*
X88234116Y-51657733D01*
X87900783Y-51957733D02*
X87900783Y-51491066D01*
X87900783Y-51624400D02*
X87867450Y-51557733D01*
X87867450Y-51557733D02*
X87834116Y-51524400D01*
X87834116Y-51524400D02*
X87767450Y-51491066D01*
X87767450Y-51491066D02*
X87700783Y-51491066D01*
X87167450Y-51491066D02*
X87167450Y-52057733D01*
X87167450Y-52057733D02*
X87200783Y-52124400D01*
X87200783Y-52124400D02*
X87234117Y-52157733D01*
X87234117Y-52157733D02*
X87300783Y-52191066D01*
X87300783Y-52191066D02*
X87400783Y-52191066D01*
X87400783Y-52191066D02*
X87467450Y-52157733D01*
X87167450Y-51924400D02*
X87234117Y-51957733D01*
X87234117Y-51957733D02*
X87367450Y-51957733D01*
X87367450Y-51957733D02*
X87434117Y-51924400D01*
X87434117Y-51924400D02*
X87467450Y-51891066D01*
X87467450Y-51891066D02*
X87500783Y-51824400D01*
X87500783Y-51824400D02*
X87500783Y-51624400D01*
X87500783Y-51624400D02*
X87467450Y-51557733D01*
X87467450Y-51557733D02*
X87434117Y-51524400D01*
X87434117Y-51524400D02*
X87367450Y-51491066D01*
X87367450Y-51491066D02*
X87234117Y-51491066D01*
X87234117Y-51491066D02*
X87167450Y-51524400D01*
X86567450Y-51924400D02*
X86634117Y-51957733D01*
X86634117Y-51957733D02*
X86767450Y-51957733D01*
X86767450Y-51957733D02*
X86834117Y-51924400D01*
X86834117Y-51924400D02*
X86867450Y-51857733D01*
X86867450Y-51857733D02*
X86867450Y-51591066D01*
X86867450Y-51591066D02*
X86834117Y-51524400D01*
X86834117Y-51524400D02*
X86767450Y-51491066D01*
X86767450Y-51491066D02*
X86634117Y-51491066D01*
X86634117Y-51491066D02*
X86567450Y-51524400D01*
X86567450Y-51524400D02*
X86534117Y-51591066D01*
X86534117Y-51591066D02*
X86534117Y-51657733D01*
X86534117Y-51657733D02*
X86867450Y-51724400D01*
X86234117Y-51957733D02*
X86234117Y-51491066D01*
X86234117Y-51624400D02*
X86200784Y-51557733D01*
X86200784Y-51557733D02*
X86167450Y-51524400D01*
X86167450Y-51524400D02*
X86100784Y-51491066D01*
X86100784Y-51491066D02*
X86034117Y-51491066D01*
X85334118Y-51491066D02*
X85200784Y-51957733D01*
X85200784Y-51957733D02*
X85067451Y-51624400D01*
X85067451Y-51624400D02*
X84934118Y-51957733D01*
X84934118Y-51957733D02*
X84800784Y-51491066D01*
X84534118Y-51957733D02*
X84534118Y-51491066D01*
X84534118Y-51257733D02*
X84567451Y-51291066D01*
X84567451Y-51291066D02*
X84534118Y-51324400D01*
X84534118Y-51324400D02*
X84500785Y-51291066D01*
X84500785Y-51291066D02*
X84534118Y-51257733D01*
X84534118Y-51257733D02*
X84534118Y-51324400D01*
X84300785Y-51491066D02*
X84034118Y-51491066D01*
X84200785Y-51257733D02*
X84200785Y-51857733D01*
X84200785Y-51857733D02*
X84167452Y-51924400D01*
X84167452Y-51924400D02*
X84100785Y-51957733D01*
X84100785Y-51957733D02*
X84034118Y-51957733D01*
X83800785Y-51957733D02*
X83800785Y-51257733D01*
X83500785Y-51957733D02*
X83500785Y-51591066D01*
X83500785Y-51591066D02*
X83534118Y-51524400D01*
X83534118Y-51524400D02*
X83600785Y-51491066D01*
X83600785Y-51491066D02*
X83700785Y-51491066D01*
X83700785Y-51491066D02*
X83767452Y-51524400D01*
X83767452Y-51524400D02*
X83800785Y-51557733D01*
X97167449Y-52384733D02*
X96767449Y-52384733D01*
X96967449Y-53084733D02*
X96967449Y-52384733D01*
X96534116Y-53084733D02*
X96534116Y-52384733D01*
X96534116Y-52384733D02*
X96267449Y-52384733D01*
X96267449Y-52384733D02*
X96200783Y-52418066D01*
X96200783Y-52418066D02*
X96167449Y-52451400D01*
X96167449Y-52451400D02*
X96134116Y-52518066D01*
X96134116Y-52518066D02*
X96134116Y-52618066D01*
X96134116Y-52618066D02*
X96167449Y-52684733D01*
X96167449Y-52684733D02*
X96200783Y-52718066D01*
X96200783Y-52718066D02*
X96267449Y-52751400D01*
X96267449Y-52751400D02*
X96534116Y-52751400D01*
X95867449Y-53051400D02*
X95767449Y-53084733D01*
X95767449Y-53084733D02*
X95600783Y-53084733D01*
X95600783Y-53084733D02*
X95534116Y-53051400D01*
X95534116Y-53051400D02*
X95500783Y-53018066D01*
X95500783Y-53018066D02*
X95467449Y-52951400D01*
X95467449Y-52951400D02*
X95467449Y-52884733D01*
X95467449Y-52884733D02*
X95500783Y-52818066D01*
X95500783Y-52818066D02*
X95534116Y-52784733D01*
X95534116Y-52784733D02*
X95600783Y-52751400D01*
X95600783Y-52751400D02*
X95734116Y-52718066D01*
X95734116Y-52718066D02*
X95800783Y-52684733D01*
X95800783Y-52684733D02*
X95834116Y-52651400D01*
X95834116Y-52651400D02*
X95867449Y-52584733D01*
X95867449Y-52584733D02*
X95867449Y-52518066D01*
X95867449Y-52518066D02*
X95834116Y-52451400D01*
X95834116Y-52451400D02*
X95800783Y-52418066D01*
X95800783Y-52418066D02*
X95734116Y-52384733D01*
X95734116Y-52384733D02*
X95567449Y-52384733D01*
X95567449Y-52384733D02*
X95467449Y-52418066D01*
X94867449Y-52384733D02*
X95000782Y-52384733D01*
X95000782Y-52384733D02*
X95067449Y-52418066D01*
X95067449Y-52418066D02*
X95100782Y-52451400D01*
X95100782Y-52451400D02*
X95167449Y-52551400D01*
X95167449Y-52551400D02*
X95200782Y-52684733D01*
X95200782Y-52684733D02*
X95200782Y-52951400D01*
X95200782Y-52951400D02*
X95167449Y-53018066D01*
X95167449Y-53018066D02*
X95134116Y-53051400D01*
X95134116Y-53051400D02*
X95067449Y-53084733D01*
X95067449Y-53084733D02*
X94934116Y-53084733D01*
X94934116Y-53084733D02*
X94867449Y-53051400D01*
X94867449Y-53051400D02*
X94834116Y-53018066D01*
X94834116Y-53018066D02*
X94800782Y-52951400D01*
X94800782Y-52951400D02*
X94800782Y-52784733D01*
X94800782Y-52784733D02*
X94834116Y-52718066D01*
X94834116Y-52718066D02*
X94867449Y-52684733D01*
X94867449Y-52684733D02*
X94934116Y-52651400D01*
X94934116Y-52651400D02*
X95067449Y-52651400D01*
X95067449Y-52651400D02*
X95134116Y-52684733D01*
X95134116Y-52684733D02*
X95167449Y-52718066D01*
X95167449Y-52718066D02*
X95200782Y-52784733D01*
X94567449Y-52384733D02*
X94134115Y-52384733D01*
X94134115Y-52384733D02*
X94367449Y-52651400D01*
X94367449Y-52651400D02*
X94267449Y-52651400D01*
X94267449Y-52651400D02*
X94200782Y-52684733D01*
X94200782Y-52684733D02*
X94167449Y-52718066D01*
X94167449Y-52718066D02*
X94134115Y-52784733D01*
X94134115Y-52784733D02*
X94134115Y-52951400D01*
X94134115Y-52951400D02*
X94167449Y-53018066D01*
X94167449Y-53018066D02*
X94200782Y-53051400D01*
X94200782Y-53051400D02*
X94267449Y-53084733D01*
X94267449Y-53084733D02*
X94467449Y-53084733D01*
X94467449Y-53084733D02*
X94534115Y-53051400D01*
X94534115Y-53051400D02*
X94567449Y-53018066D01*
X93700782Y-52384733D02*
X93634115Y-52384733D01*
X93634115Y-52384733D02*
X93567448Y-52418066D01*
X93567448Y-52418066D02*
X93534115Y-52451400D01*
X93534115Y-52451400D02*
X93500782Y-52518066D01*
X93500782Y-52518066D02*
X93467448Y-52651400D01*
X93467448Y-52651400D02*
X93467448Y-52818066D01*
X93467448Y-52818066D02*
X93500782Y-52951400D01*
X93500782Y-52951400D02*
X93534115Y-53018066D01*
X93534115Y-53018066D02*
X93567448Y-53051400D01*
X93567448Y-53051400D02*
X93634115Y-53084733D01*
X93634115Y-53084733D02*
X93700782Y-53084733D01*
X93700782Y-53084733D02*
X93767448Y-53051400D01*
X93767448Y-53051400D02*
X93800782Y-53018066D01*
X93800782Y-53018066D02*
X93834115Y-52951400D01*
X93834115Y-52951400D02*
X93867448Y-52818066D01*
X93867448Y-52818066D02*
X93867448Y-52651400D01*
X93867448Y-52651400D02*
X93834115Y-52518066D01*
X93834115Y-52518066D02*
X93800782Y-52451400D01*
X93800782Y-52451400D02*
X93767448Y-52418066D01*
X93767448Y-52418066D02*
X93700782Y-52384733D01*
X93200781Y-52451400D02*
X93167448Y-52418066D01*
X93167448Y-52418066D02*
X93100781Y-52384733D01*
X93100781Y-52384733D02*
X92934115Y-52384733D01*
X92934115Y-52384733D02*
X92867448Y-52418066D01*
X92867448Y-52418066D02*
X92834115Y-52451400D01*
X92834115Y-52451400D02*
X92800781Y-52518066D01*
X92800781Y-52518066D02*
X92800781Y-52584733D01*
X92800781Y-52584733D02*
X92834115Y-52684733D01*
X92834115Y-52684733D02*
X93234115Y-53084733D01*
X93234115Y-53084733D02*
X92800781Y-53084733D01*
X92367448Y-52384733D02*
X92300781Y-52384733D01*
X92300781Y-52384733D02*
X92234114Y-52418066D01*
X92234114Y-52418066D02*
X92200781Y-52451400D01*
X92200781Y-52451400D02*
X92167448Y-52518066D01*
X92167448Y-52518066D02*
X92134114Y-52651400D01*
X92134114Y-52651400D02*
X92134114Y-52818066D01*
X92134114Y-52818066D02*
X92167448Y-52951400D01*
X92167448Y-52951400D02*
X92200781Y-53018066D01*
X92200781Y-53018066D02*
X92234114Y-53051400D01*
X92234114Y-53051400D02*
X92300781Y-53084733D01*
X92300781Y-53084733D02*
X92367448Y-53084733D01*
X92367448Y-53084733D02*
X92434114Y-53051400D01*
X92434114Y-53051400D02*
X92467448Y-53018066D01*
X92467448Y-53018066D02*
X92500781Y-52951400D01*
X92500781Y-52951400D02*
X92534114Y-52818066D01*
X92534114Y-52818066D02*
X92534114Y-52651400D01*
X92534114Y-52651400D02*
X92500781Y-52518066D01*
X92500781Y-52518066D02*
X92467448Y-52451400D01*
X92467448Y-52451400D02*
X92434114Y-52418066D01*
X92434114Y-52418066D02*
X92367448Y-52384733D01*
X91067448Y-52718066D02*
X90967448Y-52751400D01*
X90967448Y-52751400D02*
X90934114Y-52784733D01*
X90934114Y-52784733D02*
X90900781Y-52851400D01*
X90900781Y-52851400D02*
X90900781Y-52951400D01*
X90900781Y-52951400D02*
X90934114Y-53018066D01*
X90934114Y-53018066D02*
X90967448Y-53051400D01*
X90967448Y-53051400D02*
X91034114Y-53084733D01*
X91034114Y-53084733D02*
X91300781Y-53084733D01*
X91300781Y-53084733D02*
X91300781Y-52384733D01*
X91300781Y-52384733D02*
X91067448Y-52384733D01*
X91067448Y-52384733D02*
X91000781Y-52418066D01*
X91000781Y-52418066D02*
X90967448Y-52451400D01*
X90967448Y-52451400D02*
X90934114Y-52518066D01*
X90934114Y-52518066D02*
X90934114Y-52584733D01*
X90934114Y-52584733D02*
X90967448Y-52651400D01*
X90967448Y-52651400D02*
X91000781Y-52684733D01*
X91000781Y-52684733D02*
X91067448Y-52718066D01*
X91067448Y-52718066D02*
X91300781Y-52718066D01*
X90300781Y-52618066D02*
X90300781Y-53084733D01*
X90600781Y-52618066D02*
X90600781Y-52984733D01*
X90600781Y-52984733D02*
X90567448Y-53051400D01*
X90567448Y-53051400D02*
X90500781Y-53084733D01*
X90500781Y-53084733D02*
X90400781Y-53084733D01*
X90400781Y-53084733D02*
X90334114Y-53051400D01*
X90334114Y-53051400D02*
X90300781Y-53018066D01*
X89667448Y-53051400D02*
X89734115Y-53084733D01*
X89734115Y-53084733D02*
X89867448Y-53084733D01*
X89867448Y-53084733D02*
X89934115Y-53051400D01*
X89934115Y-53051400D02*
X89967448Y-53018066D01*
X89967448Y-53018066D02*
X90000781Y-52951400D01*
X90000781Y-52951400D02*
X90000781Y-52751400D01*
X90000781Y-52751400D02*
X89967448Y-52684733D01*
X89967448Y-52684733D02*
X89934115Y-52651400D01*
X89934115Y-52651400D02*
X89867448Y-52618066D01*
X89867448Y-52618066D02*
X89734115Y-52618066D01*
X89734115Y-52618066D02*
X89667448Y-52651400D01*
X89367448Y-53084733D02*
X89367448Y-52384733D01*
X89300781Y-52818066D02*
X89100781Y-53084733D01*
X89100781Y-52618066D02*
X89367448Y-52884733D01*
X88800781Y-52818066D02*
X88267448Y-52818066D01*
X87700781Y-52718066D02*
X87600781Y-52751400D01*
X87600781Y-52751400D02*
X87567447Y-52784733D01*
X87567447Y-52784733D02*
X87534114Y-52851400D01*
X87534114Y-52851400D02*
X87534114Y-52951400D01*
X87534114Y-52951400D02*
X87567447Y-53018066D01*
X87567447Y-53018066D02*
X87600781Y-53051400D01*
X87600781Y-53051400D02*
X87667447Y-53084733D01*
X87667447Y-53084733D02*
X87934114Y-53084733D01*
X87934114Y-53084733D02*
X87934114Y-52384733D01*
X87934114Y-52384733D02*
X87700781Y-52384733D01*
X87700781Y-52384733D02*
X87634114Y-52418066D01*
X87634114Y-52418066D02*
X87600781Y-52451400D01*
X87600781Y-52451400D02*
X87567447Y-52518066D01*
X87567447Y-52518066D02*
X87567447Y-52584733D01*
X87567447Y-52584733D02*
X87600781Y-52651400D01*
X87600781Y-52651400D02*
X87634114Y-52684733D01*
X87634114Y-52684733D02*
X87700781Y-52718066D01*
X87700781Y-52718066D02*
X87934114Y-52718066D01*
X87134114Y-53084733D02*
X87200781Y-53051400D01*
X87200781Y-53051400D02*
X87234114Y-53018066D01*
X87234114Y-53018066D02*
X87267447Y-52951400D01*
X87267447Y-52951400D02*
X87267447Y-52751400D01*
X87267447Y-52751400D02*
X87234114Y-52684733D01*
X87234114Y-52684733D02*
X87200781Y-52651400D01*
X87200781Y-52651400D02*
X87134114Y-52618066D01*
X87134114Y-52618066D02*
X87034114Y-52618066D01*
X87034114Y-52618066D02*
X86967447Y-52651400D01*
X86967447Y-52651400D02*
X86934114Y-52684733D01*
X86934114Y-52684733D02*
X86900781Y-52751400D01*
X86900781Y-52751400D02*
X86900781Y-52951400D01*
X86900781Y-52951400D02*
X86934114Y-53018066D01*
X86934114Y-53018066D02*
X86967447Y-53051400D01*
X86967447Y-53051400D02*
X87034114Y-53084733D01*
X87034114Y-53084733D02*
X87134114Y-53084733D01*
X86500781Y-53084733D02*
X86567448Y-53051400D01*
X86567448Y-53051400D02*
X86600781Y-53018066D01*
X86600781Y-53018066D02*
X86634114Y-52951400D01*
X86634114Y-52951400D02*
X86634114Y-52751400D01*
X86634114Y-52751400D02*
X86600781Y-52684733D01*
X86600781Y-52684733D02*
X86567448Y-52651400D01*
X86567448Y-52651400D02*
X86500781Y-52618066D01*
X86500781Y-52618066D02*
X86400781Y-52618066D01*
X86400781Y-52618066D02*
X86334114Y-52651400D01*
X86334114Y-52651400D02*
X86300781Y-52684733D01*
X86300781Y-52684733D02*
X86267448Y-52751400D01*
X86267448Y-52751400D02*
X86267448Y-52951400D01*
X86267448Y-52951400D02*
X86300781Y-53018066D01*
X86300781Y-53018066D02*
X86334114Y-53051400D01*
X86334114Y-53051400D02*
X86400781Y-53084733D01*
X86400781Y-53084733D02*
X86500781Y-53084733D01*
X86000781Y-53051400D02*
X85934115Y-53084733D01*
X85934115Y-53084733D02*
X85800781Y-53084733D01*
X85800781Y-53084733D02*
X85734115Y-53051400D01*
X85734115Y-53051400D02*
X85700781Y-52984733D01*
X85700781Y-52984733D02*
X85700781Y-52951400D01*
X85700781Y-52951400D02*
X85734115Y-52884733D01*
X85734115Y-52884733D02*
X85800781Y-52851400D01*
X85800781Y-52851400D02*
X85900781Y-52851400D01*
X85900781Y-52851400D02*
X85967448Y-52818066D01*
X85967448Y-52818066D02*
X86000781Y-52751400D01*
X86000781Y-52751400D02*
X86000781Y-52718066D01*
X86000781Y-52718066D02*
X85967448Y-52651400D01*
X85967448Y-52651400D02*
X85900781Y-52618066D01*
X85900781Y-52618066D02*
X85800781Y-52618066D01*
X85800781Y-52618066D02*
X85734115Y-52651400D01*
X85500781Y-52618066D02*
X85234114Y-52618066D01*
X85400781Y-52384733D02*
X85400781Y-52984733D01*
X85400781Y-52984733D02*
X85367448Y-53051400D01*
X85367448Y-53051400D02*
X85300781Y-53084733D01*
X85300781Y-53084733D02*
X85234114Y-53084733D01*
X84067448Y-53018066D02*
X84100781Y-53051400D01*
X84100781Y-53051400D02*
X84200781Y-53084733D01*
X84200781Y-53084733D02*
X84267448Y-53084733D01*
X84267448Y-53084733D02*
X84367448Y-53051400D01*
X84367448Y-53051400D02*
X84434115Y-52984733D01*
X84434115Y-52984733D02*
X84467448Y-52918066D01*
X84467448Y-52918066D02*
X84500781Y-52784733D01*
X84500781Y-52784733D02*
X84500781Y-52684733D01*
X84500781Y-52684733D02*
X84467448Y-52551400D01*
X84467448Y-52551400D02*
X84434115Y-52484733D01*
X84434115Y-52484733D02*
X84367448Y-52418066D01*
X84367448Y-52418066D02*
X84267448Y-52384733D01*
X84267448Y-52384733D02*
X84200781Y-52384733D01*
X84200781Y-52384733D02*
X84100781Y-52418066D01*
X84100781Y-52418066D02*
X84067448Y-52451400D01*
X83667448Y-53084733D02*
X83734115Y-53051400D01*
X83734115Y-53051400D02*
X83767448Y-53018066D01*
X83767448Y-53018066D02*
X83800781Y-52951400D01*
X83800781Y-52951400D02*
X83800781Y-52751400D01*
X83800781Y-52751400D02*
X83767448Y-52684733D01*
X83767448Y-52684733D02*
X83734115Y-52651400D01*
X83734115Y-52651400D02*
X83667448Y-52618066D01*
X83667448Y-52618066D02*
X83567448Y-52618066D01*
X83567448Y-52618066D02*
X83500781Y-52651400D01*
X83500781Y-52651400D02*
X83467448Y-52684733D01*
X83467448Y-52684733D02*
X83434115Y-52751400D01*
X83434115Y-52751400D02*
X83434115Y-52951400D01*
X83434115Y-52951400D02*
X83467448Y-53018066D01*
X83467448Y-53018066D02*
X83500781Y-53051400D01*
X83500781Y-53051400D02*
X83567448Y-53084733D01*
X83567448Y-53084733D02*
X83667448Y-53084733D01*
X83134115Y-52618066D02*
X83134115Y-53084733D01*
X83134115Y-52684733D02*
X83100782Y-52651400D01*
X83100782Y-52651400D02*
X83034115Y-52618066D01*
X83034115Y-52618066D02*
X82934115Y-52618066D01*
X82934115Y-52618066D02*
X82867448Y-52651400D01*
X82867448Y-52651400D02*
X82834115Y-52718066D01*
X82834115Y-52718066D02*
X82834115Y-53084733D01*
X82567449Y-52618066D02*
X82400782Y-53084733D01*
X82400782Y-53084733D02*
X82234115Y-52618066D01*
X81700782Y-53051400D02*
X81767449Y-53084733D01*
X81767449Y-53084733D02*
X81900782Y-53084733D01*
X81900782Y-53084733D02*
X81967449Y-53051400D01*
X81967449Y-53051400D02*
X82000782Y-52984733D01*
X82000782Y-52984733D02*
X82000782Y-52718066D01*
X82000782Y-52718066D02*
X81967449Y-52651400D01*
X81967449Y-52651400D02*
X81900782Y-52618066D01*
X81900782Y-52618066D02*
X81767449Y-52618066D01*
X81767449Y-52618066D02*
X81700782Y-52651400D01*
X81700782Y-52651400D02*
X81667449Y-52718066D01*
X81667449Y-52718066D02*
X81667449Y-52784733D01*
X81667449Y-52784733D02*
X82000782Y-52851400D01*
X81367449Y-53084733D02*
X81367449Y-52618066D01*
X81367449Y-52751400D02*
X81334116Y-52684733D01*
X81334116Y-52684733D02*
X81300782Y-52651400D01*
X81300782Y-52651400D02*
X81234116Y-52618066D01*
X81234116Y-52618066D02*
X81167449Y-52618066D01*
X81034116Y-52618066D02*
X80767449Y-52618066D01*
X80934116Y-52384733D02*
X80934116Y-52984733D01*
X80934116Y-52984733D02*
X80900783Y-53051400D01*
X80900783Y-53051400D02*
X80834116Y-53084733D01*
X80834116Y-53084733D02*
X80767449Y-53084733D01*
X80267449Y-53051400D02*
X80334116Y-53084733D01*
X80334116Y-53084733D02*
X80467449Y-53084733D01*
X80467449Y-53084733D02*
X80534116Y-53051400D01*
X80534116Y-53051400D02*
X80567449Y-52984733D01*
X80567449Y-52984733D02*
X80567449Y-52718066D01*
X80567449Y-52718066D02*
X80534116Y-52651400D01*
X80534116Y-52651400D02*
X80467449Y-52618066D01*
X80467449Y-52618066D02*
X80334116Y-52618066D01*
X80334116Y-52618066D02*
X80267449Y-52651400D01*
X80267449Y-52651400D02*
X80234116Y-52718066D01*
X80234116Y-52718066D02*
X80234116Y-52784733D01*
X80234116Y-52784733D02*
X80567449Y-52851400D01*
X79934116Y-53084733D02*
X79934116Y-52618066D01*
X79934116Y-52751400D02*
X79900783Y-52684733D01*
X79900783Y-52684733D02*
X79867449Y-52651400D01*
X79867449Y-52651400D02*
X79800783Y-52618066D01*
X79800783Y-52618066D02*
X79734116Y-52618066D01*
X97167449Y-53511733D02*
X96934116Y-54211733D01*
X96934116Y-54211733D02*
X96700782Y-53511733D01*
X96200782Y-54178400D02*
X96267449Y-54211733D01*
X96267449Y-54211733D02*
X96400782Y-54211733D01*
X96400782Y-54211733D02*
X96467449Y-54178400D01*
X96467449Y-54178400D02*
X96500782Y-54111733D01*
X96500782Y-54111733D02*
X96500782Y-53845066D01*
X96500782Y-53845066D02*
X96467449Y-53778400D01*
X96467449Y-53778400D02*
X96400782Y-53745066D01*
X96400782Y-53745066D02*
X96267449Y-53745066D01*
X96267449Y-53745066D02*
X96200782Y-53778400D01*
X96200782Y-53778400D02*
X96167449Y-53845066D01*
X96167449Y-53845066D02*
X96167449Y-53911733D01*
X96167449Y-53911733D02*
X96500782Y-53978400D01*
X95867449Y-54211733D02*
X95867449Y-53745066D01*
X95867449Y-53878400D02*
X95834116Y-53811733D01*
X95834116Y-53811733D02*
X95800782Y-53778400D01*
X95800782Y-53778400D02*
X95734116Y-53745066D01*
X95734116Y-53745066D02*
X95667449Y-53745066D01*
X95467449Y-54178400D02*
X95400783Y-54211733D01*
X95400783Y-54211733D02*
X95267449Y-54211733D01*
X95267449Y-54211733D02*
X95200783Y-54178400D01*
X95200783Y-54178400D02*
X95167449Y-54111733D01*
X95167449Y-54111733D02*
X95167449Y-54078400D01*
X95167449Y-54078400D02*
X95200783Y-54011733D01*
X95200783Y-54011733D02*
X95267449Y-53978400D01*
X95267449Y-53978400D02*
X95367449Y-53978400D01*
X95367449Y-53978400D02*
X95434116Y-53945066D01*
X95434116Y-53945066D02*
X95467449Y-53878400D01*
X95467449Y-53878400D02*
X95467449Y-53845066D01*
X95467449Y-53845066D02*
X95434116Y-53778400D01*
X95434116Y-53778400D02*
X95367449Y-53745066D01*
X95367449Y-53745066D02*
X95267449Y-53745066D01*
X95267449Y-53745066D02*
X95200783Y-53778400D01*
X94867449Y-54211733D02*
X94867449Y-53745066D01*
X94867449Y-53511733D02*
X94900782Y-53545066D01*
X94900782Y-53545066D02*
X94867449Y-53578400D01*
X94867449Y-53578400D02*
X94834116Y-53545066D01*
X94834116Y-53545066D02*
X94867449Y-53511733D01*
X94867449Y-53511733D02*
X94867449Y-53578400D01*
X94434116Y-54211733D02*
X94500783Y-54178400D01*
X94500783Y-54178400D02*
X94534116Y-54145066D01*
X94534116Y-54145066D02*
X94567449Y-54078400D01*
X94567449Y-54078400D02*
X94567449Y-53878400D01*
X94567449Y-53878400D02*
X94534116Y-53811733D01*
X94534116Y-53811733D02*
X94500783Y-53778400D01*
X94500783Y-53778400D02*
X94434116Y-53745066D01*
X94434116Y-53745066D02*
X94334116Y-53745066D01*
X94334116Y-53745066D02*
X94267449Y-53778400D01*
X94267449Y-53778400D02*
X94234116Y-53811733D01*
X94234116Y-53811733D02*
X94200783Y-53878400D01*
X94200783Y-53878400D02*
X94200783Y-54078400D01*
X94200783Y-54078400D02*
X94234116Y-54145066D01*
X94234116Y-54145066D02*
X94267449Y-54178400D01*
X94267449Y-54178400D02*
X94334116Y-54211733D01*
X94334116Y-54211733D02*
X94434116Y-54211733D01*
X93900783Y-53745066D02*
X93900783Y-54211733D01*
X93900783Y-53811733D02*
X93867450Y-53778400D01*
X93867450Y-53778400D02*
X93800783Y-53745066D01*
X93800783Y-53745066D02*
X93700783Y-53745066D01*
X93700783Y-53745066D02*
X93634116Y-53778400D01*
X93634116Y-53778400D02*
X93600783Y-53845066D01*
X93600783Y-53845066D02*
X93600783Y-54211733D01*
X92367450Y-54211733D02*
X92767450Y-54211733D01*
X92567450Y-54211733D02*
X92567450Y-53511733D01*
X92567450Y-53511733D02*
X92634117Y-53611733D01*
X92634117Y-53611733D02*
X92700784Y-53678400D01*
X92700784Y-53678400D02*
X92767450Y-53711733D01*
X92067450Y-54145066D02*
X92034117Y-54178400D01*
X92034117Y-54178400D02*
X92067450Y-54211733D01*
X92067450Y-54211733D02*
X92100783Y-54178400D01*
X92100783Y-54178400D02*
X92067450Y-54145066D01*
X92067450Y-54145066D02*
X92067450Y-54211733D01*
X91800784Y-53511733D02*
X91367450Y-53511733D01*
X91367450Y-53511733D02*
X91600784Y-53778400D01*
X91600784Y-53778400D02*
X91500784Y-53778400D01*
X91500784Y-53778400D02*
X91434117Y-53811733D01*
X91434117Y-53811733D02*
X91400784Y-53845066D01*
X91400784Y-53845066D02*
X91367450Y-53911733D01*
X91367450Y-53911733D02*
X91367450Y-54078400D01*
X91367450Y-54078400D02*
X91400784Y-54145066D01*
X91400784Y-54145066D02*
X91434117Y-54178400D01*
X91434117Y-54178400D02*
X91500784Y-54211733D01*
X91500784Y-54211733D02*
X91700784Y-54211733D01*
X91700784Y-54211733D02*
X91767450Y-54178400D01*
X91767450Y-54178400D02*
X91800784Y-54145066D01*
%TO.C,G\u002A\u002A\u002A*%
G36*
X105833985Y-49812330D02*
G01*
X105829100Y-49817215D01*
X105824216Y-49812330D01*
X105829100Y-49807446D01*
X105833985Y-49812330D01*
G37*
G36*
X105648370Y-49958869D02*
G01*
X105643485Y-49963754D01*
X105638600Y-49958869D01*
X105643485Y-49953984D01*
X105648370Y-49958869D01*
G37*
G36*
X105365062Y-50730638D02*
G01*
X105360177Y-50735523D01*
X105355293Y-50730638D01*
X105360177Y-50725754D01*
X105365062Y-50730638D01*
G37*
G36*
X104603062Y-53231561D02*
G01*
X104598177Y-53236446D01*
X104593293Y-53231561D01*
X104598177Y-53226677D01*
X104603062Y-53231561D01*
G37*
G36*
X104300216Y-50750177D02*
G01*
X104295331Y-50755061D01*
X104290446Y-50750177D01*
X104295331Y-50745292D01*
X104300216Y-50750177D01*
G37*
G36*
X104182985Y-53583254D02*
G01*
X104178100Y-53588138D01*
X104173216Y-53583254D01*
X104178100Y-53578369D01*
X104182985Y-53583254D01*
G37*
G36*
X104075523Y-47633792D02*
G01*
X104070639Y-47638677D01*
X104065754Y-47633792D01*
X104070639Y-47628907D01*
X104075523Y-47633792D01*
G37*
G36*
X104026677Y-49050330D02*
G01*
X104021793Y-49055215D01*
X104016908Y-49050330D01*
X104021793Y-49045446D01*
X104026677Y-49050330D01*
G37*
G36*
X103928985Y-53817715D02*
G01*
X103924100Y-53822600D01*
X103919216Y-53817715D01*
X103924100Y-53812830D01*
X103928985Y-53817715D01*
G37*
G36*
X103508908Y-46471254D02*
G01*
X103504023Y-46476138D01*
X103499139Y-46471254D01*
X103504023Y-46466369D01*
X103508908Y-46471254D01*
G37*
G36*
X103450293Y-52127638D02*
G01*
X103445408Y-52132523D01*
X103440523Y-52127638D01*
X103445408Y-52122754D01*
X103450293Y-52127638D01*
G37*
G36*
X103118139Y-46627561D02*
G01*
X103113254Y-46632446D01*
X103108370Y-46627561D01*
X103113254Y-46622677D01*
X103118139Y-46627561D01*
G37*
G36*
X102981370Y-49275023D02*
G01*
X102976485Y-49279907D01*
X102971600Y-49275023D01*
X102976485Y-49270138D01*
X102981370Y-49275023D01*
G37*
G36*
X102952062Y-49314100D02*
G01*
X102947177Y-49318984D01*
X102942293Y-49314100D01*
X102947177Y-49309215D01*
X102952062Y-49314100D01*
G37*
G36*
X102805523Y-48395792D02*
G01*
X102800639Y-48400677D01*
X102795754Y-48395792D01*
X102800639Y-48390907D01*
X102805523Y-48395792D01*
G37*
G36*
X102082600Y-48112484D02*
G01*
X102077716Y-48117369D01*
X102072831Y-48112484D01*
X102077716Y-48107600D01*
X102082600Y-48112484D01*
G37*
G36*
X101789523Y-47243023D02*
G01*
X101784639Y-47247907D01*
X101779754Y-47243023D01*
X101784639Y-47238138D01*
X101789523Y-47243023D01*
G37*
G36*
X101027523Y-48161330D02*
G01*
X101022639Y-48166215D01*
X101017754Y-48161330D01*
X101022639Y-48156446D01*
X101027523Y-48161330D01*
G37*
G36*
X101007985Y-52791946D02*
G01*
X101003100Y-52796830D01*
X100998216Y-52791946D01*
X101003100Y-52787061D01*
X101007985Y-52791946D01*
G37*
G36*
X100470677Y-47985484D02*
G01*
X100465793Y-47990369D01*
X100460908Y-47985484D01*
X100465793Y-47980600D01*
X100470677Y-47985484D01*
G37*
G36*
X100421831Y-52645407D02*
G01*
X100416946Y-52650292D01*
X100412062Y-52645407D01*
X100416946Y-52640523D01*
X100421831Y-52645407D01*
G37*
G36*
X100372985Y-52235100D02*
G01*
X100368100Y-52239984D01*
X100363216Y-52235100D01*
X100368100Y-52230215D01*
X100372985Y-52235100D01*
G37*
G36*
X100294831Y-51004177D02*
G01*
X100289946Y-51009061D01*
X100285062Y-51004177D01*
X100289946Y-50999292D01*
X100294831Y-51004177D01*
G37*
G36*
X100197139Y-52498869D02*
G01*
X100192254Y-52503754D01*
X100187370Y-52498869D01*
X100192254Y-52493984D01*
X100197139Y-52498869D01*
G37*
G36*
X99913831Y-48659561D02*
G01*
X99908946Y-48664446D01*
X99904062Y-48659561D01*
X99908946Y-48654677D01*
X99913831Y-48659561D01*
G37*
G36*
X99904062Y-47389561D02*
G01*
X99899177Y-47394446D01*
X99894293Y-47389561D01*
X99899177Y-47384677D01*
X99904062Y-47389561D01*
G37*
G36*
X99620754Y-47838946D02*
G01*
X99615870Y-47843830D01*
X99610985Y-47838946D01*
X99615870Y-47834061D01*
X99620754Y-47838946D01*
G37*
G36*
X99532831Y-53807946D02*
G01*
X99527946Y-53812830D01*
X99523062Y-53807946D01*
X99527946Y-53803061D01*
X99532831Y-53807946D01*
G37*
G36*
X99513293Y-49587638D02*
G01*
X99508408Y-49592523D01*
X99503523Y-49587638D01*
X99508408Y-49582754D01*
X99513293Y-49587638D01*
G37*
G36*
X99278831Y-54042407D02*
G01*
X99273946Y-54047292D01*
X99269062Y-54042407D01*
X99273946Y-54037523D01*
X99278831Y-54042407D01*
G37*
G36*
X98585216Y-49431330D02*
G01*
X98580331Y-49436215D01*
X98575446Y-49431330D01*
X98580331Y-49426446D01*
X98585216Y-49431330D01*
G37*
G36*
X98467985Y-51521946D02*
G01*
X98463100Y-51526830D01*
X98458216Y-51521946D01*
X98463100Y-51517061D01*
X98467985Y-51521946D01*
G37*
G36*
X98243293Y-50183561D02*
G01*
X98238408Y-50188446D01*
X98233523Y-50183561D01*
X98238408Y-50178677D01*
X98243293Y-50183561D01*
G37*
G36*
X98057677Y-52909177D02*
G01*
X98052793Y-52914061D01*
X98047908Y-52909177D01*
X98052793Y-52904292D01*
X98057677Y-52909177D01*
G37*
G36*
X97735293Y-49372715D02*
G01*
X97730408Y-49377600D01*
X97725523Y-49372715D01*
X97730408Y-49367830D01*
X97735293Y-49372715D01*
G37*
G36*
X100369729Y-50963471D02*
G01*
X100371257Y-50966410D01*
X100363216Y-50969984D01*
X100358044Y-50969279D01*
X100356703Y-50963471D01*
X100358135Y-50962302D01*
X100369729Y-50963471D01*
G37*
G36*
X100365047Y-51051234D02*
G01*
X100369569Y-51054750D01*
X100359145Y-51057136D01*
X100349237Y-51056445D01*
X100346323Y-51052005D01*
X100349779Y-51050069D01*
X100365047Y-51051234D01*
G37*
G36*
X99890341Y-49268629D02*
G01*
X99889043Y-49270617D01*
X99879390Y-49279615D01*
X99874754Y-49275599D01*
X99875627Y-49273402D01*
X99886033Y-49264321D01*
X99891492Y-49261944D01*
X99890341Y-49268629D01*
G37*
G36*
X103895357Y-47814962D02*
G01*
X103904562Y-47824292D01*
X103906382Y-47827751D01*
X103905715Y-47834061D01*
X103903997Y-47833622D01*
X103894793Y-47824292D01*
X103892973Y-47820833D01*
X103893640Y-47814523D01*
X103895357Y-47814962D01*
G37*
G36*
X103719511Y-52455347D02*
G01*
X103728716Y-52464677D01*
X103730535Y-52468135D01*
X103729869Y-52474446D01*
X103728151Y-52474006D01*
X103718946Y-52464677D01*
X103717127Y-52461218D01*
X103717793Y-52454907D01*
X103719511Y-52455347D01*
G37*
G36*
X100433929Y-51050998D02*
G01*
X100438736Y-51052275D01*
X100435865Y-51054482D01*
X100416946Y-51055444D01*
X100406597Y-51055318D01*
X100392568Y-51053836D01*
X100394852Y-51051195D01*
X100408474Y-51049425D01*
X100433929Y-51050998D01*
G37*
G36*
X100249532Y-46479975D02*
G01*
X100280621Y-46500117D01*
X100300200Y-46529552D01*
X100301974Y-46562591D01*
X100284353Y-46596936D01*
X100262741Y-46616052D01*
X100231331Y-46622677D01*
X100216951Y-46621240D01*
X100187568Y-46607411D01*
X100167668Y-46582979D01*
X100159145Y-46552975D01*
X100163891Y-46522433D01*
X100183802Y-46496386D01*
X100216407Y-46479198D01*
X100249532Y-46479975D01*
G37*
G36*
X104916840Y-47375794D02*
G01*
X104945014Y-47389588D01*
X104956648Y-47405330D01*
X104964510Y-47437209D01*
X104960308Y-47471555D01*
X104944104Y-47500602D01*
X104926138Y-47513875D01*
X104894139Y-47520716D01*
X104861527Y-47512751D01*
X104834800Y-47490574D01*
X104823553Y-47466712D01*
X104820955Y-47434088D01*
X104829519Y-47404143D01*
X104848324Y-47384125D01*
X104881396Y-47374021D01*
X104916840Y-47375794D01*
G37*
G36*
X103233733Y-46486842D02*
G01*
X103256000Y-46506964D01*
X103269190Y-46533967D01*
X103269959Y-46564688D01*
X103254963Y-46595965D01*
X103246015Y-46605532D01*
X103215742Y-46621239D01*
X103182187Y-46619964D01*
X103150518Y-46601435D01*
X103141196Y-46590666D01*
X103128642Y-46558675D01*
X103131312Y-46524822D01*
X103149289Y-46496057D01*
X103175344Y-46479884D01*
X103205733Y-46476762D01*
X103233733Y-46486842D01*
G37*
G36*
X98636706Y-47380603D02*
G01*
X98664164Y-47399829D01*
X98679041Y-47428381D01*
X98679239Y-47461819D01*
X98662661Y-47495705D01*
X98650093Y-47507686D01*
X98619972Y-47520415D01*
X98587656Y-47519847D01*
X98560672Y-47505276D01*
X98553814Y-47497801D01*
X98535320Y-47464513D01*
X98532662Y-47431473D01*
X98544426Y-47402786D01*
X98569196Y-47382562D01*
X98605559Y-47374907D01*
X98636706Y-47380603D01*
G37*
G36*
X98626417Y-52638020D02*
G01*
X98656593Y-52659276D01*
X98676147Y-52690212D01*
X98683407Y-52726476D01*
X98676700Y-52763717D01*
X98654352Y-52797582D01*
X98620430Y-52820265D01*
X98583236Y-52826886D01*
X98547319Y-52818753D01*
X98516739Y-52797667D01*
X98495557Y-52765425D01*
X98487834Y-52723826D01*
X98492079Y-52691272D01*
X98510562Y-52657854D01*
X98543384Y-52637579D01*
X98590210Y-52630754D01*
X98626417Y-52638020D01*
G37*
G36*
X104965428Y-52645875D02*
G01*
X104982824Y-52657713D01*
X105005321Y-52688380D01*
X105013599Y-52725421D01*
X105006988Y-52763575D01*
X104984813Y-52797582D01*
X104971792Y-52808751D01*
X104936398Y-52824914D01*
X104900048Y-52825814D01*
X104866155Y-52813835D01*
X104838129Y-52791360D01*
X104819383Y-52760773D01*
X104813328Y-52724457D01*
X104823376Y-52684796D01*
X104846264Y-52654034D01*
X104880775Y-52635112D01*
X104921759Y-52632046D01*
X104965428Y-52645875D01*
G37*
G36*
X98814207Y-50964345D02*
G01*
X98835666Y-50971372D01*
X98865205Y-50994513D01*
X98883728Y-51027322D01*
X98889921Y-51064908D01*
X98882466Y-51102381D01*
X98860051Y-51134850D01*
X98826493Y-51156335D01*
X98788656Y-51162863D01*
X98752480Y-51154284D01*
X98721841Y-51132420D01*
X98700614Y-51099095D01*
X98692677Y-51056131D01*
X98693284Y-51044977D01*
X98706056Y-51007082D01*
X98732781Y-50979264D01*
X98769989Y-50964144D01*
X98814207Y-50964345D01*
G37*
G36*
X105563043Y-52923776D02*
G01*
X105578295Y-52939902D01*
X105590535Y-52971446D01*
X105587760Y-53004581D01*
X105570906Y-53033818D01*
X105540908Y-53053666D01*
X105533798Y-53055502D01*
X105513244Y-53054941D01*
X105508273Y-53053535D01*
X105491643Y-53050830D01*
X105479997Y-53044753D01*
X105463135Y-53029450D01*
X105446962Y-53003394D01*
X105443839Y-52973005D01*
X105453920Y-52945005D01*
X105474042Y-52922738D01*
X105501044Y-52909549D01*
X105531765Y-52908780D01*
X105563043Y-52923776D01*
G37*
G36*
X104957175Y-51492805D02*
G01*
X104989862Y-51511776D01*
X105012767Y-51540864D01*
X105024623Y-51575835D01*
X105024165Y-51612455D01*
X105010127Y-51646489D01*
X104981244Y-51673704D01*
X104953730Y-51687087D01*
X104916103Y-51691444D01*
X104876281Y-51678088D01*
X104875398Y-51677627D01*
X104843218Y-51651610D01*
X104825913Y-51618457D01*
X104822429Y-51582229D01*
X104831714Y-51546985D01*
X104852715Y-51516785D01*
X104884378Y-51495688D01*
X104925651Y-51487754D01*
X104957175Y-51492805D01*
G37*
G36*
X104745845Y-50972320D02*
G01*
X104776654Y-51002889D01*
X104785543Y-51017387D01*
X104798185Y-51057555D01*
X104791431Y-51095627D01*
X104765231Y-51132154D01*
X104759759Y-51137430D01*
X104725966Y-51160081D01*
X104691206Y-51164244D01*
X104651588Y-51150550D01*
X104631800Y-51137735D01*
X104605450Y-51105971D01*
X104595336Y-51068521D01*
X104602131Y-51029602D01*
X104626508Y-50993430D01*
X104633026Y-50987291D01*
X104670783Y-50964317D01*
X104709472Y-50959395D01*
X104745845Y-50972320D01*
G37*
G36*
X103636624Y-48219869D02*
G01*
X103666400Y-48237986D01*
X103685873Y-48265468D01*
X103694117Y-48297923D01*
X103690204Y-48330960D01*
X103673204Y-48360189D01*
X103642190Y-48381220D01*
X103633812Y-48384522D01*
X103615936Y-48389337D01*
X103599059Y-48387154D01*
X103573777Y-48377455D01*
X103551344Y-48364345D01*
X103529096Y-48337032D01*
X103520663Y-48304836D01*
X103525143Y-48272148D01*
X103541638Y-48243362D01*
X103569246Y-48222868D01*
X103607067Y-48215061D01*
X103636624Y-48219869D01*
G37*
G36*
X97995062Y-52904306D02*
G01*
X98019658Y-52911611D01*
X98043467Y-52928271D01*
X98050366Y-52936140D01*
X98064984Y-52967860D01*
X98065108Y-53001375D01*
X98051591Y-53030927D01*
X98025289Y-53050762D01*
X97999591Y-53058479D01*
X97973291Y-53055474D01*
X97946758Y-53036643D01*
X97938315Y-53027737D01*
X97922240Y-52995023D01*
X97924407Y-52960482D01*
X97944887Y-52928271D01*
X97945727Y-52927446D01*
X97969819Y-52911065D01*
X97994177Y-52904292D01*
X97995062Y-52904306D01*
G37*
G36*
X104782733Y-54262853D02*
G01*
X104820427Y-54289163D01*
X104836200Y-54307147D01*
X104845054Y-54329576D01*
X104847293Y-54362487D01*
X104845482Y-54392881D01*
X104837132Y-54416594D01*
X104818736Y-54438813D01*
X104807477Y-54448514D01*
X104770580Y-54465433D01*
X104730803Y-54467060D01*
X104693033Y-54454671D01*
X104662158Y-54429542D01*
X104643068Y-54392950D01*
X104638951Y-54372186D01*
X104642517Y-54328699D01*
X104663590Y-54292948D01*
X104701279Y-54266863D01*
X104743732Y-54255605D01*
X104782733Y-54262853D01*
G37*
G36*
X99983215Y-48220770D02*
G01*
X100010451Y-48236380D01*
X100025081Y-48257256D01*
X100025625Y-48259349D01*
X100029456Y-48302245D01*
X100020148Y-48340300D01*
X99999624Y-48369096D01*
X99969810Y-48384216D01*
X99959469Y-48385737D01*
X99920858Y-48382029D01*
X99887501Y-48365543D01*
X99864065Y-48339430D01*
X99855216Y-48306839D01*
X99855217Y-48306407D01*
X99863329Y-48268415D01*
X99884400Y-48236211D01*
X99914107Y-48216429D01*
X99917862Y-48215251D01*
X99950108Y-48212901D01*
X99983215Y-48220770D01*
G37*
G36*
X98795313Y-54269801D02*
G01*
X98823205Y-54294459D01*
X98842077Y-54326741D01*
X98849537Y-54363417D01*
X98843190Y-54401256D01*
X98820642Y-54437028D01*
X98818077Y-54439745D01*
X98797681Y-54457436D01*
X98775802Y-54465472D01*
X98743501Y-54467369D01*
X98732466Y-54467261D01*
X98705062Y-54464229D01*
X98685374Y-54454067D01*
X98664382Y-54432837D01*
X98649157Y-54412026D01*
X98634230Y-54370882D01*
X98637166Y-54330586D01*
X98657347Y-54294587D01*
X98694156Y-54266335D01*
X98722044Y-54256276D01*
X98760794Y-54255997D01*
X98795313Y-54269801D01*
G37*
G36*
X99215825Y-53828000D02*
G01*
X99249317Y-53848990D01*
X99271075Y-53883465D01*
X99278831Y-53928921D01*
X99273847Y-53969629D01*
X99256072Y-54005845D01*
X99226497Y-54027836D01*
X99199036Y-54035489D01*
X99155158Y-54035138D01*
X99116021Y-54020566D01*
X99087165Y-53993153D01*
X99081641Y-53982708D01*
X99072953Y-53959156D01*
X99065666Y-53932252D01*
X99060964Y-53907472D01*
X99060030Y-53890292D01*
X99064048Y-53886186D01*
X99071875Y-53882842D01*
X99083047Y-53867307D01*
X99098090Y-53848013D01*
X99133200Y-53829001D01*
X99182564Y-53822600D01*
X99215825Y-53828000D01*
G37*
G36*
X104324704Y-53824388D02*
G01*
X104348955Y-53834024D01*
X104374462Y-53855815D01*
X104392407Y-53875849D01*
X104404560Y-53899713D01*
X104407677Y-53929428D01*
X104400864Y-53971910D01*
X104382217Y-54006848D01*
X104354634Y-54028621D01*
X104349292Y-54030404D01*
X104323158Y-54033996D01*
X104291739Y-54033611D01*
X104273160Y-54030843D01*
X104233939Y-54013673D01*
X104207974Y-53982157D01*
X104195328Y-53936360D01*
X104193892Y-53921601D01*
X104194839Y-53898241D01*
X104204032Y-53879655D01*
X104224729Y-53857056D01*
X104247807Y-53836598D01*
X104271031Y-53825417D01*
X104300216Y-53822600D01*
X104324704Y-53824388D01*
G37*
G36*
X104248201Y-54286683D02*
G01*
X104282981Y-54287744D01*
X104304905Y-54291133D01*
X104319025Y-54298051D01*
X104330390Y-54309701D01*
X104330910Y-54310351D01*
X104345943Y-54341464D01*
X104348843Y-54376637D01*
X104340905Y-54410289D01*
X104323422Y-54436842D01*
X104297687Y-54450716D01*
X104247157Y-54455878D01*
X104196332Y-54451733D01*
X104153858Y-54438488D01*
X104124642Y-54417097D01*
X104120532Y-54411770D01*
X104106277Y-54377120D01*
X104109546Y-54341539D01*
X104130068Y-54310322D01*
X104133293Y-54307361D01*
X104148305Y-54296408D01*
X104166348Y-54290141D01*
X104192919Y-54287304D01*
X104233511Y-54286638D01*
X104248201Y-54286683D01*
G37*
G36*
X100153852Y-52576887D02*
G01*
X100177743Y-52592733D01*
X100204676Y-52615434D01*
X100229854Y-52640526D01*
X100248479Y-52663546D01*
X100255754Y-52680031D01*
X100249022Y-52694734D01*
X100231078Y-52717125D01*
X100205851Y-52742194D01*
X100178827Y-52764638D01*
X100155285Y-52780867D01*
X100140677Y-52787061D01*
X100132134Y-52784351D01*
X100111748Y-52769895D01*
X100087743Y-52747330D01*
X100064801Y-52721639D01*
X100047604Y-52697803D01*
X100040831Y-52680804D01*
X100042645Y-52672485D01*
X100055211Y-52649920D01*
X100075837Y-52623518D01*
X100099892Y-52598364D01*
X100122747Y-52579542D01*
X100139772Y-52572138D01*
X100153852Y-52576887D01*
G37*
G36*
X103392794Y-52594389D02*
G01*
X103397734Y-52598327D01*
X103423513Y-52623291D01*
X103442793Y-52648400D01*
X103450896Y-52663094D01*
X103453965Y-52677079D01*
X103447827Y-52692469D01*
X103431272Y-52716412D01*
X103422356Y-52728102D01*
X103399746Y-52753891D01*
X103380425Y-52771370D01*
X103361062Y-52782757D01*
X103342673Y-52785050D01*
X103322280Y-52775231D01*
X103294381Y-52752065D01*
X103278638Y-52738775D01*
X103258849Y-52725140D01*
X103247949Y-52721805D01*
X103242056Y-52717529D01*
X103238330Y-52699783D01*
X103243141Y-52674765D01*
X103261782Y-52642868D01*
X103290661Y-52612052D01*
X103325851Y-52587362D01*
X103359719Y-52569122D01*
X103392794Y-52594389D01*
G37*
G36*
X99716832Y-46663605D02*
G01*
X99755010Y-46665594D01*
X99793346Y-46668585D01*
X99820665Y-46671882D01*
X99832709Y-46675067D01*
X99836592Y-46686448D01*
X99840662Y-46712072D01*
X99843746Y-46745839D01*
X99844742Y-46772500D01*
X99841509Y-46813530D01*
X99830687Y-46847604D01*
X99826902Y-46855036D01*
X99801099Y-46888335D01*
X99765685Y-46918325D01*
X99728216Y-46938319D01*
X99709167Y-46944087D01*
X99689282Y-46944632D01*
X99674159Y-46934113D01*
X99660645Y-46909897D01*
X99645583Y-46869350D01*
X99645461Y-46868990D01*
X99631708Y-46821702D01*
X99620361Y-46770490D01*
X99613865Y-46726378D01*
X99607930Y-46659118D01*
X99716832Y-46663605D01*
G37*
G36*
X105700300Y-51235349D02*
G01*
X105710699Y-51241538D01*
X105726496Y-51255425D01*
X105738219Y-51274521D01*
X105746265Y-51301202D01*
X105751028Y-51337844D01*
X105752904Y-51386822D01*
X105752289Y-51450513D01*
X105749578Y-51531292D01*
X105747894Y-51571830D01*
X105745418Y-51622040D01*
X105742752Y-51657827D01*
X105739412Y-51682321D01*
X105734914Y-51698653D01*
X105728773Y-51709952D01*
X105720508Y-51719350D01*
X105718464Y-51721337D01*
X105688112Y-51738986D01*
X105655092Y-51737357D01*
X105619811Y-51716462D01*
X105589754Y-51691171D01*
X105589754Y-51486134D01*
X105589754Y-51281097D01*
X105618310Y-51252540D01*
X105619586Y-51251273D01*
X105646708Y-51230043D01*
X105671628Y-51225151D01*
X105700300Y-51235349D01*
G37*
G36*
X99381099Y-47404822D02*
G01*
X99413101Y-47415190D01*
X99436095Y-47437340D01*
X99444908Y-47466733D01*
X99439272Y-47490463D01*
X99420297Y-47525636D01*
X99390861Y-47565910D01*
X99354004Y-47608084D01*
X99312765Y-47648960D01*
X99270182Y-47685337D01*
X99229296Y-47714017D01*
X99193144Y-47731798D01*
X99160920Y-47738348D01*
X99124313Y-47730780D01*
X99092557Y-47704487D01*
X99080442Y-47686696D01*
X99072422Y-47656495D01*
X99079899Y-47624163D01*
X99103548Y-47588453D01*
X99144042Y-47548117D01*
X99202057Y-47501907D01*
X99235170Y-47477481D01*
X99275313Y-47448392D01*
X99304720Y-47428307D01*
X99326345Y-47415554D01*
X99343144Y-47408459D01*
X99358071Y-47405353D01*
X99374081Y-47404561D01*
X99381099Y-47404822D01*
G37*
G36*
X99270565Y-54283302D02*
G01*
X99271026Y-54283323D01*
X99311377Y-54285977D01*
X99337766Y-54290473D01*
X99355719Y-54298345D01*
X99370758Y-54311127D01*
X99383644Y-54326760D01*
X99398154Y-54363186D01*
X99393898Y-54400213D01*
X99370872Y-54434831D01*
X99362725Y-54442641D01*
X99349341Y-54452005D01*
X99332708Y-54456548D01*
X99307417Y-54457359D01*
X99268059Y-54455528D01*
X99261731Y-54455152D01*
X99223075Y-54451903D01*
X99197441Y-54446769D01*
X99179069Y-54438033D01*
X99162195Y-54423977D01*
X99146950Y-54405045D01*
X99136030Y-54370192D01*
X99142903Y-54334738D01*
X99167386Y-54302924D01*
X99171636Y-54299352D01*
X99187021Y-54289059D01*
X99204856Y-54283672D01*
X99230813Y-54282113D01*
X99270565Y-54283302D01*
G37*
G36*
X99526337Y-47036861D02*
G01*
X99555616Y-47068433D01*
X99586123Y-47118751D01*
X99625189Y-47184372D01*
X99695545Y-47272180D01*
X99778909Y-47345575D01*
X99874754Y-47404036D01*
X99888025Y-47411026D01*
X99918467Y-47429474D01*
X99940696Y-47446097D01*
X99957020Y-47470373D01*
X99962148Y-47502205D01*
X99955327Y-47533841D01*
X99937923Y-47559382D01*
X99911303Y-47572928D01*
X99880862Y-47573097D01*
X99833447Y-47560973D01*
X99777944Y-47536300D01*
X99716987Y-47500289D01*
X99653208Y-47454152D01*
X99581189Y-47389613D01*
X99517850Y-47313268D01*
X99463919Y-47223658D01*
X99453904Y-47203320D01*
X99432260Y-47146872D01*
X99423809Y-47099476D01*
X99428699Y-47062778D01*
X99447082Y-47038423D01*
X99466970Y-47027364D01*
X99497163Y-47023388D01*
X99526337Y-47036861D01*
G37*
G36*
X98451216Y-47954524D02*
G01*
X98488601Y-47961232D01*
X98524911Y-47971039D01*
X98574942Y-47990496D01*
X98648777Y-48028530D01*
X98717185Y-48074134D01*
X98724817Y-48080397D01*
X98751529Y-48106919D01*
X98781721Y-48141985D01*
X98812627Y-48181758D01*
X98841480Y-48222400D01*
X98865515Y-48260075D01*
X98881964Y-48290943D01*
X98888062Y-48311169D01*
X98886812Y-48317300D01*
X98879643Y-48321339D01*
X98863294Y-48320383D01*
X98834611Y-48314148D01*
X98790441Y-48302347D01*
X98768977Y-48296023D01*
X98668740Y-48256157D01*
X98577285Y-48202617D01*
X98498950Y-48137853D01*
X98485785Y-48124220D01*
X98454970Y-48088092D01*
X98426143Y-48049203D01*
X98402135Y-48011819D01*
X98385780Y-47980202D01*
X98379909Y-47958619D01*
X98380300Y-47957089D01*
X98392296Y-47952045D01*
X98417524Y-47951326D01*
X98451216Y-47954524D01*
G37*
G36*
X104389000Y-47049421D02*
G01*
X104417633Y-47071329D01*
X104436427Y-47106248D01*
X104443987Y-47151438D01*
X104438915Y-47204159D01*
X104429179Y-47249810D01*
X104455063Y-47242980D01*
X104464665Y-47240802D01*
X104495319Y-47235663D01*
X104529937Y-47231489D01*
X104558878Y-47230100D01*
X104583659Y-47234502D01*
X104604899Y-47247255D01*
X104630304Y-47278220D01*
X104638370Y-47315389D01*
X104628003Y-47354366D01*
X104621063Y-47366275D01*
X104601823Y-47387338D01*
X104573043Y-47404123D01*
X104529793Y-47419921D01*
X104504637Y-47425581D01*
X104464882Y-47430661D01*
X104423484Y-47432869D01*
X104392190Y-47431842D01*
X104340360Y-47421238D01*
X104302046Y-47398244D01*
X104276209Y-47361670D01*
X104261812Y-47310326D01*
X104257815Y-47243023D01*
X104257915Y-47236295D01*
X104262748Y-47164626D01*
X104274605Y-47110382D01*
X104293937Y-47072652D01*
X104321195Y-47050522D01*
X104356833Y-47043079D01*
X104389000Y-47049421D01*
G37*
G36*
X99960502Y-46725205D02*
G01*
X99994816Y-46741085D01*
X100037617Y-46766317D01*
X100078866Y-46797205D01*
X100112667Y-46829036D01*
X100133790Y-46857431D01*
X100146338Y-46898225D01*
X100148460Y-46949676D01*
X100139893Y-47003778D01*
X100121068Y-47053849D01*
X100112639Y-47068440D01*
X100073451Y-47115543D01*
X100023329Y-47154088D01*
X99968884Y-47178653D01*
X99959635Y-47181205D01*
X99918026Y-47187462D01*
X99882053Y-47180716D01*
X99843161Y-47159676D01*
X99826435Y-47147541D01*
X99785183Y-47110280D01*
X99747261Y-47067138D01*
X99719622Y-47025657D01*
X99714844Y-47015904D01*
X99714482Y-47005811D01*
X99728186Y-47003677D01*
X99740323Y-47002624D01*
X99777850Y-46991104D01*
X99818051Y-46969744D01*
X99853629Y-46942124D01*
X99893378Y-46894642D01*
X99918121Y-46839240D01*
X99925504Y-46776725D01*
X99925588Y-46754908D01*
X99929109Y-46730460D01*
X99939673Y-46721111D01*
X99960502Y-46725205D01*
G37*
G36*
X100229503Y-46965579D02*
G01*
X100243743Y-46978085D01*
X100264174Y-47001889D01*
X100287755Y-47033048D01*
X100311449Y-47067620D01*
X100332217Y-47101663D01*
X100363228Y-47164994D01*
X100394733Y-47264418D01*
X100409466Y-47372465D01*
X100414724Y-47462830D01*
X100390166Y-47462830D01*
X100372139Y-47459527D01*
X100353078Y-47447732D01*
X100343611Y-47440124D01*
X100326951Y-47437851D01*
X100320790Y-47439335D01*
X100318516Y-47434716D01*
X100318872Y-47429374D01*
X100307279Y-47414386D01*
X100281895Y-47394679D01*
X100245570Y-47371968D01*
X100201154Y-47347967D01*
X100151496Y-47324389D01*
X100099446Y-47302948D01*
X100065895Y-47290203D01*
X100031117Y-47276908D01*
X100006639Y-47267457D01*
X99977331Y-47256009D01*
X100035946Y-47229187D01*
X100044069Y-47225346D01*
X100108494Y-47184445D01*
X100159582Y-47132209D01*
X100195404Y-47071083D01*
X100214031Y-47003510D01*
X100215380Y-46994828D01*
X100220819Y-46973242D01*
X100226556Y-46964600D01*
X100229503Y-46965579D01*
G37*
G36*
X99169692Y-47047968D02*
G01*
X99200281Y-47069995D01*
X99222143Y-47109488D01*
X99235281Y-47166451D01*
X99239700Y-47240894D01*
X99239044Y-47266808D01*
X99229457Y-47331361D01*
X99208294Y-47380435D01*
X99175367Y-47414363D01*
X99130489Y-47433475D01*
X99128299Y-47433955D01*
X99087134Y-47436897D01*
X99036516Y-47432516D01*
X98983672Y-47422199D01*
X98935830Y-47407331D01*
X98900218Y-47389300D01*
X98871210Y-47359983D01*
X98856852Y-47324339D01*
X98860016Y-47287564D01*
X98870199Y-47268140D01*
X98898588Y-47243625D01*
X98937541Y-47230576D01*
X98983079Y-47230031D01*
X99031223Y-47243023D01*
X99038061Y-47245856D01*
X99059266Y-47254285D01*
X99069304Y-47257677D01*
X99069573Y-47257496D01*
X99068532Y-47247211D01*
X99063226Y-47225991D01*
X99057196Y-47197586D01*
X99054442Y-47152528D01*
X99059056Y-47111454D01*
X99070669Y-47081562D01*
X99072352Y-47079119D01*
X99091419Y-47055989D01*
X99111187Y-47045478D01*
X99140064Y-47042903D01*
X99169692Y-47047968D01*
G37*
G36*
X104103878Y-47384706D02*
G01*
X104125293Y-47388678D01*
X104145239Y-47401933D01*
X104169527Y-47428175D01*
X104186189Y-47446650D01*
X104203875Y-47462558D01*
X104213863Y-47466745D01*
X104217195Y-47466212D01*
X104216476Y-47475789D01*
X104219794Y-47487020D01*
X104236620Y-47507972D01*
X104264831Y-47535569D01*
X104301846Y-47567591D01*
X104345082Y-47601815D01*
X104391956Y-47636020D01*
X104439887Y-47667984D01*
X104468033Y-47686391D01*
X104504725Y-47714117D01*
X104526838Y-47738100D01*
X104536496Y-47760934D01*
X104535821Y-47785215D01*
X104527570Y-47803680D01*
X104506567Y-47827608D01*
X104480946Y-47844123D01*
X104480670Y-47844233D01*
X104461456Y-47848559D01*
X104439017Y-47846133D01*
X104410173Y-47835822D01*
X104371742Y-47816493D01*
X104320541Y-47787012D01*
X104276611Y-47758711D01*
X104210764Y-47708930D01*
X104149196Y-47654161D01*
X104096485Y-47598590D01*
X104057209Y-47546399D01*
X104046495Y-47527667D01*
X104030203Y-47483181D01*
X104028252Y-47444017D01*
X104039928Y-47412798D01*
X104064516Y-47392144D01*
X104101302Y-47384677D01*
X104103878Y-47384706D01*
G37*
G36*
X100960823Y-46276114D02*
G01*
X101018169Y-46295489D01*
X101066515Y-46329274D01*
X101104283Y-46374429D01*
X101129897Y-46427919D01*
X101141783Y-46486706D01*
X101138362Y-46547753D01*
X101118061Y-46608023D01*
X101112643Y-46618204D01*
X101073204Y-46669841D01*
X101020455Y-46712159D01*
X100959202Y-46741130D01*
X100953828Y-46742668D01*
X100916070Y-46746730D01*
X100870216Y-46744098D01*
X100824579Y-46735680D01*
X100787470Y-46722382D01*
X100762787Y-46706554D01*
X100732893Y-46673668D01*
X100717470Y-46635722D01*
X100717798Y-46596678D01*
X100735156Y-46560494D01*
X100738483Y-46556585D01*
X100767406Y-46538364D01*
X100803420Y-46535812D01*
X100841908Y-46549407D01*
X100863104Y-46558815D01*
X100898872Y-46563279D01*
X100929577Y-46554047D01*
X100951054Y-46532826D01*
X100959139Y-46501325D01*
X100959126Y-46499747D01*
X100949277Y-46460500D01*
X100921647Y-46428181D01*
X100877036Y-46403746D01*
X100868242Y-46400073D01*
X100837434Y-46379224D01*
X100822992Y-46354589D01*
X100823440Y-46329000D01*
X100837304Y-46305294D01*
X100863109Y-46286304D01*
X100899381Y-46274866D01*
X100944643Y-46273813D01*
X100960823Y-46276114D01*
G37*
G36*
X105589211Y-49221067D02*
G01*
X105601805Y-49227247D01*
X105617422Y-49243387D01*
X105625245Y-49271172D01*
X105627516Y-49283672D01*
X105636837Y-49309235D01*
X105654617Y-49323598D01*
X105686394Y-49332297D01*
X105713369Y-49341391D01*
X105737361Y-49364297D01*
X105745751Y-49398883D01*
X105745598Y-49405175D01*
X105736888Y-49431868D01*
X105713446Y-49449600D01*
X105673277Y-49460055D01*
X105669354Y-49460656D01*
X105643520Y-49466349D01*
X105631673Y-49474782D01*
X105628831Y-49489227D01*
X105628831Y-49489251D01*
X105622876Y-49512701D01*
X105608584Y-49537474D01*
X105594897Y-49551159D01*
X105567201Y-49562765D01*
X105539849Y-49557903D01*
X105517072Y-49537909D01*
X105503102Y-49504122D01*
X105501842Y-49498264D01*
X105494588Y-49479187D01*
X105480231Y-49468172D01*
X105452646Y-49459844D01*
X105420587Y-49447663D01*
X105394912Y-49425469D01*
X105385363Y-49399103D01*
X105391922Y-49372355D01*
X105414569Y-49349011D01*
X105453285Y-49332860D01*
X105466940Y-49329395D01*
X105487540Y-49321258D01*
X105497230Y-49308370D01*
X105501831Y-49284994D01*
X105509873Y-49255997D01*
X105532959Y-49228156D01*
X105547801Y-49218245D01*
X105565899Y-49213964D01*
X105589211Y-49221067D01*
G37*
G36*
X97948588Y-49219566D02*
G01*
X97968320Y-49229876D01*
X97982464Y-49252456D01*
X97993389Y-49290931D01*
X97999033Y-49305940D01*
X98013847Y-49318165D01*
X98042601Y-49327628D01*
X98079364Y-49342425D01*
X98100094Y-49365726D01*
X98106523Y-49399866D01*
X98100998Y-49422685D01*
X98078146Y-49446448D01*
X98038716Y-49462720D01*
X98033449Y-49464176D01*
X98009495Y-49476729D01*
X97997760Y-49498794D01*
X97989041Y-49520912D01*
X97973689Y-49544726D01*
X97952314Y-49558250D01*
X97921491Y-49562802D01*
X97893456Y-49554799D01*
X97889441Y-49550896D01*
X97878307Y-49531401D01*
X97868007Y-49503660D01*
X97864619Y-49492553D01*
X97855225Y-49470920D01*
X97841790Y-49460589D01*
X97818285Y-49455754D01*
X97788577Y-49447261D01*
X97760896Y-49423556D01*
X97748475Y-49404661D01*
X97746472Y-49389420D01*
X97755334Y-49369954D01*
X97761861Y-49359894D01*
X97778425Y-49344917D01*
X97804323Y-49333881D01*
X97844637Y-49324183D01*
X97845395Y-49324029D01*
X97862109Y-49317860D01*
X97870337Y-49304446D01*
X97873945Y-49277648D01*
X97875061Y-49267726D01*
X97887285Y-49235894D01*
X97911274Y-49219517D01*
X97946400Y-49219105D01*
X97948588Y-49219566D01*
G37*
G36*
X105558468Y-49699234D02*
G01*
X105595446Y-49723184D01*
X105633962Y-49756152D01*
X105672634Y-49722723D01*
X105699660Y-49703494D01*
X105736662Y-49691289D01*
X105769997Y-49697333D01*
X105798043Y-49721638D01*
X105817773Y-49748177D01*
X105786328Y-49798762D01*
X105754882Y-49849348D01*
X105779780Y-49875335D01*
X105783890Y-49879912D01*
X105801271Y-49912279D01*
X105802978Y-49945954D01*
X105788509Y-49975196D01*
X105776725Y-49984859D01*
X105746206Y-49992894D01*
X105710216Y-49985726D01*
X105672793Y-49963754D01*
X105647779Y-49944738D01*
X105631376Y-49936372D01*
X105619831Y-49938697D01*
X105608047Y-49950683D01*
X105607656Y-49951148D01*
X105589568Y-49967733D01*
X105565331Y-49984839D01*
X105548230Y-49994050D01*
X105515337Y-50001877D01*
X105488845Y-49991655D01*
X105467277Y-49963055D01*
X105464326Y-49957310D01*
X105455838Y-49937522D01*
X105455805Y-49922034D01*
X105465706Y-49904522D01*
X105487024Y-49878658D01*
X105498452Y-49865018D01*
X105511343Y-49846706D01*
X105513266Y-49835373D01*
X105505918Y-49826322D01*
X105491814Y-49810443D01*
X105476764Y-49786662D01*
X105469118Y-49768924D01*
X105464388Y-49735002D01*
X105473916Y-49709490D01*
X105494744Y-49693970D01*
X105523914Y-49690024D01*
X105558468Y-49699234D01*
G37*
G36*
X102574335Y-46275597D02*
G01*
X102608439Y-46291076D01*
X102631177Y-46316906D01*
X102639446Y-46352184D01*
X102639112Y-46359641D01*
X102632323Y-46378933D01*
X102613847Y-46393464D01*
X102579825Y-46406764D01*
X102546189Y-46423068D01*
X102517930Y-46449885D01*
X102502347Y-46481591D01*
X102501284Y-46514193D01*
X102516585Y-46543699D01*
X102524183Y-46551500D01*
X102548579Y-46566922D01*
X102576751Y-46567816D01*
X102613952Y-46554780D01*
X102616835Y-46553471D01*
X102650351Y-46539940D01*
X102673942Y-46536411D01*
X102694246Y-46543277D01*
X102717902Y-46560930D01*
X102718239Y-46561213D01*
X102738047Y-46580561D01*
X102745325Y-46598808D01*
X102743875Y-46625390D01*
X102739226Y-46646156D01*
X102716273Y-46687529D01*
X102677528Y-46719772D01*
X102624793Y-46741133D01*
X102593279Y-46745456D01*
X102544631Y-46743809D01*
X102495207Y-46735153D01*
X102454298Y-46720607D01*
X102452093Y-46719455D01*
X102414283Y-46692691D01*
X102377412Y-46655576D01*
X102346996Y-46614467D01*
X102328551Y-46575717D01*
X102326871Y-46569860D01*
X102317927Y-46503726D01*
X102326526Y-46439994D01*
X102351343Y-46381871D01*
X102391057Y-46332559D01*
X102444343Y-46295265D01*
X102484442Y-46279318D01*
X102531968Y-46271376D01*
X102574335Y-46275597D01*
G37*
G36*
X98188460Y-52019553D02*
G01*
X98200380Y-52021455D01*
X98231996Y-52028810D01*
X98246276Y-52038559D01*
X98244945Y-52052991D01*
X98229726Y-52074397D01*
X98215480Y-52095198D01*
X98205491Y-52128749D01*
X98212123Y-52158398D01*
X98235198Y-52180684D01*
X98248293Y-52187287D01*
X98266402Y-52189919D01*
X98288256Y-52180988D01*
X98310241Y-52164526D01*
X98330543Y-52139911D01*
X98339415Y-52126309D01*
X98354850Y-52114882D01*
X98371883Y-52120960D01*
X98393548Y-52144778D01*
X98409430Y-52167490D01*
X98428035Y-52205485D01*
X98437936Y-52248750D01*
X98441183Y-52304144D01*
X98441127Y-52324448D01*
X98438330Y-52360893D01*
X98430220Y-52390725D01*
X98414823Y-52422822D01*
X98377110Y-52478982D01*
X98325539Y-52529093D01*
X98267013Y-52562795D01*
X98257251Y-52566349D01*
X98206191Y-52576900D01*
X98148638Y-52578999D01*
X98092702Y-52572806D01*
X98046494Y-52558480D01*
X98024350Y-52546891D01*
X97966484Y-52503767D01*
X97922764Y-52450764D01*
X97893583Y-52390690D01*
X97879338Y-52326356D01*
X97880422Y-52260571D01*
X97897231Y-52196145D01*
X97930160Y-52135887D01*
X97979604Y-52082609D01*
X98020594Y-52055322D01*
X98076504Y-52032057D01*
X98134948Y-52019382D01*
X98188460Y-52019553D01*
G37*
G36*
X97780723Y-49698758D02*
G01*
X97813816Y-49719126D01*
X97823803Y-49727377D01*
X97844149Y-49742327D01*
X97856118Y-49748433D01*
X97859938Y-49747321D01*
X97876173Y-49737078D01*
X97897978Y-49719523D01*
X97909833Y-49710094D01*
X97945699Y-49692791D01*
X97978699Y-49692397D01*
X98005779Y-49708406D01*
X98023883Y-49740315D01*
X98025097Y-49746126D01*
X98020489Y-49769765D01*
X98001528Y-49802016D01*
X97972611Y-49843041D01*
X98000490Y-49874244D01*
X98012083Y-49888938D01*
X98027214Y-49923601D01*
X98024075Y-49955470D01*
X98002629Y-49982583D01*
X98001070Y-49983797D01*
X97981090Y-49997280D01*
X97967794Y-50002830D01*
X97947418Y-49996794D01*
X97919150Y-49980121D01*
X97889886Y-49956545D01*
X97863749Y-49932186D01*
X97821502Y-49961752D01*
X97809880Y-49969748D01*
X97775747Y-49990266D01*
X97750637Y-49998284D01*
X97730436Y-49994462D01*
X97711032Y-49979458D01*
X97701706Y-49969018D01*
X97688332Y-49940340D01*
X97692924Y-49909591D01*
X97715591Y-49874232D01*
X97722002Y-49866353D01*
X97735381Y-49847344D01*
X97737400Y-49835754D01*
X97729601Y-49826314D01*
X97727516Y-49824493D01*
X97708055Y-49799677D01*
X97692687Y-49768248D01*
X97686446Y-49740244D01*
X97686552Y-49736701D01*
X97695946Y-49710700D01*
X97717579Y-49695244D01*
X97747241Y-49691030D01*
X97780723Y-49698758D01*
G37*
G36*
X104232485Y-49559833D02*
G01*
X104279838Y-49563103D01*
X104323560Y-49570235D01*
X104367767Y-49582401D01*
X104416573Y-49600774D01*
X104474095Y-49626528D01*
X104544446Y-49660834D01*
X104553666Y-49665396D01*
X104601056Y-49688164D01*
X104658445Y-49714937D01*
X104719415Y-49742747D01*
X104777552Y-49768628D01*
X104803763Y-49780320D01*
X104851270Y-49802575D01*
X104891606Y-49822831D01*
X104921155Y-49839236D01*
X104936302Y-49849939D01*
X104948656Y-49869387D01*
X104954936Y-49904092D01*
X104948348Y-49940496D01*
X104930355Y-49972396D01*
X104902420Y-49993586D01*
X104890466Y-49997836D01*
X104877015Y-50000158D01*
X104860694Y-49999870D01*
X104839822Y-49996421D01*
X104812715Y-49989264D01*
X104777690Y-49977846D01*
X104733063Y-49961620D01*
X104677151Y-49940035D01*
X104608271Y-49912541D01*
X104524741Y-49878589D01*
X104424876Y-49837629D01*
X104382282Y-49820991D01*
X104284973Y-49790806D01*
X104190320Y-49773740D01*
X104091458Y-49768369D01*
X104079270Y-49768363D01*
X104040197Y-49767916D01*
X104014814Y-49765887D01*
X103998421Y-49761077D01*
X103986321Y-49752286D01*
X103973815Y-49738312D01*
X103967346Y-49729957D01*
X103950240Y-49691142D01*
X103952210Y-49651482D01*
X103973266Y-49613463D01*
X103978120Y-49607952D01*
X104001206Y-49588259D01*
X104030407Y-49574377D01*
X104069040Y-49565468D01*
X104120422Y-49560692D01*
X104187870Y-49559211D01*
X104232485Y-49559833D01*
G37*
G36*
X100676292Y-48022343D02*
G01*
X100675775Y-48024781D01*
X100651127Y-48095207D01*
X100610552Y-48155003D01*
X100555387Y-48202656D01*
X100486968Y-48236653D01*
X100476227Y-48240227D01*
X100407997Y-48251836D01*
X100339099Y-48246496D01*
X100273084Y-48225702D01*
X100213503Y-48190948D01*
X100163906Y-48143729D01*
X100127845Y-48085537D01*
X100112156Y-48040446D01*
X100103612Y-47972234D01*
X100281140Y-47972234D01*
X100286930Y-48000017D01*
X100304194Y-48029500D01*
X100328180Y-48052418D01*
X100333607Y-48055473D01*
X100363052Y-48064830D01*
X100397816Y-48068523D01*
X100432528Y-48064046D01*
X100468813Y-48045026D01*
X100491824Y-48012778D01*
X100499674Y-47969140D01*
X100492357Y-47927030D01*
X100469731Y-47892581D01*
X100433278Y-47870902D01*
X100384500Y-47863369D01*
X100361585Y-47864625D01*
X100336786Y-47873177D01*
X100313404Y-47893710D01*
X100307185Y-47900728D01*
X100290979Y-47923237D01*
X100283935Y-47940114D01*
X100283378Y-47947475D01*
X100281258Y-47970830D01*
X100281140Y-47972234D01*
X100103612Y-47972234D01*
X100103182Y-47968799D01*
X100112113Y-47897331D01*
X100138393Y-47829332D01*
X100181466Y-47768091D01*
X100225871Y-47729640D01*
X100285202Y-47699808D01*
X100350425Y-47684776D01*
X100417924Y-47684509D01*
X100484084Y-47698974D01*
X100545291Y-47728137D01*
X100597927Y-47771964D01*
X100634168Y-47818067D01*
X100667001Y-47883732D01*
X100681192Y-47952300D01*
X100680014Y-47969140D01*
X100676292Y-48022343D01*
G37*
G36*
X99348020Y-49559323D02*
G01*
X99399171Y-49566797D01*
X99441816Y-49577038D01*
X99470458Y-49589275D01*
X99487179Y-49602657D01*
X99510863Y-49636857D01*
X99519481Y-49675847D01*
X99512454Y-49714707D01*
X99489202Y-49748518D01*
X99483592Y-49753515D01*
X99471512Y-49761457D01*
X99455554Y-49766725D01*
X99431801Y-49769990D01*
X99396340Y-49771924D01*
X99345256Y-49773197D01*
X99321963Y-49773752D01*
X99277850Y-49775823D01*
X99238201Y-49779857D01*
X99199853Y-49786761D01*
X99159643Y-49797443D01*
X99114406Y-49812811D01*
X99060980Y-49833772D01*
X98996201Y-49861235D01*
X98916905Y-49896107D01*
X98859548Y-49921133D01*
X98803975Y-49944585D01*
X98754683Y-49964613D01*
X98715505Y-49979658D01*
X98690275Y-49988164D01*
X98671468Y-49992613D01*
X98634433Y-49997905D01*
X98604754Y-49998053D01*
X98600109Y-49997335D01*
X98565216Y-49982488D01*
X98540723Y-49955591D01*
X98528524Y-49921570D01*
X98530512Y-49885353D01*
X98548581Y-49851869D01*
X98556456Y-49844795D01*
X98582959Y-49827698D01*
X98620265Y-49808236D01*
X98663370Y-49789140D01*
X98668028Y-49787235D01*
X98714395Y-49767276D01*
X98770614Y-49741768D01*
X98830013Y-49713792D01*
X98885919Y-49686426D01*
X98895360Y-49681703D01*
X98977418Y-49641675D01*
X99045707Y-49610629D01*
X99102912Y-49587565D01*
X99151718Y-49571481D01*
X99194809Y-49561375D01*
X99234870Y-49556246D01*
X99242188Y-49555761D01*
X99293860Y-49555388D01*
X99348020Y-49559323D01*
G37*
G36*
X103418981Y-48100857D02*
G01*
X103416479Y-48133093D01*
X103407876Y-48183325D01*
X103393443Y-48221844D01*
X103392377Y-48223881D01*
X103360558Y-48270913D01*
X103317831Y-48316386D01*
X103270159Y-48354736D01*
X103223505Y-48380400D01*
X103216490Y-48383027D01*
X103155689Y-48396670D01*
X103088803Y-48398642D01*
X103023317Y-48389278D01*
X102966716Y-48368912D01*
X102931452Y-48347811D01*
X102869113Y-48294171D01*
X102818374Y-48226779D01*
X102808665Y-48209796D01*
X102799141Y-48188193D01*
X102793773Y-48164600D01*
X102791402Y-48133171D01*
X102790870Y-48088061D01*
X102790876Y-48087434D01*
X102972697Y-48087434D01*
X102981829Y-48134087D01*
X103009560Y-48177919D01*
X103011129Y-48179626D01*
X103045252Y-48202871D01*
X103088193Y-48213935D01*
X103133280Y-48212063D01*
X103173838Y-48196499D01*
X103206513Y-48167422D01*
X103227735Y-48128030D01*
X103234118Y-48084787D01*
X103225819Y-48042009D01*
X103202994Y-48004009D01*
X103165799Y-47975102D01*
X103131718Y-47963615D01*
X103086054Y-47962289D01*
X103042930Y-47974356D01*
X103009020Y-47998808D01*
X102982174Y-48040900D01*
X102972697Y-48087434D01*
X102790876Y-48087434D01*
X102791237Y-48047407D01*
X102793365Y-48014522D01*
X102798665Y-47988886D01*
X102808546Y-47964004D01*
X102824417Y-47933377D01*
X102848802Y-47893868D01*
X102898027Y-47838910D01*
X102956993Y-47800494D01*
X103026684Y-47778055D01*
X103108090Y-47771029D01*
X103151422Y-47772143D01*
X103184474Y-47775976D01*
X103211745Y-47783911D01*
X103240254Y-47797348D01*
X103294673Y-47832364D01*
X103351503Y-47888786D01*
X103394306Y-47958730D01*
X103400198Y-47971497D01*
X103412516Y-48001801D01*
X103418855Y-48028295D01*
X103420562Y-48058730D01*
X103419584Y-48084787D01*
X103418981Y-48100857D01*
G37*
G36*
X102044625Y-46716791D02*
G01*
X102045162Y-46814222D01*
X102027114Y-46907838D01*
X101990563Y-46996969D01*
X101935591Y-47080944D01*
X101862280Y-47159093D01*
X101770710Y-47230747D01*
X101770173Y-47231110D01*
X101751697Y-47242914D01*
X101741986Y-47247843D01*
X101735631Y-47244363D01*
X101717346Y-47232026D01*
X101691993Y-47213834D01*
X101685822Y-47209204D01*
X101643425Y-47173153D01*
X101598550Y-47129036D01*
X101555724Y-47081802D01*
X101519474Y-47036398D01*
X101494326Y-46997772D01*
X101473647Y-46954306D01*
X101446627Y-46864004D01*
X101438400Y-46768876D01*
X101445795Y-46699004D01*
X101678393Y-46699004D01*
X101687023Y-46735870D01*
X101692285Y-46751492D01*
X101705829Y-46783482D01*
X101719073Y-46806261D01*
X101736498Y-46828654D01*
X101757660Y-46806128D01*
X101783123Y-46769416D01*
X101801897Y-46723191D01*
X101809062Y-46678473D01*
X101807972Y-46667346D01*
X101800218Y-46638261D01*
X101787248Y-46604928D01*
X101771721Y-46573102D01*
X101756300Y-46548538D01*
X101743644Y-46536989D01*
X101739065Y-46537552D01*
X101725891Y-46550444D01*
X101710636Y-46575980D01*
X101695613Y-46609913D01*
X101683134Y-46648002D01*
X101678744Y-46668290D01*
X101678393Y-46699004D01*
X101445795Y-46699004D01*
X101448949Y-46669204D01*
X101478259Y-46565274D01*
X101526311Y-46457371D01*
X101527107Y-46455853D01*
X101556785Y-46404241D01*
X101591469Y-46351528D01*
X101628319Y-46301380D01*
X101664491Y-46257466D01*
X101697144Y-46223452D01*
X101723435Y-46203005D01*
X101735982Y-46196559D01*
X101749266Y-46194626D01*
X101763672Y-46202548D01*
X101785552Y-46222299D01*
X101794460Y-46231264D01*
X101820064Y-46259860D01*
X101850068Y-46296057D01*
X101879682Y-46334163D01*
X101930697Y-46408308D01*
X101987474Y-46513164D01*
X102025423Y-46616215D01*
X102037309Y-46678473D01*
X102044625Y-46716791D01*
G37*
G36*
X98548583Y-53044593D02*
G01*
X98564663Y-53064764D01*
X98583287Y-53098051D01*
X98605827Y-53146204D01*
X98633659Y-53210972D01*
X98653733Y-53258768D01*
X98748917Y-53252481D01*
X98757970Y-53251910D01*
X98812541Y-53250251D01*
X98850979Y-53253496D01*
X98875926Y-53262525D01*
X98890026Y-53278219D01*
X98895922Y-53301459D01*
X98896244Y-53305771D01*
X98894972Y-53319644D01*
X98888227Y-53334152D01*
X98873693Y-53352344D01*
X98849054Y-53377269D01*
X98811996Y-53411976D01*
X98725095Y-53492118D01*
X98757645Y-53586532D01*
X98767212Y-53614738D01*
X98780999Y-53659378D01*
X98787779Y-53690861D01*
X98787782Y-53712484D01*
X98781242Y-53727546D01*
X98768389Y-53739346D01*
X98763971Y-53742272D01*
X98746744Y-53749220D01*
X98726419Y-53748813D01*
X98699763Y-53740099D01*
X98663542Y-53722124D01*
X98614523Y-53693932D01*
X98531485Y-53644518D01*
X98502177Y-53662276D01*
X98501820Y-53662492D01*
X98469014Y-53681350D01*
X98430992Y-53701713D01*
X98392214Y-53721382D01*
X98357136Y-53738156D01*
X98330218Y-53749833D01*
X98315917Y-53754215D01*
X98301181Y-53748226D01*
X98282669Y-53732748D01*
X98278616Y-53728024D01*
X98269961Y-53711685D01*
X98267709Y-53690471D01*
X98272260Y-53661145D01*
X98284013Y-53620468D01*
X98303369Y-53565204D01*
X98331427Y-53488539D01*
X98304456Y-53467866D01*
X98293815Y-53459458D01*
X98262057Y-53432143D01*
X98228792Y-53400994D01*
X98197267Y-53369345D01*
X98170728Y-53340530D01*
X98152423Y-53317884D01*
X98145600Y-53304742D01*
X98150970Y-53288906D01*
X98166296Y-53269710D01*
X98177208Y-53261761D01*
X98191902Y-53256443D01*
X98213995Y-53253638D01*
X98247526Y-53252843D01*
X98296531Y-53253559D01*
X98406071Y-53256018D01*
X98443344Y-53157596D01*
X98444545Y-53154439D01*
X98467086Y-53100304D01*
X98486728Y-53063343D01*
X98502954Y-53044539D01*
X98518553Y-53036594D01*
X98533671Y-53035786D01*
X98548583Y-53044593D01*
G37*
G36*
X104976203Y-53040941D02*
G01*
X104998959Y-53064294D01*
X105022807Y-53105287D01*
X105048439Y-53164792D01*
X105083818Y-53256101D01*
X105195947Y-53253600D01*
X105227178Y-53252963D01*
X105265790Y-53252761D01*
X105291144Y-53254164D01*
X105307153Y-53257789D01*
X105317733Y-53264250D01*
X105326800Y-53274163D01*
X105339845Y-53293164D01*
X105345523Y-53307541D01*
X105344202Y-53310963D01*
X105332200Y-53326756D01*
X105310346Y-53350904D01*
X105281897Y-53380116D01*
X105250108Y-53411102D01*
X105218236Y-53440569D01*
X105189535Y-53465226D01*
X105155663Y-53492757D01*
X105181673Y-53567313D01*
X105189092Y-53588852D01*
X105204919Y-53638624D01*
X105213519Y-53674816D01*
X105215238Y-53700664D01*
X105210417Y-53719401D01*
X105199401Y-53734261D01*
X105180283Y-53747998D01*
X105156966Y-53748565D01*
X105150234Y-53746271D01*
X105118039Y-53732547D01*
X105078094Y-53712775D01*
X105037198Y-53690448D01*
X105002150Y-53669058D01*
X104965535Y-53644827D01*
X104889451Y-53687309D01*
X104859008Y-53704098D01*
X104814320Y-53727286D01*
X104781452Y-53741460D01*
X104757382Y-53747570D01*
X104739086Y-53746564D01*
X104723545Y-53739390D01*
X104721990Y-53738341D01*
X104708221Y-53724028D01*
X104702052Y-53703528D01*
X104703604Y-53673941D01*
X104712997Y-53632367D01*
X104730354Y-53575906D01*
X104759954Y-53486086D01*
X104737954Y-53469491D01*
X104720729Y-53459442D01*
X104708112Y-53457744D01*
X104705965Y-53458773D01*
X104702954Y-53453950D01*
X104702570Y-53451747D01*
X104692847Y-53437986D01*
X104672825Y-53416110D01*
X104645721Y-53389727D01*
X104620109Y-53365091D01*
X104594106Y-53335562D01*
X104581864Y-53312351D01*
X104582055Y-53292498D01*
X104593350Y-53273045D01*
X104597579Y-53268114D01*
X104607147Y-53260280D01*
X104620845Y-53255302D01*
X104642525Y-53252540D01*
X104676039Y-53251353D01*
X104725238Y-53251100D01*
X104839342Y-53251100D01*
X104870794Y-53168061D01*
X104879409Y-53145478D01*
X104896990Y-53101341D01*
X104910681Y-53071381D01*
X104922220Y-53052534D01*
X104933348Y-53041734D01*
X104945806Y-53035916D01*
X104953846Y-53034361D01*
X104976203Y-53040941D01*
G37*
G36*
X105360260Y-51787054D02*
G01*
X105383566Y-51806055D01*
X105408464Y-51843842D01*
X105435773Y-51900526D01*
X105466310Y-51976215D01*
X105483034Y-52020177D01*
X105586830Y-52017074D01*
X105611689Y-52016421D01*
X105662212Y-52016146D01*
X105697724Y-52018284D01*
X105721417Y-52023388D01*
X105736486Y-52032014D01*
X105746124Y-52044715D01*
X105748649Y-52050049D01*
X105751219Y-52063774D01*
X105747121Y-52080270D01*
X105734836Y-52102547D01*
X105712846Y-52133615D01*
X105679631Y-52176484D01*
X105669021Y-52189918D01*
X105645183Y-52220169D01*
X105626881Y-52243487D01*
X105617409Y-52255678D01*
X105616653Y-52257712D01*
X105621982Y-52273791D01*
X105639659Y-52301408D01*
X105668547Y-52338716D01*
X105680371Y-52353199D01*
X105713873Y-52395906D01*
X105735803Y-52427727D01*
X105747557Y-52451284D01*
X105750535Y-52469194D01*
X105746134Y-52484079D01*
X105746128Y-52484091D01*
X105733358Y-52501975D01*
X105715551Y-52513423D01*
X105689151Y-52519216D01*
X105650604Y-52520133D01*
X105596356Y-52516956D01*
X105566982Y-52514668D01*
X105529019Y-52511766D01*
X105501461Y-52509729D01*
X105488844Y-52508897D01*
X105488675Y-52508905D01*
X105481486Y-52517882D01*
X105470682Y-52540544D01*
X105458532Y-52572152D01*
X105439521Y-52622650D01*
X105416742Y-52673095D01*
X105395632Y-52708822D01*
X105377342Y-52727625D01*
X105358375Y-52736143D01*
X105339360Y-52733882D01*
X105318323Y-52716035D01*
X105315754Y-52713092D01*
X105299289Y-52688321D01*
X105279956Y-52652381D01*
X105260680Y-52611413D01*
X105244384Y-52571557D01*
X105233993Y-52538953D01*
X105227200Y-52510653D01*
X105111461Y-52517194D01*
X105102071Y-52517705D01*
X105041866Y-52519548D01*
X104998059Y-52517521D01*
X104968125Y-52511124D01*
X104949542Y-52499857D01*
X104939785Y-52483221D01*
X104938351Y-52475312D01*
X104942216Y-52453881D01*
X104956740Y-52425309D01*
X104983113Y-52387513D01*
X105022526Y-52338410D01*
X105081616Y-52267686D01*
X105027191Y-52202547D01*
X105019032Y-52192781D01*
X104987922Y-52155429D01*
X104966632Y-52129391D01*
X104952922Y-52111643D01*
X104944552Y-52099162D01*
X104939285Y-52088925D01*
X104934880Y-52077908D01*
X104933194Y-52073100D01*
X104932276Y-52052954D01*
X104946238Y-52033578D01*
X104953651Y-52026883D01*
X104964595Y-52020714D01*
X104980395Y-52017028D01*
X105004717Y-52015404D01*
X105041229Y-52015420D01*
X105093596Y-52016657D01*
X105220514Y-52020177D01*
X105247309Y-51946907D01*
X105266610Y-51896730D01*
X105291722Y-51841678D01*
X105315156Y-51804975D01*
X105337729Y-51786731D01*
X105360260Y-51787054D01*
G37*
G36*
X98210904Y-50189797D02*
G01*
X98221009Y-50202422D01*
X98237036Y-50229438D01*
X98255280Y-50264718D01*
X98273142Y-50302938D01*
X98288022Y-50338771D01*
X98297323Y-50366893D01*
X98299991Y-50375810D01*
X98306579Y-50386197D01*
X98318879Y-50391739D01*
X98340288Y-50392891D01*
X98374203Y-50390108D01*
X98424023Y-50383844D01*
X98477632Y-50378793D01*
X98520072Y-50380532D01*
X98548616Y-50390114D01*
X98565499Y-50407920D01*
X98568026Y-50413310D01*
X98570675Y-50429288D01*
X98565271Y-50448060D01*
X98550289Y-50472292D01*
X98524201Y-50504654D01*
X98485483Y-50547813D01*
X98428925Y-50609219D01*
X98492683Y-50683943D01*
X98512532Y-50707810D01*
X98544408Y-50751034D01*
X98561773Y-50784554D01*
X98565056Y-50810174D01*
X98554688Y-50829700D01*
X98531101Y-50844937D01*
X98519360Y-50849028D01*
X98498665Y-50850982D01*
X98469140Y-50848025D01*
X98425807Y-50839922D01*
X98404613Y-50835498D01*
X98362085Y-50827225D01*
X98332974Y-50824875D01*
X98313067Y-50830398D01*
X98298157Y-50845745D01*
X98284031Y-50872864D01*
X98266480Y-50913706D01*
X98263147Y-50921435D01*
X98240291Y-50969618D01*
X98221035Y-51000522D01*
X98204466Y-51015651D01*
X98186659Y-51021772D01*
X98162254Y-51017287D01*
X98153352Y-51007964D01*
X98137826Y-50984451D01*
X98119352Y-50952135D01*
X98100504Y-50915984D01*
X98083854Y-50880968D01*
X98071977Y-50852056D01*
X98067446Y-50834218D01*
X98067008Y-50830437D01*
X98062782Y-50825882D01*
X98051535Y-50824295D01*
X98030211Y-50825780D01*
X97995755Y-50830441D01*
X97945111Y-50838382D01*
X97901007Y-50844678D01*
X97862101Y-50847194D01*
X97835494Y-50843599D01*
X97817590Y-50833314D01*
X97804791Y-50815758D01*
X97803339Y-50812671D01*
X97801802Y-50790036D01*
X97813764Y-50760444D01*
X97840024Y-50722424D01*
X97881378Y-50674506D01*
X97942103Y-50608604D01*
X97879104Y-50539577D01*
X97851541Y-50508751D01*
X97821474Y-50472204D01*
X97803380Y-50444920D01*
X97795793Y-50424556D01*
X97797244Y-50408766D01*
X97799038Y-50404787D01*
X97814832Y-50389211D01*
X97843387Y-50380684D01*
X97886640Y-50378880D01*
X97946529Y-50383470D01*
X97968123Y-50385852D01*
X98005458Y-50389830D01*
X98032965Y-50392576D01*
X98045853Y-50393600D01*
X98046697Y-50393535D01*
X98050965Y-50390964D01*
X98056755Y-50382822D01*
X98065302Y-50366631D01*
X98077838Y-50339913D01*
X98095597Y-50300189D01*
X98119811Y-50244982D01*
X98136533Y-50213309D01*
X98160497Y-50186887D01*
X98185598Y-50178861D01*
X98210904Y-50189797D01*
G37*
G36*
X101976174Y-52796145D02*
G01*
X101981016Y-52814473D01*
X101998538Y-52837409D01*
X102028720Y-52870100D01*
X102040167Y-52882553D01*
X102067945Y-52915137D01*
X102083834Y-52939556D01*
X102089863Y-52959522D01*
X102088060Y-52978748D01*
X102081597Y-53004501D01*
X101981964Y-52999644D01*
X101953088Y-52998110D01*
X101913560Y-52995561D01*
X101883816Y-52993087D01*
X101868725Y-52991059D01*
X101862065Y-52992671D01*
X101848089Y-53010252D01*
X101831228Y-53045946D01*
X101818912Y-53073608D01*
X101800205Y-53109598D01*
X101783279Y-53136311D01*
X101771870Y-53149814D01*
X101750131Y-53165162D01*
X101729115Y-53164132D01*
X101707737Y-53146019D01*
X101684915Y-53110115D01*
X101659565Y-53055715D01*
X101634813Y-52997100D01*
X101532872Y-53000653D01*
X101489334Y-53001299D01*
X101438751Y-52998052D01*
X101406269Y-52989033D01*
X101391338Y-52973472D01*
X101393407Y-52950603D01*
X101411927Y-52919658D01*
X101446349Y-52879869D01*
X101452527Y-52873372D01*
X101483026Y-52841083D01*
X101501366Y-52818455D01*
X101508087Y-52801092D01*
X101503728Y-52784597D01*
X101495575Y-52773642D01*
X101662523Y-52773642D01*
X101664276Y-52785485D01*
X101674858Y-52811547D01*
X101690738Y-52835685D01*
X101706923Y-52849377D01*
X101727439Y-52854733D01*
X101765249Y-52850386D01*
X101800044Y-52826890D01*
X101810221Y-52815885D01*
X101825935Y-52788029D01*
X101823584Y-52760543D01*
X101803309Y-52729195D01*
X101798727Y-52723953D01*
X101774197Y-52704641D01*
X101745562Y-52699138D01*
X101739768Y-52699296D01*
X101712463Y-52706964D01*
X101687815Y-52729195D01*
X101683160Y-52734973D01*
X101668452Y-52757366D01*
X101662523Y-52773642D01*
X101495575Y-52773642D01*
X101488828Y-52764577D01*
X101463926Y-52736636D01*
X101452761Y-52724028D01*
X101421137Y-52686729D01*
X101401630Y-52659731D01*
X101392879Y-52640316D01*
X101393523Y-52625767D01*
X101402204Y-52613369D01*
X101406809Y-52609423D01*
X101420333Y-52603002D01*
X101441851Y-52599071D01*
X101475202Y-52597100D01*
X101524230Y-52596561D01*
X101629428Y-52596561D01*
X101657719Y-52523292D01*
X101657757Y-52523194D01*
X101676051Y-52482145D01*
X101696338Y-52446431D01*
X101714819Y-52422744D01*
X101743629Y-52395465D01*
X101771166Y-52421847D01*
X101771941Y-52422605D01*
X101789663Y-52445641D01*
X101809602Y-52479634D01*
X101827586Y-52517511D01*
X101856469Y-52586792D01*
X101958281Y-52591677D01*
X102001829Y-52594545D01*
X102049783Y-52601405D01*
X102079470Y-52612588D01*
X102091573Y-52629396D01*
X102086778Y-52653134D01*
X102065772Y-52685107D01*
X102029239Y-52726617D01*
X102004602Y-52752744D01*
X101984030Y-52777284D01*
X101979554Y-52788029D01*
X101976174Y-52796145D01*
G37*
G36*
X97790665Y-51237695D02*
G01*
X97849763Y-51253941D01*
X97903401Y-51285448D01*
X97929438Y-51308021D01*
X97965332Y-51356628D01*
X97984588Y-51414111D01*
X97987402Y-51481224D01*
X97973969Y-51558722D01*
X97965218Y-51600430D01*
X97964132Y-51636147D01*
X97973539Y-51656892D01*
X97993614Y-51663600D01*
X97994333Y-51663594D01*
X98020825Y-51655976D01*
X98051370Y-51633269D01*
X98087059Y-51594464D01*
X98128984Y-51538554D01*
X98175594Y-51475685D01*
X98225907Y-51418261D01*
X98273950Y-51376480D01*
X98321903Y-51348811D01*
X98371945Y-51333723D01*
X98426257Y-51329683D01*
X98450465Y-51331102D01*
X98518264Y-51347235D01*
X98577599Y-51380625D01*
X98627442Y-51430559D01*
X98666767Y-51496327D01*
X98673790Y-51514754D01*
X98684578Y-51567969D01*
X98687465Y-51630708D01*
X98682395Y-51697105D01*
X98669311Y-51761292D01*
X98666187Y-51773591D01*
X98657718Y-51817930D01*
X98650684Y-51869817D01*
X98646360Y-51920415D01*
X98644751Y-51947557D01*
X98641531Y-51983851D01*
X98637103Y-52006997D01*
X98630510Y-52021114D01*
X98620795Y-52030319D01*
X98613156Y-52035145D01*
X98577398Y-52045322D01*
X98541508Y-52036807D01*
X98508074Y-52010067D01*
X98498830Y-51999096D01*
X98485274Y-51977665D01*
X98479173Y-51953545D01*
X98477754Y-51918359D01*
X98479419Y-51890303D01*
X98484809Y-51846048D01*
X98493041Y-51794678D01*
X98503201Y-51742513D01*
X98513697Y-51690235D01*
X98521204Y-51638988D01*
X98522198Y-51599930D01*
X98516355Y-51569492D01*
X98503346Y-51544105D01*
X98482845Y-51520198D01*
X98471926Y-51510046D01*
X98445434Y-51493126D01*
X98418935Y-51489252D01*
X98390660Y-51499298D01*
X98358839Y-51524137D01*
X98321704Y-51564646D01*
X98277485Y-51621697D01*
X98235302Y-51676045D01*
X98184220Y-51733767D01*
X98137367Y-51777486D01*
X98096625Y-51805290D01*
X98086748Y-51810028D01*
X98032821Y-51824957D01*
X97976097Y-51825388D01*
X97920729Y-51812682D01*
X97870869Y-51788201D01*
X97830667Y-51753309D01*
X97804276Y-51709368D01*
X97799468Y-51692907D01*
X97794426Y-51646101D01*
X97797486Y-51592755D01*
X97808456Y-51540595D01*
X97817743Y-51505668D01*
X97822280Y-51466971D01*
X97816214Y-51437837D01*
X97799237Y-51414040D01*
X97792614Y-51407818D01*
X97775015Y-51396642D01*
X97751679Y-51391378D01*
X97715754Y-51390061D01*
X97700153Y-51389900D01*
X97669830Y-51387312D01*
X97649486Y-51380028D01*
X97632272Y-51366082D01*
X97626230Y-51359462D01*
X97610038Y-51327013D01*
X97612314Y-51293517D01*
X97633031Y-51262765D01*
X97652516Y-51248755D01*
X97679182Y-51240106D01*
X97718667Y-51235646D01*
X97721516Y-51235473D01*
X97790665Y-51237695D01*
G37*
G36*
X105735866Y-50730259D02*
G01*
X105738327Y-50733365D01*
X105784746Y-50794770D01*
X105817267Y-50844548D01*
X105836424Y-50884149D01*
X105842752Y-50915026D01*
X105836784Y-50938629D01*
X105819054Y-50956410D01*
X105811443Y-50960893D01*
X105798443Y-50965645D01*
X105780594Y-50967937D01*
X105754251Y-50967878D01*
X105715766Y-50965577D01*
X105661494Y-50961144D01*
X105647129Y-50959924D01*
X105600320Y-50956213D01*
X105562109Y-50953587D01*
X105536116Y-50952277D01*
X105525961Y-50952512D01*
X105523673Y-50956656D01*
X105514567Y-50975294D01*
X105500405Y-51005251D01*
X105483071Y-51042568D01*
X105473756Y-51062261D01*
X105452780Y-51103622D01*
X105432994Y-51139151D01*
X105417688Y-51162801D01*
X105414347Y-51167031D01*
X105390245Y-51188332D01*
X105365862Y-51192869D01*
X105340567Y-51180146D01*
X105313732Y-51149670D01*
X105284727Y-51100948D01*
X105252922Y-51033484D01*
X105219006Y-50955330D01*
X105072179Y-50958930D01*
X105043436Y-50959542D01*
X104987644Y-50959880D01*
X104948338Y-50958545D01*
X104923409Y-50955424D01*
X104910746Y-50950407D01*
X104902916Y-50941890D01*
X104896083Y-50918232D01*
X104902752Y-50886079D01*
X104923340Y-50844479D01*
X104958267Y-50792479D01*
X105007951Y-50729125D01*
X105061579Y-50664108D01*
X105052218Y-50653446D01*
X105295723Y-50653446D01*
X105297413Y-50688532D01*
X105316426Y-50721092D01*
X105327882Y-50731190D01*
X105361285Y-50744806D01*
X105396827Y-50741517D01*
X105429006Y-50721313D01*
X105430234Y-50720058D01*
X105446343Y-50697563D01*
X105452985Y-50676709D01*
X105452016Y-50664774D01*
X105444839Y-50641677D01*
X105433567Y-50626286D01*
X105421678Y-50624412D01*
X105416707Y-50626524D01*
X105417871Y-50619783D01*
X105416560Y-50609558D01*
X105399206Y-50598735D01*
X105398323Y-50598401D01*
X105368278Y-50590108D01*
X105345504Y-50593830D01*
X105321060Y-50610965D01*
X105311132Y-50621117D01*
X105295723Y-50653446D01*
X105052218Y-50653446D01*
X105030956Y-50629230D01*
X105027475Y-50625210D01*
X105001123Y-50591887D01*
X104973754Y-50553162D01*
X104947957Y-50513210D01*
X104926323Y-50476205D01*
X104911444Y-50446322D01*
X104905908Y-50427735D01*
X104906243Y-50419128D01*
X104910191Y-50404227D01*
X104920670Y-50393938D01*
X104940269Y-50387650D01*
X104971579Y-50384749D01*
X105017187Y-50384624D01*
X105079682Y-50386664D01*
X105223408Y-50392505D01*
X105251092Y-50324546D01*
X105268032Y-50286563D01*
X105289690Y-50244109D01*
X105309707Y-50210305D01*
X105329702Y-50184100D01*
X105353395Y-50164922D01*
X105376738Y-50161340D01*
X105400832Y-50174004D01*
X105426778Y-50203564D01*
X105455676Y-50250670D01*
X105488627Y-50315973D01*
X105524959Y-50392676D01*
X105669333Y-50386750D01*
X105698985Y-50385617D01*
X105753976Y-50384424D01*
X105793188Y-50385654D01*
X105819191Y-50389894D01*
X105834557Y-50397732D01*
X105841857Y-50409753D01*
X105843663Y-50426546D01*
X105842175Y-50436776D01*
X105830219Y-50467543D01*
X105807740Y-50508366D01*
X105776486Y-50556236D01*
X105738203Y-50608143D01*
X105689047Y-50671264D01*
X105693368Y-50676709D01*
X105735866Y-50730259D01*
G37*
G36*
X104060110Y-46974815D02*
G01*
X104076929Y-46996257D01*
X104092035Y-47030298D01*
X104090549Y-47059469D01*
X104074129Y-47082972D01*
X104044433Y-47100008D01*
X104003119Y-47109778D01*
X103951844Y-47111486D01*
X103892266Y-47104332D01*
X103826043Y-47087519D01*
X103814929Y-47084011D01*
X103782354Y-47074348D01*
X103764236Y-47070720D01*
X103757412Y-47072783D01*
X103758716Y-47080192D01*
X103764273Y-47097342D01*
X103772242Y-47127250D01*
X103780833Y-47163261D01*
X103783707Y-47176430D01*
X103790042Y-47215556D01*
X103790199Y-47248425D01*
X103784463Y-47284561D01*
X103776752Y-47313489D01*
X103757265Y-47353900D01*
X103732607Y-47377530D01*
X103704590Y-47385070D01*
X103675028Y-47377214D01*
X103645733Y-47354651D01*
X103618518Y-47318074D01*
X103595194Y-47268173D01*
X103577576Y-47205641D01*
X103575815Y-47197126D01*
X103569530Y-47169582D01*
X103563993Y-47157346D01*
X103556586Y-47157285D01*
X103544695Y-47166267D01*
X103534179Y-47175320D01*
X103499200Y-47208187D01*
X103458042Y-47249705D01*
X103414802Y-47295479D01*
X103373573Y-47341116D01*
X103338449Y-47382220D01*
X103313523Y-47414397D01*
X103312870Y-47415325D01*
X103286500Y-47451089D01*
X103259497Y-47485105D01*
X103237608Y-47510125D01*
X103235622Y-47512180D01*
X103214035Y-47531656D01*
X103196042Y-47538940D01*
X103174108Y-47537251D01*
X103163735Y-47534702D01*
X103131318Y-47516258D01*
X103113018Y-47486113D01*
X103109692Y-47446536D01*
X103122198Y-47399798D01*
X103128992Y-47384750D01*
X103158433Y-47331923D01*
X103198593Y-47271749D01*
X103246348Y-47208241D01*
X103298574Y-47145412D01*
X103352148Y-47087275D01*
X103403945Y-47037844D01*
X103470742Y-46979254D01*
X103414575Y-46972030D01*
X103388723Y-46968105D01*
X103326094Y-46953073D01*
X103272866Y-46932449D01*
X103249151Y-46918619D01*
X103542502Y-46918619D01*
X103544303Y-46955429D01*
X103564957Y-46992969D01*
X103582407Y-47007604D01*
X103614894Y-47018056D01*
X103650174Y-47016456D01*
X103681755Y-47003431D01*
X103703145Y-46979609D01*
X103714665Y-46947244D01*
X103713740Y-46910489D01*
X103694323Y-46879251D01*
X103656057Y-46852569D01*
X103638720Y-46845083D01*
X103620890Y-46844932D01*
X103597201Y-46855207D01*
X103593061Y-46857439D01*
X103558955Y-46885102D01*
X103542502Y-46918619D01*
X103249151Y-46918619D01*
X103230410Y-46907690D01*
X103200095Y-46880254D01*
X103183289Y-46851600D01*
X103181361Y-46823185D01*
X103195682Y-46796468D01*
X103227619Y-46772907D01*
X103258363Y-46762979D01*
X103304996Y-46757825D01*
X103359413Y-46758687D01*
X103415977Y-46765448D01*
X103469051Y-46777988D01*
X103491121Y-46784634D01*
X103514280Y-46790203D01*
X103524319Y-46789470D01*
X103524470Y-46782713D01*
X103515610Y-46757507D01*
X103499520Y-46693963D01*
X103491366Y-46630934D01*
X103491273Y-46572697D01*
X103499367Y-46523528D01*
X103515775Y-46487705D01*
X103529378Y-46472648D01*
X103557307Y-46457808D01*
X103586589Y-46459817D01*
X103615677Y-46477148D01*
X103643025Y-46508270D01*
X103667088Y-46551654D01*
X103686317Y-46605770D01*
X103699169Y-46669090D01*
X103702585Y-46688704D01*
X103709050Y-46709262D01*
X103715646Y-46714505D01*
X103719667Y-46709225D01*
X103719096Y-46692813D01*
X103716849Y-46685055D01*
X103719738Y-46683711D01*
X103726456Y-46683124D01*
X103744244Y-46672720D01*
X103767732Y-46654078D01*
X103786785Y-46638356D01*
X103834889Y-46606632D01*
X103882836Y-46584869D01*
X103927231Y-46574051D01*
X103964680Y-46575161D01*
X103991787Y-46589182D01*
X103999635Y-46600627D01*
X104006387Y-46631625D01*
X104002581Y-46669623D01*
X103988389Y-46708547D01*
X103980028Y-46722509D01*
X103952581Y-46757690D01*
X103916804Y-46795263D01*
X103878239Y-46829655D01*
X103842426Y-46855295D01*
X103809599Y-46874844D01*
X103866849Y-46886658D01*
X103905943Y-46895613D01*
X103971887Y-46916682D01*
X104022414Y-46942690D01*
X104027758Y-46947244D01*
X104060110Y-46974815D01*
G37*
G36*
X99391108Y-48492099D02*
G01*
X99398045Y-48439061D01*
X99400893Y-48417797D01*
X99414961Y-48327950D01*
X99431108Y-48251609D01*
X99450728Y-48183798D01*
X99475215Y-48119543D01*
X99505961Y-48053869D01*
X99508585Y-48048724D01*
X99543454Y-47987704D01*
X99583785Y-47928099D01*
X99626839Y-47873169D01*
X99669879Y-47826177D01*
X99710169Y-47790385D01*
X99744971Y-47769054D01*
X99761833Y-47762893D01*
X99784013Y-47761114D01*
X99810468Y-47769603D01*
X99837216Y-47784371D01*
X99858369Y-47808593D01*
X99865936Y-47840672D01*
X99859893Y-47882132D01*
X99840216Y-47934495D01*
X99806882Y-47999284D01*
X99758286Y-48090460D01*
X99707302Y-48202566D01*
X99669737Y-48309954D01*
X99644443Y-48416733D01*
X99630267Y-48527015D01*
X99626058Y-48644907D01*
X99626181Y-48674591D01*
X99626905Y-48719232D01*
X99629109Y-48754176D01*
X99633780Y-48785052D01*
X99641904Y-48817492D01*
X99654469Y-48857126D01*
X99672462Y-48909585D01*
X99678494Y-48927148D01*
X99694215Y-48974400D01*
X99706896Y-49014674D01*
X99715364Y-49044161D01*
X99718446Y-49059051D01*
X99716407Y-49073340D01*
X99705463Y-49100391D01*
X99689153Y-49124020D01*
X99672175Y-49136378D01*
X99662462Y-49138696D01*
X99638330Y-49140820D01*
X99616863Y-49134231D01*
X99593179Y-49116687D01*
X99562399Y-49085947D01*
X99518952Y-49035615D01*
X99461633Y-48948242D01*
X99421146Y-48853115D01*
X99396023Y-48747242D01*
X99395964Y-48746871D01*
X99389967Y-48712423D01*
X99384446Y-48685854D01*
X99380589Y-48672890D01*
X99377746Y-48669951D01*
X99357831Y-48659715D01*
X99323119Y-48647523D01*
X99276946Y-48634227D01*
X99222648Y-48620679D01*
X99163563Y-48607730D01*
X99103024Y-48596233D01*
X99044370Y-48587040D01*
X99011130Y-48582461D01*
X98915296Y-48568864D01*
X98835427Y-48556653D01*
X98768891Y-48545198D01*
X98713053Y-48533864D01*
X98665281Y-48522022D01*
X98622941Y-48509037D01*
X98583399Y-48494280D01*
X98544023Y-48477117D01*
X98502177Y-48456916D01*
X98477343Y-48443643D01*
X98424856Y-48411336D01*
X98371302Y-48373840D01*
X98322933Y-48335656D01*
X98285998Y-48301281D01*
X98224798Y-48225432D01*
X98172987Y-48134777D01*
X98137890Y-48038580D01*
X98120411Y-47939379D01*
X98120775Y-47904656D01*
X98277117Y-47904656D01*
X98278813Y-47925318D01*
X98279267Y-47927894D01*
X98305718Y-48023569D01*
X98349106Y-48109577D01*
X98409365Y-48185868D01*
X98486426Y-48252394D01*
X98580221Y-48309105D01*
X98690682Y-48355952D01*
X98817742Y-48392885D01*
X98961331Y-48419855D01*
X98978900Y-48422388D01*
X99026698Y-48429184D01*
X99066302Y-48434674D01*
X99094001Y-48438349D01*
X99106081Y-48439701D01*
X99106311Y-48435876D01*
X99097439Y-48420819D01*
X99080432Y-48398234D01*
X99078439Y-48395740D01*
X99059050Y-48369799D01*
X99032737Y-48332664D01*
X99002702Y-48288921D01*
X98972148Y-48243155D01*
X98957963Y-48221837D01*
X98889638Y-48127087D01*
X98823305Y-48049261D01*
X98757118Y-47986567D01*
X98689227Y-47937212D01*
X98617785Y-47899403D01*
X98552690Y-47875354D01*
X98467255Y-47858686D01*
X98385803Y-47860233D01*
X98309658Y-47880075D01*
X98305275Y-47881835D01*
X98284438Y-47892362D01*
X98277117Y-47904656D01*
X98120775Y-47904656D01*
X98121456Y-47839713D01*
X98128348Y-47775353D01*
X98188263Y-47747051D01*
X98227915Y-47730861D01*
X98277285Y-47714489D01*
X98324417Y-47702038D01*
X98419173Y-47690494D01*
X98518544Y-47696711D01*
X98617740Y-47720497D01*
X98714803Y-47761030D01*
X98807778Y-47817487D01*
X98894709Y-47889048D01*
X98973640Y-47974889D01*
X99004287Y-48013139D01*
X99048677Y-47963767D01*
X99070461Y-47941236D01*
X99108704Y-47906341D01*
X99151888Y-47870815D01*
X99196202Y-47837484D01*
X99237834Y-47809178D01*
X99272972Y-47788723D01*
X99297804Y-47778948D01*
X99325777Y-47776683D01*
X99357838Y-47785487D01*
X99377608Y-47807138D01*
X99384334Y-47839669D01*
X99377261Y-47881116D01*
X99355633Y-47929513D01*
X99303235Y-48014026D01*
X99215776Y-48132023D01*
X99196351Y-48155938D01*
X99175854Y-48181381D01*
X99162875Y-48197746D01*
X99160815Y-48200639D01*
X99157390Y-48211247D01*
X99161129Y-48225518D01*
X99173626Y-48247385D01*
X99196471Y-48280784D01*
X99207817Y-48296160D01*
X99240813Y-48336796D01*
X99279309Y-48380287D01*
X99317123Y-48419522D01*
X99333794Y-48435876D01*
X99391108Y-48492099D01*
G37*
G36*
X105366894Y-47937210D02*
G01*
X105362161Y-47983746D01*
X105355953Y-48019677D01*
X105341413Y-48068934D01*
X105299665Y-48161003D01*
X105241105Y-48248449D01*
X105167486Y-48329194D01*
X105084858Y-48397605D01*
X105080562Y-48401162D01*
X104982087Y-48462277D01*
X104981207Y-48462744D01*
X104947599Y-48480107D01*
X104916333Y-48494876D01*
X104885000Y-48507645D01*
X104851190Y-48519011D01*
X104812495Y-48529570D01*
X104766504Y-48539919D01*
X104710809Y-48550654D01*
X104643001Y-48562371D01*
X104560671Y-48575666D01*
X104461408Y-48591136D01*
X104437777Y-48595134D01*
X104374295Y-48608184D01*
X104308247Y-48624308D01*
X104250627Y-48640910D01*
X104147307Y-48674095D01*
X104135815Y-48736466D01*
X104121388Y-48795617D01*
X104092224Y-48869728D01*
X104048722Y-48947754D01*
X104028574Y-48977101D01*
X103993524Y-49021054D01*
X103954786Y-49063682D01*
X103917054Y-49099912D01*
X103885023Y-49124671D01*
X103879945Y-49127768D01*
X103847234Y-49141186D01*
X103819121Y-49137705D01*
X103790308Y-49116887D01*
X103784412Y-49110907D01*
X103769619Y-49089305D01*
X103764419Y-49064430D01*
X103769163Y-49033064D01*
X103784203Y-48991989D01*
X103809891Y-48937984D01*
X103832727Y-48891691D01*
X103861397Y-48827260D01*
X103881625Y-48770040D01*
X103894938Y-48714496D01*
X103902864Y-48655092D01*
X103906929Y-48586292D01*
X103905317Y-48480229D01*
X103889238Y-48358627D01*
X103857152Y-48237695D01*
X103808337Y-48114815D01*
X103742074Y-47987370D01*
X103729575Y-47964749D01*
X103709433Y-47924019D01*
X103694527Y-47888264D01*
X103687411Y-47863284D01*
X103686015Y-47837921D01*
X103692951Y-47817667D01*
X103712087Y-47795456D01*
X103735392Y-47776358D01*
X103765499Y-47764935D01*
X103797750Y-47768433D01*
X103833818Y-47787478D01*
X103875377Y-47822697D01*
X103924100Y-47874715D01*
X103950517Y-47906664D01*
X104015888Y-48002502D01*
X104069494Y-48107051D01*
X104109753Y-48216292D01*
X104135081Y-48326204D01*
X104143895Y-48432770D01*
X104144052Y-48450096D01*
X104145936Y-48468705D01*
X104151627Y-48473784D01*
X104163175Y-48469207D01*
X104172137Y-48463012D01*
X104194003Y-48444721D01*
X104205257Y-48434571D01*
X104469617Y-48434571D01*
X104477928Y-48438473D01*
X104480085Y-48438242D01*
X104502336Y-48435261D01*
X104534899Y-48430337D01*
X104572835Y-48424287D01*
X104611207Y-48417926D01*
X104645078Y-48412071D01*
X104669510Y-48407537D01*
X104679565Y-48405142D01*
X104680308Y-48397605D01*
X104672128Y-48382504D01*
X104658945Y-48368051D01*
X104646365Y-48361600D01*
X104634842Y-48363659D01*
X104608886Y-48371570D01*
X104575435Y-48383509D01*
X104539695Y-48397430D01*
X104506870Y-48411287D01*
X104482164Y-48423034D01*
X104470781Y-48430625D01*
X104469617Y-48434571D01*
X104205257Y-48434571D01*
X104223695Y-48417941D01*
X104258438Y-48385385D01*
X104295454Y-48349767D01*
X104331966Y-48313801D01*
X104365199Y-48280200D01*
X104392374Y-48251677D01*
X104410716Y-48230948D01*
X104417446Y-48220724D01*
X104415429Y-48214899D01*
X104402850Y-48197214D01*
X104382564Y-48175458D01*
X104364818Y-48156573D01*
X104337745Y-48124540D01*
X104306462Y-48085275D01*
X104273747Y-48042491D01*
X104270629Y-48038257D01*
X104786976Y-48038257D01*
X104839545Y-48009785D01*
X104876859Y-47992375D01*
X104938733Y-47971337D01*
X105002703Y-47956897D01*
X105059773Y-47951436D01*
X105083669Y-47952537D01*
X105097988Y-47959089D01*
X105097941Y-47974736D01*
X105085300Y-48003066D01*
X105071928Y-48026742D01*
X105029431Y-48085624D01*
X104976617Y-48143045D01*
X104919042Y-48193334D01*
X104862260Y-48230818D01*
X104841202Y-48242150D01*
X104819706Y-48253892D01*
X104810239Y-48259310D01*
X104810027Y-48260688D01*
X104814316Y-48274221D01*
X104824260Y-48296890D01*
X104833222Y-48314195D01*
X104846402Y-48328557D01*
X104863728Y-48328610D01*
X104891254Y-48316087D01*
X104958596Y-48276465D01*
X105044496Y-48209915D01*
X105113782Y-48134304D01*
X105165956Y-48050210D01*
X105200516Y-47958211D01*
X105205388Y-47937364D01*
X105206793Y-47908669D01*
X105196335Y-47889275D01*
X105171462Y-47875824D01*
X105129620Y-47864955D01*
X105058369Y-47857781D01*
X104973740Y-47866281D01*
X104886370Y-47891840D01*
X104859141Y-47902806D01*
X104828473Y-47918253D01*
X104810037Y-47934787D01*
X104799854Y-47956536D01*
X104793939Y-47987627D01*
X104786976Y-48038257D01*
X104270629Y-48038257D01*
X104242380Y-47999902D01*
X104215140Y-47961218D01*
X104194807Y-47930155D01*
X104184161Y-47910423D01*
X104180485Y-47888180D01*
X104190989Y-47867707D01*
X104216733Y-47856561D01*
X104256064Y-47855992D01*
X104267695Y-47858124D01*
X104303093Y-47869097D01*
X104347885Y-47886881D01*
X104397019Y-47909240D01*
X104445442Y-47933937D01*
X104488102Y-47958735D01*
X104514796Y-47975624D01*
X104595564Y-47895606D01*
X104598107Y-47893095D01*
X104683409Y-47818422D01*
X104769700Y-47762216D01*
X104859261Y-47723481D01*
X104954377Y-47701223D01*
X105057331Y-47694447D01*
X105120349Y-47698071D01*
X105188592Y-47708712D01*
X105251605Y-47725111D01*
X105304654Y-47746012D01*
X105343001Y-47770160D01*
X105354617Y-47780986D01*
X105363097Y-47793493D01*
X105367604Y-47810844D01*
X105369317Y-47837935D01*
X105369419Y-47879664D01*
X105369293Y-47888990D01*
X105368314Y-47908669D01*
X105366894Y-47937210D01*
G37*
G36*
X105775155Y-48509476D02*
G01*
X105773651Y-48534442D01*
X105764305Y-48566139D01*
X105743620Y-48601581D01*
X105741568Y-48604589D01*
X105709897Y-48645305D01*
X105678788Y-48671168D01*
X105642702Y-48685567D01*
X105596102Y-48691893D01*
X105560193Y-48692784D01*
X105526826Y-48688421D01*
X105497322Y-48676871D01*
X105460367Y-48657912D01*
X105374055Y-48695124D01*
X105359297Y-48701379D01*
X105311718Y-48720430D01*
X105265448Y-48737560D01*
X105228723Y-48749679D01*
X105200688Y-48758627D01*
X105178285Y-48767333D01*
X105169691Y-48772900D01*
X105169715Y-48773092D01*
X105179716Y-48778809D01*
X105206000Y-48787620D01*
X105245841Y-48798761D01*
X105296514Y-48811467D01*
X105355293Y-48824973D01*
X105372582Y-48828446D01*
X105417603Y-48835913D01*
X105469906Y-48843125D01*
X105521370Y-48848912D01*
X105566029Y-48853612D01*
X105598440Y-48858468D01*
X105619698Y-48864389D01*
X105634096Y-48872596D01*
X105645927Y-48884309D01*
X105662963Y-48914817D01*
X105666493Y-48953772D01*
X105652787Y-48991057D01*
X105643196Y-49001570D01*
X105618016Y-49020198D01*
X105586845Y-49037117D01*
X105575366Y-49042129D01*
X105553228Y-49050104D01*
X105529528Y-49055319D01*
X105499776Y-49058337D01*
X105459477Y-49059724D01*
X105404139Y-49060043D01*
X105349870Y-49059320D01*
X105287667Y-49055548D01*
X105231894Y-49047432D01*
X105176646Y-49033736D01*
X105116019Y-49013222D01*
X105044107Y-48984656D01*
X104970957Y-48954500D01*
X104912535Y-48931093D01*
X104866257Y-48913703D01*
X104829219Y-48901465D01*
X104798518Y-48893514D01*
X104771251Y-48888986D01*
X104744516Y-48887015D01*
X104715408Y-48886737D01*
X104694439Y-48887354D01*
X104632367Y-48893793D01*
X104578667Y-48905957D01*
X104520080Y-48924477D01*
X104627513Y-48980463D01*
X104634734Y-48984244D01*
X104724910Y-49035033D01*
X104808661Y-49089764D01*
X104890176Y-49151597D01*
X104973643Y-49223694D01*
X105063252Y-49309215D01*
X105090249Y-49336090D01*
X105145761Y-49392401D01*
X105188837Y-49438149D01*
X105220896Y-49475167D01*
X105243359Y-49505286D01*
X105257645Y-49530340D01*
X105265175Y-49552162D01*
X105267370Y-49572583D01*
X105267199Y-49580594D01*
X105260054Y-49614417D01*
X105240000Y-49638311D01*
X105203740Y-49656631D01*
X105198972Y-49658309D01*
X105174370Y-49664168D01*
X105141873Y-49667394D01*
X105097630Y-49668227D01*
X105037793Y-49666904D01*
X105002604Y-49665280D01*
X104910573Y-49656144D01*
X104822413Y-49639229D01*
X104734548Y-49613364D01*
X104643405Y-49577380D01*
X104545409Y-49530108D01*
X104436985Y-49470380D01*
X104374421Y-49434415D01*
X104308447Y-49397648D01*
X104254730Y-49370252D01*
X104210740Y-49351878D01*
X104173948Y-49342180D01*
X104141822Y-49340810D01*
X104111832Y-49347421D01*
X104081450Y-49361664D01*
X104048143Y-49383194D01*
X104009382Y-49411661D01*
X103980432Y-49432033D01*
X103944689Y-49450580D01*
X103917017Y-49453981D01*
X103894927Y-49442309D01*
X103875929Y-49415639D01*
X103864465Y-49390840D01*
X103862782Y-49371638D01*
X103870335Y-49348376D01*
X103871292Y-49346243D01*
X103884749Y-49324934D01*
X103907708Y-49295387D01*
X103937418Y-49260509D01*
X103971128Y-49223207D01*
X104006090Y-49186387D01*
X104039551Y-49152957D01*
X104068761Y-49125821D01*
X104090970Y-49107887D01*
X104103428Y-49102062D01*
X104120203Y-49107853D01*
X104151172Y-49121396D01*
X104192702Y-49140955D01*
X104241444Y-49164838D01*
X104294047Y-49191358D01*
X104347161Y-49218823D01*
X104397435Y-49245545D01*
X104441518Y-49269833D01*
X104476062Y-49289998D01*
X104509576Y-49310015D01*
X104571963Y-49345198D01*
X104636086Y-49379145D01*
X104697385Y-49409547D01*
X104751302Y-49434100D01*
X104793278Y-49450495D01*
X104820454Y-49459114D01*
X104868999Y-49472663D01*
X104916282Y-49483931D01*
X104956553Y-49491595D01*
X104984062Y-49494335D01*
X105008485Y-49494128D01*
X104979177Y-49469528D01*
X104850472Y-49366770D01*
X104667419Y-49238482D01*
X104482406Y-49129541D01*
X104295331Y-49039883D01*
X104253746Y-49021598D01*
X104217801Y-49004637D01*
X104192316Y-48991311D01*
X104181101Y-48983500D01*
X104179122Y-48979219D01*
X104180657Y-48967933D01*
X104192544Y-48953090D01*
X104216874Y-48932456D01*
X104255741Y-48903796D01*
X104258732Y-48901666D01*
X104329788Y-48853690D01*
X104396766Y-48814630D01*
X104463599Y-48783054D01*
X104534225Y-48757532D01*
X104612580Y-48736634D01*
X104702598Y-48718930D01*
X104808216Y-48702987D01*
X104857618Y-48695339D01*
X105003403Y-48662563D01*
X105153225Y-48614543D01*
X105302897Y-48552551D01*
X105382294Y-48515824D01*
X105382650Y-48512668D01*
X105544004Y-48512668D01*
X105562620Y-48532007D01*
X105582239Y-48544285D01*
X105594761Y-48545386D01*
X105607339Y-48535492D01*
X105613076Y-48528557D01*
X105620004Y-48506319D01*
X105614539Y-48485242D01*
X105600266Y-48469897D01*
X105580769Y-48464854D01*
X105559634Y-48474681D01*
X105544650Y-48492871D01*
X105544004Y-48512668D01*
X105382650Y-48512668D01*
X105387214Y-48472174D01*
X105387336Y-48471134D01*
X105402373Y-48422937D01*
X105432854Y-48379694D01*
X105474831Y-48344710D01*
X105524357Y-48321294D01*
X105577484Y-48312754D01*
X105591890Y-48313229D01*
X105651080Y-48326043D01*
X105701455Y-48354517D01*
X105740561Y-48396208D01*
X105765946Y-48448675D01*
X105774677Y-48506319D01*
X105775155Y-48509476D01*
G37*
G36*
X98132990Y-48515923D02*
G01*
X98156636Y-48531964D01*
X98194845Y-48551489D01*
X98245374Y-48573459D01*
X98305981Y-48596836D01*
X98374423Y-48620581D01*
X98382139Y-48623118D01*
X98453978Y-48646108D01*
X98515344Y-48664106D01*
X98572218Y-48678506D01*
X98630583Y-48690702D01*
X98696421Y-48702086D01*
X98775716Y-48714054D01*
X98806984Y-48718802D01*
X98906371Y-48737809D01*
X98991225Y-48761170D01*
X99065285Y-48790056D01*
X99132289Y-48825636D01*
X99133672Y-48826472D01*
X99164097Y-48842940D01*
X99188632Y-48852848D01*
X99202080Y-48854079D01*
X99207108Y-48851770D01*
X99207336Y-48856959D01*
X99207016Y-48858137D01*
X99213834Y-48870160D01*
X99232474Y-48889368D01*
X99259558Y-48912189D01*
X99276214Y-48925302D01*
X99303024Y-48948821D01*
X99315949Y-48967196D01*
X99314072Y-48982726D01*
X99296475Y-48997712D01*
X99262239Y-49014456D01*
X99210446Y-49035258D01*
X99133750Y-49067921D01*
X99030680Y-49119006D01*
X98922523Y-49179379D01*
X98813790Y-49246241D01*
X98708995Y-49316793D01*
X98612647Y-49388238D01*
X98529261Y-49457775D01*
X98508828Y-49476530D01*
X98498086Y-49488702D01*
X98499514Y-49493800D01*
X98511684Y-49494830D01*
X98527820Y-49494378D01*
X98588202Y-49485759D01*
X98657143Y-49465782D01*
X98736029Y-49433907D01*
X98826247Y-49389593D01*
X98929186Y-49332301D01*
X98951428Y-49319483D01*
X99007443Y-49288132D01*
X99069198Y-49254596D01*
X99133437Y-49220551D01*
X99196903Y-49187672D01*
X99256343Y-49157635D01*
X99308500Y-49132116D01*
X99350120Y-49112789D01*
X99377945Y-49101331D01*
X99380674Y-49101023D01*
X99398104Y-49109750D01*
X99425851Y-49133852D01*
X99463337Y-49172738D01*
X99509982Y-49225817D01*
X99565207Y-49292499D01*
X99595298Y-49335665D01*
X99610653Y-49374906D01*
X99608693Y-49407932D01*
X99589604Y-49435834D01*
X99583030Y-49441484D01*
X99560048Y-49453057D01*
X99533764Y-49452155D01*
X99500874Y-49438139D01*
X99458076Y-49410368D01*
X99424113Y-49386849D01*
X99390659Y-49366743D01*
X99359624Y-49353536D01*
X99328628Y-49347650D01*
X99295290Y-49349506D01*
X99257230Y-49359526D01*
X99212069Y-49378131D01*
X99157427Y-49405742D01*
X99090923Y-49442780D01*
X99010177Y-49489668D01*
X98956497Y-49520274D01*
X98853513Y-49573255D01*
X98758632Y-49613426D01*
X98668642Y-49642062D01*
X98580331Y-49660440D01*
X98579383Y-49660584D01*
X98546045Y-49663827D01*
X98499462Y-49666086D01*
X98445676Y-49667156D01*
X98390732Y-49666834D01*
X98376506Y-49666542D01*
X98327739Y-49665314D01*
X98294012Y-49663566D01*
X98271693Y-49660609D01*
X98257150Y-49655752D01*
X98246752Y-49648303D01*
X98236867Y-49637573D01*
X98220885Y-49610697D01*
X98214489Y-49570493D01*
X98225199Y-49530823D01*
X98235981Y-49514072D01*
X98261528Y-49481729D01*
X98297191Y-49440932D01*
X98340399Y-49394322D01*
X98388581Y-49344543D01*
X98439166Y-49294236D01*
X98489583Y-49246044D01*
X98537261Y-49202610D01*
X98579629Y-49166574D01*
X98606367Y-49145797D01*
X98653660Y-49111843D01*
X98706362Y-49076555D01*
X98761425Y-49041740D01*
X98815799Y-49009205D01*
X98866436Y-48980755D01*
X98910287Y-48958198D01*
X98944305Y-48943339D01*
X98965439Y-48937984D01*
X98968413Y-48937647D01*
X98975985Y-48929699D01*
X98974358Y-48926597D01*
X98958870Y-48917475D01*
X98930857Y-48907096D01*
X98895068Y-48896883D01*
X98856252Y-48888262D01*
X98819158Y-48882658D01*
X98806531Y-48881535D01*
X98772011Y-48880936D01*
X98736214Y-48884752D01*
X98695886Y-48893819D01*
X98647774Y-48908975D01*
X98588624Y-48931058D01*
X98515185Y-48960905D01*
X98489242Y-48971512D01*
X98429262Y-48994783D01*
X98370196Y-49016206D01*
X98317698Y-49033769D01*
X98277423Y-49045461D01*
X98261790Y-49049145D01*
X98190628Y-49060700D01*
X98118388Y-49064916D01*
X98048409Y-49062225D01*
X97984030Y-49053061D01*
X97928588Y-49037856D01*
X97885424Y-49017044D01*
X97857875Y-48991057D01*
X97849216Y-48972601D01*
X97843477Y-48944314D01*
X97844666Y-48918696D01*
X97853189Y-48903380D01*
X97857680Y-48897812D01*
X97857558Y-48881121D01*
X97855226Y-48873309D01*
X97857689Y-48871508D01*
X97858993Y-48872282D01*
X97873809Y-48871406D01*
X97896968Y-48863884D01*
X97897721Y-48863573D01*
X97931706Y-48854010D01*
X97966998Y-48850030D01*
X97984476Y-48849336D01*
X98022713Y-48845349D01*
X98068799Y-48838467D01*
X98119340Y-48829432D01*
X98170944Y-48818985D01*
X98220215Y-48807869D01*
X98263761Y-48796825D01*
X98298187Y-48786595D01*
X98320100Y-48777921D01*
X98326106Y-48771544D01*
X98315941Y-48764843D01*
X98294908Y-48757595D01*
X98276620Y-48751817D01*
X98244225Y-48740255D01*
X98202848Y-48724736D01*
X98157157Y-48706976D01*
X98155724Y-48706409D01*
X98109535Y-48688299D01*
X98077465Y-48676629D01*
X98055573Y-48670656D01*
X98039919Y-48669634D01*
X98026563Y-48672819D01*
X98011564Y-48679466D01*
X98005873Y-48681952D01*
X97961568Y-48692110D01*
X97910561Y-48692245D01*
X97861005Y-48682981D01*
X97821051Y-48664938D01*
X97811534Y-48658032D01*
X97770441Y-48616025D01*
X97744254Y-48566921D01*
X97732863Y-48514188D01*
X97891689Y-48514188D01*
X97903323Y-48535492D01*
X97913610Y-48543418D01*
X97933962Y-48544745D01*
X97953809Y-48526555D01*
X97962087Y-48510123D01*
X97959872Y-48486910D01*
X97938673Y-48468112D01*
X97920868Y-48464326D01*
X97903301Y-48473194D01*
X97892628Y-48491618D01*
X97891689Y-48514188D01*
X97732863Y-48514188D01*
X97732853Y-48514143D01*
X97736117Y-48461112D01*
X97753925Y-48411251D01*
X97786157Y-48367985D01*
X97832692Y-48334734D01*
X97855991Y-48324757D01*
X97914413Y-48313603D01*
X97972694Y-48320292D01*
X98027208Y-48344079D01*
X98074324Y-48384222D01*
X98078299Y-48388947D01*
X98102181Y-48426317D01*
X98119347Y-48468150D01*
X98126007Y-48505555D01*
X98129084Y-48510123D01*
X98132990Y-48515923D01*
G37*
G36*
X100921574Y-46978561D02*
G01*
X100944467Y-46981330D01*
X100981302Y-46985325D01*
X101021109Y-46989300D01*
X101021210Y-46989310D01*
X101135152Y-47009309D01*
X101249484Y-47046856D01*
X101360410Y-47100415D01*
X101464135Y-47168451D01*
X101497390Y-47194389D01*
X101546823Y-47237410D01*
X101590745Y-47282965D01*
X101633818Y-47336078D01*
X101680704Y-47401772D01*
X101696671Y-47424708D01*
X101718407Y-47454433D01*
X101734664Y-47474807D01*
X101742776Y-47482368D01*
X101750191Y-47476992D01*
X101761419Y-47460388D01*
X101763838Y-47456156D01*
X101777934Y-47434441D01*
X101799103Y-47403998D01*
X101823760Y-47370023D01*
X101865486Y-47317425D01*
X101960467Y-47220054D01*
X102066224Y-47138466D01*
X102181635Y-47073147D01*
X102305575Y-47024581D01*
X102436920Y-46993253D01*
X102574549Y-46979649D01*
X102717336Y-46984253D01*
X102797332Y-46993753D01*
X102864970Y-47006342D01*
X102913330Y-47021363D01*
X102942373Y-47038802D01*
X102952062Y-47058649D01*
X102949457Y-47068286D01*
X102939569Y-47092851D01*
X102924024Y-47127278D01*
X102904659Y-47167357D01*
X102880996Y-47217092D01*
X102852942Y-47283030D01*
X102825447Y-47356379D01*
X102797059Y-47441058D01*
X102766327Y-47540984D01*
X102757664Y-47570055D01*
X102737623Y-47636637D01*
X102721348Y-47689128D01*
X102707642Y-47730942D01*
X102695309Y-47765490D01*
X102683150Y-47796188D01*
X102669971Y-47826447D01*
X102654573Y-47859682D01*
X102625686Y-47917609D01*
X102579799Y-47995260D01*
X102529785Y-48061899D01*
X102472072Y-48122674D01*
X102417857Y-48171869D01*
X102368811Y-48210171D01*
X102319454Y-48240721D01*
X102263571Y-48267361D01*
X102194946Y-48293930D01*
X102182399Y-48298394D01*
X102146188Y-48310547D01*
X102117662Y-48319066D01*
X102102122Y-48322330D01*
X102091919Y-48316082D01*
X102076527Y-48297501D01*
X102060739Y-48272645D01*
X102048436Y-48247699D01*
X102043496Y-48228850D01*
X102043831Y-48227683D01*
X102053647Y-48215307D01*
X102075024Y-48193564D01*
X102105213Y-48165153D01*
X102141460Y-48132773D01*
X102178000Y-48099753D01*
X102249175Y-48028438D01*
X102311103Y-47956766D01*
X102359684Y-47889313D01*
X102377335Y-47861526D01*
X102354525Y-47868123D01*
X102339181Y-47872905D01*
X102262410Y-47905886D01*
X102182468Y-47953869D01*
X102103060Y-48014392D01*
X102027892Y-48084995D01*
X102025217Y-48087759D01*
X101998937Y-48112625D01*
X101976422Y-48130227D01*
X101962293Y-48136907D01*
X101949660Y-48134163D01*
X101935078Y-48117305D01*
X101929284Y-48087003D01*
X101931680Y-48045477D01*
X101941666Y-47994945D01*
X101958642Y-47937626D01*
X101982008Y-47875739D01*
X102011165Y-47811503D01*
X102045513Y-47747136D01*
X102084453Y-47684857D01*
X102089001Y-47678313D01*
X102120601Y-47637801D01*
X102161715Y-47590902D01*
X102209199Y-47540672D01*
X102259908Y-47490171D01*
X102310699Y-47442458D01*
X102358428Y-47400591D01*
X102399951Y-47367628D01*
X102432124Y-47346628D01*
X102445315Y-47335976D01*
X102447711Y-47324062D01*
X102445706Y-47319619D01*
X102451123Y-47319503D01*
X102453796Y-47319651D01*
X102469975Y-47313572D01*
X102495711Y-47300396D01*
X102526235Y-47282921D01*
X102556782Y-47263949D01*
X102582584Y-47246279D01*
X102598874Y-47232712D01*
X102599182Y-47232327D01*
X102593371Y-47229665D01*
X102572956Y-47230231D01*
X102542144Y-47233492D01*
X102505143Y-47238917D01*
X102466161Y-47245973D01*
X102429408Y-47254130D01*
X102406477Y-47260823D01*
X102361493Y-47277195D01*
X102311641Y-47298160D01*
X102262783Y-47321058D01*
X102220780Y-47343231D01*
X102191496Y-47362020D01*
X102158869Y-47387825D01*
X102064715Y-47470973D01*
X101985964Y-47556454D01*
X101919621Y-47648253D01*
X101862690Y-47750358D01*
X101812174Y-47866755D01*
X101792131Y-47917177D01*
X101776296Y-47953064D01*
X101763800Y-47975507D01*
X101753205Y-47987083D01*
X101743068Y-47990369D01*
X101742503Y-47990349D01*
X101727923Y-47980796D01*
X101710413Y-47956378D01*
X101692235Y-47920865D01*
X101675649Y-47878023D01*
X101648240Y-47805324D01*
X101600943Y-47708415D01*
X101539185Y-47607538D01*
X101523138Y-47584236D01*
X101440648Y-47483519D01*
X101347633Y-47398400D01*
X101245122Y-47329595D01*
X101134143Y-47277816D01*
X101015724Y-47243780D01*
X100991046Y-47238812D01*
X100945185Y-47230552D01*
X100917416Y-47227925D01*
X100907126Y-47231576D01*
X100913703Y-47242149D01*
X100936533Y-47260288D01*
X100975005Y-47286640D01*
X100979558Y-47289680D01*
X101085624Y-47366469D01*
X101185517Y-47449945D01*
X101276084Y-47537087D01*
X101354176Y-47624871D01*
X101416642Y-47710277D01*
X101423999Y-47721962D01*
X101457012Y-47780750D01*
X101487808Y-47845161D01*
X101514700Y-47910795D01*
X101535998Y-47973252D01*
X101550014Y-48028132D01*
X101555062Y-48071037D01*
X101553584Y-48097271D01*
X101546469Y-48115181D01*
X101530584Y-48127167D01*
X101523400Y-48130694D01*
X101512870Y-48132893D01*
X101500948Y-48129083D01*
X101484507Y-48117332D01*
X101460421Y-48095709D01*
X101425565Y-48062283D01*
X101397932Y-48035927D01*
X101362512Y-48003203D01*
X101331947Y-47976092D01*
X101310746Y-47958664D01*
X101304588Y-47954450D01*
X101280790Y-47940679D01*
X101248499Y-47923935D01*
X101212020Y-47906218D01*
X101175656Y-47889525D01*
X101143711Y-47875856D01*
X101120490Y-47867209D01*
X101110297Y-47865583D01*
X101110549Y-47867041D01*
X101117686Y-47880645D01*
X101132463Y-47905162D01*
X101152531Y-47936638D01*
X101172976Y-47965321D01*
X101208034Y-48008352D01*
X101249060Y-48054021D01*
X101292490Y-48098696D01*
X101334757Y-48138743D01*
X101372298Y-48170528D01*
X101401546Y-48190417D01*
X101402939Y-48191163D01*
X101425864Y-48206357D01*
X101434987Y-48222773D01*
X101431029Y-48245233D01*
X101414709Y-48278561D01*
X101412818Y-48281962D01*
X101397689Y-48304850D01*
X101382667Y-48314711D01*
X101361216Y-48316138D01*
X101337542Y-48311317D01*
X101299486Y-48297849D01*
X101253365Y-48277931D01*
X101203594Y-48253723D01*
X101154587Y-48227383D01*
X101110760Y-48201069D01*
X101076527Y-48176940D01*
X101050780Y-48155723D01*
X100989770Y-48098622D01*
X100936112Y-48036690D01*
X100888408Y-47967480D01*
X100845260Y-47888547D01*
X100805269Y-47797443D01*
X100767039Y-47691722D01*
X100729171Y-47568937D01*
X100708333Y-47497700D01*
X100686674Y-47426889D01*
X100666962Y-47367317D01*
X100647644Y-47314800D01*
X100627166Y-47265153D01*
X100603975Y-47214192D01*
X100576518Y-47157733D01*
X100560969Y-47125891D01*
X100544581Y-47090874D01*
X100533417Y-47065223D01*
X100529293Y-47052964D01*
X100533769Y-47044801D01*
X100553802Y-47031388D01*
X100586322Y-47017643D01*
X100627376Y-47005479D01*
X100656980Y-46999664D01*
X100701290Y-46993248D01*
X100752510Y-46987351D01*
X100805394Y-46982454D01*
X100854697Y-46979037D01*
X100895172Y-46977579D01*
X100921574Y-46978561D01*
G37*
G36*
X102788167Y-48656092D02*
G01*
X102746864Y-48773811D01*
X102694922Y-48882437D01*
X102630202Y-48987027D01*
X102579868Y-49060093D01*
X102616878Y-49089404D01*
X102618166Y-49090460D01*
X102652964Y-49118983D01*
X102739947Y-49198782D01*
X102802563Y-49265959D01*
X102818115Y-49282644D01*
X102882588Y-49365503D01*
X102897683Y-49382527D01*
X102912252Y-49390687D01*
X102920635Y-49387139D01*
X102918647Y-49371219D01*
X102917206Y-49364561D01*
X102922841Y-49363000D01*
X102932086Y-49361186D01*
X102951596Y-49348771D01*
X102975909Y-49328242D01*
X103019345Y-49287531D01*
X102971994Y-49225752D01*
X102945244Y-49186907D01*
X102920512Y-49144268D01*
X102903213Y-49107152D01*
X102897724Y-49091170D01*
X102884439Y-49017771D01*
X102884898Y-49006894D01*
X103110748Y-49006894D01*
X103123996Y-49051580D01*
X103143293Y-49089864D01*
X103169825Y-49119968D01*
X103208115Y-49144178D01*
X103210167Y-49145208D01*
X103261099Y-49160924D01*
X103311268Y-49159837D01*
X103357993Y-49144322D01*
X103398590Y-49116755D01*
X103430378Y-49079511D01*
X103450675Y-49034964D01*
X103456799Y-48985491D01*
X103446067Y-48933465D01*
X103423324Y-48891299D01*
X103386502Y-48854355D01*
X103342029Y-48830991D01*
X103293395Y-48821331D01*
X103244090Y-48825498D01*
X103197605Y-48843616D01*
X103157432Y-48875808D01*
X103127059Y-48922196D01*
X103111949Y-48966028D01*
X103110748Y-49006894D01*
X102884898Y-49006894D01*
X102887665Y-48941366D01*
X102906018Y-48865264D01*
X102938110Y-48792774D01*
X102982555Y-48727207D01*
X103037969Y-48671872D01*
X103102965Y-48630080D01*
X103128474Y-48618794D01*
X103210057Y-48596145D01*
X103296076Y-48590251D01*
X103382298Y-48601126D01*
X103464486Y-48628786D01*
X103473606Y-48633121D01*
X103540682Y-48676334D01*
X103595410Y-48732098D01*
X103637245Y-48797677D01*
X103665645Y-48870340D01*
X103680064Y-48947353D01*
X103680013Y-48985491D01*
X103679958Y-49025983D01*
X103664782Y-49103496D01*
X103633994Y-49177159D01*
X103587047Y-49244239D01*
X103572537Y-49261134D01*
X103562499Y-49276047D01*
X103563252Y-49285312D01*
X103573396Y-49294044D01*
X103653161Y-49358801D01*
X103716096Y-49429306D01*
X103763499Y-49507710D01*
X103797285Y-49596598D01*
X103806207Y-49641514D01*
X103810547Y-49705676D01*
X103810107Y-49719523D01*
X103808353Y-49774660D01*
X103799911Y-49841190D01*
X103785504Y-49897990D01*
X103765819Y-49954343D01*
X103786345Y-49958871D01*
X103797288Y-49959961D01*
X103826169Y-49961381D01*
X103869361Y-49962813D01*
X103923983Y-49964176D01*
X103987151Y-49965391D01*
X104055985Y-49966378D01*
X104086778Y-49966753D01*
X104156868Y-49967751D01*
X104211341Y-49968939D01*
X104253050Y-49970572D01*
X104284849Y-49972903D01*
X104309591Y-49976186D01*
X104330131Y-49980673D01*
X104349322Y-49986620D01*
X104370017Y-49994278D01*
X104414961Y-50014434D01*
X104488793Y-50061275D01*
X104552857Y-50119786D01*
X104603937Y-50186796D01*
X104638815Y-50259136D01*
X104638984Y-50259623D01*
X104653446Y-50323751D01*
X104656308Y-50390187D01*
X104656461Y-50393750D01*
X104648299Y-50462199D01*
X104629232Y-50521677D01*
X104624955Y-50530487D01*
X104585786Y-50590225D01*
X104534776Y-50641284D01*
X104475735Y-50681024D01*
X104412474Y-50706804D01*
X104348803Y-50715984D01*
X104322367Y-50720299D01*
X104298806Y-50732483D01*
X104285163Y-50748861D01*
X104286114Y-50765724D01*
X104288842Y-50771922D01*
X104281971Y-50770515D01*
X104275939Y-50770693D01*
X104262444Y-50785826D01*
X104245037Y-50818978D01*
X104237900Y-50835143D01*
X104226844Y-50867434D01*
X104222883Y-50898823D01*
X104224282Y-50939361D01*
X104226771Y-50963114D01*
X104232939Y-50993994D01*
X104243546Y-51026895D01*
X104259859Y-51064673D01*
X104261165Y-51067226D01*
X104283144Y-51110186D01*
X104314665Y-51166288D01*
X104355691Y-51235837D01*
X104365997Y-51253216D01*
X104454585Y-51418489D01*
X104497875Y-51519504D01*
X104525379Y-51583684D01*
X104579568Y-51752440D01*
X104604349Y-51864898D01*
X104618340Y-51928393D01*
X104642882Y-52115180D01*
X104645110Y-52142377D01*
X104646504Y-52221390D01*
X104647909Y-52300978D01*
X104638628Y-52415350D01*
X104634528Y-52465873D01*
X104605587Y-52634092D01*
X104596270Y-52669885D01*
X104561705Y-52802665D01*
X104503501Y-52968619D01*
X104466539Y-53051050D01*
X104431594Y-53128984D01*
X104425345Y-53141182D01*
X104400780Y-53186302D01*
X104370755Y-53238491D01*
X104338209Y-53292893D01*
X104306084Y-53344652D01*
X104277320Y-53388911D01*
X104254861Y-53420813D01*
X104242246Y-53438765D01*
X104230253Y-53460344D01*
X104227834Y-53472343D01*
X104229196Y-53475230D01*
X104224842Y-53478476D01*
X104224568Y-53478437D01*
X104214636Y-53485419D01*
X104195214Y-53504543D01*
X104168986Y-53533023D01*
X104138635Y-53568068D01*
X104049802Y-53665471D01*
X103923659Y-53783121D01*
X103785790Y-53891837D01*
X103640420Y-53988346D01*
X103532281Y-54047292D01*
X103491772Y-54069373D01*
X103479701Y-54075243D01*
X103430539Y-54100000D01*
X103394705Y-54120784D01*
X103368451Y-54140908D01*
X103348034Y-54163686D01*
X103329708Y-54192434D01*
X103309727Y-54230465D01*
X103283887Y-54281754D01*
X103595917Y-54281754D01*
X103907947Y-54281754D01*
X103938005Y-54307045D01*
X103959679Y-54331097D01*
X103968062Y-54360316D01*
X103964396Y-54390369D01*
X103949357Y-54424598D01*
X103925428Y-54446174D01*
X103925218Y-54446252D01*
X103911973Y-54447352D01*
X103880348Y-54448397D01*
X103831425Y-54449387D01*
X103766285Y-54450321D01*
X103686013Y-54451199D01*
X103591689Y-54452021D01*
X103484397Y-54452786D01*
X103365219Y-54453494D01*
X103235237Y-54454144D01*
X103095534Y-54454735D01*
X102947191Y-54455268D01*
X102791292Y-54455741D01*
X102628919Y-54456155D01*
X102461154Y-54456508D01*
X102289080Y-54456800D01*
X102113779Y-54457032D01*
X101936333Y-54457201D01*
X101757825Y-54457309D01*
X101579337Y-54457354D01*
X101401951Y-54457336D01*
X101226751Y-54457254D01*
X101054818Y-54457108D01*
X100887235Y-54456897D01*
X100725084Y-54456622D01*
X100569447Y-54456281D01*
X100421407Y-54455874D01*
X100282047Y-54455401D01*
X100152449Y-54454861D01*
X100033694Y-54454253D01*
X99926867Y-54453578D01*
X99833048Y-54452834D01*
X99753320Y-54452022D01*
X99688767Y-54451140D01*
X99640469Y-54450188D01*
X99609510Y-54449166D01*
X99596972Y-54448074D01*
X99582533Y-54440108D01*
X99558755Y-54415407D01*
X99543132Y-54384382D01*
X99540282Y-54354644D01*
X99541037Y-54351591D01*
X99553403Y-54328441D01*
X99573817Y-54306069D01*
X99602715Y-54281754D01*
X99905096Y-54281754D01*
X100207478Y-54281754D01*
X100168259Y-54205580D01*
X100129040Y-54129406D01*
X100111330Y-54120561D01*
X100460908Y-54120561D01*
X100465793Y-54125446D01*
X100470677Y-54120561D01*
X100465793Y-54115677D01*
X100460908Y-54120561D01*
X100111330Y-54120561D01*
X99999455Y-54064686D01*
X99984862Y-54056963D01*
X100866271Y-54056963D01*
X100873278Y-54063474D01*
X100893984Y-54079102D01*
X100924563Y-54100599D01*
X100954252Y-54120561D01*
X100961371Y-54125348D01*
X101050493Y-54184061D01*
X102019620Y-54184061D01*
X102142886Y-54184040D01*
X102292563Y-54183936D01*
X102424497Y-54183733D01*
X102539720Y-54183418D01*
X102639261Y-54182978D01*
X102724151Y-54182398D01*
X102795421Y-54181665D01*
X102854100Y-54180766D01*
X102901221Y-54179686D01*
X102937812Y-54178412D01*
X102964905Y-54176931D01*
X102983530Y-54175229D01*
X102994718Y-54173292D01*
X102999498Y-54171106D01*
X103006774Y-54159666D01*
X103020003Y-54134331D01*
X103034763Y-54102722D01*
X103059277Y-54047292D01*
X101959785Y-54047292D01*
X101808593Y-54047344D01*
X101630481Y-54047561D01*
X101470631Y-54047948D01*
X101329184Y-54048501D01*
X101206283Y-54049221D01*
X101102069Y-54050106D01*
X101016685Y-54051155D01*
X100950271Y-54052367D01*
X100902969Y-54053739D01*
X100874922Y-54055272D01*
X100866271Y-54056963D01*
X99984862Y-54056963D01*
X99903929Y-54014130D01*
X99736445Y-53910186D01*
X99582807Y-53793886D01*
X99443985Y-53665999D01*
X99320947Y-53527292D01*
X99317641Y-53523185D01*
X99295581Y-53497584D01*
X99278342Y-53480546D01*
X99269415Y-53475574D01*
X99266753Y-53476294D01*
X99262317Y-53468035D01*
X99261057Y-53464190D01*
X99251187Y-53445729D01*
X99233120Y-53415781D01*
X99208781Y-53377484D01*
X99180093Y-53333975D01*
X99169136Y-53317595D01*
X99135842Y-53266901D01*
X99109188Y-53223960D01*
X99086363Y-53183606D01*
X99064557Y-53140674D01*
X99040958Y-53089996D01*
X99035864Y-53078510D01*
X100592793Y-53078510D01*
X100592867Y-53108364D01*
X100593691Y-53152891D01*
X100596007Y-53185279D01*
X100600522Y-53210379D01*
X100607942Y-53233041D01*
X100618975Y-53258115D01*
X100644652Y-53303213D01*
X100687504Y-53358018D01*
X100737080Y-53405280D01*
X100787984Y-53439215D01*
X100798845Y-53444435D01*
X100854026Y-53462749D01*
X100910405Y-53469777D01*
X100964220Y-53466085D01*
X101011708Y-53452239D01*
X101028658Y-53441619D01*
X101272798Y-53441619D01*
X101286367Y-53473333D01*
X101317516Y-53498619D01*
X101333561Y-53505598D01*
X101352724Y-53509984D01*
X101371331Y-53503038D01*
X101393166Y-53484793D01*
X101410947Y-53461924D01*
X101418293Y-53441131D01*
X101415854Y-53425162D01*
X101403993Y-53396831D01*
X101386508Y-53371865D01*
X101368164Y-53358154D01*
X101343502Y-53356017D01*
X101311332Y-53366421D01*
X101286922Y-53388455D01*
X101277590Y-53406294D01*
X101272798Y-53441619D01*
X101028658Y-53441619D01*
X101049106Y-53428807D01*
X101072651Y-53396354D01*
X101079244Y-53379363D01*
X101084944Y-53351166D01*
X101078006Y-53328407D01*
X101057197Y-53303694D01*
X101028256Y-53274752D01*
X100989202Y-53294676D01*
X100969524Y-53303464D01*
X100920112Y-53313401D01*
X100873695Y-53304229D01*
X100829947Y-53275840D01*
X100788540Y-53228124D01*
X100775001Y-53207456D01*
X100764682Y-53184337D01*
X100760187Y-53157517D01*
X100759409Y-53119110D01*
X100759949Y-53052321D01*
X100715773Y-53024710D01*
X100702094Y-53015843D01*
X100667794Y-52991590D01*
X100639193Y-52968934D01*
X100629765Y-52961272D01*
X100610616Y-52949285D01*
X100599791Y-52947768D01*
X100599486Y-52948191D01*
X100596875Y-52962005D01*
X100594748Y-52990968D01*
X100593317Y-53031122D01*
X100592793Y-53078510D01*
X99035864Y-53078510D01*
X99012757Y-53026407D01*
X98951027Y-52868864D01*
X98896798Y-52683225D01*
X98893934Y-52667825D01*
X99900909Y-52667825D01*
X99939120Y-52687562D01*
X99957263Y-52697656D01*
X99992057Y-52719128D01*
X100026177Y-52742176D01*
X100046676Y-52758070D01*
X100081020Y-52787366D01*
X100119851Y-52822596D01*
X100158062Y-52859227D01*
X100241100Y-52941401D01*
X100313474Y-52873409D01*
X100332161Y-52856323D01*
X100367444Y-52826240D01*
X100399165Y-52801728D01*
X100422173Y-52786887D01*
X100447764Y-52771793D01*
X100461682Y-52755379D01*
X100466005Y-52731940D01*
X100463456Y-52695441D01*
X100460570Y-52675917D01*
X100452868Y-52653379D01*
X100437468Y-52633046D01*
X100410254Y-52608161D01*
X100387650Y-52587650D01*
X100351507Y-52551430D01*
X100320028Y-52516351D01*
X100319416Y-52515615D01*
X100297327Y-52491299D01*
X100293822Y-52488227D01*
X100600218Y-52488227D01*
X100606146Y-52564691D01*
X100606936Y-52568826D01*
X100628952Y-52641645D01*
X100664259Y-52711429D01*
X100679073Y-52731940D01*
X100710085Y-52774880D01*
X100763661Y-52828697D01*
X100822214Y-52869582D01*
X100882973Y-52894237D01*
X100891807Y-52896454D01*
X100929537Y-52904882D01*
X100955579Y-52907637D01*
X100975801Y-52904842D01*
X100996067Y-52896622D01*
X101022802Y-52876116D01*
X101035982Y-52845233D01*
X101031164Y-52807756D01*
X101029385Y-52803410D01*
X101017029Y-52787606D01*
X100993423Y-52772419D01*
X100954708Y-52755196D01*
X100936550Y-52747681D01*
X100885619Y-52722690D01*
X100847969Y-52695625D01*
X100818946Y-52662557D01*
X100793893Y-52619560D01*
X100775808Y-52578632D01*
X100766372Y-52541559D01*
X100764378Y-52508501D01*
X101105677Y-52508501D01*
X101106268Y-52511273D01*
X101115669Y-52529084D01*
X101134980Y-52558335D01*
X101162215Y-52596309D01*
X101195383Y-52640284D01*
X101232496Y-52687542D01*
X101271566Y-52735363D01*
X101298666Y-52770203D01*
X101314188Y-52796926D01*
X101316459Y-52814026D01*
X101312771Y-52821150D01*
X101298460Y-52842971D01*
X101275631Y-52875166D01*
X101246455Y-52914698D01*
X101213105Y-52958532D01*
X101207236Y-52966154D01*
X101167536Y-53019194D01*
X101139882Y-53059777D01*
X101123414Y-53089785D01*
X101117274Y-53111102D01*
X101120603Y-53125611D01*
X101132543Y-53135193D01*
X101132949Y-53135371D01*
X101148893Y-53138216D01*
X101180816Y-53141161D01*
X101225382Y-53143991D01*
X101279254Y-53146492D01*
X101339094Y-53148450D01*
X101528550Y-53153407D01*
X101602863Y-53300482D01*
X101620025Y-53334102D01*
X101628953Y-53351166D01*
X101645865Y-53383490D01*
X101669130Y-53426550D01*
X101677375Y-53441131D01*
X101687792Y-53459553D01*
X101699823Y-53478770D01*
X101704026Y-53484183D01*
X101723540Y-53502563D01*
X101740677Y-53509984D01*
X101743416Y-53509585D01*
X101757506Y-53501571D01*
X101773733Y-53486908D01*
X101787838Y-53470415D01*
X101795557Y-53456912D01*
X101792631Y-53451219D01*
X101790364Y-53449966D01*
X101793977Y-53446395D01*
X102068571Y-53446395D01*
X102080339Y-53478532D01*
X102102836Y-53500588D01*
X102108953Y-53503427D01*
X102142886Y-53508084D01*
X102176691Y-53498487D01*
X102202124Y-53476627D01*
X102206610Y-53467620D01*
X102209995Y-53437490D01*
X102202518Y-53404619D01*
X102185621Y-53377656D01*
X102157791Y-53359501D01*
X102398376Y-53359501D01*
X102399345Y-53381913D01*
X102405566Y-53396054D01*
X102416550Y-53396528D01*
X102421039Y-53394433D01*
X102421793Y-53399037D01*
X102420632Y-53401173D01*
X102421289Y-53415223D01*
X102437355Y-53430922D01*
X102448745Y-53437490D01*
X102470538Y-53450057D01*
X102525723Y-53468259D01*
X102589480Y-53469702D01*
X102658077Y-53453162D01*
X102730411Y-53418773D01*
X102769505Y-53390171D01*
X102816733Y-53337741D01*
X102855260Y-53273640D01*
X102883616Y-53201842D01*
X102900328Y-53126321D01*
X102903924Y-53051050D01*
X102892933Y-52980004D01*
X102888074Y-52964151D01*
X102878604Y-52946949D01*
X102866526Y-52947398D01*
X102848557Y-52964336D01*
X102836430Y-52975844D01*
X102810302Y-52996494D01*
X102779746Y-53017671D01*
X102729545Y-53050039D01*
X102726803Y-53104333D01*
X102725878Y-53122657D01*
X102724601Y-53143281D01*
X102719917Y-53179755D01*
X102711291Y-53206655D01*
X102696869Y-53230891D01*
X102683835Y-53248131D01*
X102643233Y-53288067D01*
X102600450Y-53309084D01*
X102554107Y-53311645D01*
X102502826Y-53296216D01*
X102480578Y-53287418D01*
X102450509Y-53282832D01*
X102428243Y-53292971D01*
X102409517Y-53318870D01*
X102403146Y-53334216D01*
X102398376Y-53359501D01*
X102157791Y-53359501D01*
X102154497Y-53357352D01*
X102122744Y-53355159D01*
X102094302Y-53370368D01*
X102072986Y-53402149D01*
X102069817Y-53411718D01*
X102068571Y-53446395D01*
X101793977Y-53446395D01*
X101797498Y-53442915D01*
X101801994Y-53437787D01*
X101815118Y-53417282D01*
X101833986Y-53384392D01*
X101856811Y-53342274D01*
X101881804Y-53294084D01*
X101953250Y-53153407D01*
X102148341Y-53148523D01*
X102161401Y-53148188D01*
X102231662Y-53145935D01*
X102284981Y-53143069D01*
X102323593Y-53139155D01*
X102349733Y-53133759D01*
X102365637Y-53126446D01*
X102373540Y-53116783D01*
X102375677Y-53104333D01*
X102375644Y-53103768D01*
X102368917Y-53088699D01*
X102352194Y-53062241D01*
X102327923Y-53027682D01*
X102298552Y-52988307D01*
X102266526Y-52947405D01*
X102234295Y-52908262D01*
X102204304Y-52874165D01*
X102196006Y-52863607D01*
X102190062Y-52850511D01*
X102186638Y-52841637D01*
X102174404Y-52825028D01*
X102170323Y-52820136D01*
X102166375Y-52810369D01*
X102169917Y-52797770D01*
X102182620Y-52778278D01*
X102206154Y-52747832D01*
X102245495Y-52697792D01*
X102293771Y-52635003D01*
X102330265Y-52585459D01*
X102355604Y-52548271D01*
X102370417Y-52522545D01*
X102375328Y-52507392D01*
X102375176Y-52500072D01*
X102372041Y-52486625D01*
X102363172Y-52476412D01*
X102346269Y-52468891D01*
X102319031Y-52463522D01*
X102279157Y-52459763D01*
X102224347Y-52457072D01*
X102152299Y-52454907D01*
X101961182Y-52450023D01*
X101948731Y-52425600D01*
X101943058Y-52414237D01*
X101929370Y-52386444D01*
X101910129Y-52347162D01*
X101887022Y-52299838D01*
X101861738Y-52247921D01*
X101842019Y-52208213D01*
X101817022Y-52160178D01*
X102071618Y-52160178D01*
X102077134Y-52192295D01*
X102098572Y-52219737D01*
X102129886Y-52235681D01*
X102162778Y-52235417D01*
X102190792Y-52218234D01*
X102198081Y-52205693D01*
X102405332Y-52205693D01*
X102409404Y-52241008D01*
X102426366Y-52268911D01*
X102431379Y-52273404D01*
X102451867Y-52285943D01*
X102474928Y-52287110D01*
X102507717Y-52277675D01*
X102544324Y-52270414D01*
X102589460Y-52276972D01*
X102631345Y-52298895D01*
X102667694Y-52333866D01*
X102696226Y-52379569D01*
X102714658Y-52433686D01*
X102720709Y-52493900D01*
X102717074Y-52538772D01*
X102697390Y-52608438D01*
X102661430Y-52667892D01*
X102610031Y-52715917D01*
X102544028Y-52751297D01*
X102507714Y-52767118D01*
X102479442Y-52784668D01*
X102465031Y-52802477D01*
X102455235Y-52831772D01*
X102458761Y-52855841D01*
X102477810Y-52880313D01*
X102491281Y-52891774D01*
X102514711Y-52901528D01*
X102548637Y-52903935D01*
X102576019Y-52901623D01*
X102635325Y-52883636D01*
X102694260Y-52849655D01*
X102750072Y-52801845D01*
X102800009Y-52742375D01*
X102814017Y-52718990D01*
X103024480Y-52718990D01*
X103027997Y-52748551D01*
X103043526Y-52771295D01*
X103074387Y-52793538D01*
X103108182Y-52815563D01*
X103153109Y-52849343D01*
X103190726Y-52882770D01*
X103215968Y-52911619D01*
X103220626Y-52918143D01*
X103235132Y-52935580D01*
X103243956Y-52941812D01*
X103243959Y-52941812D01*
X103252877Y-52934688D01*
X103272647Y-52916469D01*
X103300349Y-52889910D01*
X103333062Y-52857766D01*
X103358117Y-52833812D01*
X103400270Y-52796615D01*
X103444220Y-52760840D01*
X103486750Y-52728870D01*
X103524645Y-52703085D01*
X103554687Y-52685868D01*
X103573661Y-52679600D01*
X103583367Y-52678150D01*
X103585842Y-52669885D01*
X103572071Y-52655429D01*
X103542964Y-52636074D01*
X103525823Y-52626990D01*
X103501822Y-52617787D01*
X103487723Y-52617117D01*
X103482777Y-52619345D01*
X103482978Y-52613654D01*
X103482665Y-52608559D01*
X103470750Y-52594933D01*
X103447852Y-52578898D01*
X103433993Y-52569912D01*
X103402656Y-52546836D01*
X103365592Y-52517230D01*
X103328177Y-52485297D01*
X103302469Y-52462765D01*
X103274187Y-52438602D01*
X103254003Y-52422112D01*
X103245592Y-52416296D01*
X103635908Y-52416296D01*
X103642753Y-52430732D01*
X103661591Y-52452694D01*
X103688033Y-52477893D01*
X103717675Y-52502434D01*
X103746118Y-52522425D01*
X103768958Y-52533971D01*
X103782864Y-52536961D01*
X103815389Y-52540733D01*
X103860530Y-52543997D01*
X103915365Y-52546719D01*
X103976973Y-52548864D01*
X104042433Y-52550398D01*
X104108823Y-52551284D01*
X104173222Y-52551489D01*
X104232710Y-52550978D01*
X104284364Y-52549715D01*
X104325264Y-52547665D01*
X104352488Y-52544795D01*
X104363115Y-52541068D01*
X104363760Y-52538956D01*
X104368779Y-52518592D01*
X104375135Y-52488970D01*
X104381420Y-52457169D01*
X104386224Y-52430269D01*
X104388139Y-52415350D01*
X104383811Y-52413694D01*
X104361809Y-52411484D01*
X104322246Y-52409609D01*
X104266303Y-52408101D01*
X104195163Y-52406987D01*
X104110009Y-52406298D01*
X104012023Y-52406061D01*
X103961207Y-52406108D01*
X103860440Y-52406559D01*
X103778732Y-52407497D01*
X103715754Y-52408931D01*
X103671176Y-52410869D01*
X103644670Y-52413321D01*
X103635908Y-52416296D01*
X103245592Y-52416296D01*
X103245139Y-52415983D01*
X103240526Y-52420048D01*
X103227904Y-52436702D01*
X103211200Y-52461851D01*
X103200449Y-52477193D01*
X103190437Y-52489619D01*
X103174371Y-52509560D01*
X103141562Y-52546627D01*
X103106653Y-52583026D01*
X103075947Y-52614188D01*
X103052149Y-52640710D01*
X103037684Y-52661456D01*
X103029857Y-52680387D01*
X103025969Y-52701459D01*
X103024480Y-52718990D01*
X102814017Y-52718990D01*
X102841317Y-52673413D01*
X102851595Y-52652431D01*
X102864604Y-52623435D01*
X102872621Y-52598574D01*
X102876854Y-52571930D01*
X102878509Y-52537584D01*
X102878793Y-52489619D01*
X102878773Y-52474419D01*
X102878101Y-52430048D01*
X102875705Y-52397935D01*
X102870561Y-52372379D01*
X102861643Y-52347680D01*
X102847923Y-52318138D01*
X102811017Y-52255151D01*
X102758307Y-52194453D01*
X102711971Y-52160624D01*
X103044992Y-52160624D01*
X103047264Y-52198128D01*
X103066683Y-52232657D01*
X103085973Y-52244497D01*
X103113254Y-52249754D01*
X103138101Y-52245601D01*
X103163144Y-52227751D01*
X103185809Y-52193211D01*
X103192192Y-52164158D01*
X103183622Y-52135803D01*
X103163778Y-52112432D01*
X103136822Y-52097421D01*
X103106914Y-52094141D01*
X103078215Y-52105968D01*
X103059375Y-52125537D01*
X103044992Y-52160624D01*
X102711971Y-52160624D01*
X102697226Y-52149859D01*
X102629200Y-52122370D01*
X102555652Y-52112984D01*
X102516818Y-52116519D01*
X102472818Y-52128831D01*
X102437035Y-52147759D01*
X102431474Y-52153643D01*
X102415081Y-52170989D01*
X102415075Y-52171001D01*
X102405332Y-52205693D01*
X102198081Y-52205693D01*
X102209889Y-52185378D01*
X102214886Y-52153643D01*
X102204172Y-52123534D01*
X102175007Y-52097169D01*
X102164368Y-52090864D01*
X102145297Y-52086527D01*
X102121246Y-52093624D01*
X102104613Y-52102734D01*
X102081090Y-52128590D01*
X102071618Y-52160178D01*
X101817022Y-52160178D01*
X101816856Y-52159859D01*
X101794302Y-52119012D01*
X101776249Y-52089068D01*
X101766767Y-52076350D01*
X103391838Y-52076350D01*
X103399230Y-52104115D01*
X103420072Y-52137024D01*
X103446378Y-52164158D01*
X103449963Y-52167856D01*
X103484485Y-52191138D01*
X103533331Y-52215561D01*
X103965620Y-52218475D01*
X104397908Y-52221390D01*
X104397775Y-52164745D01*
X104397249Y-52140800D01*
X104395052Y-52108007D01*
X104391751Y-52086119D01*
X104385860Y-52064138D01*
X103888769Y-52064138D01*
X103844594Y-52064150D01*
X103735537Y-52064317D01*
X103644230Y-52064706D01*
X103569361Y-52065349D01*
X103509616Y-52066278D01*
X103463684Y-52067526D01*
X103430253Y-52069125D01*
X103408009Y-52071107D01*
X103395642Y-52073505D01*
X103391838Y-52076350D01*
X101766767Y-52076350D01*
X101764586Y-52073424D01*
X101741975Y-52052183D01*
X101719766Y-52074392D01*
X101716568Y-52077590D01*
X101715083Y-52079199D01*
X101701656Y-52098515D01*
X101682188Y-52131445D01*
X101662678Y-52166883D01*
X101658520Y-52174435D01*
X101632489Y-52223930D01*
X101605935Y-52276377D01*
X101580698Y-52328221D01*
X101558615Y-52375908D01*
X101541527Y-52415883D01*
X101525912Y-52454907D01*
X101341535Y-52454907D01*
X101279455Y-52455026D01*
X101230420Y-52455591D01*
X101195106Y-52456889D01*
X101170531Y-52459206D01*
X101153712Y-52462832D01*
X101141668Y-52468052D01*
X101131418Y-52475155D01*
X101129973Y-52476312D01*
X101112766Y-52493921D01*
X101105677Y-52508501D01*
X100764378Y-52508501D01*
X100763850Y-52499751D01*
X100764466Y-52482020D01*
X100774862Y-52423629D01*
X100796366Y-52370972D01*
X100826731Y-52326811D01*
X100863709Y-52293907D01*
X100905054Y-52275019D01*
X100948517Y-52272909D01*
X100949181Y-52273019D01*
X100981257Y-52278826D01*
X101009471Y-52284708D01*
X101024787Y-52285809D01*
X101050882Y-52275144D01*
X101069357Y-52250931D01*
X101076370Y-52217056D01*
X101074170Y-52197441D01*
X101059625Y-52168176D01*
X101271754Y-52168176D01*
X101272621Y-52182646D01*
X101281282Y-52203134D01*
X101299043Y-52217056D01*
X101303504Y-52220553D01*
X101322229Y-52231811D01*
X101337549Y-52237937D01*
X101351359Y-52235303D01*
X101372339Y-52224391D01*
X101374896Y-52222960D01*
X101402321Y-52198086D01*
X101412186Y-52166883D01*
X101403505Y-52132263D01*
X101401144Y-52127903D01*
X101376651Y-52098459D01*
X101347825Y-52085057D01*
X101318372Y-52088456D01*
X101292002Y-52109417D01*
X101278357Y-52135121D01*
X101271754Y-52168176D01*
X101059625Y-52168176D01*
X101056886Y-52162665D01*
X101024220Y-52136030D01*
X100978330Y-52118987D01*
X100921373Y-52112984D01*
X100886183Y-52115642D01*
X100822265Y-52134216D01*
X100763174Y-52168443D01*
X100747545Y-52182546D01*
X100710626Y-52215860D01*
X100666340Y-52274007D01*
X100632032Y-52340425D01*
X100609952Y-52410946D01*
X100609418Y-52412652D01*
X100600218Y-52488227D01*
X100293822Y-52488227D01*
X100279622Y-52475780D01*
X100270084Y-52472390D01*
X100267228Y-52474329D01*
X100268789Y-52468136D01*
X100267929Y-52453673D01*
X100256693Y-52434103D01*
X100238199Y-52411263D01*
X100174884Y-52473071D01*
X100120140Y-52522949D01*
X100043055Y-52581739D01*
X99953774Y-52637517D01*
X99900909Y-52667825D01*
X98893934Y-52667825D01*
X98870166Y-52540036D01*
X99479703Y-52540036D01*
X99481550Y-52546683D01*
X99492397Y-52550298D01*
X99515750Y-52551636D01*
X99555118Y-52551451D01*
X99565658Y-52551260D01*
X99646134Y-52546357D01*
X99710812Y-52534934D01*
X99762340Y-52516055D01*
X99803364Y-52488788D01*
X99836532Y-52452200D01*
X99866433Y-52410946D01*
X99722042Y-52408231D01*
X99699264Y-52407858D01*
X99649941Y-52407450D01*
X99608877Y-52407658D01*
X99579830Y-52408445D01*
X99566558Y-52409773D01*
X99560927Y-52414242D01*
X99545945Y-52432041D01*
X99526898Y-52458303D01*
X99507349Y-52487791D01*
X99490861Y-52515270D01*
X99480998Y-52535504D01*
X99479703Y-52540036D01*
X98870166Y-52540036D01*
X98861971Y-52495972D01*
X98846486Y-52306770D01*
X98848199Y-52220446D01*
X99258605Y-52220446D01*
X99588660Y-52220127D01*
X99661807Y-52220000D01*
X99738832Y-52219638D01*
X99800356Y-52218950D01*
X99848634Y-52217829D01*
X99885924Y-52216168D01*
X99914483Y-52213859D01*
X99936568Y-52210796D01*
X99954434Y-52206871D01*
X99970340Y-52201976D01*
X99989818Y-52194328D01*
X100001222Y-52188564D01*
X100297327Y-52188564D01*
X100315079Y-52224013D01*
X100327860Y-52236478D01*
X100358969Y-52249471D01*
X100392374Y-52246860D01*
X100421451Y-52228373D01*
X100430386Y-52217237D01*
X100443723Y-52182546D01*
X100438826Y-52147219D01*
X100415900Y-52115427D01*
X100414295Y-52114009D01*
X100382789Y-52096214D01*
X100351618Y-52097942D01*
X100320586Y-52119201D01*
X100319399Y-52120407D01*
X100298804Y-52153318D01*
X100297327Y-52188564D01*
X100001222Y-52188564D01*
X100023075Y-52177518D01*
X100046980Y-52160776D01*
X100055700Y-52151923D01*
X100077113Y-52124410D01*
X100093140Y-52096186D01*
X100099446Y-52074392D01*
X100093659Y-52072582D01*
X100070845Y-52070503D01*
X100033153Y-52068693D01*
X99983197Y-52067162D01*
X99923590Y-52065921D01*
X99856944Y-52064979D01*
X99785873Y-52064347D01*
X99712988Y-52064033D01*
X99640903Y-52064049D01*
X99572231Y-52064404D01*
X99509584Y-52065108D01*
X99455575Y-52066171D01*
X99412817Y-52067603D01*
X99383923Y-52069414D01*
X99371505Y-52071615D01*
X99365978Y-52076501D01*
X99348366Y-52095652D01*
X99325724Y-52122746D01*
X99302305Y-52152461D01*
X99282362Y-52179474D01*
X99270147Y-52198465D01*
X99258605Y-52220446D01*
X98848199Y-52220446D01*
X98850285Y-52115281D01*
X98852590Y-52083709D01*
X98859967Y-52002383D01*
X98869348Y-51930237D01*
X98879761Y-51873153D01*
X99288600Y-51873153D01*
X99293326Y-51873482D01*
X99316134Y-51873943D01*
X99357099Y-51874393D01*
X99415409Y-51874828D01*
X99490251Y-51875248D01*
X99580813Y-51875650D01*
X99686282Y-51876034D01*
X99805846Y-51876397D01*
X99938691Y-51876737D01*
X100084004Y-51877053D01*
X100240974Y-51877343D01*
X100408787Y-51877605D01*
X100586632Y-51877838D01*
X100773694Y-51878040D01*
X100969161Y-51878209D01*
X101172221Y-51878344D01*
X101382062Y-51878442D01*
X101597869Y-51878502D01*
X101818831Y-51878523D01*
X101931359Y-51878521D01*
X102190291Y-51878499D01*
X102430617Y-51878450D01*
X102652998Y-51878371D01*
X102858094Y-51878258D01*
X103046565Y-51878107D01*
X103219073Y-51877915D01*
X103376277Y-51877678D01*
X103518838Y-51877393D01*
X103647415Y-51877056D01*
X103762670Y-51876663D01*
X103865262Y-51876212D01*
X103955852Y-51875697D01*
X104035101Y-51875117D01*
X104103668Y-51874467D01*
X104162214Y-51873744D01*
X104211399Y-51872945D01*
X104251884Y-51872064D01*
X104284329Y-51871100D01*
X104309393Y-51870049D01*
X104327739Y-51868907D01*
X104340025Y-51867670D01*
X104346913Y-51866335D01*
X104349062Y-51864898D01*
X104346369Y-51849361D01*
X104339203Y-51821234D01*
X104329131Y-51786744D01*
X104309200Y-51722215D01*
X101843554Y-51722215D01*
X99377908Y-51722215D01*
X99347898Y-51766681D01*
X99326594Y-51799677D01*
X99307220Y-51832503D01*
X99293689Y-51858552D01*
X99288600Y-51873153D01*
X98879761Y-51873153D01*
X98881827Y-51861825D01*
X98898497Y-51791700D01*
X98920451Y-51714415D01*
X98948783Y-51624523D01*
X98953600Y-51610037D01*
X98991481Y-51510999D01*
X99455547Y-51510999D01*
X99455577Y-51512709D01*
X99458097Y-51514292D01*
X99463818Y-51515752D01*
X99473450Y-51517096D01*
X99487703Y-51518326D01*
X99507288Y-51519450D01*
X99532915Y-51520470D01*
X99565294Y-51521392D01*
X99605136Y-51522222D01*
X99653151Y-51522963D01*
X99710049Y-51523621D01*
X99776542Y-51524201D01*
X99853338Y-51524707D01*
X99941149Y-51525145D01*
X100040684Y-51525519D01*
X100152654Y-51525834D01*
X100277770Y-51526095D01*
X100416742Y-51526307D01*
X100570280Y-51526475D01*
X100739094Y-51526604D01*
X100923895Y-51526699D01*
X101125393Y-51526764D01*
X101344299Y-51526804D01*
X101581322Y-51526825D01*
X101837173Y-51526830D01*
X101878640Y-51526829D01*
X102092605Y-51526789D01*
X102301231Y-51526691D01*
X102503683Y-51526540D01*
X102699126Y-51526337D01*
X102886724Y-51526084D01*
X103065642Y-51525786D01*
X103235046Y-51525443D01*
X103394098Y-51525059D01*
X103541965Y-51524636D01*
X103677811Y-51524177D01*
X103800801Y-51523684D01*
X103910099Y-51523160D01*
X104004870Y-51522607D01*
X104084279Y-51522028D01*
X104147491Y-51521426D01*
X104193671Y-51520803D01*
X104221982Y-51520161D01*
X104231590Y-51519504D01*
X104231258Y-51518029D01*
X104224673Y-51502987D01*
X104211402Y-51476702D01*
X104193753Y-51443792D01*
X104156157Y-51375407D01*
X101878707Y-51372944D01*
X101872695Y-51372938D01*
X101623982Y-51372674D01*
X101394049Y-51372445D01*
X101182154Y-51372256D01*
X100987556Y-51372110D01*
X100809513Y-51372013D01*
X100647285Y-51371970D01*
X100500129Y-51371984D01*
X100367304Y-51372062D01*
X100248070Y-51372207D01*
X100141683Y-51372425D01*
X100047404Y-51372720D01*
X99964490Y-51373097D01*
X99892201Y-51373560D01*
X99829794Y-51374115D01*
X99776528Y-51374765D01*
X99731662Y-51375517D01*
X99694455Y-51376374D01*
X99664165Y-51377341D01*
X99640051Y-51378424D01*
X99621370Y-51379626D01*
X99607383Y-51380952D01*
X99597346Y-51382408D01*
X99590520Y-51383998D01*
X99586162Y-51385726D01*
X99583532Y-51387598D01*
X99569583Y-51400845D01*
X99545322Y-51423586D01*
X99517569Y-51449396D01*
X99493062Y-51472572D01*
X99469894Y-51495462D01*
X99455923Y-51510453D01*
X99455547Y-51510999D01*
X98991481Y-51510999D01*
X98993277Y-51506304D01*
X99043776Y-51395327D01*
X99102385Y-51282719D01*
X99166393Y-51174093D01*
X99179765Y-51151667D01*
X99204924Y-51104333D01*
X99226263Y-51059017D01*
X99972446Y-51059017D01*
X99977449Y-51061126D01*
X99999580Y-51063092D01*
X100036570Y-51064783D01*
X100086054Y-51066116D01*
X100145666Y-51067009D01*
X100213039Y-51067380D01*
X100238323Y-51067397D01*
X100312076Y-51067234D01*
X100369127Y-51066636D01*
X100411664Y-51065487D01*
X100441876Y-51063668D01*
X100460079Y-51061306D01*
X100656293Y-51061306D01*
X100657179Y-51061695D01*
X100672652Y-51062523D01*
X100705378Y-51063324D01*
X100753797Y-51064084D01*
X100816347Y-51064787D01*
X100891467Y-51065422D01*
X100977594Y-51065972D01*
X101073168Y-51066426D01*
X101176626Y-51066767D01*
X101286408Y-51066982D01*
X101396330Y-51067142D01*
X101528077Y-51067361D01*
X101673107Y-51067626D01*
X101828215Y-51067931D01*
X101990193Y-51068267D01*
X102155833Y-51068630D01*
X102321928Y-51069010D01*
X102485270Y-51069403D01*
X102642653Y-51069800D01*
X102790870Y-51070196D01*
X102877584Y-51070419D01*
X103008994Y-51070698D01*
X103137019Y-51070902D01*
X103259863Y-51071031D01*
X103375732Y-51071087D01*
X103482832Y-51071069D01*
X103579367Y-51070978D01*
X103663542Y-51070814D01*
X103733564Y-51070578D01*
X103787637Y-51070271D01*
X103823966Y-51069893D01*
X103997370Y-51067226D01*
X103997236Y-51021047D01*
X103996999Y-51008316D01*
X103994848Y-50976084D01*
X103991212Y-50952888D01*
X103985322Y-50930907D01*
X102590741Y-50930907D01*
X102461424Y-50930916D01*
X102277466Y-50930967D01*
X102111440Y-50931072D01*
X101962368Y-50931242D01*
X101829276Y-50931486D01*
X101711188Y-50931814D01*
X101607129Y-50932236D01*
X101516123Y-50932763D01*
X101437195Y-50933403D01*
X101369369Y-50934167D01*
X101311671Y-50935064D01*
X101263124Y-50936105D01*
X101232322Y-50937016D01*
X101222753Y-50937299D01*
X101189583Y-50938657D01*
X101162638Y-50940187D01*
X101140942Y-50941901D01*
X101123521Y-50943808D01*
X101109399Y-50945917D01*
X101107316Y-50946280D01*
X101068165Y-50953838D01*
X101018624Y-50964403D01*
X100962377Y-50977082D01*
X100903111Y-50990980D01*
X100868865Y-50999292D01*
X100844511Y-51005203D01*
X100790263Y-51018860D01*
X100744052Y-51031055D01*
X100709564Y-51040895D01*
X100694300Y-51046168D01*
X100690485Y-51047486D01*
X100677340Y-51053220D01*
X100656293Y-51061306D01*
X100460079Y-51061306D01*
X100461952Y-51061063D01*
X100474079Y-51057554D01*
X100480446Y-51053023D01*
X100484596Y-51046168D01*
X100480595Y-51040985D01*
X100463606Y-51038247D01*
X100430354Y-51036902D01*
X100417943Y-51036604D01*
X100390987Y-51035720D01*
X100381876Y-51034480D01*
X100389329Y-51032300D01*
X100412062Y-51028600D01*
X100426250Y-51026193D01*
X100442700Y-51022421D01*
X100443812Y-51020298D01*
X100442097Y-51019814D01*
X100434393Y-51006648D01*
X100433667Y-50999292D01*
X100451139Y-50999292D01*
X100451423Y-51001627D01*
X100460908Y-51009061D01*
X100463243Y-51008777D01*
X100470677Y-50999292D01*
X100470393Y-50996957D01*
X100460908Y-50989523D01*
X100458573Y-50989807D01*
X100451139Y-50999292D01*
X100433667Y-50999292D01*
X100431600Y-50978362D01*
X100431600Y-50937893D01*
X100375427Y-50943843D01*
X100354314Y-50946607D01*
X100311509Y-50954491D01*
X100275293Y-50963743D01*
X100274854Y-50963882D01*
X100242643Y-50973758D01*
X100200728Y-50986175D01*
X100158062Y-50998479D01*
X100150922Y-51000511D01*
X100086521Y-51019409D01*
X100033660Y-51035997D01*
X99994811Y-51049469D01*
X99972446Y-51059017D01*
X99226263Y-51059017D01*
X99228488Y-51054291D01*
X99247519Y-51007956D01*
X99259079Y-50971741D01*
X99264258Y-50934658D01*
X100457409Y-50934658D01*
X100458878Y-50937716D01*
X100475562Y-50938772D01*
X100478596Y-50938708D01*
X100491571Y-50937016D01*
X100487587Y-50933907D01*
X100477674Y-50932336D01*
X100458280Y-50934269D01*
X100457409Y-50934658D01*
X99264258Y-50934658D01*
X99266570Y-50918102D01*
X99259725Y-50860377D01*
X99235229Y-50802390D01*
X99212855Y-50766491D01*
X99186186Y-50737576D01*
X99155440Y-50721180D01*
X99115854Y-50713765D01*
X99060407Y-50702511D01*
X98995565Y-50673201D01*
X98937086Y-50629434D01*
X98887880Y-50573992D01*
X98850857Y-50509662D01*
X98828928Y-50439226D01*
X98827357Y-50429899D01*
X98825955Y-50379419D01*
X99049254Y-50379419D01*
X99050607Y-50409809D01*
X99055290Y-50438484D01*
X99062211Y-50455441D01*
X99070210Y-50458088D01*
X99078123Y-50443829D01*
X99080315Y-50438709D01*
X99097757Y-50416390D01*
X99126141Y-50391232D01*
X99160187Y-50367511D01*
X99194617Y-50349500D01*
X99206701Y-50347982D01*
X99237610Y-50346437D01*
X99286117Y-50344976D01*
X99351219Y-50343599D01*
X99431911Y-50342306D01*
X99527191Y-50341097D01*
X99636054Y-50339973D01*
X99757497Y-50338933D01*
X99890516Y-50337977D01*
X100034108Y-50337106D01*
X100187268Y-50336320D01*
X100348993Y-50335619D01*
X100518279Y-50335002D01*
X100694123Y-50334471D01*
X100875521Y-50334024D01*
X101061470Y-50333663D01*
X101250965Y-50333387D01*
X101443002Y-50333196D01*
X101636579Y-50333091D01*
X101830692Y-50333071D01*
X102024336Y-50333136D01*
X102216508Y-50333288D01*
X102406205Y-50333525D01*
X102592423Y-50333848D01*
X102774158Y-50334257D01*
X102950406Y-50334752D01*
X103120163Y-50335333D01*
X103282427Y-50336000D01*
X103436193Y-50336753D01*
X103580458Y-50337593D01*
X103714217Y-50338520D01*
X103836468Y-50339532D01*
X103946207Y-50340632D01*
X104042429Y-50341818D01*
X104124131Y-50343091D01*
X104190310Y-50344451D01*
X104239962Y-50345898D01*
X104272083Y-50347432D01*
X104285669Y-50349053D01*
X104306990Y-50360898D01*
X104337820Y-50382996D01*
X104368544Y-50409146D01*
X104369885Y-50410396D01*
X104394905Y-50432145D01*
X104414177Y-50446099D01*
X104423627Y-50449291D01*
X104425522Y-50445744D01*
X104430306Y-50426953D01*
X104434498Y-50399129D01*
X104435281Y-50390187D01*
X104429538Y-50333587D01*
X104406021Y-50281619D01*
X104366177Y-50236613D01*
X104311452Y-50200899D01*
X104256254Y-50173792D01*
X103596831Y-50168907D01*
X102937408Y-50164023D01*
X102931736Y-50027254D01*
X102929638Y-49986145D01*
X102921269Y-49895999D01*
X102907397Y-49816895D01*
X102886841Y-49743062D01*
X102858422Y-49668731D01*
X102857491Y-49666572D01*
X102836512Y-49622434D01*
X102810727Y-49574386D01*
X103060949Y-49574386D01*
X103074508Y-49616231D01*
X103089493Y-49652094D01*
X103128648Y-49618579D01*
X103179595Y-49585383D01*
X103237438Y-49568046D01*
X103296879Y-49569114D01*
X103355137Y-49588950D01*
X103375863Y-49603248D01*
X103401374Y-49635649D01*
X103416459Y-49675351D01*
X103420869Y-49717761D01*
X103414351Y-49758286D01*
X103396654Y-49792334D01*
X103367527Y-49815313D01*
X103365517Y-49816207D01*
X103325478Y-49826181D01*
X103286994Y-49823027D01*
X103256947Y-49807249D01*
X103235764Y-49787513D01*
X103216028Y-49807249D01*
X103214866Y-49808436D01*
X103197665Y-49838755D01*
X103196628Y-49873281D01*
X103210272Y-49908139D01*
X103237119Y-49939456D01*
X103275686Y-49963355D01*
X103293337Y-49970448D01*
X103335424Y-49981045D01*
X103375695Y-49979059D01*
X103422588Y-49964559D01*
X103454179Y-49950951D01*
X103496269Y-49925248D01*
X103528809Y-49891643D01*
X103558083Y-49844570D01*
X103568202Y-49824986D01*
X103582491Y-49790903D01*
X103589218Y-49758898D01*
X103590858Y-49719523D01*
X103589518Y-49691217D01*
X103575092Y-49623050D01*
X103546757Y-49562015D01*
X103506906Y-49509321D01*
X103457932Y-49466173D01*
X103402226Y-49433776D01*
X103342182Y-49413339D01*
X103280192Y-49406066D01*
X103218647Y-49413164D01*
X103159942Y-49435839D01*
X103106467Y-49475298D01*
X103076030Y-49509198D01*
X103061030Y-49540591D01*
X103060949Y-49574386D01*
X102810727Y-49574386D01*
X102810364Y-49573709D01*
X102781754Y-49524846D01*
X102753389Y-49480295D01*
X102727977Y-49444502D01*
X102708225Y-49421917D01*
X102707088Y-49420893D01*
X102695679Y-49412379D01*
X102684275Y-49411315D01*
X102667447Y-49418820D01*
X102639767Y-49436009D01*
X102617731Y-49450683D01*
X102598145Y-49465063D01*
X102590600Y-49472554D01*
X102591245Y-49474363D01*
X102599504Y-49488908D01*
X102615276Y-49514112D01*
X102636021Y-49545871D01*
X102638004Y-49548869D01*
X102697260Y-49656420D01*
X102740559Y-49773960D01*
X102767307Y-49899447D01*
X102768569Y-49916709D01*
X102776911Y-50030838D01*
X102776911Y-50030918D01*
X102776709Y-50077529D01*
X102775615Y-50117197D01*
X102773810Y-50145724D01*
X102771470Y-50158913D01*
X102768906Y-50159785D01*
X102749664Y-50161529D01*
X102711620Y-50163086D01*
X102654691Y-50164457D01*
X102578795Y-50165642D01*
X102483852Y-50166643D01*
X102369780Y-50167460D01*
X102236496Y-50168095D01*
X102083920Y-50168547D01*
X101911969Y-50168817D01*
X101720562Y-50168907D01*
X100675831Y-50168907D01*
X100675831Y-50086365D01*
X100675889Y-50079025D01*
X100679745Y-50016202D01*
X100688774Y-49944941D01*
X100697804Y-49894355D01*
X100978677Y-49894355D01*
X100979476Y-49901211D01*
X100986110Y-49909739D01*
X101001532Y-49912861D01*
X101028211Y-49910484D01*
X101068615Y-49902517D01*
X101125216Y-49888866D01*
X101194121Y-49868390D01*
X101278362Y-49831787D01*
X101351079Y-49783930D01*
X101392403Y-49744208D01*
X101635613Y-49744208D01*
X101635956Y-49824525D01*
X101649176Y-49907254D01*
X101674046Y-49985937D01*
X101709338Y-50054119D01*
X101716534Y-50064636D01*
X101731023Y-50083298D01*
X101739533Y-50090633D01*
X101743534Y-50088376D01*
X101756193Y-50073190D01*
X101772672Y-50047883D01*
X101789876Y-50017395D01*
X101804707Y-49986664D01*
X101806795Y-49981777D01*
X101835623Y-49895734D01*
X101847343Y-49812404D01*
X101841788Y-49729076D01*
X101818794Y-49643041D01*
X101778196Y-49551592D01*
X101738054Y-49474436D01*
X101721883Y-49501729D01*
X101700215Y-49542646D01*
X101675993Y-49597370D01*
X101655455Y-49652719D01*
X101642035Y-49700159D01*
X101635613Y-49744208D01*
X101392403Y-49744208D01*
X101414706Y-49722769D01*
X101471675Y-49646253D01*
X101524419Y-49552331D01*
X101524658Y-49551852D01*
X101550570Y-49499060D01*
X101566526Y-49462064D01*
X101571339Y-49439207D01*
X101563823Y-49428833D01*
X101542790Y-49429285D01*
X101507055Y-49438907D01*
X101455431Y-49456043D01*
X101430582Y-49464724D01*
X101321945Y-49509958D01*
X101230088Y-49561742D01*
X101153320Y-49621156D01*
X101089951Y-49689277D01*
X101073362Y-49711527D01*
X101045650Y-49753164D01*
X101019935Y-49796671D01*
X100998608Y-49837642D01*
X100984058Y-49871672D01*
X100978677Y-49894355D01*
X100697804Y-49894355D01*
X100701753Y-49872235D01*
X100717455Y-49805079D01*
X100734656Y-49750465D01*
X100737324Y-49743568D01*
X100768940Y-49671209D01*
X100807601Y-49595396D01*
X100848114Y-49526391D01*
X100863554Y-49501829D01*
X100876151Y-49480931D01*
X100880985Y-49471678D01*
X100875072Y-49466561D01*
X100857368Y-49454411D01*
X100833299Y-49438874D01*
X100814981Y-49427520D01*
X101898635Y-49427520D01*
X101898730Y-49429701D01*
X101901914Y-49439207D01*
X101904335Y-49446435D01*
X101916701Y-49476069D01*
X101934368Y-49515210D01*
X101955875Y-49560466D01*
X101957004Y-49562787D01*
X101983978Y-49616597D01*
X102006655Y-49657263D01*
X102028160Y-49689486D01*
X102051621Y-49717972D01*
X102080165Y-49747423D01*
X102149999Y-49804753D01*
X102163842Y-49812404D01*
X102239448Y-49854190D01*
X102341485Y-49888796D01*
X102366203Y-49894572D01*
X102411615Y-49903706D01*
X102451273Y-49910104D01*
X102502446Y-49916709D01*
X102488868Y-49878224D01*
X102456302Y-49802313D01*
X102398448Y-49709403D01*
X102325443Y-49627192D01*
X102238901Y-49557426D01*
X102140437Y-49501848D01*
X102126551Y-49495783D01*
X102091474Y-49482132D01*
X102050498Y-49467710D01*
X102007665Y-49453759D01*
X101967019Y-49441521D01*
X101932604Y-49432240D01*
X101908461Y-49427159D01*
X101898635Y-49427520D01*
X100814981Y-49427520D01*
X100808408Y-49423446D01*
X100788237Y-49411625D01*
X100778330Y-49406907D01*
X100776142Y-49408262D01*
X100764374Y-49421288D01*
X100745726Y-49444966D01*
X100723071Y-49475391D01*
X100699279Y-49508659D01*
X100677224Y-49540863D01*
X100676378Y-49542184D01*
X100659777Y-49568100D01*
X100629026Y-49625237D01*
X100589357Y-49721703D01*
X100557521Y-49828596D01*
X100534912Y-49940965D01*
X100522927Y-50053854D01*
X100516549Y-50168378D01*
X99865940Y-50171085D01*
X99215331Y-50173792D01*
X99162648Y-50203675D01*
X99142394Y-50216674D01*
X99106805Y-50245718D01*
X99079610Y-50275464D01*
X99069238Y-50290449D01*
X99056455Y-50315050D01*
X99050634Y-50341829D01*
X99049254Y-50379419D01*
X98825955Y-50379419D01*
X98825253Y-50354152D01*
X98840605Y-50278454D01*
X98871748Y-50205368D01*
X98917014Y-50137456D01*
X98974737Y-50077282D01*
X99043249Y-50027407D01*
X99120884Y-49990395D01*
X99125110Y-49988888D01*
X99147996Y-49981981D01*
X99174150Y-49976617D01*
X99206826Y-49972457D01*
X99249277Y-49969165D01*
X99304758Y-49966402D01*
X99376523Y-49963830D01*
X99381799Y-49963662D01*
X99446960Y-49961788D01*
X99509328Y-49960321D01*
X99564722Y-49959337D01*
X99608957Y-49958911D01*
X99637850Y-49959119D01*
X99666831Y-49959474D01*
X99690018Y-49958772D01*
X99698908Y-49957090D01*
X99696136Y-49947315D01*
X99688497Y-49924069D01*
X99677699Y-49892618D01*
X99673974Y-49881458D01*
X99663535Y-49839948D01*
X99657776Y-49793207D01*
X99655718Y-49734177D01*
X99655649Y-49715575D01*
X99655713Y-49713094D01*
X99876551Y-49713094D01*
X99882989Y-49773989D01*
X99902752Y-49833106D01*
X99933510Y-49886110D01*
X99972933Y-49928663D01*
X100018691Y-49956429D01*
X100049339Y-49966883D01*
X100105482Y-49977282D01*
X100153177Y-49974132D01*
X100177904Y-49966921D01*
X100223971Y-49944435D01*
X100254830Y-49914834D01*
X100269075Y-49879788D01*
X100265301Y-49840965D01*
X100258866Y-49824749D01*
X100241730Y-49801292D01*
X100222038Y-49795290D01*
X100201739Y-49807760D01*
X100178992Y-49822249D01*
X100142605Y-49826984D01*
X100138485Y-49826961D01*
X100111888Y-49824119D01*
X100092219Y-49813447D01*
X100070850Y-49790566D01*
X100069423Y-49788808D01*
X100045894Y-49745301D01*
X100041004Y-49698657D01*
X100055095Y-49651892D01*
X100055637Y-49650832D01*
X100063971Y-49630188D01*
X100064865Y-49618184D01*
X100064120Y-49617098D01*
X100066562Y-49616626D01*
X100066870Y-49616814D01*
X100078565Y-49613990D01*
X100097145Y-49602005D01*
X100140239Y-49577454D01*
X100193450Y-49566271D01*
X100248585Y-49571856D01*
X100302125Y-49593796D01*
X100350552Y-49631680D01*
X100380663Y-49662477D01*
X100397303Y-49612376D01*
X100406603Y-49577687D01*
X100407136Y-49542184D01*
X100393506Y-49510512D01*
X100364143Y-49476219D01*
X100336973Y-49453197D01*
X100280816Y-49423864D01*
X100218000Y-49409752D01*
X100151849Y-49410650D01*
X100085686Y-49426350D01*
X100022834Y-49456640D01*
X99966617Y-49501312D01*
X99954813Y-49514105D01*
X99918593Y-49567609D01*
X99891698Y-49630131D01*
X99877682Y-49693975D01*
X99876551Y-49713094D01*
X99655713Y-49713094D01*
X99656814Y-49670409D01*
X99660964Y-49634547D01*
X99669294Y-49600363D01*
X99682999Y-49560234D01*
X99722263Y-49476089D01*
X99780535Y-49393992D01*
X99853552Y-49324383D01*
X99912862Y-49277786D01*
X99875187Y-49227558D01*
X99845533Y-49186276D01*
X99818824Y-49141954D01*
X99801915Y-49100799D01*
X99792511Y-49056921D01*
X99788320Y-49004432D01*
X99787814Y-48980170D01*
X99788569Y-48971232D01*
X100013270Y-48971232D01*
X100015065Y-49022631D01*
X100032356Y-49071744D01*
X100064581Y-49115017D01*
X100111173Y-49148895D01*
X100122832Y-49154169D01*
X100169424Y-49162849D01*
X100219023Y-49156340D01*
X100267016Y-49136378D01*
X100308787Y-49104696D01*
X100339721Y-49063027D01*
X100350900Y-49027581D01*
X100353612Y-48981219D01*
X100346888Y-48935168D01*
X100331177Y-48898059D01*
X100311624Y-48873978D01*
X100267997Y-48841460D01*
X100217585Y-48824114D01*
X100164473Y-48822407D01*
X100112747Y-48836806D01*
X100066493Y-48867779D01*
X100058435Y-48875794D01*
X100027539Y-48921102D01*
X100013270Y-48971232D01*
X99788569Y-48971232D01*
X99794650Y-48899205D01*
X99816302Y-48827750D01*
X99854307Y-48761940D01*
X99910203Y-48697910D01*
X99937396Y-48673668D01*
X100007238Y-48629297D01*
X100085279Y-48600941D01*
X100168737Y-48589123D01*
X100254832Y-48594363D01*
X100340781Y-48617183D01*
X100370273Y-48631057D01*
X100420191Y-48664639D01*
X100468933Y-48707879D01*
X100511021Y-48755691D01*
X100540973Y-48802988D01*
X100547505Y-48816961D01*
X100576068Y-48902273D01*
X100584735Y-48981219D01*
X100585364Y-48986949D01*
X100575511Y-49069816D01*
X100546627Y-49149701D01*
X100498827Y-49225432D01*
X100496934Y-49227862D01*
X100476495Y-49255188D01*
X100462413Y-49275959D01*
X100457639Y-49285845D01*
X100458042Y-49286612D01*
X100467769Y-49297550D01*
X100487589Y-49317322D01*
X100513855Y-49342268D01*
X100568457Y-49393083D01*
X100591538Y-49358476D01*
X100592063Y-49357699D01*
X100608355Y-49336675D01*
X100634633Y-49305937D01*
X100667381Y-49269490D01*
X100669115Y-49267637D01*
X100946240Y-49267637D01*
X100969786Y-49282812D01*
X100988562Y-49292564D01*
X101020472Y-49306056D01*
X101056831Y-49319343D01*
X101099747Y-49330435D01*
X101153398Y-49339153D01*
X101209566Y-49344452D01*
X101261153Y-49345671D01*
X101301062Y-49342146D01*
X101320931Y-49337667D01*
X101359964Y-49326361D01*
X101401362Y-49312008D01*
X101440906Y-49296327D01*
X101474376Y-49281039D01*
X101497553Y-49267864D01*
X101506216Y-49258521D01*
X101505670Y-49256364D01*
X101492975Y-49244995D01*
X101466684Y-49230920D01*
X101466377Y-49230790D01*
X101683680Y-49230790D01*
X101686218Y-49258521D01*
X101686379Y-49260284D01*
X101704672Y-49287974D01*
X101725408Y-49302864D01*
X101744216Y-49309215D01*
X101762828Y-49302087D01*
X101784361Y-49283615D01*
X101801849Y-49260485D01*
X101802429Y-49258789D01*
X101962798Y-49258789D01*
X102022632Y-49288993D01*
X102052872Y-49302995D01*
X102098218Y-49320930D01*
X102138316Y-49333745D01*
X102175989Y-49341596D01*
X102266332Y-49346403D01*
X102363870Y-49333393D01*
X102394221Y-49325477D01*
X102431517Y-49313399D01*
X102468554Y-49299558D01*
X102500719Y-49285804D01*
X102523400Y-49273988D01*
X102531985Y-49265959D01*
X102529755Y-49262530D01*
X102513789Y-49251826D01*
X102486283Y-49237705D01*
X102451799Y-49222272D01*
X102414898Y-49207633D01*
X102380145Y-49195893D01*
X102378040Y-49195273D01*
X102302109Y-49181145D01*
X102219529Y-49179410D01*
X102136214Y-49189374D01*
X102058079Y-49210340D01*
X101995778Y-49239404D01*
X101991039Y-49241615D01*
X101962798Y-49258789D01*
X101802429Y-49258789D01*
X101809062Y-49239404D01*
X101808221Y-49232006D01*
X101795024Y-49208063D01*
X101770841Y-49189606D01*
X101742191Y-49182215D01*
X101717794Y-49186888D01*
X101694758Y-49204616D01*
X101683680Y-49230790D01*
X101466377Y-49230790D01*
X101431096Y-49215838D01*
X101390506Y-49201449D01*
X101349213Y-49189452D01*
X101311515Y-49181545D01*
X101245742Y-49176233D01*
X101153736Y-49183445D01*
X101064857Y-49206546D01*
X100984439Y-49244509D01*
X100946240Y-49267637D01*
X100669115Y-49267637D01*
X100703083Y-49231344D01*
X100709836Y-49224237D01*
X100741250Y-49189899D01*
X100765969Y-49160772D01*
X100781640Y-49139742D01*
X100785910Y-49129700D01*
X100784559Y-49126222D01*
X100791269Y-49127376D01*
X100801994Y-49126340D01*
X100823886Y-49115800D01*
X100851002Y-49097785D01*
X100899740Y-49061399D01*
X100865806Y-49016788D01*
X100853097Y-48999575D01*
X100792674Y-48902606D01*
X100739669Y-48791659D01*
X100695809Y-48670753D01*
X100686152Y-48633623D01*
X100970873Y-48633623D01*
X100973805Y-48644946D01*
X100978581Y-48656957D01*
X100991999Y-48684366D01*
X101009115Y-48715209D01*
X101020895Y-48735680D01*
X101032715Y-48757674D01*
X101037293Y-48768354D01*
X101037336Y-48768961D01*
X101045226Y-48783516D01*
X101065544Y-48809256D01*
X101096592Y-48844165D01*
X101136671Y-48886230D01*
X101158124Y-48906664D01*
X101228047Y-48959581D01*
X101309913Y-49005358D01*
X101398299Y-49040792D01*
X101426735Y-49049570D01*
X101472653Y-49062684D01*
X101516673Y-49074283D01*
X101581771Y-49090460D01*
X101575613Y-49075698D01*
X101903755Y-49075698D01*
X101908846Y-49082206D01*
X101926712Y-49080935D01*
X101960485Y-49073581D01*
X101984454Y-49067667D01*
X102054224Y-49046835D01*
X102123740Y-49021576D01*
X102183427Y-48995254D01*
X102210213Y-48981346D01*
X102283022Y-48935751D01*
X102345098Y-48882403D01*
X102403094Y-48815869D01*
X102414902Y-48800099D01*
X102445522Y-48754817D01*
X102473312Y-48708205D01*
X102493331Y-48668344D01*
X102513001Y-48622455D01*
X102440666Y-48628570D01*
X102401300Y-48633492D01*
X102307177Y-48657072D01*
X102215145Y-48695485D01*
X102212045Y-48697345D01*
X102130541Y-48746243D01*
X102058699Y-48806854D01*
X102024722Y-48846999D01*
X101985127Y-48905846D01*
X101946929Y-48974453D01*
X101913108Y-49047888D01*
X101908304Y-49059709D01*
X101903755Y-49075698D01*
X101575613Y-49075698D01*
X101567287Y-49055741D01*
X101538955Y-48992739D01*
X101491433Y-48905044D01*
X101440865Y-48831414D01*
X101388985Y-48774582D01*
X101358496Y-48749560D01*
X101288815Y-48705997D01*
X101217167Y-48673620D01*
X101632843Y-48673620D01*
X101637064Y-48772226D01*
X101660428Y-48869170D01*
X101702914Y-48963231D01*
X101717696Y-48987859D01*
X101731987Y-49008291D01*
X101740400Y-49016138D01*
X101744102Y-49014012D01*
X101755917Y-48998221D01*
X101771769Y-48970581D01*
X101789572Y-48935331D01*
X101807238Y-48896712D01*
X101822680Y-48858964D01*
X101833811Y-48826328D01*
X101837436Y-48811605D01*
X101844395Y-48759077D01*
X101846288Y-48697345D01*
X101843348Y-48633484D01*
X101835811Y-48574569D01*
X101823911Y-48527677D01*
X101816468Y-48508936D01*
X101799715Y-48473455D01*
X101780742Y-48439055D01*
X101762110Y-48409921D01*
X101746379Y-48390235D01*
X101736107Y-48384182D01*
X101735642Y-48384381D01*
X101726007Y-48395385D01*
X101711240Y-48418915D01*
X101694341Y-48450229D01*
X101681912Y-48476315D01*
X101647785Y-48574576D01*
X101632843Y-48673620D01*
X101217167Y-48673620D01*
X101208729Y-48669807D01*
X101123992Y-48643391D01*
X101040359Y-48629149D01*
X101010263Y-48626512D01*
X100985415Y-48625281D01*
X100973514Y-48627360D01*
X100970873Y-48633623D01*
X100686152Y-48633623D01*
X100662816Y-48543904D01*
X100638525Y-48428247D01*
X100669496Y-48415307D01*
X100703122Y-48405026D01*
X100753631Y-48395439D01*
X100814551Y-48387878D01*
X100881176Y-48382919D01*
X100948797Y-48381138D01*
X101034796Y-48384605D01*
X101173492Y-48405589D01*
X101307882Y-48445612D01*
X101335447Y-48455745D01*
X101369673Y-48467696D01*
X101393636Y-48475263D01*
X101403351Y-48477129D01*
X101407691Y-48469612D01*
X101418570Y-48448911D01*
X101433173Y-48420215D01*
X101440642Y-48405687D01*
X101486498Y-48327747D01*
X101538296Y-48255739D01*
X101593263Y-48192891D01*
X101648626Y-48142433D01*
X101701612Y-48107594D01*
X101705541Y-48105605D01*
X101730004Y-48095263D01*
X101748806Y-48094374D01*
X101771676Y-48102189D01*
X101771737Y-48102215D01*
X101802298Y-48120050D01*
X101840034Y-48149184D01*
X101880265Y-48185401D01*
X101918310Y-48224490D01*
X101949489Y-48262236D01*
X101968897Y-48290134D01*
X101992594Y-48327143D01*
X102015392Y-48365289D01*
X102034796Y-48400231D01*
X102048311Y-48427627D01*
X102053442Y-48443134D01*
X102054259Y-48453493D01*
X102059524Y-48464580D01*
X102072055Y-48468853D01*
X102094590Y-48466247D01*
X102129865Y-48456698D01*
X102180616Y-48440141D01*
X102219596Y-48427736D01*
X102275156Y-48412114D01*
X102327489Y-48399457D01*
X102369057Y-48391704D01*
X102373286Y-48391131D01*
X102440683Y-48384664D01*
X102513093Y-48381968D01*
X102586449Y-48382810D01*
X102656682Y-48386957D01*
X102719724Y-48394176D01*
X102771508Y-48404231D01*
X102807966Y-48416892D01*
X102818399Y-48422652D01*
X102828221Y-48431646D01*
X102832657Y-48445032D01*
X102831927Y-48466464D01*
X102826252Y-48499597D01*
X102815850Y-48548087D01*
X102796789Y-48622455D01*
X102788167Y-48656092D01*
G37*
%TD*%
D11*
%TO.C,J6*%
X122000000Y-33450000D03*
D12*
X122000000Y-35990000D03*
%TD*%
D13*
%TO.C,J1*%
X77420000Y-30579340D03*
X73620000Y-30579340D03*
X77420000Y-39219340D03*
X73620000Y-39219340D03*
%TD*%
D14*
%TO.C,H2*%
X75000000Y-52000000D03*
%TD*%
D11*
%TO.C,J3*%
X98670000Y-24887000D03*
%TD*%
D15*
%TO.C,J5*%
X121600000Y-40250000D03*
D16*
X121600000Y-42250000D03*
%TD*%
D11*
%TO.C,J4*%
X109170000Y-24887000D03*
%TD*%
D17*
%TO.C,J2*%
X102920000Y-25280000D03*
D18*
X104920000Y-25280000D03*
%TD*%
D14*
%TO.C,H1*%
X120000000Y-27000000D03*
%TD*%
D11*
%TO.C,J7*%
X122000000Y-46500000D03*
D12*
X122000000Y-49040000D03*
%TD*%
D19*
%TO.C,JP9*%
X96650000Y-28240000D03*
X99050000Y-28240000D03*
D20*
X95850000Y-28240000D03*
D21*
X99850000Y-28240000D03*
%TD*%
M02*
