M48
; DRILL file {KiCad 7.0.8} date Wed Dec 11 22:25:09 2024
; FORMAT={-:-/ absolute / metric / decimal}
; #@! TF.CreationDate,2024-12-11T22:25:09+01:00
; #@! TF.GenerationSoftware,Kicad,Pcbnew,7.0.8
; #@! TF.FileFunction,MixedPlating,1,4
FMAT,2
METRIC
; #@! TA.AperFunction,Plated,PTH,ViaDrill
T1C0.400
; #@! TA.AperFunction,Plated,PTH,ComponentDrill
T2C0.600
; #@! TA.AperFunction,Plated,PTH,ComponentDrill
T3C0.750
; #@! TA.AperFunction,Plated,PTH,ComponentDrill
T4C1.000
; #@! TA.AperFunction,Plated,PTH,ComponentDrill
T5C3.200
%
G90
G05
T1
X71.75Y-39.38
X71.75Y-40.65
X71.75Y-41.91
X71.75Y-43.18
X71.75Y-44.45
X71.75Y-45.72
X71.75Y-46.99
X71.75Y-48.26
X71.75Y-49.53
X72.387Y-34.923
X72.39Y-32.416
X72.39Y-33.686
X72.39Y-36.226
X72.39Y-37.496
X73.33Y-47.97
X73.762Y-32.416
X73.762Y-33.686
X73.762Y-34.905
X73.762Y-36.226
X73.762Y-37.496
X74.52Y-26.18
X74.8Y-47.94
X75.23Y-23.75
X76.18Y-47.96
X76.2Y-32.111
X76.5Y-23.75
X77.47Y-55.25
X77.75Y-45.14
X77.77Y-23.75
X78.275Y-46.7
X78.74Y-55.25
X79.14Y-43.7
X79.55Y-38.89
X80.01Y-55.25
X80.264Y-39.98
X80.264Y-41.148
X80.264Y-42.418
X80.264Y-43.688
X81.28Y-55.25
X81.325Y-46.75
X82.042Y-40.894
X82.55Y-55.25
X83.312Y-40.894
X83.82Y-55.25
X84.3Y-46.775
X84.328Y-26.797
X84.328Y-27.94
X84.328Y-30.48
X84.328Y-31.623
X84.328Y-32.766
X84.328Y-33.909
X84.328Y-36.068
X84.582Y-40.894
X85.09Y-55.25
X85.471Y-33.909
X85.852Y-36.068
X86.106Y-42.418
X86.36Y-55.25
X87.13Y-30.48
X87.25Y-44.075
X87.475Y-28.956
X87.63Y-55.25
X88.392Y-34.036
X88.9Y-55.25
X90.17Y-55.25
X90.3Y-46.725
X90.47Y-23.75
X91.44Y-55.25
X91.74Y-23.75
X92.64Y-33.9
X92.71Y-55.25
X93.01Y-23.75
X93.25Y-46.775
X93.35Y-41.85
X93.4Y-37.45
X93.45Y-27.85
X93.98Y-55.25
X94.28Y-23.75
X95.25Y-55.25
X95.55Y-23.75
X95.875Y-30.225
X95.96Y-31.82
X96.2Y-33.55
X96.275Y-46.75
X96.29Y-45.72
X96.52Y-55.25
X97.0Y-48.238
X97.0Y-49.254
X97.79Y-55.25
X99.06Y-55.25
X99.45Y-35.15
X100.01Y-31.63
X100.33Y-55.25
X100.45Y-45.0
X100.91Y-40.905
X101.07Y-31.62
X101.41Y-40.005
X101.6Y-55.25
X101.62Y-45.0
X101.91Y-40.905
X102.16Y-31.62
X102.25Y-35.88
X102.41Y-40.005
X102.87Y-55.25
X102.91Y-40.905
X104.14Y-55.25
X105.41Y-55.25
X105.575Y-29.65
X105.575Y-31.7
X105.575Y-32.7
X105.575Y-34.8
X105.575Y-35.75
X105.575Y-37.75
X105.575Y-38.75
X105.575Y-40.7
X105.87Y-46.75
X106.05Y-41.7
X106.324Y-54.102
X106.35Y-51.16
X106.68Y-55.25
X106.95Y-47.35
X107.0Y-46.2
X107.95Y-55.25
X108.0Y-46.8
X109.22Y-55.25
X109.65Y-46.3
X109.65Y-47.15
X109.8Y-28.975
X110.49Y-55.25
X110.512Y-46.74
X110.7Y-52.9
X110.7Y-53.9
X111.354Y-26.619
X111.4Y-46.3
X111.4Y-47.15
X111.404Y-24.638
X111.5Y-53.4
X111.76Y-55.25
X111.9Y-51.3
X112.014Y-25.654
X112.06Y-23.75
X112.065Y-27.534
X112.624Y-26.619
X112.776Y-24.638
X113.03Y-55.25
X113.1Y-46.15
X113.1Y-47.35
X113.284Y-25.654
X113.33Y-23.75
X113.335Y-27.534
X113.36Y-48.42
X113.36Y-49.39
X113.894Y-26.619
X114.046Y-24.638
X114.046Y-46.736
X114.173Y-47.752
X114.3Y-55.25
X114.554Y-25.654
X114.6Y-23.75
X114.605Y-27.534
X114.9Y-45.1
X115.062Y-47.117
X115.164Y-26.619
X115.316Y-24.638
X115.57Y-55.25
X115.824Y-25.654
X115.87Y-23.75
X115.875Y-27.534
X116.535Y-24.689
X116.84Y-55.25
X117.0Y-40.19
X117.03Y-42.18
X117.14Y-23.75
X117.6Y-30.59
X117.6Y-31.86
X117.6Y-33.12
X117.6Y-34.39
X117.6Y-35.66
X117.6Y-36.93
X118.11Y-55.25
X119.38Y-55.25
X119.71Y-44.723
X119.71Y-45.739
X119.71Y-46.755
X119.71Y-47.771
X119.71Y-48.787
X119.71Y-49.806
X119.71Y-50.822
X119.75Y-31.25
X119.75Y-32.25
X119.75Y-33.25
X119.75Y-34.266
X119.75Y-35.282
X119.75Y-36.301
X119.75Y-37.317
X119.98Y-41.921
X119.98Y-43.064
X120.0Y-39.5
X120.0Y-40.643
X120.65Y-55.125
X121.92Y-54.61
X122.875Y-53.425
X123.19Y-52.07
T3
X102.92Y-25.28
X104.92Y-25.28
X121.6Y-40.25
X121.6Y-42.25
T4
X98.67Y-24.887
X109.17Y-24.887
X122.0Y-33.45
X122.0Y-35.99
X122.0Y-46.5
X122.0Y-49.04
T5
X75.0Y-52.0
X120.0Y-27.0
T2
G00X73.92Y-30.579
M15
G01X73.32Y-30.579
M16
G05
G00X73.92Y-39.219
M15
G01X73.32Y-39.219
M16
G05
G00X77.72Y-30.579
M15
G01X77.12Y-30.579
M16
G05
G00X77.72Y-39.219
M15
G01X77.12Y-39.219
M16
G05
T0
M30
