%TF.GenerationSoftware,KiCad,Pcbnew,7.0.8*%
%TF.CreationDate,2024-12-11T22:25:20+01:00*%
%TF.ProjectId,LiPo_BuckBoost_Charger,4c69506f-5f42-4756-936b-426f6f73745f,rev?*%
%TF.SameCoordinates,Original*%
%TF.FileFunction,Legend,Bot*%
%TF.FilePolarity,Positive*%
%FSLAX46Y46*%
G04 Gerber Fmt 4.6, Leading zero omitted, Abs format (unit mm)*
G04 Created by KiCad (PCBNEW 7.0.8) date 2024-12-11 22:25:20*
%MOMM*%
%LPD*%
G01*
G04 APERTURE LIST*
%ADD10C,0.100000*%
%ADD11C,0.120000*%
G04 APERTURE END LIST*
D10*
X101331353Y-27898514D02*
X101388496Y-27869942D01*
X101388496Y-27869942D02*
X101445639Y-27812800D01*
X101445639Y-27812800D02*
X101531353Y-27727085D01*
X101531353Y-27727085D02*
X101588496Y-27698514D01*
X101588496Y-27698514D02*
X101645639Y-27698514D01*
X101617068Y-27841371D02*
X101674211Y-27812800D01*
X101674211Y-27812800D02*
X101731353Y-27755657D01*
X101731353Y-27755657D02*
X101759925Y-27641371D01*
X101759925Y-27641371D02*
X101759925Y-27441371D01*
X101759925Y-27441371D02*
X101731353Y-27327085D01*
X101731353Y-27327085D02*
X101674211Y-27269942D01*
X101674211Y-27269942D02*
X101617068Y-27241371D01*
X101617068Y-27241371D02*
X101502782Y-27241371D01*
X101502782Y-27241371D02*
X101445639Y-27269942D01*
X101445639Y-27269942D02*
X101388496Y-27327085D01*
X101388496Y-27327085D02*
X101359925Y-27441371D01*
X101359925Y-27441371D02*
X101359925Y-27641371D01*
X101359925Y-27641371D02*
X101388496Y-27755657D01*
X101388496Y-27755657D02*
X101445639Y-27812800D01*
X101445639Y-27812800D02*
X101502782Y-27841371D01*
X101502782Y-27841371D02*
X101617068Y-27841371D01*
X101131354Y-27298514D02*
X101102782Y-27269942D01*
X101102782Y-27269942D02*
X101045640Y-27241371D01*
X101045640Y-27241371D02*
X100902782Y-27241371D01*
X100902782Y-27241371D02*
X100845640Y-27269942D01*
X100845640Y-27269942D02*
X100817068Y-27298514D01*
X100817068Y-27298514D02*
X100788497Y-27355657D01*
X100788497Y-27355657D02*
X100788497Y-27412800D01*
X100788497Y-27412800D02*
X100817068Y-27498514D01*
X100817068Y-27498514D02*
X101159925Y-27841371D01*
X101159925Y-27841371D02*
X100788497Y-27841371D01*
X94605639Y-27211371D02*
X94891353Y-27211371D01*
X94891353Y-27211371D02*
X94891353Y-26611371D01*
X94319925Y-27211371D02*
X94377068Y-27182800D01*
X94377068Y-27182800D02*
X94405639Y-27154228D01*
X94405639Y-27154228D02*
X94434211Y-27097085D01*
X94434211Y-27097085D02*
X94434211Y-26925657D01*
X94434211Y-26925657D02*
X94405639Y-26868514D01*
X94405639Y-26868514D02*
X94377068Y-26839942D01*
X94377068Y-26839942D02*
X94319925Y-26811371D01*
X94319925Y-26811371D02*
X94234211Y-26811371D01*
X94234211Y-26811371D02*
X94177068Y-26839942D01*
X94177068Y-26839942D02*
X94148497Y-26868514D01*
X94148497Y-26868514D02*
X94119925Y-26925657D01*
X94119925Y-26925657D02*
X94119925Y-27097085D01*
X94119925Y-27097085D02*
X94148497Y-27154228D01*
X94148497Y-27154228D02*
X94177068Y-27182800D01*
X94177068Y-27182800D02*
X94234211Y-27211371D01*
X94234211Y-27211371D02*
X94319925Y-27211371D01*
X93605640Y-27211371D02*
X93605640Y-26897085D01*
X93605640Y-26897085D02*
X93634211Y-26839942D01*
X93634211Y-26839942D02*
X93691354Y-26811371D01*
X93691354Y-26811371D02*
X93805640Y-26811371D01*
X93805640Y-26811371D02*
X93862782Y-26839942D01*
X93605640Y-27182800D02*
X93662782Y-27211371D01*
X93662782Y-27211371D02*
X93805640Y-27211371D01*
X93805640Y-27211371D02*
X93862782Y-27182800D01*
X93862782Y-27182800D02*
X93891354Y-27125657D01*
X93891354Y-27125657D02*
X93891354Y-27068514D01*
X93891354Y-27068514D02*
X93862782Y-27011371D01*
X93862782Y-27011371D02*
X93805640Y-26982800D01*
X93805640Y-26982800D02*
X93662782Y-26982800D01*
X93662782Y-26982800D02*
X93605640Y-26954228D01*
X93062783Y-27211371D02*
X93062783Y-26611371D01*
X93062783Y-27182800D02*
X93119925Y-27211371D01*
X93119925Y-27211371D02*
X93234211Y-27211371D01*
X93234211Y-27211371D02*
X93291354Y-27182800D01*
X93291354Y-27182800D02*
X93319925Y-27154228D01*
X93319925Y-27154228D02*
X93348497Y-27097085D01*
X93348497Y-27097085D02*
X93348497Y-26925657D01*
X93348497Y-26925657D02*
X93319925Y-26868514D01*
X93319925Y-26868514D02*
X93291354Y-26839942D01*
X93291354Y-26839942D02*
X93234211Y-26811371D01*
X93234211Y-26811371D02*
X93119925Y-26811371D01*
X93119925Y-26811371D02*
X93062783Y-26839942D01*
X92062783Y-27182800D02*
X92119925Y-27211371D01*
X92119925Y-27211371D02*
X92234211Y-27211371D01*
X92234211Y-27211371D02*
X92291354Y-27182800D01*
X92291354Y-27182800D02*
X92319925Y-27154228D01*
X92319925Y-27154228D02*
X92348497Y-27097085D01*
X92348497Y-27097085D02*
X92348497Y-26925657D01*
X92348497Y-26925657D02*
X92319925Y-26868514D01*
X92319925Y-26868514D02*
X92291354Y-26839942D01*
X92291354Y-26839942D02*
X92234211Y-26811371D01*
X92234211Y-26811371D02*
X92119925Y-26811371D01*
X92119925Y-26811371D02*
X92062783Y-26839942D01*
X91548497Y-26811371D02*
X91548497Y-27211371D01*
X91805639Y-26811371D02*
X91805639Y-27125657D01*
X91805639Y-27125657D02*
X91777068Y-27182800D01*
X91777068Y-27182800D02*
X91719925Y-27211371D01*
X91719925Y-27211371D02*
X91634211Y-27211371D01*
X91634211Y-27211371D02*
X91577068Y-27182800D01*
X91577068Y-27182800D02*
X91548497Y-27154228D01*
X91348497Y-26811371D02*
X91119925Y-26811371D01*
X91262782Y-26611371D02*
X91262782Y-27125657D01*
X91262782Y-27125657D02*
X91234211Y-27182800D01*
X91234211Y-27182800D02*
X91177068Y-27211371D01*
X91177068Y-27211371D02*
X91119925Y-27211371D01*
X90919925Y-26982800D02*
X90462783Y-26982800D01*
X90091354Y-27211371D02*
X90148497Y-27182800D01*
X90148497Y-27182800D02*
X90177068Y-27154228D01*
X90177068Y-27154228D02*
X90205640Y-27097085D01*
X90205640Y-27097085D02*
X90205640Y-26925657D01*
X90205640Y-26925657D02*
X90177068Y-26868514D01*
X90177068Y-26868514D02*
X90148497Y-26839942D01*
X90148497Y-26839942D02*
X90091354Y-26811371D01*
X90091354Y-26811371D02*
X90005640Y-26811371D01*
X90005640Y-26811371D02*
X89948497Y-26839942D01*
X89948497Y-26839942D02*
X89919926Y-26868514D01*
X89919926Y-26868514D02*
X89891354Y-26925657D01*
X89891354Y-26925657D02*
X89891354Y-27097085D01*
X89891354Y-27097085D02*
X89919926Y-27154228D01*
X89919926Y-27154228D02*
X89948497Y-27182800D01*
X89948497Y-27182800D02*
X90005640Y-27211371D01*
X90005640Y-27211371D02*
X90091354Y-27211371D01*
X89719926Y-26811371D02*
X89491354Y-26811371D01*
X89634211Y-27211371D02*
X89634211Y-26697085D01*
X89634211Y-26697085D02*
X89605640Y-26639942D01*
X89605640Y-26639942D02*
X89548497Y-26611371D01*
X89548497Y-26611371D02*
X89491354Y-26611371D01*
X89377069Y-26811371D02*
X89148497Y-26811371D01*
X89291354Y-27211371D02*
X89291354Y-26697085D01*
X89291354Y-26697085D02*
X89262783Y-26639942D01*
X89262783Y-26639942D02*
X89205640Y-26611371D01*
X89205640Y-26611371D02*
X89148497Y-26611371D01*
X88491354Y-27211371D02*
X88491354Y-26611371D01*
X88491354Y-26839942D02*
X88434212Y-26811371D01*
X88434212Y-26811371D02*
X88319926Y-26811371D01*
X88319926Y-26811371D02*
X88262783Y-26839942D01*
X88262783Y-26839942D02*
X88234212Y-26868514D01*
X88234212Y-26868514D02*
X88205640Y-26925657D01*
X88205640Y-26925657D02*
X88205640Y-27097085D01*
X88205640Y-27097085D02*
X88234212Y-27154228D01*
X88234212Y-27154228D02*
X88262783Y-27182800D01*
X88262783Y-27182800D02*
X88319926Y-27211371D01*
X88319926Y-27211371D02*
X88434212Y-27211371D01*
X88434212Y-27211371D02*
X88491354Y-27182800D01*
X88005640Y-26811371D02*
X87862783Y-27211371D01*
X87719926Y-26811371D02*
X87862783Y-27211371D01*
X87862783Y-27211371D02*
X87919926Y-27354228D01*
X87919926Y-27354228D02*
X87948497Y-27382800D01*
X87948497Y-27382800D02*
X88005640Y-27411371D01*
X87491354Y-26811371D02*
X87491354Y-27411371D01*
X87491354Y-26839942D02*
X87434212Y-26811371D01*
X87434212Y-26811371D02*
X87319926Y-26811371D01*
X87319926Y-26811371D02*
X87262783Y-26839942D01*
X87262783Y-26839942D02*
X87234212Y-26868514D01*
X87234212Y-26868514D02*
X87205640Y-26925657D01*
X87205640Y-26925657D02*
X87205640Y-27097085D01*
X87205640Y-27097085D02*
X87234212Y-27154228D01*
X87234212Y-27154228D02*
X87262783Y-27182800D01*
X87262783Y-27182800D02*
X87319926Y-27211371D01*
X87319926Y-27211371D02*
X87434212Y-27211371D01*
X87434212Y-27211371D02*
X87491354Y-27182800D01*
X86691355Y-27211371D02*
X86691355Y-26897085D01*
X86691355Y-26897085D02*
X86719926Y-26839942D01*
X86719926Y-26839942D02*
X86777069Y-26811371D01*
X86777069Y-26811371D02*
X86891355Y-26811371D01*
X86891355Y-26811371D02*
X86948497Y-26839942D01*
X86691355Y-27182800D02*
X86748497Y-27211371D01*
X86748497Y-27211371D02*
X86891355Y-27211371D01*
X86891355Y-27211371D02*
X86948497Y-27182800D01*
X86948497Y-27182800D02*
X86977069Y-27125657D01*
X86977069Y-27125657D02*
X86977069Y-27068514D01*
X86977069Y-27068514D02*
X86948497Y-27011371D01*
X86948497Y-27011371D02*
X86891355Y-26982800D01*
X86891355Y-26982800D02*
X86748497Y-26982800D01*
X86748497Y-26982800D02*
X86691355Y-26954228D01*
X86434212Y-27182800D02*
X86377069Y-27211371D01*
X86377069Y-27211371D02*
X86262783Y-27211371D01*
X86262783Y-27211371D02*
X86205640Y-27182800D01*
X86205640Y-27182800D02*
X86177069Y-27125657D01*
X86177069Y-27125657D02*
X86177069Y-27097085D01*
X86177069Y-27097085D02*
X86205640Y-27039942D01*
X86205640Y-27039942D02*
X86262783Y-27011371D01*
X86262783Y-27011371D02*
X86348498Y-27011371D01*
X86348498Y-27011371D02*
X86405640Y-26982800D01*
X86405640Y-26982800D02*
X86434212Y-26925657D01*
X86434212Y-26925657D02*
X86434212Y-26897085D01*
X86434212Y-26897085D02*
X86405640Y-26839942D01*
X86405640Y-26839942D02*
X86348498Y-26811371D01*
X86348498Y-26811371D02*
X86262783Y-26811371D01*
X86262783Y-26811371D02*
X86205640Y-26839942D01*
X85948498Y-27182800D02*
X85891355Y-27211371D01*
X85891355Y-27211371D02*
X85777069Y-27211371D01*
X85777069Y-27211371D02*
X85719926Y-27182800D01*
X85719926Y-27182800D02*
X85691355Y-27125657D01*
X85691355Y-27125657D02*
X85691355Y-27097085D01*
X85691355Y-27097085D02*
X85719926Y-27039942D01*
X85719926Y-27039942D02*
X85777069Y-27011371D01*
X85777069Y-27011371D02*
X85862784Y-27011371D01*
X85862784Y-27011371D02*
X85919926Y-26982800D01*
X85919926Y-26982800D02*
X85948498Y-26925657D01*
X85948498Y-26925657D02*
X85948498Y-26897085D01*
X85948498Y-26897085D02*
X85919926Y-26839942D01*
X85919926Y-26839942D02*
X85862784Y-26811371D01*
X85862784Y-26811371D02*
X85777069Y-26811371D01*
X85777069Y-26811371D02*
X85719926Y-26839942D01*
X94491353Y-29218514D02*
X94548496Y-29189942D01*
X94548496Y-29189942D02*
X94605639Y-29132800D01*
X94605639Y-29132800D02*
X94691353Y-29047085D01*
X94691353Y-29047085D02*
X94748496Y-29018514D01*
X94748496Y-29018514D02*
X94805639Y-29018514D01*
X94777068Y-29161371D02*
X94834211Y-29132800D01*
X94834211Y-29132800D02*
X94891353Y-29075657D01*
X94891353Y-29075657D02*
X94919925Y-28961371D01*
X94919925Y-28961371D02*
X94919925Y-28761371D01*
X94919925Y-28761371D02*
X94891353Y-28647085D01*
X94891353Y-28647085D02*
X94834211Y-28589942D01*
X94834211Y-28589942D02*
X94777068Y-28561371D01*
X94777068Y-28561371D02*
X94662782Y-28561371D01*
X94662782Y-28561371D02*
X94605639Y-28589942D01*
X94605639Y-28589942D02*
X94548496Y-28647085D01*
X94548496Y-28647085D02*
X94519925Y-28761371D01*
X94519925Y-28761371D02*
X94519925Y-28961371D01*
X94519925Y-28961371D02*
X94548496Y-29075657D01*
X94548496Y-29075657D02*
X94605639Y-29132800D01*
X94605639Y-29132800D02*
X94662782Y-29161371D01*
X94662782Y-29161371D02*
X94777068Y-29161371D01*
X93948497Y-29161371D02*
X94291354Y-29161371D01*
X94119925Y-29161371D02*
X94119925Y-28561371D01*
X94119925Y-28561371D02*
X94177068Y-28647085D01*
X94177068Y-28647085D02*
X94234211Y-28704228D01*
X94234211Y-28704228D02*
X94291354Y-28732800D01*
X88245238Y-23944895D02*
X88245238Y-24516323D01*
X88245238Y-24516323D02*
X88283333Y-24630609D01*
X88283333Y-24630609D02*
X88359524Y-24706800D01*
X88359524Y-24706800D02*
X88473809Y-24744895D01*
X88473809Y-24744895D02*
X88550000Y-24744895D01*
X87483333Y-24744895D02*
X87864285Y-24744895D01*
X87864285Y-24744895D02*
X87864285Y-23944895D01*
X86759523Y-24668704D02*
X86797619Y-24706800D01*
X86797619Y-24706800D02*
X86911904Y-24744895D01*
X86911904Y-24744895D02*
X86988095Y-24744895D01*
X86988095Y-24744895D02*
X87102381Y-24706800D01*
X87102381Y-24706800D02*
X87178571Y-24630609D01*
X87178571Y-24630609D02*
X87216666Y-24554419D01*
X87216666Y-24554419D02*
X87254762Y-24402038D01*
X87254762Y-24402038D02*
X87254762Y-24287752D01*
X87254762Y-24287752D02*
X87216666Y-24135371D01*
X87216666Y-24135371D02*
X87178571Y-24059180D01*
X87178571Y-24059180D02*
X87102381Y-23982990D01*
X87102381Y-23982990D02*
X86988095Y-23944895D01*
X86988095Y-23944895D02*
X86911904Y-23944895D01*
X86911904Y-23944895D02*
X86797619Y-23982990D01*
X86797619Y-23982990D02*
X86759523Y-24021085D01*
X86188095Y-23944895D02*
X86188095Y-24516323D01*
X86188095Y-24516323D02*
X86226190Y-24630609D01*
X86226190Y-24630609D02*
X86302381Y-24706800D01*
X86302381Y-24706800D02*
X86416666Y-24744895D01*
X86416666Y-24744895D02*
X86492857Y-24744895D01*
X85426190Y-24744895D02*
X85807142Y-24744895D01*
X85807142Y-24744895D02*
X85807142Y-23944895D01*
X84702380Y-24668704D02*
X84740476Y-24706800D01*
X84740476Y-24706800D02*
X84854761Y-24744895D01*
X84854761Y-24744895D02*
X84930952Y-24744895D01*
X84930952Y-24744895D02*
X85045238Y-24706800D01*
X85045238Y-24706800D02*
X85121428Y-24630609D01*
X85121428Y-24630609D02*
X85159523Y-24554419D01*
X85159523Y-24554419D02*
X85197619Y-24402038D01*
X85197619Y-24402038D02*
X85197619Y-24287752D01*
X85197619Y-24287752D02*
X85159523Y-24135371D01*
X85159523Y-24135371D02*
X85121428Y-24059180D01*
X85121428Y-24059180D02*
X85045238Y-23982990D01*
X85045238Y-23982990D02*
X84930952Y-23944895D01*
X84930952Y-23944895D02*
X84854761Y-23944895D01*
X84854761Y-23944895D02*
X84740476Y-23982990D01*
X84740476Y-23982990D02*
X84702380Y-24021085D01*
X84130952Y-23944895D02*
X84130952Y-24516323D01*
X84130952Y-24516323D02*
X84169047Y-24630609D01*
X84169047Y-24630609D02*
X84245238Y-24706800D01*
X84245238Y-24706800D02*
X84359523Y-24744895D01*
X84359523Y-24744895D02*
X84435714Y-24744895D01*
X83369047Y-24744895D02*
X83749999Y-24744895D01*
X83749999Y-24744895D02*
X83749999Y-23944895D01*
X82645237Y-24668704D02*
X82683333Y-24706800D01*
X82683333Y-24706800D02*
X82797618Y-24744895D01*
X82797618Y-24744895D02*
X82873809Y-24744895D01*
X82873809Y-24744895D02*
X82988095Y-24706800D01*
X82988095Y-24706800D02*
X83064285Y-24630609D01*
X83064285Y-24630609D02*
X83102380Y-24554419D01*
X83102380Y-24554419D02*
X83140476Y-24402038D01*
X83140476Y-24402038D02*
X83140476Y-24287752D01*
X83140476Y-24287752D02*
X83102380Y-24135371D01*
X83102380Y-24135371D02*
X83064285Y-24059180D01*
X83064285Y-24059180D02*
X82988095Y-23982990D01*
X82988095Y-23982990D02*
X82873809Y-23944895D01*
X82873809Y-23944895D02*
X82797618Y-23944895D01*
X82797618Y-23944895D02*
X82683333Y-23982990D01*
X82683333Y-23982990D02*
X82645237Y-24021085D01*
X82073809Y-23944895D02*
X82073809Y-24516323D01*
X82073809Y-24516323D02*
X82111904Y-24630609D01*
X82111904Y-24630609D02*
X82188095Y-24706800D01*
X82188095Y-24706800D02*
X82302380Y-24744895D01*
X82302380Y-24744895D02*
X82378571Y-24744895D01*
X81311904Y-24744895D02*
X81692856Y-24744895D01*
X81692856Y-24744895D02*
X81692856Y-23944895D01*
X80588094Y-24668704D02*
X80626190Y-24706800D01*
X80626190Y-24706800D02*
X80740475Y-24744895D01*
X80740475Y-24744895D02*
X80816666Y-24744895D01*
X80816666Y-24744895D02*
X80930952Y-24706800D01*
X80930952Y-24706800D02*
X81007142Y-24630609D01*
X81007142Y-24630609D02*
X81045237Y-24554419D01*
X81045237Y-24554419D02*
X81083333Y-24402038D01*
X81083333Y-24402038D02*
X81083333Y-24287752D01*
X81083333Y-24287752D02*
X81045237Y-24135371D01*
X81045237Y-24135371D02*
X81007142Y-24059180D01*
X81007142Y-24059180D02*
X80930952Y-23982990D01*
X80930952Y-23982990D02*
X80816666Y-23944895D01*
X80816666Y-23944895D02*
X80740475Y-23944895D01*
X80740475Y-23944895D02*
X80626190Y-23982990D01*
X80626190Y-23982990D02*
X80588094Y-24021085D01*
D11*
%TO.C,JP9*%
X95100000Y-27290000D02*
X95100000Y-29240000D01*
X95100000Y-29240000D02*
X100600000Y-29240000D01*
X96150000Y-26740000D02*
X96750000Y-26740000D01*
X96450000Y-27040000D02*
X96150000Y-26740000D01*
X96750000Y-26740000D02*
X96450000Y-27040000D01*
X100600000Y-27290000D02*
X95100000Y-27290000D01*
X100600000Y-29240000D02*
X100600000Y-27290000D01*
%TD*%
M02*
