%TF.GenerationSoftware,KiCad,Pcbnew,7.0.8*%
%TF.CreationDate,2024-12-11T22:25:20+01:00*%
%TF.ProjectId,LiPo_BuckBoost_Charger,4c69506f-5f42-4756-936b-426f6f73745f,rev?*%
%TF.SameCoordinates,Original*%
%TF.FileFunction,Soldermask,Top*%
%TF.FilePolarity,Negative*%
%FSLAX46Y46*%
G04 Gerber Fmt 4.6, Leading zero omitted, Abs format (unit mm)*
G04 Created by KiCad (PCBNEW 7.0.8) date 2024-12-11 22:25:20*
%MOMM*%
%LPD*%
G01*
G04 APERTURE LIST*
G04 Aperture macros list*
%AMRoundRect*
0 Rectangle with rounded corners*
0 $1 Rounding radius*
0 $2 $3 $4 $5 $6 $7 $8 $9 X,Y pos of 4 corners*
0 Add a 4 corners polygon primitive as box body*
4,1,4,$2,$3,$4,$5,$6,$7,$8,$9,$2,$3,0*
0 Add four circle primitives for the rounded corners*
1,1,$1+$1,$2,$3*
1,1,$1+$1,$4,$5*
1,1,$1+$1,$6,$7*
1,1,$1+$1,$8,$9*
0 Add four rect primitives between the rounded corners*
20,1,$1+$1,$2,$3,$4,$5,0*
20,1,$1+$1,$4,$5,$6,$7,0*
20,1,$1+$1,$6,$7,$8,$9,0*
20,1,$1+$1,$8,$9,$2,$3,0*%
%AMFreePoly0*
4,1,6,1.000000,0.000000,0.500000,-0.750000,-0.500000,-0.750000,-0.500000,0.750000,0.500000,0.750000,1.000000,0.000000,1.000000,0.000000,$1*%
%AMFreePoly1*
4,1,6,0.500000,-0.750000,-0.650000,-0.750000,-0.150000,0.000000,-0.650000,0.750000,0.500000,0.750000,0.500000,-0.750000,0.500000,-0.750000,$1*%
G04 Aperture macros list end*
%ADD10RoundRect,0.250000X0.450000X-0.262500X0.450000X0.262500X-0.450000X0.262500X-0.450000X-0.262500X0*%
%ADD11RoundRect,0.150000X-0.587500X-0.150000X0.587500X-0.150000X0.587500X0.150000X-0.587500X0.150000X0*%
%ADD12R,1.700000X1.700000*%
%ADD13O,1.700000X1.700000*%
%ADD14RoundRect,0.175000X-0.750000X0.175000X-0.750000X-0.175000X0.750000X-0.175000X0.750000X0.175000X0*%
%ADD15RoundRect,0.190000X0.735000X-0.190000X0.735000X0.190000X-0.735000X0.190000X-0.735000X-0.190000X0*%
%ADD16RoundRect,0.200000X0.725000X-0.200000X0.725000X0.200000X-0.725000X0.200000X-0.725000X-0.200000X0*%
%ADD17RoundRect,0.175000X0.750000X-0.175000X0.750000X0.175000X-0.750000X0.175000X-0.750000X-0.175000X0*%
%ADD18RoundRect,0.190000X-0.735000X0.190000X-0.735000X-0.190000X0.735000X-0.190000X0.735000X0.190000X0*%
%ADD19RoundRect,0.200000X-0.725000X0.200000X-0.725000X-0.200000X0.725000X-0.200000X0.725000X0.200000X0*%
%ADD20O,1.700000X1.100000*%
%ADD21RoundRect,0.250000X-0.262500X-0.450000X0.262500X-0.450000X0.262500X0.450000X-0.262500X0.450000X0*%
%ADD22RoundRect,0.250000X-0.450000X0.262500X-0.450000X-0.262500X0.450000X-0.262500X0.450000X0.262500X0*%
%ADD23RoundRect,0.250000X0.337500X0.475000X-0.337500X0.475000X-0.337500X-0.475000X0.337500X-0.475000X0*%
%ADD24RoundRect,0.250000X0.650000X-1.000000X0.650000X1.000000X-0.650000X1.000000X-0.650000X-1.000000X0*%
%ADD25RoundRect,0.162500X0.162500X-0.825000X0.162500X0.825000X-0.162500X0.825000X-0.162500X-0.825000X0*%
%ADD26FreePoly0,90.000000*%
%ADD27FreePoly1,90.000000*%
%ADD28RoundRect,0.243750X0.456250X-0.243750X0.456250X0.243750X-0.456250X0.243750X-0.456250X-0.243750X0*%
%ADD29RoundRect,0.237500X0.300000X0.237500X-0.300000X0.237500X-0.300000X-0.237500X0.300000X-0.237500X0*%
%ADD30RoundRect,0.250000X0.250000X0.475000X-0.250000X0.475000X-0.250000X-0.475000X0.250000X-0.475000X0*%
%ADD31RoundRect,0.250000X0.325000X0.650000X-0.325000X0.650000X-0.325000X-0.650000X0.325000X-0.650000X0*%
%ADD32RoundRect,0.100000X-0.100000X0.637500X-0.100000X-0.637500X0.100000X-0.637500X0.100000X0.637500X0*%
%ADD33C,5.600000*%
%ADD34RoundRect,0.250000X0.475000X-0.337500X0.475000X0.337500X-0.475000X0.337500X-0.475000X-0.337500X0*%
%ADD35FreePoly0,270.000000*%
%ADD36FreePoly1,270.000000*%
%ADD37RoundRect,0.250000X-0.625000X0.350000X-0.625000X-0.350000X0.625000X-0.350000X0.625000X0.350000X0*%
%ADD38O,1.750000X1.200000*%
%ADD39RoundRect,0.250000X-0.625000X0.375000X-0.625000X-0.375000X0.625000X-0.375000X0.625000X0.375000X0*%
%ADD40RoundRect,0.237500X0.237500X-0.300000X0.237500X0.300000X-0.237500X0.300000X-0.237500X-0.300000X0*%
%ADD41RoundRect,0.150000X0.150000X-0.512500X0.150000X0.512500X-0.150000X0.512500X-0.150000X-0.512500X0*%
%ADD42O,0.444000X0.804000*%
%ADD43RoundRect,0.102000X-1.425000X0.790000X-1.425000X-0.790000X1.425000X-0.790000X1.425000X0.790000X0*%
%ADD44RoundRect,0.102000X-0.287500X0.100000X-0.287500X-0.100000X0.287500X-0.100000X0.287500X0.100000X0*%
%ADD45RoundRect,0.250000X0.262500X0.450000X-0.262500X0.450000X-0.262500X-0.450000X0.262500X-0.450000X0*%
%ADD46RoundRect,0.250000X-1.425000X0.362500X-1.425000X-0.362500X1.425000X-0.362500X1.425000X0.362500X0*%
%ADD47RoundRect,0.250000X-0.350000X-0.625000X0.350000X-0.625000X0.350000X0.625000X-0.350000X0.625000X0*%
%ADD48O,1.200000X1.750000*%
%ADD49R,1.100000X2.400000*%
%ADD50R,1.800000X4.500000*%
%ADD51RoundRect,0.250000X0.900000X-1.000000X0.900000X1.000000X-0.900000X1.000000X-0.900000X-1.000000X0*%
%ADD52RoundRect,0.150000X0.587500X0.150000X-0.587500X0.150000X-0.587500X-0.150000X0.587500X-0.150000X0*%
G04 APERTURE END LIST*
D10*
%TO.C,R9*%
X85800000Y-48575000D03*
X85800000Y-46750000D03*
%TD*%
D11*
%TO.C,Q2*%
X97900000Y-29550000D03*
X97900000Y-31450000D03*
X99775000Y-30500000D03*
%TD*%
D12*
%TO.C,J6*%
X122000000Y-33450000D03*
D13*
X122000000Y-35990000D03*
%TD*%
D14*
%TO.C,J1*%
X77825000Y-34399340D03*
D15*
X77825000Y-36419340D03*
D16*
X77825000Y-37649340D03*
D17*
X77825000Y-35399340D03*
D18*
X77825000Y-33379340D03*
D19*
X77825000Y-32149340D03*
D20*
X77420000Y-30579340D03*
X73620000Y-30579340D03*
X77420000Y-39219340D03*
X73620000Y-39219340D03*
%TD*%
D21*
%TO.C,R19*%
X97667500Y-33800000D03*
X99492500Y-33800000D03*
%TD*%
D22*
%TO.C,R14*%
X117020000Y-44847500D03*
X117020000Y-46672500D03*
%TD*%
D23*
%TO.C,C1*%
X89683500Y-35500000D03*
X87608500Y-35500000D03*
%TD*%
D22*
%TO.C,R5*%
X90620000Y-39981500D03*
X90620000Y-41806500D03*
%TD*%
D24*
%TO.C,D4*%
X74650000Y-45900000D03*
X74650000Y-41900000D03*
%TD*%
D25*
%TO.C,U1*%
X85860000Y-32287500D03*
X87130000Y-32287500D03*
X88400000Y-32287500D03*
X89670000Y-32287500D03*
X89670000Y-27212500D03*
X88400000Y-27212500D03*
X87130000Y-27212500D03*
X85860000Y-27212500D03*
%TD*%
D26*
%TO.C,JP2*%
X91780000Y-52210000D03*
D27*
X91780000Y-50760000D03*
%TD*%
D22*
%TO.C,R15*%
X112612500Y-35387500D03*
X112612500Y-37212500D03*
%TD*%
D21*
%TO.C,R2*%
X81150000Y-32250000D03*
X82975000Y-32250000D03*
%TD*%
D28*
%TO.C,D2*%
X76265000Y-27967500D03*
X76265000Y-26092500D03*
%TD*%
D29*
%TO.C,C3*%
X96712500Y-37450000D03*
X94987500Y-37450000D03*
%TD*%
D30*
%TO.C,C4*%
X109469000Y-53550000D03*
X107569000Y-53550000D03*
%TD*%
D26*
%TO.C,JP4*%
X85780000Y-52210000D03*
D27*
X85780000Y-50760000D03*
%TD*%
D31*
%TO.C,C7*%
X109800000Y-39800000D03*
X106850000Y-39800000D03*
%TD*%
D32*
%TO.C,U3*%
X102900000Y-37642500D03*
X102250000Y-37642500D03*
X101600000Y-37642500D03*
X100950000Y-37642500D03*
X100950000Y-43367500D03*
X101600000Y-43367500D03*
X102250000Y-43367500D03*
X102900000Y-43367500D03*
%TD*%
D26*
%TO.C,JP1*%
X94780000Y-52210000D03*
D27*
X94780000Y-50760000D03*
%TD*%
D33*
%TO.C,H2*%
X75000000Y-52000000D03*
%TD*%
D10*
%TO.C,R10*%
X82750000Y-48575000D03*
X82750000Y-46750000D03*
%TD*%
D30*
%TO.C,C5*%
X109469000Y-50550000D03*
X107569000Y-50550000D03*
%TD*%
D10*
%TO.C,R6*%
X94750000Y-48587500D03*
X94750000Y-46762500D03*
%TD*%
D34*
%TO.C,C2*%
X91700000Y-27237500D03*
X91700000Y-25162500D03*
%TD*%
D21*
%TO.C,R17*%
X112887500Y-39520000D03*
X114712500Y-39520000D03*
%TD*%
D22*
%TO.C,R13*%
X97980000Y-44437500D03*
X97980000Y-46262500D03*
%TD*%
D28*
%TO.C,D1*%
X73015000Y-27967500D03*
X73015000Y-26092500D03*
%TD*%
D31*
%TO.C,C6*%
X110275000Y-42800000D03*
X107325000Y-42800000D03*
%TD*%
%TO.C,C10*%
X109800000Y-30800000D03*
X106850000Y-30800000D03*
%TD*%
D26*
%TO.C,JP6*%
X79780000Y-52210000D03*
D27*
X79780000Y-50760000D03*
%TD*%
D10*
%TO.C,R8*%
X88800000Y-48587500D03*
X88800000Y-46762500D03*
%TD*%
D12*
%TO.C,J3*%
X98670000Y-24887000D03*
%TD*%
D35*
%TO.C,JP8*%
X115750000Y-30375000D03*
D36*
X115750000Y-31825000D03*
%TD*%
D22*
%TO.C,R16*%
X115762500Y-35387500D03*
X115762500Y-37212500D03*
%TD*%
D37*
%TO.C,J5*%
X121600000Y-40250000D03*
D38*
X121600000Y-42250000D03*
%TD*%
D39*
%TO.C,F1*%
X95350000Y-25350000D03*
X95350000Y-28150000D03*
%TD*%
D10*
%TO.C,R4*%
X79265000Y-27942500D03*
X79265000Y-26117500D03*
%TD*%
D12*
%TO.C,J4*%
X109170000Y-24887000D03*
%TD*%
D40*
%TO.C,C11*%
X114570000Y-43322500D03*
X114570000Y-41597500D03*
%TD*%
D41*
%TO.C,U2*%
X95837500Y-41780000D03*
X96787500Y-41780000D03*
X97737500Y-41780000D03*
X97737500Y-39505000D03*
X96787500Y-39505000D03*
X95837500Y-39505000D03*
%TD*%
D21*
%TO.C,R1*%
X81150000Y-35000000D03*
X82975000Y-35000000D03*
%TD*%
D31*
%TO.C,C9*%
X109775000Y-33800000D03*
X106825000Y-33800000D03*
%TD*%
D42*
%TO.C,U4*%
X112012500Y-45340000D03*
X111512500Y-45340000D03*
X111012500Y-45340000D03*
X110512500Y-45340000D03*
X110012500Y-45340000D03*
X109512500Y-45340000D03*
X109012500Y-45340000D03*
X109012500Y-48140000D03*
X109512500Y-48140000D03*
X110012500Y-48140000D03*
X110512500Y-48140000D03*
X111012500Y-48140000D03*
X111512500Y-48140000D03*
X112012500Y-48140000D03*
D43*
X110512500Y-46740000D03*
D44*
X112225000Y-46050000D03*
X112225000Y-46510000D03*
X112225000Y-46970000D03*
X112225000Y-47430000D03*
X108800000Y-47430000D03*
X108800000Y-46970000D03*
X108800000Y-46510000D03*
X108800000Y-46050000D03*
%TD*%
D10*
%TO.C,R7*%
X91800000Y-48587500D03*
X91800000Y-46762500D03*
%TD*%
D45*
%TO.C,R12*%
X94062500Y-35500000D03*
X92237500Y-35500000D03*
%TD*%
D35*
%TO.C,JP7*%
X112600000Y-30375000D03*
D36*
X112600000Y-31825000D03*
%TD*%
D10*
%TO.C,R3*%
X82296000Y-27941000D03*
X82296000Y-26116000D03*
%TD*%
D22*
%TO.C,R20*%
X77750000Y-42087500D03*
X77750000Y-43912500D03*
%TD*%
D46*
%TO.C,R18*%
X90600000Y-37677500D03*
X90600000Y-43602500D03*
%TD*%
D47*
%TO.C,J2*%
X102920000Y-25280000D03*
D48*
X104920000Y-25280000D03*
%TD*%
D49*
%TO.C,L1*%
X104820000Y-51158852D03*
D50*
X103370000Y-51158852D03*
X100370000Y-51158852D03*
D49*
X98920000Y-51158852D03*
%TD*%
D31*
%TO.C,C8*%
X109800000Y-36800000D03*
X106850000Y-36800000D03*
%TD*%
D51*
%TO.C,D3*%
X83220000Y-42940000D03*
X83220000Y-38640000D03*
%TD*%
D33*
%TO.C,H1*%
X120000000Y-27000000D03*
%TD*%
D12*
%TO.C,J7*%
X122000000Y-46500000D03*
D13*
X122000000Y-49040000D03*
%TD*%
D26*
%TO.C,JP3*%
X88780000Y-52210000D03*
D27*
X88780000Y-50760000D03*
%TD*%
D10*
%TO.C,R11*%
X79800000Y-48575000D03*
X79800000Y-46750000D03*
%TD*%
D52*
%TO.C,Q1*%
X94100000Y-32400000D03*
X94100000Y-30500000D03*
X92225000Y-31450000D03*
%TD*%
D26*
%TO.C,JP5*%
X82780000Y-52210000D03*
D27*
X82780000Y-50760000D03*
%TD*%
M02*
